<?xml version="1.0" encoding="UTF-8"?> <svg xmlns="http://www.w3.org/2000/svg" xmlns:xlink="http://www.w3.org/1999/xlink" viewBox="0 0 429.31 325.56"><defs><style>.cls-1{isolation:isolate;}.cls-2,.cls-8{fill:#7694a3;mix-blend-mode:multiply;}.cls-2{opacity:0.4;}.cls-3{fill:#abb9d1;}.cls-4{fill:#f6f8fb;}.cls-5{fill:url(#Безымянный_градиент_22);}.cls-6{fill:#321a92;}.cls-7{fill:#697691;}.cls-8{opacity:0.6;}.cls-9{fill:url(#Безымянный_градиент_20);}.cls-10{fill:url(#Безымянный_градиент_22-2);}.cls-11,.cls-15{fill:#fff;}.cls-12{fill:url(#Безымянный_градиент_22-3);}.cls-13{fill:url(#Безымянный_градиент_20-2);}.cls-14{fill:#f1f2f2;opacity:0.2;}.cls-15{opacity:0.55;}.cls-16{fill:url(#Безымянный_градиент_20-3);}.cls-17{fill:url(#Безымянный_градиент_20-4);}.cls-18{fill:url(#Безымянный_градиент_22-4);}.cls-19{fill:url(#Безымянный_градиент_20-5);}.cls-20{fill:url(#Безымянный_градиент_20-6);}.cls-21{fill:url(#Безымянный_градиент_20-7);}.cls-22{fill:url(#Безымянный_градиент_20-8);}.cls-23{fill:url(#Безымянный_градиент_20-9);}.cls-24{fill:url(#Безымянный_градиент_20-10);}.cls-25{fill:url(#Безымянный_градиент_20-11);}.cls-26{fill:url(#Безымянный_градиент_20-12);}.cls-27{fill:url(#Безымянный_градиент_20-13);}.cls-28{fill:url(#Безымянный_градиент_20-14);}.cls-29{fill:url(#Безымянный_градиент_20-15);}</style><linearGradient id="Безымянный_градиент_22" x1="-9476.01" y1="4077.55" x2="-9489.45" y2="3515.21" gradientTransform="matrix(0.87, 0.5, -1, 0.58, 12050.02, 2833.92)" gradientUnits="userSpaceOnUse"><stop offset="0" stop-color="#4869c6"></stop><stop offset="1" stop-color="#2c30d0"></stop></linearGradient><linearGradient id="Безымянный_градиент_20" x1="278.79" y1="320.01" x2="370.33" y2="238.94" gradientUnits="userSpaceOnUse"><stop offset="0" stop-color="#9ab5ff"></stop><stop offset="1" stop-color="#4869c6"></stop></linearGradient><linearGradient id="Безымянный_градиент_22-2" x1="287.93" y1="310.21" x2="343.54" y2="277.35" gradientTransform="matrix(1, 0, 0, 1, 0, 0)" xlink:href="#Безымянный_градиент_22"></linearGradient><linearGradient id="Безымянный_градиент_22-3" x1="205.79" y1="192.87" x2="181.17" y2="274.29" gradientTransform="matrix(1, 0, 0, 1, 0, 0)" xlink:href="#Безымянный_градиент_22"></linearGradient><linearGradient id="Безымянный_градиент_20-2" x1="-864.83" y1="4670.3" x2="-864.83" y2="4544.27" gradientTransform="matrix(0.87, 0.5, 0, 1.15, 943.46, -4651.82)" xlink:href="#Безымянный_градиент_20"></linearGradient><linearGradient id="Безымянный_градиент_20-3" x1="-512.47" y1="3637.07" x2="-512.47" y2="3433.49" gradientTransform="matrix(0.87, 0.5, 0, 1.15, 590.44, -3775.64)" xlink:href="#Безымянный_градиент_20"></linearGradient><linearGradient id="Безымянный_градиент_20-4" x1="351.23" y1="284.06" x2="387.35" y2="210.97" xlink:href="#Безымянный_градиент_20"></linearGradient><linearGradient id="Безымянный_градиент_22-4" x1="429.19" y1="360.91" x2="475.53" y2="324.24" gradientTransform="matrix(1, 0, 0, 1, 0, 0)" xlink:href="#Безымянный_градиент_22"></linearGradient><linearGradient id="Безымянный_градиент_20-5" x1="405.6" y1="369.24" x2="494.94" y2="312.91" xlink:href="#Безымянный_градиент_20"></linearGradient><linearGradient id="Безымянный_градиент_20-6" x1="496.17" y1="299.26" x2="550.52" y2="251.12" xlink:href="#Безымянный_градиент_20"></linearGradient><linearGradient id="Безымянный_градиент_20-7" x1="504.28" y1="290.56" x2="543.32" y2="267.49" xlink:href="#Безымянный_градиент_20"></linearGradient><linearGradient id="Безымянный_градиент_20-8" x1="296.08" y1="76.62" x2="279.15" y2="-87.26" xlink:href="#Безымянный_градиент_20"></linearGradient><linearGradient id="Безымянный_градиент_20-9" x1="191.18" y1="84.61" x2="268.64" y2="83.18" xlink:href="#Безымянный_градиент_20"></linearGradient><linearGradient id="Безымянный_градиент_20-10" x1="222.74" y1="57.26" x2="331.12" y2="105.87" xlink:href="#Безымянный_градиент_20"></linearGradient><linearGradient id="Безымянный_градиент_20-11" x1="261.69" y1="137.9" x2="380.78" y2="135.43" xlink:href="#Безымянный_градиент_20"></linearGradient><linearGradient id="Безымянный_градиент_20-12" x1="447.39" y1="66.62" x2="262.68" y2="143.68" xlink:href="#Безымянный_градиент_20"></linearGradient><linearGradient id="Безымянный_градиент_20-13" x1="263.29" y1="124.29" x2="263.29" y2="29.3" xlink:href="#Безымянный_градиент_20"></linearGradient><linearGradient id="Безымянный_градиент_20-14" x1="290" y1="-39.35" x2="290" y2="38.31" xlink:href="#Безымянный_градиент_20"></linearGradient><linearGradient id="Безымянный_градиент_20-15" x1="185.43" y1="264.12" x2="281.03" y2="39.98" xlink:href="#Безымянный_градиент_20"></linearGradient></defs><title>E-commerce and Retail</title><g class="cls-1"><g id="Слой_1" data-name="Слой 1"><path class="cls-2" d="M255.91,385.21l-128.11-74c-6.6-3.81-5.77-10.47,1.85-14.87l258.1-149c7.62-4.4,19.15-4.88,25.75-1.07l128.11,74c6.6,3.81,5.77,10.47-1.85,14.87l-258.1,149C274,388.54,262.51,389,255.91,385.21Z" transform="translate(-122.85 -62.22)"></path><path class="cls-3" d="M545.57,205.4,413,135.62c-6.6-3.81-18.13-3.33-25.75,1.07L122.93,284.08v9.11c-.42,2.75,1,5.44,4.37,7.39l128.11,74c6.6,3.81,18.13,3.33,25.75-1.07l258.1-149c4.17-2.41,6.29-5.49,6.29-8.41h0Z" transform="translate(-122.85 -62.22)"></path><path class="cls-4" d="M255.41,363.9l-128.11-74c-6.6-3.81-5.77-10.47,1.85-14.87l258.1-149c7.62-4.4,19.15-4.88,25.75-1.07l128.11,74c6.6,3.81,5.77,10.47-1.85,14.87l-258.1,149C273.54,367.23,262,367.71,255.41,363.9Z" transform="translate(-122.85 -62.22)"></path><polygon class="cls-5" points="264.79 67.61 36.16 199.42 181.26 283.2 409.89 151.38 264.79 67.61"></polygon><path class="cls-6" d="M478.19,174.56,455.57,161.5c-.45-.26-.4-.72.13-1l.27-.16a2,2,0,0,1,1.77-.07l22.62,13.06c.45.26.4.72-.13,1l-.27.16A2,2,0,0,1,478.19,174.56Z" transform="translate(-122.85 -62.22)"></path><path class="cls-6" d="M452.15,158.23a2.34,2.34,0,0,1-2.12,0,.64.64,0,0,1,0-1.22,2.34,2.34,0,0,1,2.12,0A.64.64,0,0,1,452.15,158.23Z" transform="translate(-122.85 -62.22)"></path><polygon class="cls-7" points="51.56 262.29 76.67 276.78 76.67 272.83 51.56 258.33 51.56 262.29"></polygon><path class="cls-8" d="M340.31,306.44l-31.15-18c-2.32-1.34-6.38-1.17-9.06.38l-29.85,17.23c-1.49.86-2.24,2-2.22,3a2.71,2.71,0,0,0,1.57,2.22l31.15,18c2.32,1.34,6.38,1.17,9.06-.38l29.85-17.23c1.52-.88,2.27-2,2.21-3.06A2.73,2.73,0,0,0,340.31,306.44Z" transform="translate(-122.85 -62.22)"></path><path class="cls-9" d="M340.31,294.43l-31.17-18c-2.32-1.34-6.38-1.17-9.07.38L270.22,294c-1.5.86-2.25,2-2.22,3a2.72,2.72,0,0,0,1.57,2.22l31.17,18c2.32,1.34,6.38,1.17,9.07-.38l29.86-17.24c1.52-.88,2.27-2,2.22-3.07A2.74,2.74,0,0,0,340.31,294.43Z" transform="translate(-122.85 -62.22)"></path><path class="cls-10" d="M341.88,296.6c.05,1.06-.7,2.19-2.22,3.07l-29.78,17c-2.68,1.55-6.76,1.8-9.08.46l-31.23-17.87a2.72,2.72,0,0,1-1.57-2.22h0v4.85h0a2.69,2.69,0,0,0,1.56,2.27l31.17,18c2.32,1.34,6.38,1.17,9.07-.38l29.86-17.24c1.47-.85,2.21-1.93,2.21-3h0v-5Z" transform="translate(-122.85 -62.22)"></path><path class="cls-11" d="M291.07,299.38a4.59,4.59,0,0,0-4.15,0,1.26,1.26,0,0,0,0,2.4,4.59,4.59,0,0,0,4.15,0A1.26,1.26,0,0,0,291.07,299.38Z" transform="translate(-122.85 -62.22)"></path><path class="cls-11" d="M299.79,304.41a4.59,4.59,0,0,0-4.15,0,1.26,1.26,0,0,0,0,2.4,4.59,4.59,0,0,0,4.15,0A1.26,1.26,0,0,0,299.79,304.41Z" transform="translate(-122.85 -62.22)"></path><path class="cls-11" d="M330.86,297.55l-3.73-2.15a2.35,2.35,0,0,0-1.92-.09l-4.46,1.87-18.13-10.47a2.2,2.2,0,0,0-1.16-.25,1.93,1.93,0,0,0-1.08.35l-11.17,8.83c-.43.34-.37.81.15,1.11l14.85,8.58a2.35,2.35,0,0,0,1.92.09l2.43-1,17.36-7.26,2.83,1.64a2.32,2.32,0,0,0,2.1,0A.64.64,0,0,0,330.86,297.55Zm-32.82-6,15.16,8.75-2.86,1.21L296,293.21Zm20.24,6.61-2.66,1.12-15.81-9.13,1.94-1.53Zm-25.93-2.11,1.83-1.45,13.73,7.93-1.08.46h0l-1.4.59Z" transform="translate(-122.85 -62.22)"></path><path class="cls-12" d="M247.74,213.34,146.59,155a3.48,3.48,0,0,0-3.51-.34L140.6,156S249.37,294.29,248.49,294.8l2.53-1.47a3.45,3.45,0,0,0,1.44-3.16l.19-68.33A10.82,10.82,0,0,0,247.74,213.34Z" transform="translate(-122.85 -62.22)"></path><path class="cls-13" d="M245.36,294.66,143.67,236c-2.52-1.46-4.56-5.36-4.56-8.72V159.68c0-3.36,2-4.91,4.56-3.45l101.69,58.71c2.52,1.46,4.56,5.36,4.56,8.72v67.55C249.92,294.57,247.88,296.12,245.36,294.66Z" transform="translate(-122.85 -62.22)"></path><polygon class="cls-14" points="68.97 186.91 28.34 163.45 28.34 160.36 68.97 183.81 68.97 186.91"></polygon><polygon class="cls-14" points="46.43 179.1 28.34 168.66 28.34 165.56 46.43 176.01 46.43 179.1"></polygon><path class="cls-11" d="M153.81,220.31,152,219.25a2.47,2.47,0,0,1-1.12-1.93v-4.49c0-.71.5-1,1.12-.64l1.82,1.05a2.47,2.47,0,0,1,1.12,1.93v4.49C154.92,220.37,154.42,220.66,153.81,220.31ZM152,212.82c-.31-.18-.57,0-.57.33v4.49a1.26,1.26,0,0,0,.57,1l1.82,1.05c.31.18.57,0,.57-.33v-4.49a1.26,1.26,0,0,0-.57-1Z" transform="translate(-122.85 -62.22)"></path><path class="cls-11" d="M158.59,223.07,156.77,222a2.47,2.47,0,0,1-1.12-1.93v-4.49c0-.71.5-1,1.12-.65l1.83,1.05a2.47,2.47,0,0,1,1.12,1.93v4.49C159.71,223.14,159.21,223.43,158.59,223.07Zm-1.83-7.49c-.31-.18-.57,0-.57.33v4.49a1.26,1.26,0,0,0,.57,1l1.83,1.05c.31.18.57,0,.57-.33v-4.49a1.26,1.26,0,0,0-.57-1Z" transform="translate(-122.85 -62.22)"></path><path class="cls-11" d="M163.38,225.83l-1.82-1.05a2.47,2.47,0,0,1-1.12-1.94v-4.49c0-.71.5-1,1.12-.64l1.82,1.05a2.47,2.47,0,0,1,1.12,1.94v4.49C164.49,225.9,164,226.19,163.38,225.83Zm-1.82-7.49c-.31-.18-.57,0-.57.33v4.49a1.26,1.26,0,0,0,.57,1l1.82,1.05c.31.18.57,0,.57-.33v-4.49a1.26,1.26,0,0,0-.57-1Z" transform="translate(-122.85 -62.22)"></path><path class="cls-11" d="M168.16,228.6l-1.82-1.05a2.47,2.47,0,0,1-1.12-1.93v-4.49c0-.71.5-1,1.12-.64l1.82,1.05a2.47,2.47,0,0,1,1.12,1.93V228C169.28,228.66,168.78,229,168.16,228.6Zm-1.82-7.49c-.31-.18-.57,0-.57.33v4.49a1.26,1.26,0,0,0,.57,1l1.82,1.05c.31.18.57,0,.57-.33v-4.49a1.26,1.26,0,0,0-.57-1Z" transform="translate(-122.85 -62.22)"></path><path class="cls-11" d="M176.89,233.64l-1.82-1.05a2.47,2.47,0,0,1-1.12-1.93v-4.49c0-.71.5-1,1.12-.64l1.82,1.05A2.47,2.47,0,0,1,178,228.5V233C178,233.7,177.51,234,176.89,233.64Zm-1.82-7.49c-.31-.18-.57,0-.57.33V231a1.26,1.26,0,0,0,.57,1l1.82,1.05c.31.18.57,0,.57-.33v-4.49a1.26,1.26,0,0,0-.57-1Z" transform="translate(-122.85 -62.22)"></path><path class="cls-11" d="M181.68,236.4l-1.82-1.05a2.47,2.47,0,0,1-1.12-1.93v-4.49c0-.71.5-1,1.12-.64l1.82,1.05a2.47,2.47,0,0,1,1.12,1.93v4.49C182.8,236.47,182.3,236.76,181.68,236.4Zm-1.82-7.49c-.31-.18-.57,0-.57.33v4.49a1.26,1.26,0,0,0,.57,1l1.82,1.05c.31.18.57,0,.57-.33v-4.49a1.26,1.26,0,0,0-.57-1Z" transform="translate(-122.85 -62.22)"></path><path class="cls-11" d="M186.47,239.16l-1.82-1.05a2.47,2.47,0,0,1-1.12-1.94v-4.49c0-.71.5-1,1.12-.64l1.82,1.05a2.47,2.47,0,0,1,1.12,1.94v4.49C187.58,239.23,187.08,239.52,186.47,239.16Zm-1.82-7.49c-.31-.18-.57,0-.57.33v4.49a1.26,1.26,0,0,0,.57,1l1.82,1.05c.31.18.57,0,.57-.33v-4.49a1.26,1.26,0,0,0-.57-1Z" transform="translate(-122.85 -62.22)"></path><path class="cls-11" d="M191.25,241.93l-1.82-1.05a2.47,2.47,0,0,1-1.12-1.94v-4.49c0-.71.5-1,1.12-.64l1.82,1.05a2.47,2.47,0,0,1,1.12,1.94v4.49C192.37,242,191.87,242.28,191.25,241.93Zm-1.82-7.49c-.31-.18-.57,0-.57.33v4.49a1.26,1.26,0,0,0,.57,1l1.82,1.05c.31.18.57,0,.57-.33v-4.49a1.26,1.26,0,0,0-.57-1Z" transform="translate(-122.85 -62.22)"></path><path class="cls-11" d="M200,247l-1.82-1.05A2.47,2.47,0,0,1,197,244v-4.49c0-.71.5-1,1.12-.64l1.82,1.05a2.47,2.47,0,0,1,1.12,1.94v4.49C201.1,247,200.6,247.32,200,247Zm-1.82-7.49c-.31-.18-.57,0-.57.33v4.49a1.26,1.26,0,0,0,.57,1l1.82,1.05c.31.18.57,0,.57-.33v-4.49a1.26,1.26,0,0,0-.57-1Z" transform="translate(-122.85 -62.22)"></path><path class="cls-11" d="M204.77,249.73l-1.82-1.05a2.47,2.47,0,0,1-1.12-1.93v-4.49c0-.71.5-1,1.12-.64l1.82,1.05a2.47,2.47,0,0,1,1.12,1.93v4.49C205.89,249.8,205.38,250.09,204.77,249.73Zm-1.82-7.49c-.31-.18-.57,0-.57.33v4.49a1.26,1.26,0,0,0,.57,1l1.82,1.05c.31.18.57,0,.57-.33v-4.49a1.26,1.26,0,0,0-.57-1Z" transform="translate(-122.85 -62.22)"></path><path class="cls-11" d="M209.55,252.49l-1.82-1.05a2.47,2.47,0,0,1-1.12-1.93V245c0-.71.5-1,1.12-.65l1.82,1.05a2.47,2.47,0,0,1,1.12,1.93v4.49C210.67,252.56,210.17,252.85,209.55,252.49ZM207.73,245c-.31-.18-.57,0-.57.33v4.49a1.26,1.26,0,0,0,.57,1l1.82,1.05c.31.18.57,0,.57-.33V247a1.26,1.26,0,0,0-.57-1Z" transform="translate(-122.85 -62.22)"></path><path class="cls-11" d="M214.34,255.26l-1.82-1.05a2.47,2.47,0,0,1-1.12-1.94v-4.49c0-.71.5-1,1.12-.64l1.82,1.05a2.47,2.47,0,0,1,1.12,1.94v4.49C215.46,255.32,215,255.61,214.34,255.26Zm-1.82-7.49c-.31-.18-.57,0-.57.33v4.49a1.26,1.26,0,0,0,.57,1l1.82,1.05c.31.18.57,0,.57-.33V249.8a1.26,1.26,0,0,0-.57-1Z" transform="translate(-122.85 -62.22)"></path><path class="cls-11" d="M223.07,260.3l-1.82-1.05a2.47,2.47,0,0,1-1.12-1.94v-4.49c0-.71.5-1,1.12-.64l1.82,1.05a2.47,2.47,0,0,1,1.12,1.94v4.49C224.19,260.36,223.69,260.65,223.07,260.3Zm-1.82-7.49c-.31-.18-.57,0-.57.33v4.49a1.26,1.26,0,0,0,.57,1l1.82,1.05c.31.18.57,0,.57-.33v-4.49a1.26,1.26,0,0,0-.57-1Z" transform="translate(-122.85 -62.22)"></path><path class="cls-11" d="M227.86,263.06,226,262a2.47,2.47,0,0,1-1.12-1.93v-4.49c0-.71.5-1,1.12-.65l1.82,1.05a2.47,2.47,0,0,1,1.12,1.93v4.49C229,263.13,228.47,263.42,227.86,263.06ZM226,255.57c-.31-.18-.57,0-.57.33v4.49a1.26,1.26,0,0,0,.57,1l1.82,1.05c.31.18.57,0,.57-.33v-4.49a1.26,1.26,0,0,0-.57-1Z" transform="translate(-122.85 -62.22)"></path><path class="cls-11" d="M232.64,265.82l-1.82-1.05a2.47,2.47,0,0,1-1.12-1.93v-4.49c0-.71.5-1,1.12-.64l1.82,1.05a2.47,2.47,0,0,1,1.12,1.93v4.49C233.76,265.89,233.26,266.18,232.64,265.82Zm-1.82-7.49c-.31-.18-.57,0-.57.33v4.49a1.26,1.26,0,0,0,.57,1l1.82,1.05c.31.18.57,0,.57-.33v-4.49a1.26,1.26,0,0,0-.57-1Z" transform="translate(-122.85 -62.22)"></path><path class="cls-11" d="M237.43,268.59l-1.82-1.05a2.47,2.47,0,0,1-1.12-1.94V261.1c0-.71.5-1,1.12-.64l1.82,1.05a2.47,2.47,0,0,1,1.12,1.93v4.49C238.55,268.65,238,268.94,237.43,268.59Zm-1.82-7.49c-.31-.18-.57,0-.57.33v4.49a1.26,1.26,0,0,0,.57,1l1.82,1.05c.31.18.57,0,.57-.33v-4.49a1.26,1.26,0,0,0-.57-1Z" transform="translate(-122.85 -62.22)"></path><path class="cls-11" d="M153.65,199a3.27,3.27,0,0,1,.44-1.76l-3.27-1.89v4l3.27,1.89A6.69,6.69,0,0,1,153.65,199Z" transform="translate(-122.85 -62.22)"></path><path class="cls-11" d="M163.9,202.46v-3a4,4,0,0,0-1.8-3.11l-.64-.37v5Z" transform="translate(-122.85 -62.22)"></path><path class="cls-11" d="M153.38,191.34l-.76-.44c-1-.57-1.8-.11-1.8,1v3l2.56,1.48Z" transform="translate(-122.85 -62.22)"></path><path class="cls-11" d="M150.82,199.91v3a4,4,0,0,0,1.8,3.11l.76.44v-5Z" transform="translate(-122.85 -62.22)"></path><path class="cls-11" d="M154.36,197c.67-.69,1.77-.76,3,0a8,8,0,0,1,3,3.51l.65.38v-5l-7.19-4.15v5Z" transform="translate(-122.85 -62.22)"></path><path class="cls-11" d="M160.36,205.42c-.67.69-1.77.76-3,0a8,8,0,0,1-3-3.51l-.54-.31v5l7.19,4.15v-5Z" transform="translate(-122.85 -62.22)"></path><path class="cls-11" d="M161.46,211.11l.64.37c1,.57,1.8.11,1.8-1v-3l-2.44-1.41Z" transform="translate(-122.85 -62.22)"></path><path class="cls-11" d="M160.63,201.06a6.69,6.69,0,0,1,.44,2.27,3.27,3.27,0,0,1-.44,1.76L163.9,207v-4Z" transform="translate(-122.85 -62.22)"></path><path class="cls-11" d="M160.14,200.78l-5.56-3.21a2.72,2.72,0,0,0-.51,1.72,6.14,6.14,0,0,0,.51,2.31l5.56,3.21a2.72,2.72,0,0,0,.51-1.72A6.14,6.14,0,0,0,160.14,200.78Z" transform="translate(-122.85 -62.22)"></path><path class="cls-11" d="M157.36,197.39a2.21,2.21,0,0,0-2.46-.13l4.93,2.84A6.86,6.86,0,0,0,157.36,197.39Z" transform="translate(-122.85 -62.22)"></path><path class="cls-11" d="M157.36,205a2.21,2.21,0,0,0,2.46.13l-4.93-2.84A6.86,6.86,0,0,0,157.36,205Z" transform="translate(-122.85 -62.22)"></path><path class="cls-11" d="M205.66,211.34a4.67,4.67,0,0,1,.47,2q0,1.48-1,1.7a4.54,4.54,0,0,1-2.91-.88l-5-2.91V200l4.77,2.75a8.51,8.51,0,0,1,2.74,2.37,4.61,4.61,0,0,1,1,2.69,2,2,0,0,1-.34,1.27,1.17,1.17,0,0,1-1,.46A6,6,0,0,1,205.66,211.34Zm-6.23-8.06v2.66l2.24,1.3a2,2,0,0,0,1.27.39q.43-.09.43-.75a2,2,0,0,0-.43-1.24,4.13,4.13,0,0,0-1.27-1.06Zm4,9.3q.45-.08.45-.78a2.93,2.93,0,0,0-1.8-2.44l-2.63-1.52v2.78l2.63,1.52A2.3,2.3,0,0,0,203.41,212.57Z" transform="translate(-122.85 -62.22)"></path><path class="cls-11" d="M214.27,218.73l-4.53-2.61-.86,1.91-2.31-1.34,4.35-8.75,2.23,1.29L217.5,223l-2.37-1.37Zm-.71-2.39L212,211.14l-1.55,3.42Z" transform="translate(-122.85 -62.22)"></path><path class="cls-11" d="M227.47,217.5v11.26l-1.85-1.07L220.75,218v6.84l-2.23-1.29V212.33l1.87,1.08,4.85,9.64v-6.84Z" transform="translate(-122.85 -62.22)"></path><path class="cls-11" d="M233.33,227.72l-1.31.82v2.85l-2.24-1.3V218.83l2.24,1.3v5.26l4.32-2.77,2.51,1.45-4,2.69,4.28,8.71L236.46,234Z" transform="translate(-122.85 -62.22)"></path><path class="cls-15" d="M371.12,294c-5.29,3.06-13.87,3.06-19.17,0s-5.29-8,0-11.07,13.87-3.06,19.17,0S376.42,291,371.12,294Z" transform="translate(-122.85 -62.22)"></path><path class="cls-15" d="M368,292.26a14.36,14.36,0,0,1-13,0c-3.59-2.07-3.59-5.43,0-7.5a14.36,14.36,0,0,1,13,0C371.62,286.84,371.62,290.19,368,292.26Z" transform="translate(-122.85 -62.22)"></path><path class="cls-15" d="M279,225.44c-5.29,3.06-13.87,3.06-19.17,0s-5.29-8,0-11.07,13.87-3.06,19.17,0S284.3,222.38,279,225.44Z" transform="translate(-122.85 -62.22)"></path><path class="cls-15" d="M275.91,223.66a14.36,14.36,0,0,1-13,0c-3.59-2.07-3.59-5.43,0-7.5a14.36,14.36,0,0,1,13,0C279.5,218.23,279.5,221.58,275.91,223.66Z" transform="translate(-122.85 -62.22)"></path><polygon class="cls-16" points="183 165.56 155.4 149.63 146.64 157.4 137.88 139.51 110.28 123.58 110.28 0 183 41.99 183 165.56"></polygon><path class="cls-11" d="M296.08,127.15l-16.46-9.5c-1.21-.7-2.21-.3-2.52.87-.89,3.38-4,4.48-7.62,2.37s-6.73-6.76-7.62-11.17a5.92,5.92,0,0,0-2.52-3.78l-16.46-9.5V112l10.75,6.21v40.57l31.69,18.29V136.48l10.75,6.21Z" transform="translate(-122.85 -62.22)"></path><polygon class="cls-11" points="137.65 27.94 120.04 17.78 120.04 14.24 137.65 24.4 137.65 27.94"></polygon><polygon class="cls-11" points="129.17 27.35 120.04 22.08 120.04 20.88 129.17 26.15 129.17 27.35"></polygon><polygon class="cls-11" points="141.71 34.59 130.28 27.99 130.28 26.79 141.71 33.39 141.71 34.59"></polygon><polygon class="cls-11" points="152 40.53 142.71 35.17 142.71 33.97 152 39.33 152 40.53"></polygon><polygon class="cls-11" points="126.43 28.3 120.04 24.61 120.04 23.41 126.43 27.09 126.43 28.3"></polygon><polygon class="cls-11" points="152 43.06 127.53 28.93 127.53 27.73 152 41.86 152 43.06"></polygon><polygon class="cls-11" points="173.24 133.16 120.04 102.44 120.04 101.24 173.24 131.95 173.24 133.16"></polygon><polygon class="cls-11" points="131.69 33.86 120.04 27.14 120.04 25.93 131.69 32.66 131.69 33.86"></polygon><polygon class="cls-11" points="140.21 38.78 132.6 34.39 132.6 33.19 140.21 37.58 140.21 38.78"></polygon><polygon class="cls-11" points="135.21 116.58 120.01 107.8 120.01 106.6 135.21 115.38 135.21 116.58"></polygon><polygon class="cls-11" points="156.09 128.63 137.06 117.65 137.06 116.44 156.09 127.43 156.09 128.63"></polygon><polygon class="cls-11" points="173.24 138.53 157.76 129.6 157.76 128.4 173.24 137.33 173.24 138.53"></polygon><polygon class="cls-11" points="130.65 116.47 120.01 110.33 120.01 109.13 130.65 115.27 130.65 116.47"></polygon><polygon class="cls-11" points="173.24 141.06 132.48 117.53 132.48 116.33 173.24 139.86 173.24 141.06"></polygon><polygon class="cls-11" points="139.41 124.06 120.01 112.86 120.01 111.66 139.41 122.86 139.41 124.06"></polygon><polygon class="cls-11" points="153.6 132.25 140.92 124.93 140.92 123.73 153.6 131.05 153.6 132.25"></polygon><path class="cls-11" d="M295,111l-.16-.09a2.63,2.63,0,0,1-1.1-2.1v-1.5c0-.81.49-1.18,1.1-.83l.16.09a2.63,2.63,0,0,1,1.1,2.1v1.5C296.08,110.94,295.59,111.31,295,111Z" transform="translate(-122.85 -62.22)"></path><path class="cls-11" d="M292,109.25l-.16-.09a2.63,2.63,0,0,1-1.1-2.1v-1.5c0-.81.49-1.18,1.1-.83l.16.09a2.63,2.63,0,0,1,1.1,2.1v1.5C293.12,109.23,292.63,109.6,292,109.25Z" transform="translate(-122.85 -62.22)"></path><path class="cls-11" d="M289,107.5l-.16-.09a2.63,2.63,0,0,1-1.1-2.1v-1.5c0-.81.49-1.18,1.1-.83l.16.09a2.63,2.63,0,0,1,1.1,2.1v1.5C290.09,107.48,289.6,107.85,289,107.5Z" transform="translate(-122.85 -62.22)"></path><path class="cls-17" d="M309.27,218.1V248a6.09,6.09,0,0,0,2.76,4.77l43.44,25.08,6.07,10.51,6.07-3.5L411,309.92c1.52.88,2.76.17,2.76-1.59V278.46a6.09,6.09,0,0,0-2.76-4.77l-99-57.17C310.5,215.63,309.27,216.34,309.27,218.1Z" transform="translate(-122.85 -62.22)"></path><path class="cls-11" d="M346.36,252.87a4.84,4.84,0,0,1,.49,2.12q0,1.54-1,1.77a4.71,4.71,0,0,1-3-.92l-5.25-3V241.09l5,2.86a8.84,8.84,0,0,1,2.85,2.46,4.78,4.78,0,0,1,1,2.8,2.13,2.13,0,0,1-.36,1.32,1.22,1.22,0,0,1-1,.48A6.22,6.22,0,0,1,346.36,252.87Zm-6.48-8.38v2.76l2.33,1.35a2.13,2.13,0,0,0,1.32.41c.3-.06.45-.32.45-.78a2.12,2.12,0,0,0-.45-1.29,4.28,4.28,0,0,0-1.32-1.1Zm4.14,9.67c.31-.05.47-.33.47-.82a3,3,0,0,0-1.87-2.54l-2.74-1.58v2.9l2.74,1.58A2.4,2.4,0,0,0,344,254.15Z" transform="translate(-122.85 -62.22)"></path><path class="cls-11" d="M357.34,255.24v9L355.2,263v-1.07a1.55,1.55,0,0,1-1.07.28,3.24,3.24,0,0,1-1.35-.47,6.59,6.59,0,0,1-2.44-2.43,6.9,6.9,0,0,1-.9-3.55v-5.09l2.26,1.3v4.7a3.27,3.27,0,0,0,1.58,3.09,1.21,1.21,0,0,0,1.3.14q.49-.33.49-1.53v-4.45Z" transform="translate(-122.85 -62.22)"></path><path class="cls-11" d="M368.2,261.5,364.68,269q-.54,1.25-1.33,1.43a2.71,2.71,0,0,1-1.91-.46,6.61,6.61,0,0,1-1.2-.91,6,6,0,0,1-1-1.16l.83-1.38a4.5,4.5,0,0,0,.6.77,3.2,3.2,0,0,0,.67.54,1,1,0,0,0,.75.18,1,1,0,0,0,.52-.56l0-.07-3.38-11,2.33,1.35,2.19,7.37,2.2-4.84Z" transform="translate(-122.85 -62.22)"></path><path class="cls-11" d="M375.38,264a2.42,2.42,0,0,1-.39-1.26.81.81,0,0,1,.39-.81,1.08,1.08,0,0,1,1,.17,2.88,2.88,0,0,1,1,1,2.33,2.33,0,0,1,.39,1.23.87.87,0,0,1-.39.85,1.07,1.07,0,0,1-1-.16A2.83,2.83,0,0,1,375.38,264Zm-.12,1.61,2.26,1.3v9l-2.26-1.31Z" transform="translate(-122.85 -62.22)"></path><path class="cls-11" d="M385.67,280.16a1.53,1.53,0,0,1-.82,0,4.55,4.55,0,0,1-1-.45,5.9,5.9,0,0,1-2.15-2.06,5.41,5.41,0,0,1-.76-2.85v-3.7l-1.2-.7v-2l1.2.7v-2.19l2.26,1.31v2.19l1.94,1.12v2l-1.94-1.12V276a2.09,2.09,0,0,0,.25,1,1.9,1.9,0,0,0,.72.72,1.17,1.17,0,0,0,.91.19Z" transform="translate(-122.85 -62.22)"></path><path class="cls-8" d="M488.7,354.59l-36.75-21.22c-2.74-1.58-7.53-1.38-10.69.44L406,354.15c-1.76,1-2.65,2.33-2.61,3.56a3.2,3.2,0,0,0,1.85,2.61L442,381.54c2.74,1.58,7.53,1.38,10.69-.44l35.21-20.33c1.79-1,2.68-2.37,2.61-3.62A3.23,3.23,0,0,0,488.7,354.59Z" transform="translate(-122.85 -62.22)"></path><path class="cls-18" d="M490.48,342.84c.06,1.25-.82,2.58-2.61,3.61l-35.16,20.3c-3.16,1.82-7.94,2-10.68.44L405.34,346a3.2,3.2,0,0,1-1.84-2.61h0v5.71h0a3.17,3.17,0,0,0,1.84,2.67L442,373c2.74,1.58,7.52,1.38,10.68-.44l35.16-20.3c1.73-1,2.61-2.27,2.61-3.49h0v-5.9Z" transform="translate(-122.85 -62.22)"></path><path class="cls-19" d="M488.63,340.29,451.94,319.1c-2.74-1.58-7.52-1.38-10.68.44l-35.16,20.3c-1.76,1-2.64,2.32-2.61,3.55a3.2,3.2,0,0,0,1.84,2.61L442,367.19c2.74,1.58,7.52,1.38,10.68-.44l35.16-20.3c1.79-1,2.67-2.36,2.61-3.61A3.22,3.22,0,0,0,488.63,340.29Z" transform="translate(-122.85 -62.22)"></path><path class="cls-4" d="M448.11,334.59a14.45,14.45,0,0,1,13.07,0c3.61,2.08,3.61,5.46,0,7.55a14.45,14.45,0,0,1-13.07,0C444.5,340.06,444.5,336.68,448.11,334.59Z" transform="translate(-122.85 -62.22)"></path><path class="cls-4" d="M448,343.29l-1.86-1.07c-6.29-3.63-17.28-3.18-24.54,1h0l24.64,14.23h0C453.49,353.26,454.28,346.92,448,343.29Z" transform="translate(-122.85 -62.22)"></path><path class="cls-8" d="M550.76,288.08l-27.66-16c-2.06-1.19-5.67-1-8,.33l-26.5,15.3a3.27,3.27,0,0,0-2,2.68,2.41,2.41,0,0,0,1.39,2l27.66,16c2.06,1.19,5.67,1,8-.33l26.5-15.3c1.35-.78,2-1.78,2-2.72A2.43,2.43,0,0,0,550.76,288.08Z" transform="translate(-122.85 -62.22)"></path><path class="cls-20" d="M550.76,276.55l-27.66-16c-2.06-1.19-5.67-1-8,.33l-26.5,15.3a3.27,3.27,0,0,0-2,2.68,2.41,2.41,0,0,0,1.39,2l27.66,16c2.06,1.19,5.67,1,8-.33l26.5-15.3c1.35-.78,2-1.78,2-2.72A2.43,2.43,0,0,0,550.76,276.55Z" transform="translate(-122.85 -62.22)"></path><path class="cls-21" d="M552.15,278.48c0,.94-.62,1.94-2,2.72l-26.43,15.12c-2.38,1.37-6,1.6-8.06.41L488,280.86a2.41,2.41,0,0,1-1.39-2h0v4.3h0a2.39,2.39,0,0,0,1.39,2l27.66,16c2.06,1.19,5.67,1,8-.33l26.5-15.3a3.3,3.3,0,0,0,2-2.63h0v-4.44Z" transform="translate(-122.85 -62.22)"></path><path class="cls-11" d="M528.67,273.67a15,15,0,0,0-13.59,0c-5.61,3.24-4.67,10.54-4.67,10.54s13,.37,18.26-2.7C532.42,279.34,532.42,275.83,528.67,273.67Zm-9.49,5.48c-1.77-1-1.77-2.68,0-3.7a7.09,7.09,0,0,1,6.41,0c1.77,1,1.77,2.68,0,3.7A7.09,7.09,0,0,1,519.18,279.14Z" transform="translate(-122.85 -62.22)"></path><polygon class="cls-8" points="198.34 150.78 289.4 203.35 349.87 168.26 258.81 115.69 198.34 150.78 198.34 150.78"></polygon><polygon class="cls-22" points="258.6 106.42 349.47 159.07 335.3 61.78 244.24 9.21 258.6 106.42"></polygon><polygon class="cls-23" points="198.34 141.28 228.57 117.29 228.31 27.12 212.38 27.66 212.4 27.71 198.34 141.28"></polygon><polygon class="cls-24" points="228.48 117.53 258.6 106.42 244.24 9.21 228.22 27.36 228.48 117.53"></polygon><polygon class="cls-25" points="289.19 194.09 319.54 170.1 319.29 79.94 303.36 80.47 289.19 194.09"></polygon><polygon class="cls-26" points="319.54 170.1 349.66 159 335.3 61.78 319.29 79.94 319.54 170.1"></polygon><polygon class="cls-27" points="275.03 40.91 251.56 27.36 246.01 30.56 246.01 51.11 251.56 54.31 251.56 33.77 275.03 47.32 275.03 67.87 280.58 71.07 280.58 50.52 275.03 40.91"></polygon><polygon class="cls-28" points="301.74 21.94 278.26 8.39 272.72 11.59 272.72 32.14 278.26 35.34 278.26 14.8 301.74 28.35 301.74 48.9 307.29 52.1 307.29 31.55 301.74 21.94"></polygon><polygon class="cls-29" points="198.12 141.52 289.19 194.09 303.36 80.47 212.3 27.9 198.12 141.52"></polygon></g></g></svg> 