<?xml version="1.0" encoding="UTF-8"?> <svg xmlns="http://www.w3.org/2000/svg" xmlns:xlink="http://www.w3.org/1999/xlink" viewBox="0 0 348.14 305.5"><defs><style>.cls-1{isolation:isolate;}.cls-2{fill:url(#Безымянный_градиент_6);}.cls-3{fill:#f9d75f;}.cls-4{fill:url(#Безымянный_градиент_20);}.cls-5,.cls-6{fill:#fff;}.cls-5{mix-blend-mode:screen;}.cls-7{fill:url(#Безымянный_градиент_20-2);}.cls-8{fill:#00002f;opacity:0.36;}.cls-12,.cls-8{mix-blend-mode:multiply;}.cls-9{fill:url(#Безымянный_градиент_20-3);}.cls-10{opacity:0.89;}.cls-11{fill:#abb9d1;}.cls-12{opacity:0.4;}.cls-13{fill:#7694a3;}.cls-14{fill:url(#Безымянный_градиент_22);}.cls-15{fill:url(#Безымянный_градиент_20-4);}.cls-16{fill:url(#Безымянный_градиент_20-5);}.cls-17{fill:url(#Безымянный_градиент_22-2);}.cls-18{fill:url(#Безымянный_градиент_20-6);}.cls-19{fill:url(#Безымянный_градиент_20-7);}.cls-20{fill:#f1f2f2;opacity:0.2;}</style><linearGradient id="Безымянный_градиент_6" x1="2535.68" y1="302.22" x2="2577.64" y2="229.55" gradientTransform="matrix(-1, 0, 0, 1, 3029.86, 0)" gradientUnits="userSpaceOnUse"><stop offset="0" stop-color="#4869c6"></stop><stop offset="1" stop-color="#9ab5ff"></stop></linearGradient><linearGradient id="Безымянный_градиент_20" x1="693.46" y1="231.06" x2="693.46" y2="138.71" gradientUnits="userSpaceOnUse"><stop offset="0" stop-color="#9ab5ff"></stop><stop offset="1" stop-color="#4869c6"></stop></linearGradient><linearGradient id="Безымянный_градиент_20-2" x1="613.92" y1="181.4" x2="620" y2="122.93" xlink:href="#Безымянный_градиент_20"></linearGradient><linearGradient id="Безымянный_градиент_20-3" x1="408.97" y1="308.99" x2="463.89" y2="308.99" xlink:href="#Безымянный_градиент_20"></linearGradient><linearGradient id="Безымянный_градиент_22" x1="76.4" y1="202.53" x2="178.38" y2="202.53" gradientUnits="userSpaceOnUse"><stop offset="0" stop-color="#4869c6"></stop><stop offset="1" stop-color="#2c30d0"></stop></linearGradient><linearGradient id="Безымянный_градиент_20-4" x1="677.07" y1="227.89" x2="645.86" y2="331.1" xlink:href="#Безымянный_градиент_20"></linearGradient><linearGradient id="Безымянный_градиент_20-5" x1="608.66" y1="381.25" x2="704.65" y2="182.55" xlink:href="#Безымянный_градиент_20"></linearGradient><linearGradient id="Безымянный_градиент_22-2" x1="203.95" y1="111.75" x2="344.92" y2="111.75" xlink:href="#Безымянный_градиент_22"></linearGradient><linearGradient id="Безымянный_градиент_20-6" x1="650.74" y1="243.38" x2="619.55" y2="346.52" xlink:href="#Безымянный_градиент_20"></linearGradient><linearGradient id="Безымянный_градиент_20-7" x1="-364.26" y1="4557.99" x2="-364.26" y2="4398.35" gradientTransform="matrix(0.87, 0.5, 0, 1.15, 951.9, -4691.06)" xlink:href="#Безымянный_градиент_20"></linearGradient></defs><title>Enterprise and Financial Services</title><g class="cls-1"><g id="Слой_1" data-name="Слой 1"><path class="cls-2" d="M388.44,363.26V358c0-17.89,3.09-37.43,9.33-57.41,5.07-16.23,12.13-32.44,21-37.45,19.61-11,15.22,20.69,36.11,8.62,20-11.56,14.38-50.93,31-61.66,15.25-9.83,22.4,46.36,44.69,33.49,19.3-11.15,15.81-41.75,31.55-50.94,7.87-4.6,13.2,4,16.56,13.82,3.21,9.34,4.75,20.19,4.75,32v12.2Z" transform="translate(-388.44 -133.67)"></path><polygon class="cls-3" points="177.98 132.54 178.62 132.18 178.62 21.73 177.98 22.1 177.98 132.54"></polygon><polygon class="cls-3" points="140.22 154.34 140.86 153.98 140.86 43.53 140.22 43.9 140.22 154.34"></polygon><polygon class="cls-3" points="102.18 176.31 102.82 175.94 102.82 65.49 102.18 65.86 102.18 176.31"></polygon><polygon class="cls-3" points="64.15 198.27 64.78 197.9 64.78 87.45 64.15 87.82 64.15 198.27"></polygon><polygon class="cls-3" points="26.11 220.23 26.74 219.86 26.74 109.41 26.11 109.78 26.11 220.23"></polygon><path class="cls-3" d="M393.28,265.25c2.65,1.69,9.13,3.83,20.46-3.87,9.21-6.26,15.07-18.32,20.75-30,5.39-11.09,10.48-21.56,18.07-26.59,9.58-6.35,16.24.67,23.29,8.1,7.91,8.34,16.87,17.79,31.66,10.24s23.16-17.91,31.87-28.8c7.4-9.25,15-18.81,27.09-26.42,9.43-6,17.84-4.79,21.86-3.63v1c-3.75-1.17-12.26-2.65-21.83,3.41-11.87,7.51-19.45,17-26.77,26.13-7.78,9.72-15.8,19.74-28.9,27.31q-1.63.94-3.36,1.83c-15.12,7.72-24.18-1.84-32.18-10.27-7.23-7.62-13.47-14.21-22.67-8.12-7.29,4.82-12.29,15.11-17.58,26-5.76,11.86-11.72,24.12-21.23,30.58-1,.69-2,1.29-2.92,1.83-9.21,5.31-14.86,3.92-17.6,2.4Z" transform="translate(-388.44 -133.67)"></path><path class="cls-3" d="M456.94,203.13c0-2.46-1.73-3.46-3.86-2.23a8.54,8.54,0,0,0-3.86,6.69c0,2.46,1.73,3.46,3.86,2.23A8.54,8.54,0,0,0,456.94,203.13Z" transform="translate(-388.44 -133.67)"></path><path class="cls-3" d="M533.16,204.79c0-2.46-1.73-3.46-3.86-2.23a8.54,8.54,0,0,0-3.86,6.69c0,2.46,1.73,3.46,3.86,2.23A8.54,8.54,0,0,0,533.16,204.79Z" transform="translate(-388.44 -133.67)"></path><path class="cls-4" d="M730.85,241.89l-74.77-43.17a7.2,7.2,0,0,1-3-5.75V149.41c0-2.21,1.35-3.23,3-2.27l74.77,43.17a7.2,7.2,0,0,1,3,5.75v43.56C733.85,241.83,732.51,242.85,730.85,241.89Z" transform="translate(-388.44 -133.67)"></path><polygon class="cls-5" points="297.65 48.55 257.01 25.08 257.01 20.53 297.65 44 297.65 48.55"></polygon><polygon class="cls-5" points="297.65 56.42 257.01 32.95 257.01 28.4 297.65 51.87 297.65 56.42"></polygon><polygon class="cls-5" points="297.65 64.29 257.01 40.83 257.01 36.28 297.65 59.74 297.65 64.29"></polygon><path class="cls-6" d="M722.07,214.39a15.41,15.41,0,0,0-4.19-5.16,3.54,3.54,0,0,0,3.47-.55,4.72,4.72,0,0,0,1.27-3.68,12.45,12.45,0,0,0-2.63-7.31,21.73,21.73,0,0,0-5.82-5.44v-4.37L709.11,185v4.31l-2.76-1.59v-4.31l-5.06-2.92v4.31L696.52,182v5.84l3.67,2.12v20l-3.67-2.12v5.84l4.77,2.76v4.31l5.06,2.92v-4.31l2.76,1.59v4.31l5.06,2.92v-4.34q4.14,2.18,6.65,1.51,2.78-.75,2.78-4.82A13.54,13.54,0,0,0,722.07,214.39Zm-15.68-20.85,6.12,3.53a7.8,7.8,0,0,1,2.76,2.46,5.48,5.48,0,0,1,1,3.11q0,1.67-1,2a3.54,3.54,0,0,1-2.76-.67l-6.12-3.53ZM716,218.05a5.14,5.14,0,0,1-3.45-1l-6.12-3.53V206l6.12,3.53a10.51,10.51,0,0,1,3.45,2.94,5.82,5.82,0,0,1,1.25,3.44Q717.21,217.76,716,218.05Z" transform="translate(-388.44 -133.67)"></path><path class="cls-7" d="M601.82,147.32a15.75,15.75,0,0,1-2-7.68q0-4.1,2-5.42t5.07.48a13.34,13.34,0,0,1,5,5.36,15.8,15.8,0,0,1,1.94,7.66q0,4.1-1.94,5.43t-5-.47A13.47,13.47,0,0,1,601.82,147.32Zm7.22,1.49q.79-.85.79-3.41a10.6,10.6,0,0,0-.79-4.32,5.34,5.34,0,0,0-2.16-2.55q-1.33-.77-2.14.09t-.81,3.38a10.46,10.46,0,0,0,.81,4.31,5.37,5.37,0,0,0,2.14,2.56Q608.25,149.66,609,148.81Zm14.67-4,4.8,2.77L609.22,169l-4.8-2.77ZM622.44,176a15.44,15.44,0,0,1-2.48-4.58,16,16,0,0,1-.89-5.26,8.53,8.53,0,0,1,.89-4.24,3.17,3.17,0,0,1,2.48-1.71,6,6,0,0,1,3.61,1,13.48,13.48,0,0,1,5.07,5.37,15.76,15.76,0,0,1,2,7.68q0,4.1-2,5.42t-5.07-.48A12.7,12.7,0,0,1,622.44,176Zm5.77-.72c.53-.58.79-1.71.79-3.39a10.61,10.61,0,0,0-.79-4.3,5.33,5.33,0,0,0-2.16-2.57q-1.33-.77-2.14.07t-.81,3.4a10.41,10.41,0,0,0,.81,4.34,5.38,5.38,0,0,0,2.14,2.54Q627.43,176.11,628.21,175.24Z" transform="translate(-388.44 -133.67)"></path><path class="cls-8" d="M409.65,334.21l51-29.46a4.66,4.66,0,0,0,1.95-3.72V290.34c0-1.43-.87-2.09-1.95-1.47l-51,29.46A4.66,4.66,0,0,0,407.7,322v10.69C407.7,334.17,408.57,334.83,409.65,334.21Z" transform="translate(-388.44 -133.67)"></path><path class="cls-9" d="M410.91,331.66l51-29.46a4.66,4.66,0,0,0,1.95-3.72V287.79c0-1.43-.87-2.09-1.95-1.47l-51,29.46A4.66,4.66,0,0,0,409,319.5v10.69C409,331.62,409.84,332.28,410.91,331.66Z" transform="translate(-388.44 -133.67)"></path><g class="cls-10"><polygon class="cls-6" points="36.24 180.6 48.97 173.25 48.97 170.87 36.24 178.22 36.24 180.6"></polygon><polygon class="cls-6" points="25.34 186.79 34.7 181.39 34.7 179.01 25.34 184.42 25.34 186.79"></polygon><polygon class="cls-6" points="25.34 189.82 71.13 163.39 71.13 162.2 25.34 188.63 25.34 189.82"></polygon><polygon class="cls-6" points="25.34 192.77 45.3 181.24 45.3 180.05 25.34 191.57 25.34 192.77"></polygon></g><path class="cls-11" d="M455.44,363.22,566.92,428c7.8,4.53,20.5,4.53,28.35,0l76.33-44.07c4-2.28,5.92-5.28,5.92-8.27l0,7.76c0,3-2,6-5.92,8.27l-76.33,44.07c-7.85,4.53-20.55,4.53-28.35,0L455.46,371c-3.88-2.25-5.82-5.2-5.83-8.15l0-7.76C449.62,358,451.56,361,455.44,363.22Z" transform="translate(-388.44 -133.67)"></path><g class="cls-12"><path class="cls-13" d="M455.53,346.8c-7.85,4.53-7.9,11.88-.09,16.42L566.92,428c7.8,4.53,20.5,4.53,28.35,0l76.33-44.07c7.85-4.53,7.89-11.89.09-16.42L560.21,302.74c-7.81-4.54-20.5-4.53-28.35,0Z" transform="translate(-388.44 -133.67)"></path></g><polygon class="cls-14" points="76.4 220.63 158.74 173.09 178.38 184.43 96.04 231.97 76.4 220.63"></polygon><polygon class="cls-6" points="194.35 214.93 212.78 204.29 194.36 193.66 175.93 204.29 194.35 214.93"></polygon><polygon class="cls-6" points="216.07 227.47 234.49 216.83 216.07 206.19 197.64 216.83 216.07 227.47"></polygon><polygon class="cls-6" points="237.38 239.78 255.81 229.14 237.38 218.5 218.96 229.14 237.38 239.78"></polygon><polygon class="cls-6" points="258.7 252.08 277.12 241.44 258.7 230.8 240.27 241.44 258.7 252.08"></polygon><polygon class="cls-6" points="172.79 227.38 191.22 216.75 172.79 206.11 154.36 216.75 172.79 227.38"></polygon><polygon class="cls-6" points="194.5 239.92 212.93 229.28 194.5 218.64 176.08 229.28 194.5 239.92"></polygon><polygon class="cls-6" points="215.82 252.23 234.24 241.59 215.82 230.95 197.39 241.59 215.82 252.23"></polygon><polygon class="cls-6" points="237.13 264.53 255.56 253.89 237.13 243.25 218.71 253.89 237.13 264.53"></polygon><polygon class="cls-6" points="151.66 239.58 170.09 228.94 151.66 218.31 133.24 228.94 151.66 239.58"></polygon><polygon class="cls-6" points="173.37 252.12 191.8 241.48 173.37 230.84 154.95 241.48 173.37 252.12"></polygon><polygon class="cls-6" points="194.69 264.42 213.11 253.79 194.69 243.15 176.26 253.79 194.69 264.42"></polygon><polygon class="cls-6" points="216 276.73 234.43 266.09 216 255.45 197.58 266.09 216 276.73"></polygon><polygon class="cls-3" points="130.44 251.83 148.87 241.19 130.44 230.56 112.02 241.19 130.44 251.83"></polygon><polygon class="cls-6" points="152.16 264.37 170.58 253.73 152.16 243.09 133.73 253.73 152.16 264.37"></polygon><polygon class="cls-6" points="173.47 276.67 191.9 266.04 173.47 255.4 155.05 266.04 173.47 276.67"></polygon><polygon class="cls-6" points="194.79 288.98 213.21 278.34 194.79 267.7 176.36 278.34 194.79 288.98"></polygon><path class="cls-15" d="M730.36,254,601.94,179.81c-1.73-1-3.31-1.09-4.44-.43l-3.2,1.86c1.13-.66,2.7-.57,4.44.43l128.42,74.14a13.7,13.7,0,0,1,6.22,10.76l-.25,86.54c0,2-.7,3.35-1.82,4l3.21-1.86c1.12-.65,1.81-2,1.82-4l.25-86.54A13.7,13.7,0,0,0,730.36,254Z" transform="translate(-388.44 -133.67)"></path><path class="cls-16" d="M727.15,255.82a13.7,13.7,0,0,1,6.22,10.76l-.25,86.54c0,4-2.81,5.56-6.26,3.57L598.45,282.55a13.7,13.7,0,0,1-6.22-10.77l.25-86.54c0-4,2.81-5.55,6.26-3.56Z" transform="translate(-388.44 -133.67)"></path><g class="cls-1"><polygon class="cls-6" points="263.85 163.54 263.89 151.6 273.84 157.34 273.81 169.29 263.85 163.54"></polygon></g><g class="cls-1"><polygon class="cls-6" points="214.79 135.22 214.83 123.27 239.75 137.66 239.71 149.6 214.79 135.22"></polygon></g><g class="cls-1"><polygon class="cls-6" points="245.45 152.91 245.48 140.97 252.65 145.11 252.61 157.05 245.45 152.91"></polygon></g><g class="cls-1"><polygon class="cls-6" points="276.82 171.03 276.86 159.09 282.85 162.54 282.81 174.49 276.82 171.03"></polygon></g><g class="cls-1"><polygon class="cls-6" points="255.48 158.71 255.52 146.76 260.89 149.87 260.86 161.81 255.48 158.71"></polygon></g><polygon class="cls-17" points="344.92 140.37 344.85 164.47 203.95 83.12 204.02 59.02 344.92 140.37"></polygon><path class="cls-18" d="M703.86,269.32l-128.11-74c-1.73-1-3.31-1.09-4.44-.43l-3.15,1.8s137.76,175.1,136.64,175.75l3.21-1.86c1.12-.65,1.81-2,1.82-4l.25-86.54A13.7,13.7,0,0,0,703.86,269.32Z" transform="translate(-388.44 -133.67)"></path><path class="cls-19" d="M700.85,372.32,572.05,298c-3.19-1.84-5.78-6.79-5.78-11V201.35c0-4.26,2.59-6.21,5.78-4.37l128.8,74.36c3.19,1.84,5.78,6.79,5.78,11v85.56C706.63,372.21,704,374.16,700.85,372.32Z" transform="translate(-388.44 -133.67)"></path><polygon class="cls-20" points="244.6 180.98 193.14 151.26 193.14 147.35 244.6 177.06 244.6 180.98"></polygon><polygon class="cls-20" points="216.05 171.09 193.14 157.86 193.14 153.94 216.05 167.18 216.05 171.09"></polygon><path class="cls-6" d="M584.89,278.14l-2.31-1.33a3.13,3.13,0,0,1-1.41-2.45v-5.69c0-.9.63-1.27,1.41-.82l2.31,1.33a3.13,3.13,0,0,1,1.41,2.45v5.69C586.3,278.23,585.67,278.59,584.89,278.14Zm-2.31-9.49c-.4-.23-.72,0-.72.41v5.69a1.59,1.59,0,0,0,.72,1.24l2.31,1.33c.4.23.72,0,.72-.41v-5.69a1.59,1.59,0,0,0-.72-1.24Z" transform="translate(-388.44 -133.67)"></path><path class="cls-6" d="M591,281.64l-2.31-1.33a3.13,3.13,0,0,1-1.41-2.45v-5.69c0-.9.63-1.27,1.41-.82l2.31,1.33a3.13,3.13,0,0,1,1.41,2.45v5.69C592.37,281.73,591.73,282.09,591,281.64Zm-2.31-9.49c-.4-.23-.72,0-.72.41v5.69a1.59,1.59,0,0,0,.72,1.24l2.31,1.33c.4.23.72,0,.72-.41v-5.69a1.59,1.59,0,0,0-.72-1.24Z" transform="translate(-388.44 -133.67)"></path><path class="cls-6" d="M597,285.14l-2.31-1.33a3.13,3.13,0,0,1-1.42-2.45v-5.69c0-.9.63-1.27,1.42-.82l2.31,1.33a3.13,3.13,0,0,1,1.42,2.45v5.69C598.43,285.22,597.79,285.59,597,285.14Zm-2.31-9.49c-.4-.23-.72,0-.72.41v5.69a1.59,1.59,0,0,0,.72,1.24l2.31,1.33c.4.23.72,0,.72-.41v-5.69A1.59,1.59,0,0,0,597,277Z" transform="translate(-388.44 -133.67)"></path><path class="cls-6" d="M603.07,288.64l-2.31-1.33a3.13,3.13,0,0,1-1.41-2.45v-5.69c0-.9.63-1.27,1.41-.82l2.31,1.33a3.13,3.13,0,0,1,1.41,2.45v5.69C604.49,288.72,603.85,289.09,603.07,288.64Zm-2.31-9.49c-.4-.23-.72,0-.72.41v5.69a1.59,1.59,0,0,0,.72,1.24l2.31,1.33c.4.23.72,0,.72-.41v-5.69a1.59,1.59,0,0,0-.72-1.24Z" transform="translate(-388.44 -133.67)"></path><path class="cls-6" d="M614.13,295l-2.31-1.33a3.13,3.13,0,0,1-1.41-2.45v-5.69c0-.9.63-1.27,1.41-.82l2.31,1.33a3.13,3.13,0,0,1,1.41,2.45v5.69C615.55,295.11,614.91,295.48,614.13,295Zm-2.31-9.49c-.4-.23-.72,0-.72.41v5.69a1.59,1.59,0,0,0,.72,1.24l2.31,1.33c.4.23.72,0,.72-.41v-5.69a1.59,1.59,0,0,0-.72-1.24Z" transform="translate(-388.44 -133.67)"></path><path class="cls-6" d="M620.2,298.53l-2.31-1.33a3.13,3.13,0,0,1-1.41-2.45V289c0-.9.63-1.27,1.41-.82l2.31,1.33a3.13,3.13,0,0,1,1.41,2.45v5.69C621.61,298.61,621,299,620.2,298.53ZM617.88,289c-.4-.23-.72,0-.72.41v5.69a1.59,1.59,0,0,0,.72,1.24l2.31,1.33c.4.23.72,0,.72-.41v-5.69a1.59,1.59,0,0,0-.72-1.24Z" transform="translate(-388.44 -133.67)"></path><path class="cls-6" d="M626.26,302l-2.31-1.33a3.13,3.13,0,0,1-1.42-2.45v-5.69c0-.9.63-1.27,1.42-.82l2.31,1.33a3.13,3.13,0,0,1,1.42,2.45v5.69C627.67,302.11,627,302.48,626.26,302Zm-2.31-9.49c-.4-.23-.72,0-.72.41v5.69a1.59,1.59,0,0,0,.72,1.24l2.31,1.33c.4.23.72,0,.72-.41v-5.69a1.59,1.59,0,0,0-.72-1.24Z" transform="translate(-388.44 -133.67)"></path><path class="cls-6" d="M632.32,305.52,630,304.19a3.13,3.13,0,0,1-1.42-2.45V296c0-.9.63-1.27,1.42-.82l2.31,1.33a3.13,3.13,0,0,1,1.42,2.45v5.69C633.73,305.61,633.1,306,632.32,305.52ZM630,296c-.4-.23-.72,0-.72.41v5.69a1.59,1.59,0,0,0,.72,1.24l2.31,1.33c.4.23.72,0,.72-.41v-5.69a1.59,1.59,0,0,0-.72-1.24Z" transform="translate(-388.44 -133.67)"></path><path class="cls-6" d="M643.38,311.91l-2.31-1.33a3.13,3.13,0,0,1-1.41-2.45v-5.69c0-.9.64-1.27,1.41-.82l2.31,1.33a3.13,3.13,0,0,1,1.42,2.45v5.69C644.79,312,644.16,312.36,643.38,311.91Zm-2.31-9.49c-.4-.23-.72,0-.72.41v5.69a1.59,1.59,0,0,0,.72,1.24l2.31,1.33c.4.23.72,0,.72-.41V305a1.59,1.59,0,0,0-.72-1.24Z" transform="translate(-388.44 -133.67)"></path><path class="cls-6" d="M649.44,315.41l-2.31-1.33a3.13,3.13,0,0,1-1.42-2.45v-5.69c0-.9.64-1.27,1.42-.82l2.31,1.33a3.13,3.13,0,0,1,1.41,2.45v5.69C650.85,315.49,650.22,315.86,649.44,315.41Zm-2.31-9.49c-.4-.23-.72,0-.72.41V312a1.59,1.59,0,0,0,.72,1.24l2.31,1.33c.4.23.72,0,.72-.41V308.5a1.59,1.59,0,0,0-.72-1.24Z" transform="translate(-388.44 -133.67)"></path><path class="cls-6" d="M655.5,318.91l-2.31-1.33a3.13,3.13,0,0,1-1.42-2.45v-5.69c0-.9.63-1.27,1.42-.82l2.31,1.33a3.13,3.13,0,0,1,1.41,2.45v5.69C656.92,319,656.28,319.36,655.5,318.91Zm-2.31-9.49c-.4-.23-.72,0-.72.41v5.69a1.59,1.59,0,0,0,.72,1.24l2.31,1.33c.4.23.72,0,.72-.41V312a1.59,1.59,0,0,0-.72-1.24Z" transform="translate(-388.44 -133.67)"></path><path class="cls-6" d="M661.56,322.41l-2.31-1.33a3.13,3.13,0,0,1-1.42-2.45v-5.69c0-.9.63-1.27,1.42-.82l2.31,1.33A3.13,3.13,0,0,1,663,315.9v5.69C663,322.49,662.34,322.86,661.56,322.41Zm-2.31-9.49c-.4-.23-.72,0-.72.41V319a1.59,1.59,0,0,0,.72,1.24l2.31,1.33c.4.23.72,0,.72-.41V315.5a1.59,1.59,0,0,0-.72-1.24Z" transform="translate(-388.44 -133.67)"></path><path class="cls-6" d="M672.62,328.79l-2.31-1.33A3.13,3.13,0,0,1,668.9,325v-5.69c0-.9.63-1.27,1.42-.82l2.31,1.33a3.13,3.13,0,0,1,1.42,2.45V328C674,328.88,673.4,329.24,672.62,328.79Zm-2.31-9.49c-.4-.23-.72,0-.72.41v5.69a1.59,1.59,0,0,0,.72,1.24l2.31,1.33c.4.23.72,0,.72-.41v-5.69a1.59,1.59,0,0,0-.72-1.24Z" transform="translate(-388.44 -133.67)"></path><path class="cls-6" d="M678.68,332.29,676.37,331a3.13,3.13,0,0,1-1.41-2.45v-5.69c0-.9.63-1.27,1.41-.82l2.31,1.33a3.13,3.13,0,0,1,1.41,2.45v5.69C680.1,332.38,679.46,332.74,678.68,332.29Zm-2.31-9.49c-.4-.23-.72,0-.72.41v5.69a1.59,1.59,0,0,0,.72,1.24l2.31,1.33c.4.23.72,0,.72-.41v-5.69a1.59,1.59,0,0,0-.72-1.24Z" transform="translate(-388.44 -133.67)"></path><path class="cls-6" d="M684.74,335.79l-2.31-1.33A3.13,3.13,0,0,1,681,332v-5.69c0-.9.63-1.27,1.41-.82l2.31,1.33a3.13,3.13,0,0,1,1.41,2.45V335C686.16,335.88,685.52,336.24,684.74,335.79Zm-2.31-9.49c-.4-.23-.72,0-.72.41v5.69a1.59,1.59,0,0,0,.72,1.24l2.31,1.33c.4.23.72,0,.72-.41v-5.69a1.59,1.59,0,0,0-.72-1.24Z" transform="translate(-388.44 -133.67)"></path><path class="cls-6" d="M690.81,339.29,688.49,338a3.13,3.13,0,0,1-1.42-2.45v-5.69c0-.9.63-1.27,1.42-.82l2.31,1.33a3.13,3.13,0,0,1,1.41,2.45v5.69C692.22,339.38,691.59,339.74,690.81,339.29Zm-2.31-9.49c-.4-.23-.72,0-.72.41v5.69a1.59,1.59,0,0,0,.72,1.24l2.31,1.33c.4.23.72,0,.72-.41v-5.69a1.59,1.59,0,0,0-.72-1.24Z" transform="translate(-388.44 -133.67)"></path><path class="cls-6" d="M584.7,251.21a4.14,4.14,0,0,1,.55-2.23l-4.14-2.39v5.1l4.14,2.39A8.48,8.48,0,0,1,584.7,251.21Z" transform="translate(-388.44 -133.67)"></path><path class="cls-6" d="M597.68,255.54v-3.77a5,5,0,0,0-2.28-3.94l-.82-.47v6.4Z" transform="translate(-388.44 -133.67)"></path><path class="cls-6" d="M584.35,241.45l-1-.56c-1.26-.73-2.28-.14-2.28,1.31V246l3.24,1.87Z" transform="translate(-388.44 -133.67)"></path><path class="cls-6" d="M581.11,252.31v3.77a5,5,0,0,0,2.28,3.94l1,.55v-6.39Z" transform="translate(-388.44 -133.67)"></path><path class="cls-6" d="M585.59,248.56c.85-.87,2.24-1,3.8-.06a10.06,10.06,0,0,1,3.8,4.45l.83.48V247l-9.11-5.26v6.39Z" transform="translate(-388.44 -133.67)"></path><path class="cls-6" d="M593.2,259.29c-.85.87-2.24,1-3.8.06a10.06,10.06,0,0,1-3.8-4.45l-.68-.39v6.39l9.11,5.26v-6.39Z" transform="translate(-388.44 -133.67)"></path><path class="cls-6" d="M594.59,266.49l.81.47c1.26.73,2.28.14,2.28-1.31v-3.77l-3.09-1.78Z" transform="translate(-388.44 -133.67)"></path><path class="cls-6" d="M593.54,253.77a8.48,8.48,0,0,1,.55,2.87,4.14,4.14,0,0,1-.55,2.23l4.14,2.39v-5.1Z" transform="translate(-388.44 -133.67)"></path><path class="cls-6" d="M592.91,253.41l-7-4.06a3.45,3.45,0,0,0-.64,2.18,7.78,7.78,0,0,0,.64,2.92l7,4.06a3.45,3.45,0,0,0,.64-2.18A7.78,7.78,0,0,0,592.91,253.41Z" transform="translate(-388.44 -133.67)"></path><path class="cls-6" d="M589.39,249.12a2.8,2.8,0,0,0-3.12-.17l6.24,3.6A8.68,8.68,0,0,0,589.39,249.12Z" transform="translate(-388.44 -133.67)"></path><path class="cls-6" d="M589.39,258.73a2.8,2.8,0,0,0,3.12.17l-6.24-3.6A8.68,8.68,0,0,0,589.39,258.73Z" transform="translate(-388.44 -133.67)"></path><path class="cls-6" d="M650.57,266.78a5.91,5.91,0,0,1,.6,2.58q0,1.88-1.26,2.16t-3.68-1.12l-6.39-3.69V252.44l6,3.48a10.78,10.78,0,0,1,3.47,3,5.84,5.84,0,0,1,1.21,3.41,2.59,2.59,0,0,1-.43,1.6,1.49,1.49,0,0,1-1.21.59A7.59,7.59,0,0,1,650.57,266.78Zm-7.89-10.21v3.36l2.84,1.64a2.59,2.59,0,0,0,1.61.5q.55-.11.55-.95a2.58,2.58,0,0,0-.55-1.57,5.22,5.22,0,0,0-1.61-1.35Zm5,11.77q.57-.1.57-1,0-1.77-2.28-3.09l-3.34-1.93v3.53l3.34,1.93A2.91,2.91,0,0,0,647.72,268.34Z" transform="translate(-388.44 -133.67)"></path><path class="cls-6" d="M661.47,276.14l-5.74-3.31-1.09,2.43-2.93-1.69,5.51-11.09,2.82,1.63,5.52,17.46-3-1.73Zm-.9-3-2-6.59-2,4.33Z" transform="translate(-388.44 -133.67)"></path><path class="cls-6" d="M678.19,274.59v14.27l-2.35-1.36-6.16-12.22v8.66l-2.82-1.63V268l2.36,1.37,6.14,12.21V273Z" transform="translate(-388.44 -133.67)"></path><path class="cls-6" d="M685.62,287.54l-1.66,1v3.61l-2.84-1.64V276.28l2.84,1.64v6.66l5.47-3.5,3.18,1.83-5.12,3.4,5.42,11-3.34-1.93Z" transform="translate(-388.44 -133.67)"></path></g></g></svg> 