<?xml version="1.0" encoding="UTF-8"?> <!-- Generator: Adobe Illustrator 23.0.4, SVG Export Plug-In . SVG Version: 6.00 Build 0) --> <svg xmlns="http://www.w3.org/2000/svg" xmlns:xlink="http://www.w3.org/1999/xlink" id="Layer_1" x="0px" y="0px" viewBox="0 0 429.3 325.6" style="enable-background:new 0 0 429.3 325.6;" xml:space="preserve"> <style type="text/css"> .st0{opacity:0.55;} .st1{enable-background:new ;} .st2{fill:url(#SVGID_1_);} .st3{fill:url(#SVGID_2_);} .st4{fill:url(#SVGID_3_);} .st5{fill:url(#SVGID_4_);} .st6{fill:url(#SVGID_5_);} .st7{fill:#FFFFFF;} .st8{opacity:0.16;fill:#7694A3;enable-background:new ;} .st9{fill:url(#SVGID_6_);} .st10{fill:url(#SVGID_7_);} .st11{fill:#D3E7EB;} .st12{fill:url(#SVGID_8_);} .st13{fill:url(#SVGID_9_);} .st14{fill:url(#SVGID_10_);} .st15{fill:url(#SVGID_11_);} .st16{fill:url(#SVGID_12_);} .st17{fill:url(#SVGID_13_);} .st18{fill:url(#SVGID_14_);} .st19{fill:url(#SVGID_15_);} .st20{fill:url(#SVGID_16_);} .st21{fill:url(#SVGID_17_);} .st22{fill:#A1A1A0;} .st23{clip-path:url(#SVGID_19_);} .st24{fill:url(#SVGID_20_);} .st25{clip-path:url(#SVGID_22_);} .st26{fill:url(#SVGID_23_);} .st27{clip-path:url(#SVGID_25_);} .st28{fill:url(#SVGID_26_);} .st29{clip-path:url(#SVGID_28_);} .st30{fill:url(#SVGID_29_);} .st31{clip-path:url(#SVGID_31_);} .st32{fill:url(#SVGID_32_);} .st33{clip-path:url(#SVGID_34_);} .st34{fill:url(#SVGID_35_);} .st35{fill:url(#SVGID_36_);} .st36{fill:url(#SVGID_37_);} .st37{fill:url(#SVGID_38_);} .st38{fill:url(#SVGID_39_);} .st39{fill:url(#SVGID_40_);} .st40{fill:url(#SVGID_41_);} .st41{fill:url(#SVGID_42_);} .st42{fill:url(#SVGID_43_);} .st43{fill:url(#SVGID_44_);} .st44{clip-path:url(#SVGID_46_);} .st45{fill:url(#SVGID_47_);} .st46{fill:url(#SVGID_48_);} .st47{fill:url(#SVGID_49_);} .st48{fill:url(#SVGID_50_);} .st49{fill:url(#SVGID_51_);} .st50{fill:url(#SVGID_52_);} .st51{fill:url(#SVGID_53_);} .st52{fill:url(#SVGID_54_);} .st53{fill:url(#SVGID_55_);} .st54{fill:url(#SVGID_56_);} .st55{fill:url(#SVGID_57_);} .st56{fill:url(#SVGID_58_);} .st57{fill:url(#SVGID_59_);} .st58{fill:url(#SVGID_60_);} .st59{fill:url(#SVGID_61_);} .st60{fill:url(#SVGID_62_);} .st61{fill:url(#SVGID_63_);} .st62{fill:url(#SVGID_64_);} .st63{fill:url(#SVGID_65_);} .st64{fill:url(#SVGID_66_);} .st65{fill:url(#SVGID_67_);} .st66{fill:url(#SVGID_68_);} .st67{fill:url(#SVGID_69_);} .st68{fill:url(#SVGID_70_);} .st69{fill:url(#SVGID_71_);} .st70{fill:url(#SVGID_72_);} .st71{fill:url(#SVGID_73_);} .st72{fill:url(#SVGID_74_);} .st73{fill:url(#SVGID_75_);} .st74{fill:#EFF0FA;} .st75{fill:url(#SVGID_76_);} .st76{fill:url(#SVGID_77_);} .st77{fill:url(#SVGID_78_);} .st78{fill:url(#SVGID_79_);} .st79{fill:url(#SVGID_80_);} .st80{fill:url(#SVGID_81_);} .st81{opacity:0.64;fill:url(#SVGID_82_);enable-background:new ;} .st82{fill:none;stroke:#D3E7EB;stroke-width:5;stroke-miterlimit:10;} .st83{opacity:0.7;fill:#D3E7EB;enable-background:new ;} .st84{fill:#264AA0;} .st85{opacity:0.8;fill:#264AA0;enable-background:new ;} .st86{fill:url(#SVGID_83_);} .st87{opacity:0.5;fill:#FFFFFF;enable-background:new ;} </style> <g class="st0"> <g> <g class="st1"> <g> <g class="st1"> <linearGradient id="SVGID_1_" gradientUnits="userSpaceOnUse" x1="314.0728" y1="182.3259" x2="321.2042" y2="182.3259" gradientTransform="matrix(1 0 0 -1 0 328)"> <stop offset="0" style="stop-color:#9AB5FF"></stop> <stop offset="1" style="stop-color:#4869C6"></stop> </linearGradient> <path class="st2" d="M314.2,147.7l7-4.1c0,0-0.1,0-0.1,0.1l-7,4.1C314.2,147.7,314.2,147.7,314.2,147.7L314.2,147.7z"></path> </g> </g> <linearGradient id="SVGID_2_" gradientUnits="userSpaceOnUse" x1="262.5499" y1="226.2695" x2="359.05" y2="226.2695" gradientTransform="matrix(1 0 0 -1 0 328)"> <stop offset="0" style="stop-color:#9AB5FF"></stop> <stop offset="1" style="stop-color:#4869C6"></stop> </linearGradient> <path class="st3" d="M347.3,81.6l-69.4-40c-3.3-1.9-6.2-2-8.4-0.8l-7,4.1c2.1-1.2,5.1-1.1,8.4,0.8l69.4,40 c6.5,3.7,11.7,12.9,11.7,20.3l-0.1,50c0,3.7-1.3,6.3-3.4,7.5l7-4.1c2.1-1.2,3.4-3.8,3.4-7.5l0.1-50 C359,94.4,353.8,85.3,347.3,81.6z"></path> <g> <linearGradient id="SVGID_3_" gradientUnits="userSpaceOnUse" x1="282.8931" y1="197.9259" x2="284.7296" y2="197.9259" gradientTransform="matrix(1 0 0 -1 0 328)"> <stop offset="0" style="stop-color:#3069C9"></stop> <stop offset="1" style="stop-color:#262CD4"></stop> </linearGradient> <polygon class="st4" points="282.8,129.6 284.8,130.6 284.8,130.6 "></polygon> <linearGradient id="SVGID_4_" gradientUnits="userSpaceOnUse" x1="314.1793" y1="179.1759" x2="318.2841" y2="179.1759" gradientTransform="matrix(1 0 0 -1 0 328)"> <stop offset="0" style="stop-color:#3069C9"></stop> <stop offset="1" style="stop-color:#262CD4"></stop> </linearGradient> <path class="st5" d="M314.2,147.7l4.1,2.3L314.2,147.7z"></path> <linearGradient id="SVGID_5_" gradientUnits="userSpaceOnUse" x1="258.95" y1="223.8759" x2="351.9514" y2="223.8759" gradientTransform="matrix(1 0 0 -1 0 328)"> <stop offset="0" style="stop-color:#3069C9"></stop> <stop offset="1" style="stop-color:#262CD4"></stop> </linearGradient> <path class="st6" d="M340.2,85.6l-69.4-40c-6.5-3.7-11.8-0.7-11.8,6.7l-0.1,50c0,7.4,5.2,16.6,11.7,20.3l12.2,7l-0.4-0.2 l0.4,0.2l1.8,1.1l0,0l29.5,17l0,0l4.1,2.4l0.3,0.1l-0.3-0.1l21.8,12.6c6.5,3.7,11.8,0.7,11.8-6.7l0.1-50 C352,98.5,346.8,89.4,340.2,85.6z"></path> </g> </g> </g> </g> <g> <ellipse transform="matrix(0.8287 -0.5597 0.5597 0.8287 -6.6841 188.4599)" class="st7" cx="304.6" cy="105.2" rx="4.2" ry="5"></ellipse> <g> <path class="st7" d="M303.9,115.7c-6.2-1.5-11.6-3.6-15.6-6c-2.6-1.6-4.7-3.4-6.3-5.2c-1.6-1.9-2.4-3.8-2.3-5.4 c0.2-3.1,3.6-5.3,9.1-5.9c4.5-0.5,10.3-0.1,16.3,1.4c5.9,1.4,11.5,3.6,15.8,6.3c2.5,1.5,4.6,3.2,6.1,4.9c1.6,1.9,2.4,3.7,2.3,5.2 c-0.2,3.2-4,5.5-9.9,6.1C315.3,117.6,309.7,117.1,303.9,115.7z M305.1,96.9c-5.7-1.4-11.4-1.9-15.6-1.3c-5.1,0.6-7.4,2.5-7.5,4.2 c-0.1,1.7,2.1,5,7.2,8.1c3.8,2.3,8.9,4.3,14.9,5.7c5.6,1.3,10.9,1.9,14.9,1.4c5.6-0.6,8.2-2.7,8.3-4.4c0.1-0.9-0.5-2.1-1.6-3.3 c-1.3-1.5-3.1-3-5.4-4.4C316.1,100.4,310.7,98.2,305.1,96.9z"></path> </g> <g> <path class="st7" d="M293.1,125.7c-0.9-0.2-1.7-0.6-2.3-1.2c-2.4-2.1-3.1-6.7-1.6-12.3c1.2-4.6,3.6-9.7,7-14.4 c3.3-4.6,7.1-8.5,10.8-10.8c2.2-1.4,4.3-2.2,6.2-2.5c2.1-0.3,3.8,0.1,5.1,1.2c2.5,2.2,3.1,7.3,1.5,13.2c-1.1,4.2-3.5,9-6.8,13.6 c-3.4,4.9-7.1,8.6-10.5,10.8c-2.2,1.4-4.5,2.3-6.5,2.5C295,126,294,125.9,293.1,125.7z M297,98.6l0.9,0.8 c-3.2,4.5-5.6,9.5-6.7,13.8c-1.3,5.1-0.6,8.6,0.7,9.7c0.3,0.3,0.8,0.5,1.3,0.6c1.8,0.4,4.6-0.1,8-2.2c3.2-2.1,6.7-5.6,10-10.3 c3.1-4.4,5.4-9,6.5-13c1.5-5.6,0.7-9.4-0.6-10.6c-0.7-0.6-1.9-0.8-3.3-0.6c-1.7,0.2-3.6,1-5.5,2.3c-3.5,2.2-7.2,5.9-10.3,10.3 L297,98.6z"></path> </g> <g> <path class="st7" d="M313.2,130.6c-2.4-0.6-5.3-2.8-8.3-6.4c-3.4-4-6.7-9.6-9.4-15.8l0,0c-2.6-6-4.4-12.1-5-17.1 c-0.4-2.9-0.3-5.5,0.2-7.4c0.5-2.1,1.5-3.5,2.8-4c2.7-1,7.1,1.7,11.4,7.1c3,3.8,6.2,9.1,8.8,15.1c2.8,6.4,4.5,12.1,5.1,16.7 c0.4,3,0.3,5.6-0.2,7.7c-0.5,2.2-1.6,3.6-2.9,4.1C314.9,130.8,314.1,130.8,313.2,130.6z M297.4,107.7c2.5,5.8,5.8,11.3,8.9,15.1 c3.8,4.5,6.9,6,8.3,5.5c1.5-0.5,2.7-3.8,2-9.7c-0.5-4.3-2.2-9.9-4.9-16c-2.5-5.7-5.5-10.9-8.4-14.4c-4-5-7.5-6.7-8.9-6.2 c-0.7,0.3-1.4,1.2-1.7,2.7c-0.4,1.7-0.5,4-0.1,6.6C293.2,96.1,294.9,101.9,297.4,107.7L297.4,107.7z"></path> </g> </g> <title>E-commerce and Retail</title> <ellipse transform="matrix(3.649606e-03 -1 1 3.649606e-03 -49.7085 294.7809)" class="st8" cx="123.1" cy="172.3" rx="15.3" ry="26.5"></ellipse> <g> <g> <linearGradient id="SVGID_6_" gradientUnits="userSpaceOnUse" x1="87.4755" y1="177.0196" x2="158.7158" y2="177.0196" gradientTransform="matrix(1 0 0 -1 0 328)"> <stop offset="0" style="stop-color:#4869C6"></stop> <stop offset="1" style="stop-color:#2C30D0"></stop> </linearGradient> <path class="st9" d="M158.5,123.3l-35.2-0.1H123l-35.2-0.1c-2.5,7.5,12.9,44.9,12.9,44.9l0,0c0.8,2.6,2.9,5,6.3,7 c8.9,5.2,23.3,5.2,32.2,0.1c4-2.3,6.2-5.3,6.6-8.3C148.6,160.2,160.7,130,158.5,123.3z"></path> <linearGradient id="SVGID_7_" gradientUnits="userSpaceOnUse" x1="87.8125" y1="204.8259" x2="158.7876" y2="204.8259" gradientTransform="matrix(1 0 0 -1 0 328)"> <stop offset="0" style="stop-color:#9AB5FF"></stop> <stop offset="1" style="stop-color:#4869C6"></stop> </linearGradient> <path class="st10" d="M98.3,108.6c13.9-7.9,36.3-7.9,50.2,0.2c13.8,8.1,13.8,21-0.1,29c-13.9,7.9-36.3,7.9-50.2-0.2 C84.3,129.6,84.3,116.6,98.3,108.6z"></path> <path class="st11" d="M123.3,139.3c-8.7,0-16.8-2-22.9-5.5c-5.3-3.1-8.2-6.9-8.1-10.7s2.9-7.6,8.2-10.6c6.1-3.5,14.2-5.4,22.9-5.3 c8.7,0,16.8,2,22.9,5.5c5.3,3.1,8.2,6.9,8.1,10.7s-2.9,7.6-8.2,10.6C140.1,137.4,132,139.3,123.3,139.3z"></path> </g> <g> <linearGradient id="SVGID_8_" gradientUnits="userSpaceOnUse" x1="123.2501" y1="224.1759" x2="170.3612" y2="224.1759" gradientTransform="matrix(1 0 0 -1 0 328)"> <stop offset="0" style="stop-color:#9AB5FF"></stop> <stop offset="1" style="stop-color:#4869C6"></stop> </linearGradient> <path class="st12" d="M151.7,84.6c-6.5,0.7-14.9,4.8-16.5,13.9c-1.7,9.9-9.8,13-11.6,23.4c-0.1,0-0.2,0-0.3,0v2.4 c0,0.5,0,0.9,0,1.3v5.9l0,0c2.6,0,5-0.6,6.8-1.6c0.4-0.2,1.6-1,1.6-1s12.3-8,14.4-15.9c2.1-8,10-13.8,15-15.3 c4.9-1.5,9.6-10,9.4-21.5C170.3,76.2,160,83.7,151.7,84.6z"></path> <linearGradient id="SVGID_9_" gradientUnits="userSpaceOnUse" x1="76.5246" y1="224.3259" x2="123.2794" y2="224.3259" gradientTransform="matrix(1 0 0 -1 0 328)"> <stop offset="0" style="stop-color:#9AB5FF"></stop> <stop offset="1" style="stop-color:#4869C6"></stop> </linearGradient> <path class="st13" d="M123.3,124.4V122c-0.1,0-0.2,0-0.3,0c-1.8-10.5-9.9-13.6-11.4-23.5c-1.5-9.1-9.8-13.3-16.4-14.1 c-8.4-0.9-18.7-8.5-18.7-8.5c-0.3,11.5,4.3,20.1,9.2,21.6s12.8,7.4,14.9,15.4c2,8,14.2,16,14.2,16s1.2,0.7,1.6,1 c1.8,1,4.2,1.6,6.8,1.6v-5.9C123.3,125.3,123.3,124.8,123.3,124.4z"></path> <linearGradient id="SVGID_10_" gradientUnits="userSpaceOnUse" x1="113.8937" y1="229.5759" x2="132.5023" y2="229.5759" gradientTransform="matrix(1 0 0 -1 0 328)"> <stop offset="0" style="stop-color:#4869C6"></stop> <stop offset="1" style="stop-color:#2C30D0"></stop> </linearGradient> <path class="st14" d="M131.1,100.7c-4.2-8.4-2.2-14.4-0.1-19c2.1-4.6-7.3-16.9-7.3-16.9h-0.5c0,0-9.6,12.1-7.5,16.8s4,10.6-0.2,19 s1.7,15.5,1.7,15.5l3.6,14.1c0.3,1.1,1.3,1.9,2.4,1.9l0,0c1.1,0,2.1-0.8,2.4-1.9l3.7-14.1C129.3,116.2,135.2,109.2,131.1,100.7z"></path> </g> </g> <g> <linearGradient id="SVGID_11_" gradientUnits="userSpaceOnUse" x1="188.7949" y1="234.0741" x2="241.9332" y2="234.0741" gradientTransform="matrix(1 0 0 1 0 -22)"> <stop offset="0" style="stop-color:#8EB5FF"></stop> <stop offset="1" style="stop-color:#3069C9"></stop> </linearGradient> <path class="st15" d="M241.8,210.5c0,0.1,0,0.3,0,0.4c0,0.1-0.1,0.2-0.1,0.3s-0.1,0.3-0.1,0.4c0,0.1-0.1,0.2-0.1,0.3 s-0.1,0.3-0.2,0.4l-0.2,0.3c-0.1,0.1-0.2,0.3-0.3,0.4l-0.2,0.3c-0.2,0.2-0.4,0.4-0.5,0.6l-0.2,0.2l-0.4,0.3l-0.4,0.3l-0.5,0.3 l-0.5,0.3l0,0l-5,2.9c-0.4,0.2-0.8,0.4-1.2,0.6l-0.4,0.2c-0.3,0.1-0.7,0.3-1,0.4l-0.4,0.1l-0.7,0.2l-0.5,0.1l-0.7,0.2l-0.5,0.1 c-0.5,0.1-1,0.1-1.5,0.2h-0.5l-0.9,0.1h-0.6h-0.7h-0.6c-0.2,0-0.4,0-0.7,0h-0.6l-0.7-0.1l-0.6-0.1l-0.7-0.1l-0.5-0.1l-0.8-0.2 l-0.4-0.1c-0.5-0.1-0.9-0.3-1.4-0.5c-0.2-0.1-0.4-0.2-0.7-0.3l-0.3-0.1c-0.3-0.2-0.6-0.3-1-0.5L193.1,206c-3.2-1.9-4.8-4.3-4.8-6.7 v4.7c0,2.4,1.6,4.9,4.8,6.7l21.4,12.3c0.3,0.2,0.6,0.3,0.9,0.5l0.3,0.1l0.6,0.2h0.1c0.4,0.2,0.9,0.3,1.4,0.5h0.1l0.3,0.1l0.8,0.2 h0.2l0.3,0.1l0.7,0.1h0.3h0.3l0.6,0.1c0.1,0,0.2,0,0.3,0h0.2h0.7h0.3c0.1,0,0.2,0,0.3,0h1.3l0.9-0.1h0.3h0.1c0.5,0,1-0.1,1.5-0.2 h0.1l0.4-0.1l0.7-0.1l0.5-0.1l0.7-0.2h0.1l0.2-0.1c0.3-0.1,0.7-0.2,1-0.4l0.4-0.2c0.4-0.2,0.8-0.4,1.2-0.6l5-2.9l0.2-0.1 c0.1-0.1,0.2-0.1,0.3-0.2l0.5-0.3l0.4-0.3l0.4-0.3l0.1-0.1l0.1-0.1c0.2-0.2,0.4-0.4,0.5-0.6l0.1-0.1l0.1-0.1 c0.1-0.1,0.2-0.3,0.3-0.4l0.1-0.2V217c0.1-0.1,0.1-0.3,0.2-0.4l0.1-0.2v-0.1c0-0.1,0.1-0.3,0.1-0.4c0-0.1,0-0.2,0.1-0.3 c0,0,0,0,0-0.1s0-0.3,0-0.4c0-0.1,0-0.2,0-0.3v-4.9C242,210.3,242,210.4,241.8,210.5z"></path> <linearGradient id="SVGID_12_" gradientUnits="userSpaceOnUse" x1="228.5261" y1="217.3165" x2="204.9677" y2="233.0819" gradientTransform="matrix(1 0 0 1 0 -22)"> <stop offset="0" style="stop-color:#8EB5FF"></stop> <stop offset="1" style="stop-color:#3069C9"></stop> </linearGradient> <path class="st16" d="M238.2,204.8c5,2.9,5.1,7.6,0,10.5l-5,2.9c-5,2.9-13.2,2.9-18.2,0l-21.4-12.3c-6.4-3.7-6.4-9.7-0.1-13.5 c6.4-3.7,16.8-3.7,23.2,0L238.2,204.8z"></path> </g> <g> <linearGradient id="SVGID_13_" gradientUnits="userSpaceOnUse" x1="227.85" y1="199.6446" x2="227.85" y2="228.8207" gradientTransform="matrix(1 0 0 1 0 -22)"> <stop offset="0" style="stop-color:#8EB5FF"></stop> <stop offset="1" style="stop-color:#3069C9"></stop> </linearGradient> <path class="st17" d="M226.6,177.7l-0.1,34.7c0,0.2,0,0.4-0.1,0.5l0,0c0,0.2-0.1,0.3-0.1,0.4l0,0c-0.1,0.1-0.1,0.2-0.2,0.3 l-0.1,0.1c-0.1,0.1-0.2,0.2-0.3,0.2l3.6-2.1c0.1-0.1,0.2-0.1,0.3-0.2l0.1-0.1l0.1-0.1l0.1-0.2l0,0l0.1-0.1V211v-0.1v-0.1l0,0v-0.1 v-0.1v-0.1v-0.2l0,0l0.1-34.8L226.6,177.7z"></path> <linearGradient id="SVGID_14_" gradientUnits="userSpaceOnUse" x1="203.3157" y1="191.9241" x2="230.1707" y2="191.9241" gradientTransform="matrix(1 0 0 1 0 -22)"> <stop offset="0" style="stop-color:#90ABF3"></stop> <stop offset="0.99" style="stop-color:#C6D2F4"></stop> </linearGradient> <polygon class="st18" points="203.3,164.3 207,162.2 230.2,175.6 226.6,177.7 "></polygon> <linearGradient id="SVGID_15_" gradientUnits="userSpaceOnUse" x1="215.3918" y1="198.7032" x2="214.1247" y2="228.6082" gradientTransform="matrix(1 0 0 1 0 -22)"> <stop offset="0" style="stop-color:#8EB5FF"></stop> <stop offset="1" style="stop-color:#3069C9"></stop> </linearGradient> <path class="st19" d="M226.6,177.7l-0.1,34.7c0,1.6-1.1,2.2-2.5,1.4l-18.2-10.6c-1.5-1-2.4-2.6-2.5-4.3l0.1-34.7L226.6,177.7z"></path> </g> <g> <linearGradient id="SVGID_16_" gradientUnits="userSpaceOnUse" x1="153.0703" y1="161.4742" x2="304.5511" y2="161.4742" gradientTransform="matrix(1 0 0 1 0 -22)"> <stop offset="0" style="stop-color:#8EB5FF"></stop> <stop offset="1" style="stop-color:#3069C9"></stop> </linearGradient> <path class="st20" d="M304.5,131.1c0-0.1,0-0.1,0-0.2c0-0.1,0-0.1,0-0.2c0-0.1,0-0.1,0-0.2c0-0.1,0-0.1,0-0.2l0,0v-0.2 c0-0.1,0-0.1,0-0.2c0-0.1,0-0.1,0-0.2c0-0.1,0-0.1,0-0.2v-0.1l0,0l0,0c0-0.1,0-0.1-0.1-0.2l-0.1-0.2l-0.1-0.2c0-0.1,0-0.1-0.1-0.2 c0,0,0-0.1-0.1-0.1l0,0l0,0l-0.1-0.2l-0.1-0.2c0-0.1-0.1-0.1-0.1-0.2l-0.1-0.2l0,0c0,0,0,0,0-0.1l-0.3-0.4l-0.2-0.3l0,0l-0.2-0.2 l-0.1-0.2l-0.1-0.2l-0.1-0.2l0,0l0,0l-0.5-0.3c0-0.1-0.1-0.1-0.2-0.2l-0.2-0.2l-0.2-0.1l-0.1-0.1l0,0h-0.1l-0.2-0.1L301,125 l-0.2-0.1l-0.2-0.1l0,0L159.1,43l-0.1-0.1l-0.2-0.1l-0.1-0.1l-0.2-0.1l-0.1-0.1l0,0h-0.1h-0.1H158h-0.2h-0.5h-0.2l0,0l-0.3,0.1 l-0.3,0.1l-3.7,2c0.2-0.1,0.4-0.2,0.6-0.2l0,0c0.2,0,0.4,0,0.6,0l0,0c0.2,0,0.5,0.1,0.7,0.2l0,0c0.3,0.1,0.5,0.2,0.8,0.3 l141.4,81.7c0.3,0.2,0.5,0.3,0.8,0.5l0,0c0.2,0.2,0.5,0.4,0.7,0.7l0,0c0.2,0.2,0.4,0.5,0.6,0.8l0,0c0.2,0.3,0.4,0.5,0.5,0.8l0,0 c0.2,0.3,0.3,0.6,0.4,0.9l0,0c0.1,0.3,0.2,0.6,0.3,0.9l0,0c0.1,0.3,0.2,0.6,0.2,0.9l0,0c0,0.3,0.1,0.6,0.1,0.9l-0.3,101.1 c0,0.3,0,0.5-0.1,0.8l0,0c0,0.2-0.1,0.4-0.2,0.7l0,0c-0.1,0.2-0.2,0.3-0.3,0.4l-0.1,0.1c-0.1,0.1-0.3,0.2-0.4,0.3l3.6-2.1 c0.2-0.1,0.3-0.2,0.4-0.3l0.1-0.1l0.1-0.2c0.1-0.1,0.1-0.2,0.1-0.3l0,0c0,0,0.1-0.1,0.1-0.2l0.1-0.2c0-0.1,0-0.1,0-0.2v-0.1l0,0 v-0.1v-0.2c0,0,0-0.1,0-0.2c0-0.1,0-0.1,0-0.2c0-0.1,0-0.1,0-0.2l0,0l0.3-101.1L304.5,131.1z"></path> <linearGradient id="SVGID_17_" gradientUnits="userSpaceOnUse" x1="226.3501" y1="116.9377" x2="226.3501" y2="220.0186" gradientTransform="matrix(1 0 0 1 0 -22)"> <stop offset="0" style="stop-color:#8EB5FF"></stop> <stop offset="1" style="stop-color:#3069C9"></stop> </linearGradient> <path class="st21" d="M297.2,126.9c2.2,1.4,3.6,3.8,3.7,6.5l-0.3,101.1c0,2.4-1.7,3.4-3.8,2.2L155.5,155c-2.2-1.4-3.6-3.8-3.7-6.5 l0.3-101.1c0-2.4,1.7-3.4,3.8-2.2L297.2,126.9z"></path> </g> <g> <polygon class="st7" points="297.2,129.9 297,231.2 155.5,149.6 155.7,48.3 "></polygon> </g> <path class="st22" d="M274.2,168.3c0.6,0.4,0.9,1,1,1.7c0,0.6-0.4,0.9-1,0.6l-24.3-14c-0.6-0.4-0.9-1-1-1.7c0-0.6,0.4-0.9,1-0.5 L274.2,168.3z"></path> <g> <g> <g> <defs> <path id="SVGID_18_" d="M274.2,168.3c0.6,0.4,0.9,1,1,1.7c0,0.6-0.4,0.9-1,0.6l-24.3-14c-0.6-0.4-0.9-1-1-1.7 c0-0.6,0.4-0.9,1-0.5L274.2,168.3z"></path> </defs> <clipPath id="SVGID_19_"> <use xlink:href="#SVGID_18_" style="overflow:visible;"></use> </clipPath> <g class="st23"> <linearGradient id="SVGID_20_" gradientUnits="userSpaceOnUse" x1="248.9861" y1="184.4241" x2="275.1861" y2="184.4241" gradientTransform="matrix(1 0 0 1 0 -22)"> <stop offset="0" style="stop-color:#9AB5FF"></stop> <stop offset="1" style="stop-color:#4869C6"></stop> </linearGradient> <polyline class="st24" points="275.2,170.2 275.2,170.4 275,170.5 274.8,170.6 274.8,170.7 274.5,170.7 274.5,170.6 274.2,170.6 250,156.5 249.8,156.4 249.6,156.2 249.5,156 249.3,155.8 249.2,155.6 249.1,155.3 249.1,155.1 249,154.9 249.1,154.7 249.1,154.5 249.2,154.3 249.3,154.2 249.5,154.2 249.6,154.2 249.8,154.2 250,154.3 274.2,168.3 274.5,168.5 274.7,168.6 274.8,168.8 275,169 275,169.3 275.2,169.5 275.2,169.8 275.2,170 275.2,170.2 "></polyline> </g> </g> </g> </g> <path class="st22" d="M274.2,185.8c0.6,0.4,0.9,1,1,1.7c0,0.6-0.4,0.9-1,0.6l-24.3-14c-0.6-0.4-0.9-1-1-1.7c0-0.6,0.4-0.9,1-0.5 L274.2,185.8z"></path> <g> <g> <g> <defs> <path id="SVGID_21_" d="M274.2,185.8c0.6,0.4,0.9,1,1,1.7c0,0.6-0.4,0.9-1,0.6l-24.3-14c-0.6-0.4-0.9-1-1-1.7 c0-0.6,0.4-0.9,1-0.5L274.2,185.8z"></path> </defs> <clipPath id="SVGID_22_"> <use xlink:href="#SVGID_21_" style="overflow:visible;"></use> </clipPath> <g class="st25"> <linearGradient id="SVGID_23_" gradientUnits="userSpaceOnUse" x1="248.9861" y1="201.8241" x2="275.1861" y2="201.8241" gradientTransform="matrix(1 0 0 1 0 -22)"> <stop offset="0" style="stop-color:#9AB5FF"></stop> <stop offset="1" style="stop-color:#4869C6"></stop> </linearGradient> <polyline class="st26" points="275.2,187.6 275.2,187.8 275,188 274.8,188.1 274.8,188.1 274.5,188.1 274.5,188.1 274.2,188 250,174 249.8,173.8 249.6,173.7 249.5,173.5 249.3,173.3 249.2,173 249.1,172.8 249.1,172.5 249,172.3 249.1,172.1 249.1,171.9 249.2,171.8 249.3,171.7 249.5,171.6 249.6,171.6 249.8,171.7 250,171.8 274.2,185.8 274.5,185.9 274.7,186.1 274.8,186.3 275,186.5 275,186.7 275.2,187 275.2,187.2 275.2,187.4 275.2,187.6 "></polyline> </g> </g> </g> </g> <path class="st22" d="M274.2,191.8c0.6,0.4,0.9,1,1,1.7c0,0.6-0.4,0.9-1,0.5L250,180c-0.6-0.4-0.9-1-1-1.7c0-0.6,0.4-0.9,1-0.5 L274.2,191.8z"></path> <g> <g> <g> <defs> <path id="SVGID_24_" d="M274.2,191.8c0.6,0.4,0.9,1,1,1.7c0,0.6-0.4,0.9-1,0.5L250,180c-0.6-0.4-0.9-1-1-1.7 c0-0.6,0.4-0.9,1-0.5L274.2,191.8z"></path> </defs> <clipPath id="SVGID_25_"> <use xlink:href="#SVGID_24_" style="overflow:visible;"></use> </clipPath> <g class="st27"> <linearGradient id="SVGID_26_" gradientUnits="userSpaceOnUse" x1="248.9861" y1="207.8241" x2="275.1861" y2="207.8241" gradientTransform="matrix(1 0 0 1 0 -22)"> <stop offset="0" style="stop-color:#9AB5FF"></stop> <stop offset="1" style="stop-color:#4869C6"></stop> </linearGradient> <polyline class="st28" points="275.2,193.6 275.2,193.8 275,194 274.8,194 274.8,194.1 274.5,194.1 274.5,194.1 274.2,194 250,180 249.8,179.8 249.6,179.7 249.5,179.5 249.3,179.2 249.2,179 249.1,178.8 249.1,178.5 249,178.3 249.1,178.1 249.1,177.9 249.2,177.8 249.3,177.7 249.5,177.6 249.6,177.6 249.8,177.7 250,177.7 274.2,191.8 274.5,191.9 274.7,192.1 274.8,192.3 275,192.5 275,192.7 275.2,192.9 275.2,193.2 275.2,193.4 275.2,193.6 "></polyline> </g> </g> </g> </g> <path class="st22" d="M264,168.8c0.6,0.4,0.9,1,1,1.7c0,0.6-0.4,0.9-1,0.6l-24.3-14c-0.6-0.4-0.9-1-1-1.7c0-0.6,0.4-0.9,1-0.5 L264,168.8z"></path> <g> <g> <g> <defs> <path id="SVGID_27_" d="M264,168.8c0.6,0.4,0.9,1,1,1.7c0,0.6-0.4,0.9-1,0.6l-24.3-14c-0.6-0.4-0.9-1-1-1.7c0-0.6,0.4-0.9,1-0.5 L264,168.8z"></path> </defs> <clipPath id="SVGID_28_"> <use xlink:href="#SVGID_27_" style="overflow:visible;"></use> </clipPath> <g class="st29"> <linearGradient id="SVGID_29_" gradientUnits="userSpaceOnUse" x1="238.85" y1="184.9241" x2="265.05" y2="184.9241" gradientTransform="matrix(1 0 0 1 0 -22)"> <stop offset="0" style="stop-color:#9AB5FF"></stop> <stop offset="1" style="stop-color:#4869C6"></stop> </linearGradient> <polyline class="st30" points="265,170.7 265,170.9 264.8,171 264.8,171.1 264.7,171.2 264.5,171.2 264.2,171.1 264.2,171 239.8,157 239.7,156.9 239.5,156.7 239.3,156.5 239.2,156.3 239.1,156.1 239,155.8 238.8,155.6 238.8,155.4 238.8,155.1 239,155 239.1,154.8 239.2,154.7 239.3,154.7 239.5,154.7 239.7,154.7 239.8,154.8 264.2,168.8 264.2,169 264.5,169.1 264.7,169.3 264.8,169.5 264.8,169.8 265,170 265,170.2 265,170.5 265,170.7 "></polyline> </g> </g> </g> </g> <path class="st22" d="M264,173.2c0.6,0.4,0.9,1,1,1.7c0,0.6-0.4,0.9-1,0.6l-24.3-14c-0.6-0.4-0.9-1-1-1.7c0-0.6,0.4-0.9,1-0.5 L264,173.2z"></path> <g> <g> <g> <defs> <path id="SVGID_30_" d="M264,173.2c0.6,0.4,0.9,1,1,1.7c0,0.6-0.4,0.9-1,0.6l-24.3-14c-0.6-0.4-0.9-1-1-1.7c0-0.6,0.4-0.9,1-0.5 L264,173.2z"></path> </defs> <clipPath id="SVGID_31_"> <use xlink:href="#SVGID_30_" style="overflow:visible;"></use> </clipPath> <g class="st31"> <linearGradient id="SVGID_32_" gradientUnits="userSpaceOnUse" x1="238.85" y1="189.3241" x2="265.05" y2="189.3241" gradientTransform="matrix(1 0 0 1 0 -22)"> <stop offset="0" style="stop-color:#9AB5FF"></stop> <stop offset="1" style="stop-color:#4869C6"></stop> </linearGradient> <polyline class="st32" points="265,175.1 265,175.3 264.8,175.4 264.8,175.5 264.7,175.6 264.5,175.6 264.2,175.6 264.2,175.5 239.8,161.4 239.7,161.3 239.5,161.1 239.3,160.9 239.2,160.7 239.1,160.5 239,160.3 238.8,160 238.8,159.8 238.8,159.6 239,159.4 239.1,159.3 239.2,159.2 239.3,159.1 239.5,159.1 239.7,159.1 239.8,159.2 264.2,173.2 264.2,173.4 264.5,173.5 264.7,173.7 264.8,174 264.8,174.2 265,174.4 265,174.7 265,174.9 265,175.1 "></polyline> </g> </g> </g> </g> <path class="st22" d="M169.6,145.8c0.2,0.2,0.4,0.4,0.4,0.7s-0.2,0.4-0.4,0.2l-7.8-4.5c-0.2-0.2-0.4-0.4-0.4-0.7s0.2-0.4,0.4-0.2 L169.6,145.8z"></path> <g> <g> <g> <defs> <path id="SVGID_33_" d="M169.6,145.8c0.2,0.2,0.4,0.4,0.4,0.7s-0.2,0.4-0.4,0.2l-7.8-4.5c-0.2-0.2-0.4-0.4-0.4-0.7 s0.2-0.4,0.4-0.2L169.6,145.8z"></path> </defs> <clipPath id="SVGID_34_"> <use xlink:href="#SVGID_33_" style="overflow:visible;"></use> </clipPath> <g class="st33"> <linearGradient id="SVGID_35_" gradientUnits="userSpaceOnUse" x1="161.3735" y1="165.9741" x2="169.9515" y2="165.9741" gradientTransform="matrix(1 0 0 1 0 -22)"> <stop offset="0" style="stop-color:#BFC9F8"></stop> <stop offset="0.95" style="stop-color:#8297F8"></stop> </linearGradient> <polyline class="st34" points="170,146.5 170,146.6 169.8,146.7 169.8,146.7 169.8,146.7 169.8,146.8 169.7,146.7 169.6,146.7 161.8,142.2 161.7,142.2 161.7,142.1 161.6,142 161.5,141.9 161.5,141.8 161.3,141.7 161.3,141.6 161.3,141.5 161.3,141.4 161.5,141.3 161.5,141.3 161.5,141.2 161.6,141.2 161.7,141.2 161.7,141.2 161.8,141.3 169.6,145.8 169.7,145.8 169.8,145.9 169.8,146 169.8,146.1 169.8,146.2 170,146.3 170,146.4 170,146.5 170,146.5 "></polyline> </g> </g> </g> </g> <linearGradient id="SVGID_36_" gradientUnits="userSpaceOnUse" x1="161.3735" y1="164.3741" x2="173.4735" y2="164.3741" gradientTransform="matrix(1 0 0 1 0 -22)"> <stop offset="0" style="stop-color:#9AB5FF"></stop> <stop offset="1" style="stop-color:#4869C6"></stop> </linearGradient> <path class="st35" d="M173.1,145.2c0.2,0.2,0.4,0.4,0.4,0.7s-0.2,0.4-0.4,0.2l-11.3-6.5c-0.2-0.2-0.4-0.4-0.4-0.7s0.2-0.4,0.4-0.2 L173.1,145.2z"></path> <g> <linearGradient id="SVGID_37_" gradientUnits="userSpaceOnUse" x1="161.5193" y1="153.9741" x2="173.6293" y2="153.9741" gradientTransform="matrix(1 0 0 1 0 -22)"> <stop offset="0" style="stop-color:#9AB5FF"></stop> <stop offset="1" style="stop-color:#4869C6"></stop> </linearGradient> <path class="st36" d="M173.2,134.8c0.2,0.2,0.4,0.4,0.4,0.7s-0.2,0.4-0.4,0.2l-11.2-6.5c-0.2-0.2-0.4-0.4-0.4-0.7s0.2-0.4,0.4-0.2 L173.2,134.8z"></path> <linearGradient id="SVGID_38_" gradientUnits="userSpaceOnUse" x1="169.65" y1="162.2847" x2="179.3829" y2="162.2847" gradientTransform="matrix(1 0 0 1 0 -22)"> <stop offset="0" style="stop-color:#9AB5FF"></stop> <stop offset="1" style="stop-color:#4869C6"></stop> </linearGradient> <path class="st37" d="M179,142.3c0.2,0.2,0.4,0.4,0.4,0.7v0.2c0,0.3-0.2,0.4-0.4,0.2l-8.9-5.1c-0.2-0.2-0.4-0.4-0.4-0.7v-0.2 c0-0.2,0.2-0.4,0.4-0.2L179,142.3z"></path> <linearGradient id="SVGID_39_" gradientUnits="userSpaceOnUse" x1="164.345" y1="147.7741" x2="174.0667" y2="147.7741" gradientTransform="matrix(1 0 0 1 0 -22)"> <stop offset="0" style="stop-color:#9AB5FF"></stop> <stop offset="1" style="stop-color:#4869C6"></stop> </linearGradient> <path class="st38" d="M173.7,127.8c0.2,0.2,0.4,0.4,0.4,0.7v0.2c0,0.3-0.2,0.4-0.4,0.2l-9-5.1c-0.2-0.2-0.4-0.4-0.4-0.7v-0.2 c0-0.3,0.2-0.4,0.4-0.2L173.7,127.8z"></path> <linearGradient id="SVGID_40_" gradientUnits="userSpaceOnUse" x1="161.6651" y1="152.9241" x2="181.2205" y2="152.9241" gradientTransform="matrix(1 0 0 1 0 -22)"> <stop offset="0" style="stop-color:#9AB5FF"></stop> <stop offset="1" style="stop-color:#4869C6"></stop> </linearGradient> <path class="st39" d="M180.8,135.8c0.2,0.2,0.4,0.4,0.4,0.7v0.2c0,0.3-0.2,0.4-0.4,0.2l-18.7-10.8c-0.2-0.2-0.4-0.4-0.4-0.7v-0.2 c0-0.3,0.2-0.4,0.4-0.2L180.8,135.8z"></path> <linearGradient id="SVGID_41_" gradientUnits="userSpaceOnUse" x1="177.666" y1="162.5241" x2="187.1661" y2="162.5241" gradientTransform="matrix(1 0 0 1 0 -22)"> <stop offset="0" style="stop-color:#9AB5FF"></stop> <stop offset="1" style="stop-color:#4869C6"></stop> </linearGradient> <path class="st40" d="M186.8,142.6c0.2,0.2,0.4,0.4,0.4,0.7s-0.2,0.4-0.4,0.2l-8.7-5c-0.2-0.2-0.4-0.4-0.4-0.7s0.2-0.4,0.4-0.2 L186.8,142.6z"></path> <linearGradient id="SVGID_42_" gradientUnits="userSpaceOnUse" x1="169.6936" y1="151.9241" x2="194.3621" y2="151.9241" gradientTransform="matrix(1 0 0 1 0 -22)"> <stop offset="0" style="stop-color:#9AB5FF"></stop> <stop offset="1" style="stop-color:#4869C6"></stop> </linearGradient> <path class="st41" d="M194,136.3c0.2,0.2,0.4,0.4,0.4,0.7v0.2c0,0.3-0.2,0.4-0.4,0.2l-23.9-13.8c-0.2-0.2-0.4-0.4-0.4-0.7v-0.2 c0-0.3,0.2-0.4,0.4-0.2L194,136.3z"></path> <linearGradient id="SVGID_43_" gradientUnits="userSpaceOnUse" x1="177.8118" y1="150.3241" x2="191.6934" y2="150.3241" gradientTransform="matrix(1 0 0 1 0 -22)"> <stop offset="0" style="stop-color:#9AB5FF"></stop> <stop offset="1" style="stop-color:#4869C6"></stop> </linearGradient> <path class="st42" d="M191.3,131.6c0.2,0.2,0.4,0.4,0.4,0.7v0.2c0,0.3-0.2,0.4-0.4,0.2l-13.1-7.6c-0.2-0.2-0.4-0.4-0.4-0.7v-0.2 c0-0.3,0.2-0.4,0.4-0.2L191.3,131.6z"></path> <linearGradient id="SVGID_44_" gradientUnits="userSpaceOnUse" x1="175.9953" y1="158.1347" x2="198.3652" y2="158.1347" gradientTransform="matrix(1 0 0 1 0 -22)"> <stop offset="0" style="stop-color:#9AB5FF"></stop> <stop offset="1" style="stop-color:#4869C6"></stop> </linearGradient> <path class="st43" d="M198,141.8c0.2,0.2,0.4,0.4,0.4,0.7v0.2c0,0.3-0.2,0.4-0.4,0.2l-21.6-12.4c-0.2-0.2-0.4-0.4-0.4-0.7v-0.2 c0-0.2,0.2-0.4,0.4-0.2L198,141.8z"></path> </g> <path class="st22" d="M167.7,121.1c0.2,0.2,0.4,0.4,0.4,0.7v0.2c0,0.3-0.2,0.4-0.4,0.2l-8.9-5.1c-0.2-0.2-0.4-0.4-0.4-0.7v-0.2 c0-0.3,0.2-0.4,0.4-0.2L167.7,121.1z"></path> <g> <g> <g> <defs> <path id="SVGID_45_" d="M167.7,121.1c0.2,0.2,0.4,0.4,0.4,0.7v0.2c0,0.3-0.2,0.4-0.4,0.2l-8.9-5.1c-0.2-0.2-0.4-0.4-0.4-0.7 v-0.2c0-0.3,0.2-0.4,0.4-0.2L167.7,121.1z"></path> </defs> <clipPath id="SVGID_46_"> <use xlink:href="#SVGID_45_" style="overflow:visible;"></use> </clipPath> <g class="st44"> <linearGradient id="SVGID_47_" gradientUnits="userSpaceOnUse" x1="158.35" y1="141.1241" x2="168.0715" y2="141.1241" gradientTransform="matrix(1 0 0 1 0 -22)"> <stop offset="0" style="stop-color:#BFC9F8"></stop> <stop offset="0.95" style="stop-color:#8297F8"></stop> </linearGradient> <polyline class="st45" points="168.1,122.1 168.1,122.2 168.1,122.2 168.1,122.3 168,122.3 167.8,122.4 167.8,122.4 167.8,122.3 167.7,122.3 158.8,117.1 158.7,117.1 158.6,117 158.6,116.9 158.5,116.8 158.5,116.8 158.3,116.7 158.3,116.6 158.3,116.5 158.3,116.2 158.3,116.1 158.3,116.1 158.5,116 158.5,116 158.6,115.9 158.6,115.9 158.7,115.9 158.8,116 167.7,121.1 167.8,121.2 167.8,121.3 167.8,121.4 168,121.4 168.1,121.5 168.1,121.6 168.1,121.7 168.1,121.8 168.1,122.1 "></polyline> </g> </g> </g> </g> <linearGradient id="SVGID_48_" gradientUnits="userSpaceOnUse" x1="158.29" y1="140.4847" x2="176.7129" y2="140.4847" gradientTransform="matrix(1 0 0 1 0 -22)"> <stop offset="0" style="stop-color:#9AB5FF"></stop> <stop offset="1" style="stop-color:#4869C6"></stop> </linearGradient> <path class="st46" d="M176.3,123c0.2,0.2,0.4,0.4,0.4,0.7v0.2c0,0.3-0.2,0.4-0.4,0.2L158.7,114c-0.2-0.2-0.4-0.4-0.4-0.7v-0.2 c0-0.2,0.2-0.4,0.4-0.2L176.3,123z"></path> <linearGradient id="SVGID_49_" gradientUnits="userSpaceOnUse" x1="168.3144" y1="135.8741" x2="174.5825" y2="135.8741" gradientTransform="matrix(1 0 0 1 0 -22)"> <stop offset="0" style="stop-color:#9AB5FF"></stop> <stop offset="1" style="stop-color:#4869C6"></stop> </linearGradient> <path class="st47" d="M174.1,114.8c0.3,0.2,0.5,0.5,0.5,0.9c0,0.3-0.2,0.4-0.5,0.3l-5.3-3c-0.3-0.2-0.5-0.5-0.5-0.9 c0-0.3,0.2-0.4,0.5-0.3L174.1,114.8z"></path> <linearGradient id="SVGID_50_" gradientUnits="userSpaceOnUse" x1="158.3012" y1="155.6721" x2="168.0361" y2="155.6721" gradientTransform="matrix(1 0 0 1 0 -22)"> <stop offset="0" style="stop-color:#9AB5FF"></stop> <stop offset="1" style="stop-color:#4869C6"></stop> </linearGradient> <path class="st48" d="M167.6,135.7c0.2,0.2,0.4,0.4,0.4,0.7v0.2c0,0.1-0.1,0.3-0.2,0.3c-0.1,0-0.1,0-0.2-0.1l-8.9-5.1 c-0.2-0.2-0.4-0.4-0.4-0.7v-0.2c0-0.3,0.2-0.4,0.4-0.2L167.6,135.7z"></path> <linearGradient id="SVGID_51_" gradientUnits="userSpaceOnUse" x1="170.8934" y1="173.7762" x2="178.4733" y2="173.7762" gradientTransform="matrix(1 0 0 1 0 -22)"> <stop offset="0" style="stop-color:#9AB5FF"></stop> <stop offset="1" style="stop-color:#4869C6"></stop> </linearGradient> <path class="st49" d="M178.1,153.3c0.2,0.2,0.4,0.4,0.4,0.7s-0.2,0.4-0.4,0.2l-6.7-3.9c-0.2-0.2-0.4-0.4-0.4-0.7 c0-0.1,0.1-0.3,0.2-0.3c0.1,0,0.2,0,0.2,0.1L178.1,153.3z"></path> <g> <linearGradient id="SVGID_52_" gradientUnits="userSpaceOnUse" x1="171.0055" y1="175.7241" x2="194.2949" y2="175.7241" gradientTransform="matrix(1 0 0 1 0 -22)"> <stop offset="0" style="stop-color:#9AB5FF"></stop> <stop offset="1" style="stop-color:#4869C6"></stop> </linearGradient> <path class="st50" d="M193.8,159.8c0.2,0.2,0.4,0.4,0.4,0.7s-0.2,0.4-0.4,0.2l-22.4-13c-0.2-0.2-0.4-0.4-0.4-0.7s0.2-0.4,0.4-0.2 L193.8,159.8z"></path> <linearGradient id="SVGID_53_" gradientUnits="userSpaceOnUse" x1="190.7291" y1="169.1241" x2="197.1429" y2="169.1241" gradientTransform="matrix(1 0 0 1 0 -22)"> <stop offset="0" style="stop-color:#9AB5FF"></stop> <stop offset="1" style="stop-color:#4869C6"></stop> </linearGradient> <path class="st51" d="M196.8,148.3c0.2,0.2,0.4,0.4,0.4,0.7s-0.2,0.4-0.4,0.2l-5.6-3.2c-0.2-0.2-0.4-0.4-0.4-0.7s0.2-0.4,0.4-0.2 L196.8,148.3z"></path> <linearGradient id="SVGID_54_" gradientUnits="userSpaceOnUse" x1="192.05" y1="166.6241" x2="198.3501" y2="166.6241" gradientTransform="matrix(1 0 0 1 0 -22)"> <stop offset="0" style="stop-color:#9AB5FF"></stop> <stop offset="1" style="stop-color:#4869C6"></stop> </linearGradient> <path class="st52" d="M198,145.7c0.2,0.2,0.4,0.4,0.4,0.7v0.2c0,0.3-0.2,0.4-0.4,0.2l-5.5-3.2c-0.2-0.2-0.4-0.4-0.4-0.7v-0.2 c0-0.3,0.2-0.4,0.4-0.2L198,145.7z"></path> <linearGradient id="SVGID_55_" gradientUnits="userSpaceOnUse" x1="182.65" y1="175.1241" x2="210.8501" y2="175.1241" gradientTransform="matrix(1 0 0 1 0 -22)"> <stop offset="0" style="stop-color:#9AB5FF"></stop> <stop offset="1" style="stop-color:#4869C6"></stop> </linearGradient> <path class="st53" d="M210.5,160.5c0.2,0.2,0.4,0.4,0.4,0.7v0.2c0,0.3-0.2,0.4-0.4,0.2l-27.4-15.8c-0.2-0.2-0.4-0.4-0.4-0.7v-0.2 c0-0.3,0.2-0.4,0.4-0.2L210.5,160.5z"></path> </g> <linearGradient id="SVGID_56_" gradientUnits="userSpaceOnUse" x1="182.45" y1="161.4847" x2="190.3328" y2="161.4847" gradientTransform="matrix(1 0 0 1 0 -22)"> <stop offset="0" style="stop-color:#9AB5FF"></stop> <stop offset="1" style="stop-color:#4869C6"></stop> </linearGradient> <path class="st54" d="M190,141c0.2,0.2,0.4,0.4,0.4,0.7v0.2c0,0.3-0.2,0.4-0.4,0.2l-7.1-4.1c-0.2-0.2-0.4-0.4-0.4-0.7v-0.2 c0-0.2,0.2-0.4,0.4-0.2L190,141z"></path> <linearGradient id="SVGID_57_" gradientUnits="userSpaceOnUse" x1="175.1207" y1="172.2741" x2="187.2208" y2="172.2741" gradientTransform="matrix(1 0 0 1 0 -22)"> <stop offset="0" style="stop-color:#9AB5FF"></stop> <stop offset="1" style="stop-color:#4869C6"></stop> </linearGradient> <path class="st55" d="M186.8,153.1c0.2,0.2,0.4,0.4,0.4,0.7s-0.2,0.4-0.4,0.2l-11.3-6.5c-0.2-0.2-0.4-0.4-0.4-0.7s0.2-0.4,0.4-0.2 L186.8,153.1z"></path> <linearGradient id="SVGID_58_" gradientUnits="userSpaceOnUse" x1="189.1481" y1="179.0741" x2="196.728" y2="179.0741" gradientTransform="matrix(1 0 0 1 0 -22)"> <stop offset="0" style="stop-color:#9AB5FF"></stop> <stop offset="1" style="stop-color:#4869C6"></stop> </linearGradient> <path class="st56" d="M196.3,158.6c0.2,0.2,0.4,0.4,0.4,0.7s-0.2,0.4-0.4,0.2l-6.7-3.9c-0.2-0.2-0.4-0.4-0.4-0.7s0.2-0.4,0.4-0.2 L196.3,158.6z"></path> <linearGradient id="SVGID_59_" gradientUnits="userSpaceOnUse" x1="176.6793" y1="143.9241" x2="194.3793" y2="143.9241" gradientTransform="matrix(1 0 0 1 0 -22)"> <stop offset="0" style="stop-color:#9AB5FF"></stop> <stop offset="1" style="stop-color:#4869C6"></stop> </linearGradient> <path class="st57" d="M193.8,126.2c0.3,0.2,0.5,0.5,0.5,0.9c0,0.3-0.2,0.4-0.5,0.3l-16.7-9.7c-0.3-0.2-0.5-0.5-0.5-0.9 c0-0.3,0.2-0.4,0.5-0.3L193.8,126.2z"></path> <linearGradient id="SVGID_60_" gradientUnits="userSpaceOnUse" x1="180.929" y1="130.6741" x2="186.529" y2="130.6741" gradientTransform="matrix(1 0 0 1 0 -22)"> <stop offset="0" style="stop-color:#9AB5FF"></stop> <stop offset="1" style="stop-color:#4869C6"></stop> </linearGradient> <path class="st58" d="M186.1,109.4c0.3,0.2,0.5,0.5,0.5,0.9c0,0.3-0.2,0.4-0.5,0.3l-4.6-2.6c-0.3-0.2-0.5-0.5-0.5-0.9 c0-0.3,0.2-0.4,0.5-0.3L186.1,109.4z"></path> <linearGradient id="SVGID_61_" gradientUnits="userSpaceOnUse" x1="162.8985" y1="125.1741" x2="168.7985" y2="125.1741" gradientTransform="matrix(1 0 0 1 0 -22)"> <stop offset="0" style="stop-color:#9AB5FF"></stop> <stop offset="1" style="stop-color:#4869C6"></stop> </linearGradient> <path class="st59" d="M168.3,104c0.3,0.2,0.5,0.5,0.5,0.9c0,0.3-0.2,0.4-0.5,0.3l-4.9-2.8c-0.3-0.2-0.5-0.5-0.5-0.9 c0-0.3,0.2-0.4,0.5-0.3L168.3,104z"></path> <g> <linearGradient id="SVGID_62_" gradientUnits="userSpaceOnUse" x1="181.75" y1="136.0741" x2="187.65" y2="136.0741" gradientTransform="matrix(1 0 0 1 0 -22)"> <stop offset="0" style="stop-color:#9AB5FF"></stop> <stop offset="1" style="stop-color:#4869C6"></stop> </linearGradient> <path class="st60" d="M187.2,114.9c0.3,0.2,0.5,0.5,0.5,0.9c0,0.3-0.2,0.4-0.5,0.3l-4.9-2.8c-0.3-0.2-0.5-0.5-0.5-0.9 c0-0.3,0.2-0.4,0.5-0.3L187.2,114.9z"></path> <linearGradient id="SVGID_63_" gradientUnits="userSpaceOnUse" x1="181.2878" y1="134.6741" x2="191.7383" y2="134.6741" gradientTransform="matrix(1 0 0 1 0 -22)"> <stop offset="0" style="stop-color:#9AB5FF"></stop> <stop offset="1" style="stop-color:#4869C6"></stop> </linearGradient> <path class="st61" d="M191.3,114.8c0.3,0.2,0.5,0.5,0.5,0.9c0,0.3-0.2,0.4-0.5,0.3l-9.4-5.4c-0.3-0.2-0.5-0.5-0.5-0.9 c0-0.3,0.2-0.4,0.5-0.3L191.3,114.8z"></path> <linearGradient id="SVGID_64_" gradientUnits="userSpaceOnUse" x1="187.6231" y1="134.4741" x2="193.2231" y2="134.4741" gradientTransform="matrix(1 0 0 1 0 -22)"> <stop offset="0" style="stop-color:#9AB5FF"></stop> <stop offset="1" style="stop-color:#4869C6"></stop> </linearGradient> <path class="st62" d="M192.8,113.2c0.3,0.2,0.5,0.5,0.5,0.9c0,0.3-0.2,0.4-0.5,0.3l-4.6-2.6c-0.3-0.2-0.5-0.5-0.5-0.9 c0-0.3,0.2-0.4,0.5-0.3L192.8,113.2z"></path> </g> <linearGradient id="SVGID_65_" gradientUnits="userSpaceOnUse" x1="181.5906" y1="140.3241" x2="194.407" y2="140.3241" gradientTransform="matrix(1 0 0 1 0 -22)"> <stop offset="0" style="stop-color:#9AB5FF"></stop> <stop offset="1" style="stop-color:#4869C6"></stop> </linearGradient> <path class="st63" d="M194,121c0.3,0.2,0.5,0.5,0.5,0.9v0.3c0,0.3-0.2,0.4-0.5,0.3l-11.8-6.8c-0.3-0.2-0.5-0.5-0.5-0.9v-0.3 c0-0.3,0.2-0.4,0.5-0.3L194,121z"></path> <g> <linearGradient id="SVGID_66_" gradientUnits="userSpaceOnUse" x1="162.9097" y1="124.0741" x2="173.349" y2="124.0741" gradientTransform="matrix(1 0 0 1 0 -22)"> <stop offset="0" style="stop-color:#9AB5FF"></stop> <stop offset="1" style="stop-color:#4869C6"></stop> </linearGradient> <path class="st64" d="M172.8,104.2c0.3,0.2,0.5,0.5,0.5,0.9c0,0.3-0.2,0.4-0.5,0.3l-9.4-5.4c-0.3-0.2-0.5-0.5-0.5-0.9 c0-0.3,0.2-0.4,0.5-0.3L172.8,104.2z"></path> <linearGradient id="SVGID_67_" gradientUnits="userSpaceOnUse" x1="162.8985" y1="131.0741" x2="180.4985" y2="131.0741" gradientTransform="matrix(1 0 0 1 0 -22)"> <stop offset="0" style="stop-color:#9AB5FF"></stop> <stop offset="1" style="stop-color:#4869C6"></stop> </linearGradient> <path class="st65" d="M180.1,113.3c0.3,0.2,0.5,0.5,0.5,0.9c0,0.3-0.2,0.4-0.5,0.3l-16.6-9.6c-0.3-0.2-0.5-0.5-0.5-0.9 c0-0.3,0.2-0.4,0.5-0.3L180.1,113.3z"></path> <linearGradient id="SVGID_68_" gradientUnits="userSpaceOnUse" x1="170.0636" y1="130.6741" x2="180.5141" y2="130.6741" gradientTransform="matrix(1 0 0 1 0 -22)"> <stop offset="0" style="stop-color:#9AB5FF"></stop> <stop offset="1" style="stop-color:#4869C6"></stop> </linearGradient> <path class="st66" d="M180.1,110.8c0.3,0.2,0.5,0.5,0.5,0.9c0,0.3-0.2,0.4-0.5,0.3l-9.4-5.4c-0.3-0.2-0.5-0.5-0.5-0.9 c0-0.3,0.2-0.4,0.5-0.3L180.1,110.8z"></path> <linearGradient id="SVGID_69_" gradientUnits="userSpaceOnUse" x1="174.6161" y1="129.5741" x2="180.5029" y2="129.5741" gradientTransform="matrix(1 0 0 1 0 -22)"> <stop offset="0" style="stop-color:#9AB5FF"></stop> <stop offset="1" style="stop-color:#4869C6"></stop> </linearGradient> <path class="st67" d="M180.1,108.4c0.3,0.2,0.5,0.5,0.5,0.9c0,0.3-0.2,0.4-0.5,0.3l-4.9-2.8c-0.3-0.2-0.5-0.5-0.5-0.9 c0-0.3,0.2-0.4,0.5-0.3L180.1,108.4z"></path> <linearGradient id="SVGID_70_" gradientUnits="userSpaceOnUse" x1="171.0167" y1="125.8241" x2="179.8413" y2="125.8241" gradientTransform="matrix(1 0 0 1 0 -22)"> <stop offset="0" style="stop-color:#9AB5FF"></stop> <stop offset="1" style="stop-color:#4869C6"></stop> </linearGradient> <path class="st68" d="M179.3,105.5c0.3,0.2,0.5,0.5,0.5,0.9c0,0.3-0.2,0.4-0.5,0.3l-7.8-4.5c-0.3-0.2-0.5-0.5-0.5-0.9 c0-0.3,0.2-0.4,0.5-0.3L179.3,105.5z"></path> <linearGradient id="SVGID_71_" gradientUnits="userSpaceOnUse" x1="171.5998" y1="123.3241" x2="179.0228" y2="123.3241" gradientTransform="matrix(1 0 0 1 0 -22)"> <stop offset="0" style="stop-color:#9AB5FF"></stop> <stop offset="1" style="stop-color:#4869C6"></stop> </linearGradient> <path class="st69" d="M178.6,102.6c0.3,0.2,0.5,0.5,0.5,0.9c0,0.3-0.2,0.4-0.5,0.3l-6.4-3.7c-0.3-0.2-0.5-0.5-0.5-0.9 c0-0.3,0.2-0.4,0.5-0.3L178.6,102.6z"></path> <linearGradient id="SVGID_72_" gradientUnits="userSpaceOnUse" x1="171.611" y1="123.7741" x2="191.9401" y2="123.7741" gradientTransform="matrix(1 0 0 1 0 -22)"> <stop offset="0" style="stop-color:#9AB5FF"></stop> <stop offset="1" style="stop-color:#4869C6"></stop> </linearGradient> <path class="st70" d="M191.5,106.8c0.3,0.2,0.5,0.5,0.5,0.9c0,0.3-0.2,0.4-0.5,0.3l-19.4-11.2c-0.3-0.2-0.5-0.5-0.5-0.9 c0-0.3,0.2-0.4,0.5-0.3L191.5,106.8z"></path> </g> <linearGradient id="SVGID_73_" gradientUnits="userSpaceOnUse" x1="182.5661" y1="122.4741" x2="195.3661" y2="122.4741" gradientTransform="matrix(1 0 0 1 0 -22)"> <stop offset="0" style="stop-color:#9AB5FF"></stop> <stop offset="1" style="stop-color:#4869C6"></stop> </linearGradient> <path class="st71" d="M194.8,103.3c0.3,0.2,0.5,0.5,0.5,0.9c0,0.3-0.2,0.4-0.5,0.3l-11.8-6.8c-0.3-0.2-0.5-0.5-0.5-0.9 c0-0.3,0.2-0.4,0.5-0.3L194.8,103.3z"></path> <g> <linearGradient id="SVGID_74_" gradientUnits="userSpaceOnUse" x1="249.3437" y1="286.914" x2="126.1916" y2="257.8612" gradientTransform="matrix(1 0 0 1 0 -22)"> <stop offset="0" style="stop-color:#8EB5FF"></stop> <stop offset="1" style="stop-color:#3069C9"></stop> </linearGradient> <path class="st72" d="M247.8,250.3L247.8,250.3c-0.1,0.3-0.2,0.5-0.3,0.7l-0.1,0.1c-0.1,0.2-0.3,0.4-0.5,0.6 c-0.1,0.1-0.3,0.2-0.4,0.3c-0.1,0.1-0.3,0.2-0.4,0.3l-27.3,16.3c-0.4,0.2-0.8,0.4-1.2,0.5l-0.5,0.2l-0.6,0.2 c-0.3,0.1-0.5,0.1-0.8,0.1h-0.2c-0.3,0-0.7,0.1-1.1,0.1h-0.2c-0.4,0-0.7,0-1.1,0H213c-0.3,0-0.7-0.1-1-0.2h-0.2 c-0.3-0.1-0.6-0.2-0.9-0.3h-0.2c-0.3-0.1-0.7-0.3-1-0.4l-83.4-46.9c-1.1-0.5-1.8-1.4-1.9-2.6v2.6c0.1,1.1,0.8,2.1,1.9,2.6 l83.4,46.9c0.3,0.2,0.6,0.3,0.9,0.4l0,0l0.2,0.1l0.6,0.2l0.3,0.1h0.2h0.2c0.2,0,0.4,0.1,0.6,0.1h0.2h0.2h0.2c0.2,0,0.4,0,0.6,0h0.6 h0.7h0.1h0.2l0.5-0.1l0.2-0.1l0.6-0.2l0.3-0.1l0.1-0.1c0.4-0.1,0.8-0.3,1.2-0.6l27.3-16.3h0.1c0.1-0.1,0.2-0.2,0.3-0.2 c0.2-0.1,0.3-0.2,0.4-0.3l0,0c0.1-0.1,0.3-0.3,0.4-0.4l0.1-0.1l0.1-0.1c0-0.1,0.1-0.1,0.1-0.2c0.1-0.1,0.1-0.2,0.2-0.4 c0,0,0,0,0-0.1v-0.1l0.1-0.2c0-0.1,0-0.2,0-0.4v-0.1v-2.5C247.8,249.9,247.8,250.1,247.8,250.3z"></path> <linearGradient id="SVGID_75_" gradientUnits="userSpaceOnUse" x1="124.6623" y1="256.3741" x2="247.9377" y2="256.3741" gradientTransform="matrix(1 0 0 1 0 -22)"> <stop offset="0" style="stop-color:#8EB5FF"></stop> <stop offset="1" style="stop-color:#3069C9"></stop> </linearGradient> <path class="st73" d="M246.1,247c2.5,1.4,2.5,3.7,0.1,5.2l-27.3,16.3c-2.8,1.5-6.1,1.5-8.9,0.1l-83.4-46.9 c-2.5-1.4-2.5-3.7-0.1-5.1l27.3-16.3c2.8-1.5,6.1-1.5,8.9-0.1L246.1,247z"></path> </g> <path class="st74" d="M165.6,205.1c0.2,0.1,0.2,0.3,0,0.4l-4.1,2.4c-0.2,0.1-0.5,0.1-0.7,0l-4.2-2.3c-0.2-0.1-0.2-0.3,0-0.4l4.1-2.4 c0.2-0.1,0.5-0.1,0.7,0L165.6,205.1z"></path> <path class="st74" d="M170.8,208.2c0.2,0.1,0.2,0.3,0,0.4l-4.1,2.4c-0.2,0.1-0.5,0.1-0.7,0l-4.2-2.3c-0.2-0.1-0.2-0.3,0-0.4l4.1-2.4 c0.2-0.1,0.5-0.1,0.7,0L170.8,208.2z"></path> <path class="st74" d="M175.8,211.3c0.1,0,0.2,0.2,0.1,0.3c0,0.1-0.1,0.1-0.1,0.1l-4.1,2.4c-0.2,0.1-0.5,0.1-0.7,0l-4.2-2.3 c-0.2-0.1-0.2-0.3,0-0.4l4.1-2.4c0.2-0.1,0.5-0.1,0.7,0L175.8,211.3z"></path> <path class="st74" d="M181.3,214.4c0.2,0.1,0.2,0.3,0,0.4l-4.1,2.4c-0.2,0.1-0.5,0.1-0.7,0l-4.2-2.3c-0.2-0.1-0.2-0.3,0-0.4l4.1-2.4 c0.2-0.1,0.5-0.1,0.7,0L181.3,214.4z"></path> <path class="st74" d="M186.5,217.5c0.2,0.1,0.2,0.3,0,0.4l-4.1,2.4c-0.2,0.1-0.5,0.1-0.7,0l-4.2-2.3c-0.2-0.1-0.2-0.3,0-0.4l4.1-2.4 c0.2-0.1,0.5-0.1,0.7,0L186.5,217.5z"></path> <path class="st74" d="M191.6,220.6c0.2,0.1,0.2,0.3,0,0.4l-4.1,2.5c-0.2,0.1-0.5,0.1-0.7,0l-4.2-2.3c-0.2-0.1-0.2-0.3,0-0.4l4.1-2.4 c0.2-0.1,0.5-0.1,0.7,0L191.6,220.6z"></path> <path class="st74" d="M196.8,223.7c0.2,0.1,0.2,0.3,0,0.4l-4.1,2.4c-0.2,0.1-0.5,0.1-0.7,0l-4.2-2.3c-0.1,0-0.2-0.2-0.1-0.3 c0-0.1,0.1-0.1,0.1-0.1l4.1-2.4c0.2-0.1,0.5-0.1,0.7,0L196.8,223.7z"></path> <path class="st74" d="M202,226.6c0.2,0.1,0.2,0.3,0,0.4l-4.1,2.4c-0.2,0.1-0.5,0.1-0.7,0l-4.2-2.3c-0.2-0.1-0.2-0.3,0-0.4l4.1-2.4 c0.2-0.1,0.5-0.1,0.7,0L202,226.6z"></path> <path class="st74" d="M207.3,229.7c0.2,0.1,0.2,0.3,0,0.4l-4.1,2.4c-0.2,0.1-0.5,0.1-0.7,0l-4.2-2.4c-0.2-0.1-0.2-0.3,0-0.4l4.1-2.4 c0.2-0.1,0.5-0.1,0.7,0L207.3,229.7z"></path> <path class="st74" d="M212.5,232.7c0.2,0.1,0.2,0.3,0,0.4l-4.1,2.4c-0.2,0.1-0.5,0.1-0.7,0l-4.2-2.3c-0.2-0.1-0.2-0.3,0-0.4l4.1-2.4 c0.2-0.1,0.5-0.1,0.7,0L212.5,232.7z"></path> <path class="st74" d="M217.8,235.7c0.1,0,0.2,0.2,0.1,0.3c0,0.1-0.1,0.1-0.1,0.1l-4.1,2.4c-0.2,0.1-0.5,0.1-0.7,0l-4.2-2.3 c-0.2-0.1-0.2-0.3,0-0.4l4.1-2.4c0.2-0.1,0.5-0.1,0.7,0L217.8,235.7z"></path> <path class="st74" d="M223.1,238.9c0.1,0,0.2,0.2,0.1,0.3c0,0.1-0.1,0.1-0.1,0.1l-4.1,2.4c-0.2,0.1-0.5,0.1-0.7,0l-4.2-2.3 c-0.1,0-0.2-0.2-0.1-0.3c0-0.1,0.1-0.1,0.1-0.1l4.1-2.4c0.2-0.1,0.5-0.1,0.7,0L223.1,238.9z"></path> <path class="st74" d="M228.3,241.8c0.2,0.1,0.2,0.3,0,0.4l-4.1,2.4c-0.2,0.1-0.5,0.1-0.7,0l-4.2-2.3c-0.2-0.1-0.2-0.3,0-0.4l4.1-2.4 c0.2-0.1,0.5-0.1,0.7,0L228.3,241.8z"></path> <path class="st74" d="M233.7,244.8c0.2,0.1,0.2,0.3,0,0.4l-4.1,2.4c-0.2,0.1-0.5,0.1-0.7,0l-4.2-2.3c-0.2-0.1-0.2-0.3,0-0.4l4.1-2.4 c0.2-0.1,0.5-0.1,0.7,0L233.7,244.8z"></path> <path class="st74" d="M239,247.7c0.2,0.1,0.2,0.3,0,0.4l-4,2.4c-0.2,0.1-0.5,0.1-0.7,0l-4.2-2.3c-0.2-0.1-0.2-0.3,0-0.4l4.1-2.4 c0.2-0.1,0.5-0.1,0.7,0L239,247.7z"></path> <path class="st74" d="M160.8,208.3c0.2,0.1,0.2,0.3,0,0.4l-4.1,2.4c-0.2,0.1-0.5,0.1-0.7,0l-4.2-2.3c-0.2-0.1-0.2-0.3,0-0.4l4.1-2.4 c0.2-0.1,0.5-0.1,0.7,0L160.8,208.3z"></path> <path class="st74" d="M165.8,211.4c0.2,0.1,0.2,0.3,0,0.4l-4.1,2.4c-0.2,0.1-0.5,0.1-0.7,0l-4.2-2.3c-0.1,0-0.2-0.2-0.1-0.3 c0-0.1,0.1-0.1,0.1-0.1l4.1-2.4c0.2-0.1,0.5-0.1,0.7,0L165.8,211.4z"></path> <path class="st74" d="M171.1,214.5c0.2,0.1,0.2,0.3,0,0.4l-4.1,2.4c-0.2,0.1-0.5,0.1-0.7,0l-4.2-2.3c-0.2-0.1-0.2-0.3,0-0.4l4.1-2.4 c0.2-0.1,0.5-0.1,0.7,0L171.1,214.5z"></path> <path class="st74" d="M176.3,217.6c0.1,0,0.2,0.2,0.1,0.3c0,0.1-0.1,0.1-0.1,0.1l-4.1,2.4c-0.2,0.1-0.5,0.1-0.7,0l-4.2-2.3 c-0.2-0.1-0.2-0.3,0-0.4l4.1-2.4c0.2-0.1,0.5-0.1,0.7,0L176.3,217.6z"></path> <path class="st74" d="M181.6,220.8c0.2,0.1,0.2,0.3,0,0.4l-4.1,2.4c-0.2,0.1-0.5,0.1-0.7,0l-4.2-2.4c-0.2-0.1-0.2-0.3,0-0.4l4-2.4 c0.2-0.1,0.5-0.1,0.7,0L181.6,220.8z"></path> <path class="st74" d="M186.8,223.8c0.2,0.1,0.2,0.3,0,0.4l-4.1,2.4c-0.2,0.1-0.5,0.1-0.7,0l-4.2-2.3c-0.2-0.1-0.2-0.3,0-0.4l4.1-2.4 c0.2-0.1,0.5-0.1,0.7,0L186.8,223.8z"></path> <path class="st74" d="M191.8,226.8c0.1,0,0.2,0.2,0.1,0.3c0,0.1-0.1,0.1-0.1,0.1l-4.1,2.4c-0.2,0.1-0.5,0.1-0.7,0l-4.2-2.3 c-0.2-0.1-0.2-0.3,0-0.4l4.1-2.4c0.2-0.1,0.5-0.1,0.7,0L191.8,226.8z"></path> <path class="st74" d="M197.1,229.9c0.2,0.1,0.2,0.3,0,0.4l-4.1,2.4c-0.2,0.1-0.5,0.1-0.7,0l-4.2-2.3c-0.2-0.1-0.2-0.3,0-0.4l4.1-2.4 c0.2-0.1,0.5-0.1,0.7,0L197.1,229.9z"></path> <path class="st74" d="M202.5,233c0.2,0.1,0.2,0.3,0,0.4l-4.1,2.4c-0.2,0.1-0.5,0.1-0.7,0l-4.2-2.3c-0.2-0.1-0.2-0.3,0-0.4l4.1-2.4 c0.2-0.1,0.5-0.1,0.7,0L202.5,233z"></path> <path class="st74" d="M207.6,236c0.2,0.1,0.2,0.3,0,0.4l-4,2.4c-0.2,0.1-0.5,0.1-0.7,0l-4.2-2.3c-0.2-0.1-0.2-0.3,0-0.4l4.1-2.4 c0.2-0.1,0.5-0.1,0.7,0L207.6,236z"></path> <path class="st74" d="M212.8,238.9c0.2,0.1,0.2,0.3,0,0.4l-4.1,2.4c-0.2,0.1-0.5,0.1-0.7,0l-4.2-2.3c-0.2-0.1-0.2-0.3,0-0.4l4.1-2.4 c0.2-0.1,0.5-0.1,0.7,0L212.8,238.9z"></path> <path class="st74" d="M218.2,242.1c0.2,0.1,0.2,0.3,0,0.4l-4.1,2.4c-0.2,0.1-0.5,0.1-0.7,0l-4.2-2.3c-0.2-0.1-0.2-0.3,0-0.4l4.1-2.4 c0.2-0.1,0.5-0.1,0.7,0L218.2,242.1z"></path> <path class="st74" d="M219.3,242.7l14.8,8.2c0.1,0.1,0.1,0.2,0.1,0.3c0,0,0,0.1-0.1,0.1l-4.3,2.6c-0.1,0-0.2,0-0.2,0l-15.1-8.2 c-0.1-0.1-0.1-0.2-0.1-0.3l0.1-0.1L219.3,242.7C219.1,242.7,219.2,242.7,219.3,242.7z"></path> <path class="st74" d="M155.6,211.4c0.2,0.1,0.2,0.3,0,0.4l-4.1,2.4c-0.2,0.1-0.5,0.1-0.7,0l-4.2-2.3c-0.2-0.1-0.2-0.3,0-0.4l4.1-2.4 c0.2-0.1,0.5-0.1,0.7,0L155.6,211.4z"></path> <path class="st74" d="M160.7,214.6c0.2,0.1,0.2,0.3,0,0.4l-4.1,2.4c-0.2,0.1-0.5,0.1-0.7,0l-4.2-2.3c-0.2-0.1-0.2-0.3,0-0.4l4.1-2.4 c0.2-0.1,0.5-0.1,0.7,0L160.7,214.6z"></path> <path class="st74" d="M165.8,217.6c0.2,0.1,0.2,0.3,0,0.4l-4.1,2.4c-0.2,0.1-0.5,0.1-0.7,0l-4.2-2.3c-0.1,0-0.2-0.2-0.1-0.3 c0-0.1,0.1-0.1,0.1-0.1l4.1-2.4c0.2-0.1,0.5-0.1,0.7,0L165.8,217.6z"></path> <path class="st74" d="M171.2,220.7c0.2,0.1,0.2,0.3,0,0.4l-4.1,2.4c-0.2,0.1-0.5,0.1-0.7,0l-4.2-2.3c-0.2-0.1-0.2-0.3,0-0.4l4.1-2.4 c0.2-0.1,0.5-0.1,0.7,0L171.2,220.7z"></path> <path class="st74" d="M176.3,223.9c0.2,0.1,0.2,0.3,0,0.4l-4.1,2.4c-0.2,0.1-0.5,0.1-0.7,0l-4.2-2.3c-0.2-0.1-0.2-0.3,0-0.4l4.1-2.4 c0.2-0.1,0.5-0.1,0.7,0L176.3,223.9z"></path> <path class="st74" d="M181.5,226.9c0.2,0.1,0.2,0.3,0,0.4l-4.1,2.4c-0.2,0.1-0.5,0.1-0.7,0l-4.2-2.3c-0.2-0.1-0.2-0.3,0-0.4l4.1-2.4 c0.2-0.1,0.5-0.1,0.7,0L181.5,226.9z"></path> <path class="st74" d="M186.7,230c0.2,0.1,0.2,0.3,0,0.4l-4.1,2.4c-0.2,0.1-0.5,0.1-0.7,0l-4.2-2.3c-0.1,0-0.2-0.2-0.1-0.3 c0-0.1,0.1-0.1,0.1-0.1l4.1-2.4c0.2-0.1,0.5-0.1,0.7,0L186.7,230z"></path> <path class="st74" d="M191.8,233c0.1,0,0.2,0.2,0.1,0.3c0,0.1-0.1,0.1-0.1,0.1l-4.1,2.4c-0.2,0.1-0.5,0.1-0.7,0l-4.2-2.3 c-0.2-0.1-0.2-0.3,0-0.4l4.1-2.4c0.2-0.1,0.5-0.1,0.7,0L191.8,233z"></path> <path class="st74" d="M197.2,236.1c0.1,0,0.2,0.2,0.1,0.3c0,0.1-0.1,0.1-0.1,0.1l-4.1,2.4c-0.2,0.1-0.5,0.1-0.7,0l-4.2-2.3 c-0.2-0.1-0.2-0.3,0-0.4l4.1-2.4c0.2-0.1,0.5-0.1,0.7,0L197.2,236.1z"></path> <path class="st74" d="M202.5,239.1c0.2,0.1,0.2,0.3,0,0.4l-4.1,2.4c-0.2,0.1-0.5,0.1-0.7,0l-4.2-2.3c-0.2-0.1-0.2-0.3,0-0.4l4.1-2.4 c0.2-0.1,0.5-0.1,0.7,0L202.5,239.1z"></path> <path class="st74" d="M207.7,242.1c0.2,0.1,0.2,0.3,0,0.4l-4.1,2.4c-0.2,0.1-0.5,0.1-0.7,0l-4.1-2.4c-0.2-0.1-0.2-0.3,0-0.4l4.1-2.4 c0.2-0.1,0.5-0.1,0.7,0L207.7,242.1z"></path> <path class="st74" d="M213,245.2c0.1,0,0.2,0.2,0.1,0.3c0,0.1-0.1,0.1-0.1,0.1l-4.1,2.4c-0.2,0.1-0.5,0.1-0.7,0l-4.2-2.3 c-0.2-0.1-0.2-0.3,0-0.4l4.1-2.4c0.2-0.1,0.5-0.1,0.7,0L213,245.2z"></path> <path class="st74" d="M218.3,248.1c0.2,0.1,0.2,0.3,0,0.4l-4.1,2.4c-0.2,0.1-0.5,0.1-0.7,0l-4.2-2.3c-0.2-0.1-0.2-0.3,0-0.4l4.1-2.4 c0.2-0.1,0.5-0.1,0.7,0L218.3,248.1z"></path> <path class="st74" d="M223.6,251c0.2,0.1,0.2,0.3,0,0.4l-4.1,2.4c-0.2,0.1-0.5,0.1-0.7,0l-4.2-2.4c-0.2-0.1-0.2-0.3,0-0.4l4.1-2.4 c0.2-0.1,0.5-0.1,0.7,0L223.6,251z"></path> <path class="st74" d="M228.8,254c0.2,0.1,0.2,0.3,0,0.4l-4,2.4c-0.2,0.1-0.5,0.1-0.7,0l-4.2-2.3c-0.2-0.1-0.2-0.3,0-0.4l4.1-2.4 c0.2-0.1,0.5-0.1,0.7,0L228.8,254z"></path> <path class="st74" d="M146.3,212.4l14.6,8.6c0.1,0.1,0.2,0.2,0.1,0.4l-0.1,0.1l-4.2,2.5c-0.1,0-0.2,0-0.3,0l-14.6-8.6 c-0.1-0.1-0.2-0.2-0.1-0.4l0.1-0.1l4.2-2.5H146.3z"></path> <path class="st74" d="M166.3,224.1c0.2,0.1,0.2,0.3,0,0.4l-4.1,2.4c-0.2,0.1-0.5,0.1-0.7,0l-4.2-2.4c-0.2-0.1-0.2-0.3,0-0.4l4.1-2.4 c0.2-0.1,0.5-0.1,0.7,0L166.3,224.1z"></path> <path class="st74" d="M171.5,227.2c0.2,0.1,0.2,0.3,0,0.4l-4.1,2.4c-0.2,0.1-0.5,0.1-0.7,0l-4.2-2.3c-0.2-0.1-0.2-0.3,0-0.4l4.1-2.4 c0.2-0.1,0.5-0.1,0.7,0L171.5,227.2z"></path> <path class="st74" d="M176.6,230.3c0.2,0.1,0.2,0.3,0,0.4l-4.1,2.4c-0.2,0.1-0.5,0.1-0.7,0l-4.1-2.3c-0.2-0.1-0.2-0.3,0-0.4l4.1-2.4 c0.2-0.1,0.5-0.1,0.7,0L176.6,230.3z"></path> <path class="st74" d="M181.7,233.4c0.2,0.1,0.2,0.3,0,0.4l-4.1,2.4c-0.2,0.1-0.5,0.1-0.7,0l-4.2-2.3c-0.1,0-0.2-0.2-0.1-0.3 c0-0.1,0.1-0.1,0.1-0.1l4.1-2.4c0.2-0.1,0.5-0.1,0.7,0L181.7,233.4z"></path> <path class="st74" d="M187,236.3c0.2,0.1,0.2,0.3,0,0.4l-4.1,2.4c-0.2,0.1-0.5,0.1-0.7,0l-4.2-2.3c-0.2-0.1-0.2-0.3,0-0.4l4.1-2.4 c0.2-0.1,0.5-0.1,0.7,0L187,236.3z"></path> <path class="st74" d="M192.3,239.4c0.2,0.1,0.2,0.3,0,0.4l-4.1,2.4c-0.2,0.1-0.5,0.1-0.7,0l-4.2-2.3c-0.2-0.1-0.2-0.3,0-0.4l4.1-2.4 c0.2-0.1,0.5-0.1,0.7,0L192.3,239.4z"></path> <path class="st74" d="M197.5,242.4c0.2,0.1,0.2,0.3,0,0.4l-4,2.4c-0.2,0.1-0.5,0.1-0.7,0l-4.2-2.3c-0.1,0-0.2-0.2-0.1-0.3 c0-0.1,0.1-0.1,0.1-0.1l4.1-2.4c0.2-0.1,0.5-0.1,0.7,0L197.5,242.4z"></path> <path class="st74" d="M202.8,245.4c0.2,0.1,0.2,0.3,0,0.4l-4.1,2.4c-0.2,0.1-0.5,0.1-0.7,0l-4.2-2.4c-0.2-0.1-0.2-0.3,0-0.4l4.1-2.4 c0.2-0.1,0.5-0.1,0.7,0L202.8,245.4z"></path> <path class="st74" d="M208.1,248.6c0.2,0.1,0.2,0.3,0,0.4l-4.1,2.4c-0.2,0.1-0.5,0.1-0.7,0l-4.2-2.3c-0.2-0.1-0.2-0.3,0-0.4l4.1-2.4 c0.2-0.1,0.5-0.1,0.7,0L208.1,248.6z"></path> <path class="st74" d="M213.3,251.5c0.2,0.1,0.2,0.3,0,0.4l-4.1,2.4c-0.2,0.1-0.5,0.1-0.7,0l-4.2-2.3c-0.2-0.1-0.2-0.3,0-0.4l4.1-2.4 c0.2-0.1,0.5-0.1,0.7,0L213.3,251.5z"></path> <path class="st74" d="M218.7,254.4c0.2,0.1,0.2,0.3,0,0.4l-4.1,2.4c-0.2,0.1-0.5,0.1-0.7,0l-4.2-2.4c-0.2-0.1-0.2-0.3,0-0.4l4.1-2.4 c0.2-0.1,0.5-0.1,0.7,0L218.7,254.4z"></path> <path class="st74" d="M224,257.3c0.2,0.1,0.2,0.3,0,0.4l-4.1,2.4c-0.2,0.1-0.5,0.1-0.7,0l-4.2-2.3c-0.2-0.1-0.2-0.3,0-0.4l4.1-2.4 c0.2-0.1,0.5-0.1,0.7,0L224,257.3z"></path> <path class="st74" d="M145.3,217.9c0.1,0,0.2,0.2,0.1,0.3c0,0.1-0.1,0.1-0.1,0.1l-4.1,2.4c-0.2,0.1-0.5,0.1-0.7,0l-4.2-2.3 c-0.2-0.1-0.2-0.3,0-0.4l4.1-2.4c0.2-0.1,0.5-0.1,0.7,0L145.3,217.9z"></path> <path class="st74" d="M150.6,221c0.2,0.1,0.2,0.3,0,0.4l-4.1,2.4c-0.2,0.1-0.5,0.1-0.7,0l-4.2-2.3c-0.2-0.1-0.2-0.3,0-0.4l4.1-2.4 c0.2-0.1,0.5-0.1,0.7,0L150.6,221z"></path> <path class="st74" d="M155.7,224.1c0.2,0.1,0.2,0.3,0,0.4l-4.1,2.4c-0.2,0.1-0.5,0.1-0.7,0l-4.2-2.3c-0.2-0.1-0.2-0.3,0-0.4l4.1-2.4 c0.2-0.1,0.5-0.1,0.7,0L155.7,224.1z"></path> <path class="st74" d="M161,227.2c0.2,0.1,0.2,0.3,0,0.4l-4.1,2.4c-0.2,0.1-0.5,0.1-0.7,0l-4.2-2.3c-0.2-0.1-0.2-0.3,0-0.4l4.1-2.4 c0.2-0.1,0.5-0.1,0.7,0L161,227.2z"></path> <path class="st74" d="M162.2,227.9l35.2,20.5c0.2,0.1,0.2,0.4,0.1,0.5c0,0.1-0.1,0.1-0.1,0.1l-3.9,2.4c-0.1,0.1-0.3,0.1-0.4,0 l-35.2-20.5c-0.2-0.1-0.2-0.4-0.1-0.5c0-0.1,0.1-0.1,0.1-0.1l4-2.4C162,227.9,162.1,227.9,162.2,227.9z"></path> <path class="st74" d="M202.8,251.6c0.2,0.1,0.2,0.3,0,0.4l-4.1,2.4c-0.2,0.1-0.5,0.1-0.7,0l-4.2-2.3c-0.1,0-0.2-0.2-0.1-0.3 c0-0.1,0.1-0.1,0.1-0.1l4.1-2.4c0.2-0.1,0.5-0.1,0.7,0L202.8,251.6z"></path> <path class="st74" d="M208.2,254.6c0.2,0.1,0.2,0.3,0,0.4l-4.1,2.4c-0.2,0.1-0.5,0.1-0.7,0l-4.2-2.3c-0.2-0.1-0.2-0.3,0-0.4l4.1-2.4 c0.2-0.1,0.5-0.1,0.7,0L208.2,254.6z"></path> <path class="st74" d="M213.3,257.5c0.2,0.1,0.2,0.3,0,0.4l-4.1,2.4c-0.2,0.1-0.5,0.1-0.7,0l-4.2-2.3c-0.2-0.1-0.2-0.3,0-0.4l4.1-2.4 c0.2-0.1,0.5-0.1,0.7,0L213.3,257.5z"></path> <path class="st74" d="M218.8,260.5c0.2,0.1,0.2,0.3,0,0.4l-4.1,2.4c-0.2,0.1-0.5,0.1-0.7,0l-4.2-2.3c-0.2-0.1-0.2-0.3,0-0.4l4.1-2.4 c0.2-0.1,0.5-0.1,0.7,0L218.8,260.5z"></path> <polygon class="st8" points="226.5,225 225.2,240 169.1,208 188.3,202.1 "></polygon> <polygon class="st8" points="213.2,269.5 199.5,290.6 109.7,232.9 141.8,224.4 "></polygon> <g> <g> <g class="st1"> <g> <g class="st1"> <linearGradient id="SVGID_76_" gradientUnits="userSpaceOnUse" x1="231.3867" y1="194.8259" x2="238.5181" y2="194.8259" gradientTransform="matrix(1 0 0 -1 0 328)"> <stop offset="0" style="stop-color:#9AB5FF"></stop> <stop offset="1" style="stop-color:#4869C6"></stop> </linearGradient> <path class="st75" d="M231.5,135.2l7-4.1c0,0-0.1,0-0.1,0.1l-7,4.1C231.5,135.3,231.5,135.2,231.5,135.2L231.5,135.2z"></path> </g> </g> <linearGradient id="SVGID_77_" gradientUnits="userSpaceOnUse" x1="179.85" y1="238.7695" x2="276.35" y2="238.7695" gradientTransform="matrix(1 0 0 -1 0 328)"> <stop offset="0" style="stop-color:#9AB5FF"></stop> <stop offset="1" style="stop-color:#4869C6"></stop> </linearGradient> <path class="st76" d="M264.7,69.1l-69.4-40c-3.3-1.9-6.2-2-8.4-0.8l-7,4.1c2.1-1.2,5.1-1.1,8.4,0.8l69.4,40 c6.5,3.7,11.7,12.9,11.7,20.3l-0.1,50c0,3.7-1.3,6.3-3.4,7.5l7-4.1c2.1-1.2,3.4-3.8,3.4-7.5l0.1-50 C276.3,82,271.2,72.9,264.7,69.1z"></path> <g> <linearGradient id="SVGID_78_" gradientUnits="userSpaceOnUse" x1="200.207" y1="210.3259" x2="202.0435" y2="210.3259" gradientTransform="matrix(1 0 0 -1 0 328)"> <stop offset="0" style="stop-color:#3069C9"></stop> <stop offset="1" style="stop-color:#262CD4"></stop> </linearGradient> <polygon class="st77" points="200.3,117.2 202.1,118.2 202.1,118.2 "></polygon> <linearGradient id="SVGID_79_" gradientUnits="userSpaceOnUse" x1="231.4932" y1="191.6259" x2="235.598" y2="191.6259" gradientTransform="matrix(1 0 0 -1 0 328)"> <stop offset="0" style="stop-color:#3069C9"></stop> <stop offset="1" style="stop-color:#262CD4"></stop> </linearGradient> <path class="st78" d="M231.5,135.2l4.1,2.4L231.5,135.2z"></path> <linearGradient id="SVGID_80_" gradientUnits="userSpaceOnUse" x1="176.3501" y1="236.2759" x2="269.35" y2="236.2759" gradientTransform="matrix(1 0 0 -1 0 328)"> <stop offset="0" style="stop-color:#3069C9"></stop> <stop offset="1" style="stop-color:#262CD4"></stop> </linearGradient> <path class="st79" d="M257.7,73.2l-69.4-40c-6.5-3.7-11.8-0.7-11.8,6.7l-0.1,50c0,7.4,5.2,16.6,11.7,20.3l12.2,7l-0.4-0.2 l0.4,0.2l1.8,1.1l0,0l29.5,17l0,0l4.1,2.4l0.3,0.1l-0.3-0.1l21.8,12.6c6.5,3.7,11.8,0.7,11.8-6.7l0.1-50 C269.3,86.1,264,77,257.7,73.2z"></path> </g> </g> </g> </g> <ellipse transform="matrix(3.646057e-03 -1 1 3.646057e-03 -9.8082 560.1184)" class="st8" cx="276.2" cy="285" rx="14.3" ry="24.7"></ellipse> <g> <path class="st11" d="M253.6,253.3l-0.1,32.5l0,0c0,3.4,2.2,6.8,6.7,9.5c9,5.2,23.7,5.3,32.7,0.1c4.5-2.6,6.8-6,6.8-9.4l0.1-32.5 L253.6,253.3z"></path> <linearGradient id="SVGID_81_" gradientUnits="userSpaceOnUse" x1="253.5874" y1="74.6259" x2="299.8388" y2="74.6259" gradientTransform="matrix(1 0 0 -1 0 328)"> <stop offset="0" style="stop-color:#3069C9"></stop> <stop offset="1" style="stop-color:#262CD4"></stop> </linearGradient> <path class="st80" d="M260.3,243.9c9.1-5.2,23.7-5.1,32.7,0.1c9,5.2,9,13.7-0.1,18.9s-23.7,5.1-32.7-0.1 C251.3,257.5,251.3,249.1,260.3,243.9z"></path> <linearGradient id="SVGID_82_" gradientUnits="userSpaceOnUse" x1="256.8056" y1="74.6759" x2="296.6119" y2="74.6759" gradientTransform="matrix(1 0 0 -1 0 328)"> <stop offset="0" style="stop-color:#9AB5FF"></stop> <stop offset="1" style="stop-color:#4869C6"></stop> </linearGradient> <path class="st81" d="M296.7,253.5c0,2.3-1.9,4.7-5.2,6.6c-3.9,2.2-9.1,3.4-14.8,3.4c-1.1,0-2.3-0.1-3.4-0.2 c-4.3-0.4-8.3-1.6-11.4-3.4c-3.3-1.9-5.1-4.3-5.1-6.7c0-2.3,1.9-4.7,5.2-6.6c3.9-2.2,9.1-3.4,14.8-3.4c3.6,0,7,0.5,10.1,1.5 c1.7,0.5,3.3,1.2,4.7,2C294.8,248.7,296.7,251.1,296.7,253.5z"></path> <path class="st82" d="M294,271.3c0,0,2-8.6,9.3-7.6c7.2,1,10.8,16-9.3,22.3"></path> </g> <g> <polygon class="st11" points="76.2,189.5 76.1,192 75,192.6 75,190.2 "></polygon> <polygon class="st83" points="71.8,192 71.8,194.5 70.7,195.1 70.7,192.6 "></polygon> <polygon class="st84" points="80.1,196.7 80.1,199.2 71.8,194.5 71.8,192 "></polygon> <polygon class="st11" points="76.2,189.5 75,190.2 71.8,192 70.7,192.6 48.3,179.8 53.8,176.6 "></polygon> <polygon class="st83" points="70.7,192.6 70.7,195.1 48.3,182.3 48.3,179.8 "></polygon> <path class="st84" d="M115,204.8v2.5c0-2.7-1.8-5.3-5.3-7.4c-7-4-18.3-4-25.3,0c-3.5,2-5.2,4.6-5.2,7.3v-2.5c0-2.6,1.7-5.3,5.2-7.3 c7-4,18.3-4,25.3,0C113.3,199.5,115.1,202.1,115,204.8z"></path> <path class="st85" d="M119.1,204.8v2.5c0,3.2-2.1,6.5-6.4,8.9c-8.6,5-22.5,5-31.1,0c-4.3-2.5-6.5-5.8-6.5-9.1v-2.5 c0,3.3,2.2,6.6,6.5,9.1c8.6,5,22.5,5,31.1,0C117,211.3,119.1,208.1,119.1,204.8z"></path> <linearGradient id="SVGID_83_" gradientUnits="userSpaceOnUse" x1="71.8187" y1="124.1009" x2="119.1189" y2="124.1009" gradientTransform="matrix(1 0 0 -1 0 328)"> <stop offset="0" style="stop-color:#3069C9"></stop> <stop offset="1" style="stop-color:#262CD4"></stop> </linearGradient> <path class="st86" d="M112.6,195.8c8.6,5,8.7,13,0.1,18c-8.6,5-22.5,5-31.1,0c-8.1-4.7-8.6-12-1.6-17l-8.2-4.7l3.1-1.8l8.2,4.7 C91.8,190.8,104.6,191.1,112.6,195.8z M84.5,212.1c7,4,18.3,4,25.3,0s6.9-10.6-0.1-14.7c-7-4-18.3-4-25.3,0 C77.5,201.5,77.5,208,84.5,212.1"></path> <path class="st87" d="M115,205.8c-0.4,2.3-2.1,4.5-5.1,6.3c-7,4-18.3,4-25.3,0c-3.1-1.8-4.8-4-5.2-6.4l0,0c0.2-2.4,1.9-4.8,5.1-6.7 c6.9-4,18.2-4,25.2,0C113,200.9,114.7,203.4,115,205.8z"></path> <path class="st87" d="M88.8,203.9c3.2-1.9,8.5-1.9,11.7,0s3.2,4.9,0,6.8c-3.2,1.9-8.5,1.9-11.7,0S85.6,205.8,88.8,203.9z"></path> </g> <path class="st7" d="M209.8,62.3l-7.2-4.2l-0.1,37c0,2.5-0.4,3.9-1.1,4.7s-1.8,0.7-3.4-0.3c-1.1-0.7-2.2-1.4-3.4-2.5v7 c1.2,1.1,2.6,2.1,4.3,3.2c3.5,2.1,6.3,2.4,8.1,1.1c1.8-1.3,2.8-4.3,2.8-8.9L209.8,62.3"></path> <path class="st7" d="M226.7,80.8c-3.3-2-5.9-2.6-7.7-2.2c-1.8,0.4-2.8,2-2.8,4.7c0,1.6,0.3,3,0.7,4.3c0.4,1.3,1.1,2.6,2.1,4.1 c0.9,1.3,2.4,3.2,4.5,5.3c1.4,1.4,2.5,2.8,3.4,3.8c0.8,0.9,1.4,1.7,1.8,2.4c0.4,0.5,0.5,1.2,0.5,1.8c0,1.7-1.3,1.8-3.9,0.4 c-1.3-0.8-2.8-1.8-4.5-3.3c-1.7-1.4-3.2-2.9-4.5-4.5v6.8c1.2,1.3,2.5,2.5,3.8,3.5c1.3,1.1,3,2.2,4.9,3.3c3.7,2.1,6.6,3,8.4,2.4 c1.8-0.5,2.8-2.4,2.8-5.5c0-1.4-0.3-2.9-0.7-4.2s-1.2-2.8-2.1-4.1c-0.9-1.3-2.5-3.2-4.5-5.3c-2.4-2.4-3.8-4.1-4.5-5 c-0.7-0.9-1.1-1.8-1.1-2.5c0-1.3,1.1-1.3,3.2-0.1c1.2,0.7,2.4,1.6,3.5,2.6s2.4,2.4,3.7,3.7l2.2-4.7 C232.9,85.2,229.8,82.7,226.7,80.8"></path> </svg> 