<svg xmlns="http://www.w3.org/2000/svg" xmlns:xlink="http://www.w3.org/1999/xlink" viewBox="0 0 358.67 349.39"><defs><style>.cls-1{isolation:isolate;}.cls-2{fill:url(#Безымянный_градиент_20);}.cls-3{fill:url(#Безымянный_градиент_20-2);}.cls-4{fill:url(#Безымянный_градиент_20-3);}.cls-5{fill:url(#Безымянный_градиент_20-4);}.cls-6{fill:url(#Безымянный_градиент_20-5);}.cls-7{fill:url(#Безымянный_градиент_20-6);}.cls-8{fill:url(#Безымянный_градиент_20-7);}.cls-9{fill:url(#Безымянный_градиент_20-8);}.cls-10,.cls-11{opacity:0.15;}.cls-10{fill:url(#Безымянный_градиент_112);}.cls-11{fill:url(#Безымянный_градиент_112-2);}.cls-12,.cls-42{fill:#7694a3;mix-blend-mode:multiply;}.cls-12{opacity:0.4;}.cls-13{fill:#f6f8fb;}.cls-14{fill:url(#Безымянный_градиент_22);}.cls-15{fill:#abb9d1;}.cls-16{fill:url(#Безымянный_градиент_22-2);}.cls-17,.cls-31,.cls-37{fill:#fff;}.cls-18{fill:url(#Безымянный_градиент_20-9);}.cls-19{fill:url(#Безымянный_градиент_20-10);}.cls-20{fill:#f1f2f2;opacity:0.2;}.cls-21{fill:url(#Безымянный_градиент_22-3);}.cls-22{fill:url(#Безымянный_градиент_20-11);}.cls-23{fill:url(#Безымянный_градиент_22-4);}.cls-24{fill:url(#Безымянный_градиент_22-5);}.cls-25{fill:url(#Безымянный_градиент_20-12);}.cls-26{fill:url(#Безымянный_градиент_20-13);}.cls-27{fill:url(#Безымянный_градиент_22-6);}.cls-28{fill:url(#Безымянный_градиент_22-7);}.cls-29{fill:url(#Безымянный_градиент_20-14);}.cls-30{fill:#170c2a;}.cls-31{opacity:0.34;}.cls-32{fill:url(#Безымянный_градиент_20-15);}.cls-33{fill:url(#Безымянный_градиент_20-16);}.cls-34{fill:url(#Безымянный_градиент_20-17);}.cls-35{fill:url(#Безымянный_градиент_20-18);}.cls-36{opacity:0.37;}.cls-37{opacity:0.65;}.cls-38{fill:url(#Безымянный_градиент_20-19);}.cls-39{fill:url(#Безымянный_градиент_20-20);}.cls-40{fill:url(#Безымянный_градиент_20-21);}.cls-41{fill:url(#Безымянный_градиент_20-22);}.cls-42{opacity:0.6;}.cls-43{fill:url(#Безымянный_градиент_20-23);}.cls-44{fill:url(#Безымянный_градиент_20-24);}</style><linearGradient id="Безымянный_градиент_20" x1="77.16" y1="125.2" x2="65.63" y2="13.64" gradientUnits="userSpaceOnUse"><stop offset="0" stop-color="#9ab5ff"/><stop offset="1" stop-color="#4869c6"/></linearGradient><linearGradient id="Безымянный_градиент_20-2" x1="5.5" y1="130.82" x2="58.46" y2="129.84" xlink:href="#Безымянный_градиент_20"/><linearGradient id="Безымянный_градиент_20-3" x1="27.15" y1="112.03" x2="100.95" y2="145.13" xlink:href="#Безымянный_градиент_20"/><linearGradient id="Безымянный_градиент_20-4" x1="53.68" y1="166.94" x2="134.77" y2="165.26" xlink:href="#Безымянный_градиент_20"/><linearGradient id="Безымянный_градиент_20-5" x1="180.13" y1="118.41" x2="54.36" y2="170.88" xlink:href="#Безымянный_градиент_20"/><linearGradient id="Безымянный_градиент_20-6" x1="54.77" y1="157.68" x2="54.77" y2="92.99" xlink:href="#Безымянный_градиент_20"/><linearGradient id="Безымянный_градиент_20-7" x1="72.96" y1="46.24" x2="72.96" y2="99.13" xlink:href="#Безымянный_градиент_20"/><linearGradient id="Безымянный_градиент_20-8" x1="1.75" y1="252.9" x2="66.85" y2="100.27" xlink:href="#Безымянный_градиент_20"/><linearGradient id="Безымянный_градиент_112" x1="-368.76" y1="3371.53" x2="-308.71" y2="3194.24" gradientTransform="matrix(0.87, 0.5, 0, 1.15, 571.44, -3527.13)" gradientUnits="userSpaceOnUse"><stop offset="0" stop-color="#d9a7f7"/><stop offset="1" stop-color="#2c30d0"/></linearGradient><linearGradient id="Безымянный_градиент_112-2" x1="-398.19" y1="3402.21" x2="-338.14" y2="3224.92" xlink:href="#Безымянный_градиент_112"/><linearGradient id="Безымянный_градиент_22" x1="168.42" y1="223.8" x2="236.07" y2="93.97" gradientUnits="userSpaceOnUse"><stop offset="0" stop-color="#4869c6"/><stop offset="1" stop-color="#2c30d0"/></linearGradient><linearGradient id="Безымянный_градиент_22-2" x1="255.15" y1="204.65" x2="258.12" y2="204.65" xlink:href="#Безымянный_градиент_22"/><linearGradient id="Безымянный_градиент_20-9" x1="242.18" y1="105.98" x2="221.63" y2="173.94" xlink:href="#Безымянный_градиент_20"/><linearGradient id="Безымянный_градиент_20-10" x1="-807.2" y1="4519.21" x2="-807.2" y2="4414.02" gradientTransform="matrix(0.87, 0.5, 0, 1.15, 931.8, -4612.19)" xlink:href="#Безымянный_градиент_20"/><linearGradient id="Безымянный_градиент_22-3" x1="373.49" y1="377.86" x2="373.26" y2="338.5" xlink:href="#Безымянный_градиент_22"/><linearGradient id="Безымянный_градиент_20-11" x1="373.2" y1="348.35" x2="373.2" y2="309.53" xlink:href="#Безымянный_градиент_20"/><linearGradient id="Безымянный_градиент_22-4" x1="377.3" y1="295.67" x2="370.28" y2="344.34" xlink:href="#Безымянный_градиент_22"/><linearGradient id="Безымянный_градиент_22-5" x1="292.23" y1="324.1" x2="391.33" y2="324.1" xlink:href="#Безымянный_градиент_22"/><linearGradient id="Безымянный_градиент_20-12" x1="339.67" y1="231.07" x2="436.82" y2="399.34" xlink:href="#Безымянный_градиент_20"/><linearGradient id="Безымянный_градиент_20-13" x1="407.57" y1="201.62" x2="374.59" y2="378.91" xlink:href="#Безымянный_градиент_20"/><linearGradient id="Безымянный_градиент_22-6" x1="320.49" y1="413.96" x2="315.41" y2="405.02" xlink:href="#Безымянный_градиент_22"/><linearGradient id="Безымянный_градиент_22-7" x1="307.64" y1="401.53" x2="321.86" y2="368.21" xlink:href="#Безымянный_градиент_22"/><linearGradient id="Безымянный_градиент_20-14" x1="292.44" y1="412.32" x2="376.34" y2="330.24" xlink:href="#Безымянный_градиент_20"/><linearGradient id="Безымянный_градиент_20-15" x1="-555.95" y1="3656.74" x2="-555.95" y2="3557.3" gradientTransform="matrix(0.87, 0.5, 0, 1.15, 637.38, -3747.57)" xlink:href="#Безымянный_градиент_20"/><linearGradient id="Безымянный_градиент_20-16" x1="-526.3" y1="3605.94" x2="-526.3" y2="3588.19" gradientTransform="matrix(0.87, 0.5, 0, 1.15, 637.38, -3747.57)" xlink:href="#Безымянный_градиент_20"/><linearGradient id="Безымянный_градиент_20-17" x1="-526.3" y1="3620.22" x2="-526.3" y2="3602.48" gradientTransform="matrix(0.87, 0.5, 0, 1.15, 637.38, -3747.57)" xlink:href="#Безымянный_градиент_20"/><linearGradient id="Безымянный_градиент_20-18" x1="-526.3" y1="3634.51" x2="-526.3" y2="3616.76" gradientTransform="matrix(0.87, 0.5, 0, 1.15, 637.38, -3747.57)" xlink:href="#Безымянный_градиент_20"/><linearGradient id="Безымянный_градиент_20-19" x1="276.91" y1="157.32" x2="281.1" y2="157.32" xlink:href="#Безымянный_градиент_20"/><linearGradient id="Безымянный_градиент_20-20" x1="294" y1="281.38" x2="298.19" y2="281.38" xlink:href="#Безымянный_градиент_20"/><linearGradient id="Безымянный_градиент_20-21" x1="198.35" y1="229.92" x2="238.72" y2="229.92" xlink:href="#Безымянный_градиент_20"/><linearGradient id="Безымянный_градиент_20-22" x1="327.9" y1="210.42" x2="353.51" y2="134.81" xlink:href="#Безымянный_градиент_20"/><linearGradient id="Безымянный_градиент_20-23" x1="71.44" y1="295.85" x2="112.23" y2="259.72" xlink:href="#Безымянный_градиент_20"/><linearGradient id="Безымянный_градиент_20-24" x1="77.52" y1="289.32" x2="106.82" y2="272.01" xlink:href="#Безымянный_градиент_20"/></defs><title>Logistics Software Solutions</title><g class="cls-1"><g id="Слой_1" data-name="Слой 1"><polygon class="cls-2" points="51.57 145.51 113.58 181.31 103.8 115.11 41.79 79.31 51.57 145.51"/><polygon class="cls-3" points="10.39 169.41 31.06 153.07 30.89 91.67 20.04 92.04 20.05 92.07 10.39 169.41"/><polygon class="cls-4" points="31.06 153.07 51.57 145.51 41.79 79.31 30.89 91.67 31.06 153.07"/><polygon class="cls-5" points="72.4 205.21 93.07 188.87 92.9 127.47 82.05 127.84 72.4 205.21"/><polygon class="cls-6" points="93.07 188.87 113.58 181.31 103.8 115.11 92.9 127.47 93.07 188.87"/><polygon class="cls-7" points="62.76 100.9 46.78 91.67 43 93.86 43 107.85 46.78 110.03 46.78 96.04 62.76 105.27 62.76 119.26 66.54 121.44 66.54 107.45 62.76 100.9"/><polygon class="cls-8" points="80.95 87.98 64.97 78.76 61.19 80.94 61.19 94.93 64.97 97.11 64.97 83.12 80.95 92.35 80.95 106.34 84.73 108.52 84.73 94.53 80.95 87.98"/><polygon class="cls-9" points="10.39 169.41 72.4 205.21 82.05 127.84 20.04 92.04 10.39 169.41"/><polygon class="cls-10" points="300.34 162.3 249.37 132.87 249.37 47.95 300.34 77.37 300.34 162.3"/><polygon class="cls-11" points="274.86 183.01 223.89 153.58 223.89 68.66 274.86 98.09 274.86 183.01"/><path class="cls-12" d="M185.5,261.5,102,310c-2.5,1.46-2.5,3.82,0,5.28l132.59,76.55a10,10,0,0,0,9.1,0l83.47-48.5Z" transform="translate(-64.25 -73.78)"/><g class="cls-1"><path class="cls-13" d="M322.94,238.9a10,10,0,0,1,4.55,7.89l-.27,96.54L185.5,261.5l.27-96.54c0-2.9,2.06-4.07,4.58-2.61Zm-66.31-35.73c-.71-.41-1.29-.08-1.29.74a2.84,2.84,0,0,0,1.29,2.23c.71.41,1.29.08,1.29-.74a2.84,2.84,0,0,0-1.29-2.23Z" transform="translate(-64.25 -73.78)"/><polygon class="cls-14" points="126.69 96.55 126.69 183 258.13 258.97 258.13 172.37 126.69 96.55"/><path class="cls-12" d="M325.7,237.3,193.1,160.75a3.22,3.22,0,0,0-3.25-.32L187.1,162a3.22,3.22,0,0,1,3.25.32L322.95,238.9a10,10,0,0,1,4.55,7.89l-.27,96.54,2.75-1.6.27-96.54A10,10,0,0,0,325.7,237.3Z" transform="translate(-64.25 -73.78)"/></g><path class="cls-15" d="M243.76,391.82a10,10,0,0,1-9.1,0h0L102.06,315.28a3.22,3.22,0,0,1-1.9-2.66v3.18a3.22,3.22,0,0,0,1.9,2.66L234.64,395h0a10,10,0,0,0,9.1,0l83.47-48.5v-3.18Z" transform="translate(-64.25 -73.78)"/><path class="cls-13" d="M195.57,274,189,277.8l-8.3-4.79,6.6-3.83Zm1.32.76-6.6,3.83,8.31,4.8,6.6-3.83Zm-21.08,1.11-6.6,3.83,8.3,4.79,6.6-3.83Zm30.7,4.45-6.6,3.83,8.3,4.79,6.6-3.83ZM160,285l-6.6,3.84,8.3,4.79,6.6-3.84Zm17.55.94-6.6,3.84,8.31,4.8,6.6-3.84Zm17.55.95-6.6,3.83,8.3,4.79,6.6-3.83Zm9.62,5.55-6.6,3.83,8.31,4.8,6.6-3.83Zm30.7,4.45-6.6,3.83,8.31,4.8,6.6-3.83Zm-38.62.16-6.6,3.84,8.31,4.8,6.6-3.84Zm-7.93,4.61-6.6,3.84,8.31,4.8,6.6-3.84Zm56.17.79-6.6,3.83,8.31,4.8,6.6-3.83Zm-21.08,1.1-6.6,3.83,8.31,4.8,6.6-3.83Zm-25.47,3.66-6.6,3.84,8.31,4.8,6.6-3.84Zm56.17.79-6.6,3.83,8.3,4.79,6.6-3.83ZM216,308.2l-6.6,3.84,8.31,4.8,6.6-3.84Zm17.55.95-6.6,3.83,8.31,4.8,6.6-3.83Zm-43,2.72-6.6,3.83,8.31,4.8,6.6-3.83Zm17.55.94-6.6,3.84,8.31,4.8,6.6-3.84Zm56.17.79-6.6,3.83,8.31,4.8,6.6-3.83Zm-38.62.16-6.6,3.84,8.31,4.8,6.6-3.84Zm17.55.95-6.6,3.83,8.3,4.79,6.6-3.83Zm-25.48,3.66-6.6,3.84,8.31,4.8,6.6-3.84Zm56.17.79-6.6,3.83,8.3,4.79,6.6-3.83Zm-38.62.16-6.6,3.84,8.3,4.79,6.6-3.84Zm17.54.95-6.6,3.83,8.31,4.8,6.6-3.83ZM192.18,322l-6.6,3.83,8.31,4.8,6.6-3.83Zm35.1,1.89-6.6,3.84,8.3,4.79,6.6-3.84Zm56.17.79-6.6,3.83,8.31,4.8,6.6-3.83Zm-38.62.16-6.6,3.84,8.31,4.8,6.6-3.84Zm-7.93,4.61-6.6,3.84,8.31,4.8,6.6-3.84Zm56.17.79-6.6,3.83,8.3,4.79,6.6-3.83ZM272,331.37l-6.6,3.83,8.31,4.8,6.6-3.83Zm-52.64-2.84-6.6,3.83,17.92,10.35,6.6-3.83Zm83.34,7.28-6.6,3.83,8.31,4.8,6.6-3.83Zm-38.62.16-6.6,3.84,8.31,4.8,6.6-3.84Zm17.55.95-6.6,3.83,8.3,4.79,6.6-3.83Zm-79.81-9.34-6.6,3.83,27.54,15.9,6.6-3.83Zm54.34,13-6.6,3.84,8.31,4.8,6.6-3.84Zm17.55.95-6.6,3.84,8.3,4.79,6.6-3.84Zm17.54.95-6.6,3.83,8.31,4.8,6.6-3.83Zm-78.12.83-6.6,3.83,8.31,4.8,6.6-3.83Zm35.1,1.89-6.6,3.83,8.31,4.8,6.6-3.83Zm17.55.95-6.6,3.84,8.3,4.79,6.6-3.84Zm17.55.94-6.6,3.84,8.31,4.8,6.6-3.84Zm-43,2.72-6.6,3.83,8.31,4.8,6.6-3.83Zm17.55.95-6.6,3.83,8.3,4.79,6.6-3.83Zm17.55.94-6.6,3.84,8.31,4.8,6.6-3.84Zm-43,2.72-6.6,3.83,8.31,4.8,6.6-3.83Zm17.55.95-6.6,3.83,8.3,4.79,6.6-3.83Zm17.55.94-6.6,3.83,8.31,4.8,6.6-3.83ZM242,360l-6.6,3.83,8.3,4.79,6.6-3.83Zm17.55.94-6.6,3.83,8.31,4.8,6.6-3.83Zm-7.93,4.61-6.6,3.83,8.31,4.8,6.6-3.83Zm-83.71-85.08-6.6,3.84,8.3,4.79,6.6-3.84Zm17.54.95-6.6,3.83,8.31,4.8,6.6-3.83Zm30.7,4.45-6.6,3.83,8.31,4.8,6.6-3.83Zm-46.55,4.77-6.6,3.84,8.31,4.8,6.6-3.84Zm56.17.79-6.6,3.83,8.31,4.8,6.6-3.83Zm-38.62.16-6.6,3.84,8.3,4.79,6.6-3.84Zm-43,2.72-6.6,3.83,8.3,4.79,6.6-3.83Zm7.93-4.61-6.6,3.83,17.92,10.35,6.6-3.83Zm27.17,6.5-6.6,3.84,8.3,4.79,6.6-3.84ZM214.28,298l-6.6,3.83,8.31,4.8,6.6-3.83Zm-78.12.83-6.6,3.83,8.3,4.79,6.6-3.83Zm17.55.94-6.6,3.83,8.31,4.8,6.6-3.83Zm17.55.95-6.6,3.83,8.3,4.79,6.6-3.83Zm35.1,1.89-6.6,3.84,8.31,4.8,6.6-3.84Zm-60.58,1.77-6.6,3.83,8.31,4.8,6.6-3.83Zm17.55.95-6.6,3.83L165,314l6.6-3.83Zm17.55.94-6.6,3.83,8.31,4.8,6.6-3.83Zm-7.93,4.61-6.6,3.83,8.31,4.8,6.6-3.83Zm9.62,5.55-6.6,3.83,8.31,4.8,6.6-3.83Zm17.55.94-6.6,3.83,8.31,4.8,6.6-3.83Zm9.62,5.55-6.6,3.83,8.31,4.8,6.6-3.83ZM155.4,310l-6.6,3.83,46.78,27,6.6-3.83Zm48.1,27.77-6.6,3.83,8.3,4.79,6.6-3.83Zm-26.12-4.41-17.85,10.37,22.45,13,17.85-10.37Z" transform="translate(-64.25 -73.78)"/><path class="cls-16" d="M256.63,206.36c.82.47,1.49.09,1.49-.85a3.26,3.26,0,0,0-1.48-2.56c-.82-.47-1.49-.09-1.49.85A3.26,3.26,0,0,0,256.63,206.36Z" transform="translate(-64.25 -73.78)"/><path class="cls-17" d="M261.57,266a2.52,2.52,0,0,1-2.13-.25v1.6l-1-.59V265.2a11.92,11.92,0,0,1-1.73-1.38,8.47,8.47,0,0,1-1.3-1.55l.56-1.12a9.31,9.31,0,0,0,1.11,1.36,8.82,8.82,0,0,0,1.36,1.15v-2.85a17.39,17.39,0,0,1-1.46-1.38,6,6,0,0,1-1-1.42,3.79,3.79,0,0,1-.4-1.72,1.6,1.6,0,0,1,.73-1.55,2.44,2.44,0,0,1,2.11.25v-1.61l1,.58v1.58a9.76,9.76,0,0,1,1.35,1.05,9.49,9.49,0,0,1,1.16,1.27l-.51,1.15a10.11,10.11,0,0,0-2-1.93V260a18.49,18.49,0,0,1,1.48,1.38,6,6,0,0,1,1,1.42,3.76,3.76,0,0,1,.4,1.72A1.57,1.57,0,0,1,261.57,266Zm-4.07-8a5.93,5.93,0,0,0,.93,1v-2.54a1.16,1.16,0,0,0-.94-.08.68.68,0,0,0-.31.66A1.66,1.66,0,0,0,257.5,258.06Zm2.91,6.27a.62.62,0,0,0,.31-.63,1.71,1.71,0,0,0-.33-1,6.18,6.18,0,0,0-1-1v2.53A1.3,1.3,0,0,0,260.41,264.34Z" transform="translate(-64.25 -73.78)"/><path class="cls-17" d="M270.17,261.87v10l-1.61-.93V262.5l-1.83-1.06v-1.55Z" transform="translate(-64.25 -73.78)"/><path class="cls-17" d="M273.89,273.54a8.51,8.51,0,0,1-1.29-2.51,9.68,9.68,0,0,1-.47-3,5.42,5.42,0,0,1,.47-2.49,1.77,1.77,0,0,1,1.29-1,2.83,2.83,0,0,1,1.85.46,6.33,6.33,0,0,1,1.86,1.68,8.49,8.49,0,0,1,1.29,2.51,9.67,9.67,0,0,1,.47,3,5.41,5.41,0,0,1-.47,2.49,1.76,1.76,0,0,1-1.29,1,2.86,2.86,0,0,1-1.86-.47A6.29,6.29,0,0,1,273.89,273.54Zm3.32,0a3.56,3.56,0,0,0,.54-2.33,7.18,7.18,0,0,0-.54-2.95,3.64,3.64,0,0,0-1.46-1.73q-.91-.53-1.45,0a3.56,3.56,0,0,0-.54,2.33,7.19,7.19,0,0,0,.54,3,3.61,3.61,0,0,0,1.45,1.72Q276.67,274.14,277.21,273.56Z" transform="translate(-64.25 -73.78)"/><path class="cls-17" d="M282.45,278.48a8.5,8.5,0,0,1-1.28-2.51,9.69,9.69,0,0,1-.47-3,5.43,5.43,0,0,1,.47-2.49,1.77,1.77,0,0,1,1.28-1,2.81,2.81,0,0,1,1.85.46,6.3,6.3,0,0,1,1.86,1.68,8.49,8.49,0,0,1,1.29,2.51,9.7,9.7,0,0,1,.47,3,5.43,5.43,0,0,1-.47,2.49,1.77,1.77,0,0,1-1.29,1,2.85,2.85,0,0,1-1.86-.47A6.24,6.24,0,0,1,282.45,278.48Zm3.32,0a3.56,3.56,0,0,0,.54-2.33,7.18,7.18,0,0,0-.54-2.95,3.64,3.64,0,0,0-1.46-1.73q-.91-.53-1.45,0a3.56,3.56,0,0,0-.54,2.33,7.18,7.18,0,0,0,.54,2.95,3.6,3.6,0,0,0,1.45,1.72Q285.23,279.08,285.77,278.51Z" transform="translate(-64.25 -73.78)"/><path class="cls-18" d="M277.18,123.07,192.77,74.35a2.9,2.9,0,0,0-2.93-.29l-2.08,1.19s90.77,115.37,90,115.8l2.11-1.23a2.88,2.88,0,0,0,1.2-2.64l.16-57A9,9,0,0,0,277.18,123.07Z" transform="translate(-64.25 -73.78)"/><path class="cls-19" d="M275.2,190.94l-84.86-49c-2.1-1.21-3.81-4.47-3.81-7.28V78.29c0-2.81,1.71-4.09,3.81-2.88l84.86,49c2.1,1.21,3.81,4.47,3.81,7.28v56.38C279,190.86,277.3,192.15,275.2,190.94Z" transform="translate(-64.25 -73.78)"/><polygon class="cls-20" points="166.26 79.15 132.36 59.58 132.36 56.99 166.26 76.57 166.26 79.15"/><polygon class="cls-20" points="147.46 72.64 132.36 63.92 132.36 61.34 147.46 70.06 147.46 72.64"/><path class="cls-17" d="M198.79,128.89l-1.52-.88a2.06,2.06,0,0,1-.93-1.61v-3.75c0-.59.42-.83.93-.54l1.52.88a2.06,2.06,0,0,1,.93,1.61v3.75C199.73,128.94,199.31,129.18,198.79,128.89Zm-1.52-6.25c-.26-.15-.47,0-.47.27v3.75a1,1,0,0,0,.47.82l1.52.88c.26.15.47,0,.47-.27v-3.75a1,1,0,0,0-.47-.82Z" transform="translate(-64.25 -73.78)"/><path class="cls-17" d="M202.79,131.19l-1.52-.88a2.06,2.06,0,0,1-.93-1.61v-3.75c0-.59.42-.83.93-.54l1.52.88a2.06,2.06,0,0,1,.93,1.61v3.75C203.72,131.25,203.3,131.49,202.79,131.19Zm-1.52-6.25c-.26-.15-.47,0-.47.27V129a1,1,0,0,0,.47.82l1.52.88c.26.15.47,0,.47-.27v-3.75a1,1,0,0,0-.47-.82Z" transform="translate(-64.25 -73.78)"/><path class="cls-17" d="M206.78,133.5l-1.52-.88a2.06,2.06,0,0,1-.93-1.61v-3.75c0-.59.42-.83.93-.54l1.52.88a2.06,2.06,0,0,1,.93,1.61V133C207.71,133.55,207.29,133.79,206.78,133.5Zm-1.52-6.25c-.26-.15-.47,0-.47.27v3.75a1,1,0,0,0,.47.82l1.52.88c.26.15.47,0,.47-.27v-3.75a1,1,0,0,0-.47-.82Z" transform="translate(-64.25 -73.78)"/><path class="cls-17" d="M210.77,135.8l-1.52-.88a2.06,2.06,0,0,1-.93-1.61v-3.75c0-.59.42-.83.93-.54l1.52.88a2.06,2.06,0,0,1,.93,1.61v3.75C211.71,135.86,211.29,136.1,210.77,135.8Zm-1.52-6.25c-.26-.15-.47,0-.47.27v3.75a1,1,0,0,0,.47.82l1.52.88c.26.15.47,0,.47-.27v-3.75a1,1,0,0,0-.47-.82Z" transform="translate(-64.25 -73.78)"/><path class="cls-17" d="M218.06,140l-1.52-.88a2.06,2.06,0,0,1-.93-1.61v-3.75c0-.59.42-.83.93-.54l1.52.88a2.06,2.06,0,0,1,.93,1.61v3.75C219,140.07,218.58,140.31,218.06,140Zm-1.52-6.25c-.26-.15-.47,0-.47.27v3.75a1,1,0,0,0,.47.82l1.52.88c.26.15.47,0,.47-.27v-3.75a1,1,0,0,0-.47-.82Z" transform="translate(-64.25 -73.78)"/><path class="cls-17" d="M222.06,142.32l-1.52-.88a2.06,2.06,0,0,1-.93-1.61v-3.75c0-.59.42-.83.93-.54l1.52.88A2.06,2.06,0,0,1,223,138v3.75C223,142.37,222.57,142.61,222.06,142.32Zm-1.52-6.25c-.26-.15-.47,0-.47.27v3.75a1,1,0,0,0,.47.82l1.52.88c.26.15.47,0,.47-.27v-3.75a1,1,0,0,0-.47-.82Z" transform="translate(-64.25 -73.78)"/><path class="cls-17" d="M226,144.62l-1.52-.88a2.06,2.06,0,0,1-.93-1.61v-3.75c0-.59.42-.83.93-.54l1.52.88a2.06,2.06,0,0,1,.93,1.61v3.75C227,144.68,226.56,144.92,226,144.62Zm-1.52-6.25c-.26-.15-.47,0-.47.27v3.75a1,1,0,0,0,.47.82l1.52.88c.26.15.47,0,.47-.27v-3.75a1,1,0,0,0-.47-.82Z" transform="translate(-64.25 -73.78)"/><path class="cls-17" d="M230,146.93l-1.52-.88a2.06,2.06,0,0,1-.93-1.61v-3.75c0-.59.42-.83.93-.54L230,141a2.06,2.06,0,0,1,.93,1.61v3.75C231,147,230.56,147.22,230,146.93Zm-1.52-6.25c-.26-.15-.47,0-.47.27v3.75a1,1,0,0,0,.47.82l1.52.88c.26.15.47,0,.47-.27v-3.75a1,1,0,0,0-.47-.82Z" transform="translate(-64.25 -73.78)"/><path class="cls-17" d="M237.33,151.14l-1.52-.88a2.06,2.06,0,0,1-.93-1.61v-3.75c0-.59.42-.83.93-.54l1.52.88a2.06,2.06,0,0,1,.93,1.61v3.75C238.26,151.19,237.84,151.43,237.33,151.14Zm-1.52-6.25c-.26-.15-.47,0-.47.27v3.75a1,1,0,0,0,.47.82l1.52.88c.26.15.47,0,.47-.27v-3.75a1,1,0,0,0-.47-.82Z" transform="translate(-64.25 -73.78)"/><path class="cls-17" d="M241.32,153.44l-1.52-.88a2.06,2.06,0,0,1-.93-1.61V147.2c0-.59.42-.83.93-.54l1.52.88a2.06,2.06,0,0,1,.93,1.61v3.75C242.26,153.5,241.84,153.74,241.32,153.44Zm-1.52-6.25c-.26-.15-.47,0-.47.27v3.75a1,1,0,0,0,.47.82l1.52.88c.26.15.47,0,.47-.27v-3.75a1,1,0,0,0-.47-.82Z" transform="translate(-64.25 -73.78)"/><path class="cls-17" d="M245.32,155.75l-1.52-.88a2.06,2.06,0,0,1-.93-1.61V149.5c0-.59.42-.83.93-.54l1.52.88a2.06,2.06,0,0,1,.93,1.61v3.75C246.25,155.8,245.83,156,245.32,155.75Zm-1.52-6.25c-.26-.15-.47,0-.47.27v3.75a1,1,0,0,0,.47.82l1.52.88c.26.15.47,0,.47-.27v-3.75a1,1,0,0,0-.47-.82Z" transform="translate(-64.25 -73.78)"/><path class="cls-17" d="M249.31,158.05l-1.52-.88a2.06,2.06,0,0,1-.93-1.61v-3.75c0-.59.42-.83.93-.54l1.52.88a2.06,2.06,0,0,1,.93,1.61v3.75C250.24,158.11,249.82,158.35,249.31,158.05Zm-1.52-6.25c-.26-.15-.47,0-.47.27v3.75a1,1,0,0,0,.47.82l1.52.88c.26.15.47,0,.47-.27V153.5a1,1,0,0,0-.47-.82Z" transform="translate(-64.25 -73.78)"/><path class="cls-17" d="M256.6,162.26l-1.52-.88a2.06,2.06,0,0,1-.93-1.61V156c0-.59.42-.83.93-.54l1.52.88a2.06,2.06,0,0,1,.93,1.61v3.75C257.53,162.32,257.11,162.56,256.6,162.26ZM255.08,156c-.26-.15-.47,0-.47.27V160a1,1,0,0,0,.47.82l1.52.88c.26.15.47,0,.47-.27v-3.75a1,1,0,0,0-.47-.82Z" transform="translate(-64.25 -73.78)"/><path class="cls-17" d="M260.59,164.57l-1.52-.88a2.06,2.06,0,0,1-.93-1.61v-3.75c0-.59.42-.84.93-.54l1.52.88a2.06,2.06,0,0,1,.93,1.61V164C261.52,164.62,261.11,164.86,260.59,164.57Zm-1.52-6.25c-.26-.15-.47,0-.47.27v3.75a1,1,0,0,0,.47.82l1.52.88c.26.15.47,0,.47-.27V160a1,1,0,0,0-.47-.82Z" transform="translate(-64.25 -73.78)"/><path class="cls-17" d="M264.59,166.87l-1.52-.88a2.06,2.06,0,0,1-.93-1.61v-3.75c0-.59.42-.83.93-.54l1.52.88a2.06,2.06,0,0,1,.93,1.61v3.75C265.52,166.93,265.1,167.17,264.59,166.87Zm-1.52-6.25c-.26-.15-.47,0-.47.27v3.75a1,1,0,0,0,.47.82l1.52.88c.26.15.47,0,.47-.27v-3.75a1,1,0,0,0-.47-.82Z" transform="translate(-64.25 -73.78)"/><path class="cls-17" d="M268.58,169.18l-1.52-.88a2.06,2.06,0,0,1-.93-1.61v-3.75c0-.59.42-.83.93-.54l1.52.88a2.06,2.06,0,0,1,.93,1.61v3.75C269.51,169.23,269.09,169.47,268.58,169.18Zm-1.52-6.25c-.26-.15-.47,0-.47.27v3.75a1,1,0,0,0,.47.82l1.52.88c.26.15.47,0,.47-.27v-3.75a1,1,0,0,0-.47-.82Z" transform="translate(-64.25 -73.78)"/><path class="cls-17" d="M198.67,111.14a2.73,2.73,0,0,1,.37-1.47l-2.73-1.58v3.36L199,113A5.58,5.58,0,0,1,198.67,111.14Z" transform="translate(-64.25 -73.78)"/><path class="cls-17" d="M207.22,114v-2.48a3.32,3.32,0,0,0-1.5-2.6l-.54-.31v4.21Z" transform="translate(-64.25 -73.78)"/><path class="cls-17" d="M198.44,104.71l-.63-.37c-.83-.48-1.5-.09-1.5.87v2.48l2.13,1.23Z" transform="translate(-64.25 -73.78)"/><path class="cls-17" d="M196.3,111.87v2.48a3.32,3.32,0,0,0,1.5,2.6l.63.37V113.1Z" transform="translate(-64.25 -73.78)"/><path class="cls-17" d="M199.25,109.39a2,2,0,0,1,2.51,0,6.63,6.63,0,0,1,2.51,2.93l.54.31v-4.21l-6-3.47v4.21Z" transform="translate(-64.25 -73.78)"/><path class="cls-17" d="M204.27,116.47a2,2,0,0,1-2.51,0,6.63,6.63,0,0,1-2.51-2.93l-.45-.26v4.21l6,3.47v-4.21Z" transform="translate(-64.25 -73.78)"/><path class="cls-17" d="M205.18,121.21l.54.31c.83.48,1.5.09,1.5-.87v-2.48l-2-1.18Z" transform="translate(-64.25 -73.78)"/><path class="cls-17" d="M204.49,112.82a5.59,5.59,0,0,1,.37,1.89,2.73,2.73,0,0,1-.37,1.47l2.73,1.58V114.4Z" transform="translate(-64.25 -73.78)"/><path class="cls-17" d="M204.08,112.59l-4.64-2.68a2.27,2.27,0,0,0-.42,1.44,5.12,5.12,0,0,0,.42,1.92l4.64,2.68a2.27,2.27,0,0,0,.42-1.44A5.13,5.13,0,0,0,204.08,112.59Z" transform="translate(-64.25 -73.78)"/><path class="cls-17" d="M201.76,109.76a1.84,1.84,0,0,0-2.06-.11l4.11,2.37A5.72,5.72,0,0,0,201.76,109.76Z" transform="translate(-64.25 -73.78)"/><path class="cls-17" d="M201.76,116.1a1.84,1.84,0,0,0,2.06.11l-4.11-2.37A5.72,5.72,0,0,0,201.76,116.1Z" transform="translate(-64.25 -73.78)"/><path class="cls-17" d="M242.07,121.4a3.89,3.89,0,0,1,.4,1.7q0,1.24-.83,1.42a3.79,3.79,0,0,1-2.42-.74L235,121.35V112l4,2.3a7.1,7.1,0,0,1,2.29,2,3.85,3.85,0,0,1,.8,2.25,1.71,1.71,0,0,1-.28,1.06,1,1,0,0,1-.8.39A5,5,0,0,1,242.07,121.4Zm-5.2-6.73v2.22l1.87,1.08a1.7,1.7,0,0,0,1.06.33q.36-.07.36-.62a1.7,1.7,0,0,0-.36-1,3.44,3.44,0,0,0-1.06-.89Zm3.32,7.76q.38-.06.38-.65a2.45,2.45,0,0,0-1.5-2l-2.2-1.27v2.32l2.2,1.27A1.92,1.92,0,0,0,240.19,122.43Z" transform="translate(-64.25 -73.78)"/><path class="cls-17" d="M249.25,127.57l-3.78-2.18-.72,1.6-1.93-1.11,3.63-7.3,1.86,1.07,3.64,11.5L250,130Zm-.59-2-1.29-4.34-1.29,2.85Z" transform="translate(-64.25 -73.78)"/><path class="cls-17" d="M260.27,126.54v9.4l-1.55-.89-4.06-8v5.71l-1.86-1.07v-9.4l1.56.9,4,8v-5.71Z" transform="translate(-64.25 -73.78)"/><path class="cls-17" d="M265.16,135.08l-1.09.68v2.38l-1.87-1.08v-9.4l1.87,1.08v4.39l3.6-2.31,2.09,1.21-3.37,2.24,3.57,7.27-2.2-1.27Z" transform="translate(-64.25 -73.78)"/><path class="cls-21" d="M398.61,328.47H347.79l7.08,37.32h0c0,2.71,1.79,5.42,5.37,7.48,7.16,4.13,18.77,4.13,25.92,0,3.58-2.07,5.37-4.77,5.37-7.48h0Z" transform="translate(-64.25 -73.78)"/><path class="cls-22" d="M346.29,324.1v6.35c0,4,2.63,7.94,7.88,11,10.51,6.07,27.55,6.07,38.06,0,5.26-3,7.88-7,7.88-11V324.1Z" transform="translate(-64.25 -73.78)"/><path class="cls-23" d="M392.23,313.12c10.51,6.07,10.51,15.91,0,22s-27.55,6.07-38.06,0-10.51-15.91,0-22S381.72,307,392.23,313.12Z" transform="translate(-64.25 -73.78)"/><path class="cls-24" d="M388.73,315.14c8.58,5,8.58,13,0,17.93s-22.48,5-31.06,0-8.58-13,0-17.93S380.15,310.18,388.73,315.14Z" transform="translate(-64.25 -73.78)"/><path class="cls-25" d="M345.71,219.29c.82,2.4,1.83,4.8,1.89,7.33.23,8.42-9.55,14.22-10.36,22.61-.83,8.6,8,15.38,8.85,24,.76,7.28-4.31,14.7-1.93,21.61,1.22,3.55,4.21,6.19,7.35,8.24s6.56,3.71,9.39,6.17a21.5,21.5,0,0,1,7,19.38c7-8.54,14.22-17.7,15.66-28.63a30.14,30.14,0,0,0-4.63-20.24c-2.75-4.19-6.65-7.91-7.55-12.84-.87-4.73,1.24-9.43,3.05-13.89s3.36-9.54,1.46-14c-1.66-3.84-5.53-6.21-8-9.62-2.13-3-3.06-6.63-4-10.16-1.55-5.71-4.59-13.91-11.88-13.88C345,205.42,344,214.33,345.71,219.29Z" transform="translate(-64.25 -73.78)"/><path class="cls-26" d="M392.61,221.8c-.66,6.91,2,14.57-1.73,20.46-3,4.84-9.24,6.58-13.25,10.63-5.52,5.58-5.89,14.59-3.67,22.12s6.54,14.24,9.45,21.53,4.26,15.88.51,22.77c6.7-5,13.49-10.14,18.7-16.71s8.76-14.86,7.95-23.21c-.52-5.3-2.74-10.7-1.13-15.77,2.33-7.33,11.75-10.92,13.28-18.46,1-4.76-1.6-9.47-4.28-13.52s-5.68-8.31-5.69-13.17c0-3,1.14-5.9,1.13-8.89,0-8.39-7.47-6.43-12.13-3.13A21.7,21.7,0,0,0,392.61,221.8Z" transform="translate(-64.25 -73.78)"/><path class="cls-17" d="M398.83,257.91c.54-.67,1.09-1.35,1.62-2v0a20.14,20.14,0,0,1,6.85-1.52l0-.78a20.89,20.89,0,0,0-6,1.18,18.6,18.6,0,0,0,2.94-5.73,16.86,16.86,0,0,0,.44-6.26l5-2.78-.38-.69-4.75,2.62a59.64,59.64,0,0,0-1.25-6.2l-.29-1.2a36.76,36.76,0,0,1-1-6,9.72,9.72,0,0,1,4.47-2.92l-.23-.75a10.52,10.52,0,0,0-4.28,2.58,13,13,0,0,1,1.57-6.76l-.68-.39c-2.34,4-1.83,9-.86,13.41a18.32,18.32,0,0,0-5.16-3.06l-.28.73a17.53,17.53,0,0,1,5.73,3.62l.23,1c1,4.22,2,8.59,1,12.69a15.18,15.18,0,0,0-6.23-6.07l-.36.69a14.39,14.39,0,0,1,6.26,6.42c-1,2.86-2.93,5.25-5,7.76-1,1.21-2,2.47-2.87,3.77a20.2,20.2,0,0,0-7.48-7.64l-.39.68a19.4,19.4,0,0,1,7.39,7.68l0,0c-3.17,5-4.32,10.9-4.7,16.35a22.2,22.2,0,0,0-7.62-6.26l-.35.7a21.41,21.41,0,0,1,7.82,6.65l.09-.06c-.06,1.24-.09,2.44-.1,3.61h0v0c0,.52,0,1,0,1.55,0,1.77.07,3.56.12,5.3.18,5.86.36,11.93-.84,17.72-1.77,8.56-6.63,15.12-13,17.55l.74.55c6.38-2.66,11.23-9.32,13-17.94,1.22-5.88,1-12,.86-17.91-.05-1.74-.11-3.53-.12-5.29,0-.36,0-.72,0-1.09a28.77,28.77,0,0,1,8.65-3l-.14-.77a29.59,29.59,0,0,0-8.5,2.93,50.67,50.67,0,0,1,1.46-12.44,30.92,30.92,0,0,1,8.34-2.65l-.13-.77a31.68,31.68,0,0,0-7.94,2.44,26.89,26.89,0,0,1,3-6.72A49.74,49.74,0,0,1,398.83,257.91Z" transform="translate(-64.25 -73.78)"/><path class="cls-17" d="M361.65,280.25l.15.21,3.81-2.71-.45-.64-3.76,2.67c-.49-.89-1-1.77-1.49-2.63a69.07,69.07,0,0,1-4.85-9.58l5.36-4.32-.49-.61-5.15,4.15a25.52,25.52,0,0,1-1.15-4.4,34.24,34.24,0,0,1,.48-11.52l7.53-3.23-.31-.72-7.05,3c.26-1.35.55-2.7.83-4s.54-2.54.79-3.81a46.65,46.65,0,0,0,.95-8.32l3.35-2.05-.41-.67-3,1.81a20.2,20.2,0,0,0-3.1-11.07l-.65.44c3.54,5.26,3.29,12,2.45,17.38l-3.24-3.87-.6.5,3.67,4.39c-.08.45-.16.9-.24,1.32-.24,1.26-.52,2.53-.79,3.79a59.11,59.11,0,0,0-1.8,13.07l-6.42-5.88-.53.58,6.88,6.31.09-.1a24.69,24.69,0,0,0,.28,2.8,37.22,37.22,0,0,0,4.61,11.89l-6.7-1.38-.17.76.37.08h0l6.92,1.43,0-.09c.44.78.88,1.56,1.33,2.33.89,1.56,1.82,3.17,2.66,4.77a65,65,0,0,1,3.41,7.76,21,21,0,0,0-8.31-3.62l-.15.77a20.18,20.18,0,0,1,8.76,4.06l.1-.12a67.13,67.13,0,0,1,1.17,40.17l.75.22a67.83,67.83,0,0,0-5-49.6C362.28,281.38,362,280.81,361.65,280.25Z" transform="translate(-64.25 -73.78)"/><path class="cls-27" d="M355.37,386.67l-28.18-14.83a6.09,6.09,0,0,0-5.47.23l-56.19,31.33v1.94a1.55,1.55,0,0,0,.93,1.57l27.24,15.72a6.09,6.09,0,0,0,5.48-.23L354,390.72a2.25,2.25,0,0,0,1.34-1.79h0Z" transform="translate(-64.25 -73.78)"/><path class="cls-28" d="M293.68,420.36l-27.24-15.72c-1.4-.81-1.23-2.23.39-3.16l54.87-31.68a6.09,6.09,0,0,1,5.48-.23l27.24,15.72c1.4.81,1.23,2.23-.39,3.16l-54.87,31.68A6.09,6.09,0,0,1,293.68,420.36Z" transform="translate(-64.25 -73.78)"/><path class="cls-29" d="M321.79,370.6l-54.61,31.53a1.1,1.1,0,0,0,0,2.09l27.24,15.72a4,4,0,0,0,3.61,0l54.61-31.53Z" transform="translate(-64.25 -73.78)"/><path class="cls-30" d="M341,380.11l-4.81-2.78c-.1-.06-.08-.15,0-.22l.06,0a.42.42,0,0,1,.38,0l4.81,2.78c.1.06.08.15,0,.22l-.06,0A.42.42,0,0,1,341,380.11Z" transform="translate(-64.25 -73.78)"/><path class="cls-30" d="M335.51,376.64a.5.5,0,0,1-.45,0,.14.14,0,0,1,0-.26.5.5,0,0,1,.45,0A.14.14,0,0,1,335.51,376.64Z" transform="translate(-64.25 -73.78)"/><path class="cls-31" d="M292.58,408.45a7.77,7.77,0,0,1-7,0c-1.94-1.12-1.94-2.94,0-4.06a7.77,7.77,0,0,1,7,0C294.52,405.51,294.52,407.33,292.58,408.45Z" transform="translate(-64.25 -73.78)"/><path class="cls-17" d="M300.55,394.72a3.25,3.25,0,0,0-2.94,0,.9.9,0,0,0,0,1.7,3.25,3.25,0,0,0,2.94,0A.9.9,0,0,0,300.55,394.72Z" transform="translate(-64.25 -73.78)"/><path class="cls-17" d="M306.73,398.29a3.25,3.25,0,0,0-2.94,0,.9.9,0,0,0,0,1.7,3.25,3.25,0,0,0,2.94,0A.9.9,0,0,0,306.73,398.29Z" transform="translate(-64.25 -73.78)"/><path class="cls-17" d="M328.75,393.42l-2.64-1.53a1.67,1.67,0,0,0-1.36-.06l-3.16,1.32-12.85-7.42a1.56,1.56,0,0,0-.82-.18,1.37,1.37,0,0,0-.77.25l-7.92,6.26c-.31.24-.26.58.11.79l10.53,6.08a1.67,1.67,0,0,0,1.36.06l1.72-.73,12.31-5.15,2,1.16a1.64,1.64,0,0,0,1.49,0A.45.45,0,0,0,328.75,393.42Zm-23.26-4.24,10.75,6.2-2,.86L304,390.35Zm14.35,4.69-1.88.79-11.21-6.47,1.38-1.09Zm-18.38-1.5,1.3-1,9.73,5.62-.77.32h0l-1,.42Z" transform="translate(-64.25 -73.78)"/><polygon class="cls-32" points="175.53 203.11 136.32 180.47 136.32 113.84 175.53 136.48 175.53 203.11"/><polygon class="cls-33" points="185.1 154.17 178.11 150.13 178.11 138.24 185.1 142.28 185.1 154.17"/><polygon class="cls-34" points="185.1 170.66 178.11 166.62 178.11 154.73 185.1 158.77 185.1 170.66"/><polygon class="cls-35" points="185.1 187.15 178.11 183.11 178.11 171.22 185.1 175.26 185.1 187.15"/><g class="cls-36"><polygon class="cls-17" points="216.9 166.22 191 151.27 191 146.06 216.9 161.01 216.9 166.22"/><polygon class="cls-17" points="204.43 165.34 191 157.59 191 155.82 204.43 163.57 204.43 165.34"/><polygon class="cls-17" points="222.87 175.99 206.06 166.28 206.06 164.52 222.87 174.22 222.87 175.99"/><polygon class="cls-17" points="205.22 217.65 188.41 207.94 188.41 206.18 205.22 215.88 205.22 217.65"/><polygon class="cls-17" points="237.41 233.75 237.41 235.52 246.19 240.59 246.19 238.82 237.41 233.75"/><polygon class="cls-17" points="238.01 184.73 224.34 176.84 224.34 175.07 238.01 182.96 238.01 184.73"/><polygon class="cls-17" points="200.4 166.73 191 161.31 191 159.54 200.4 164.97 200.4 166.73"/><polygon class="cls-17" points="238.01 188.45 202.01 167.66 202.01 165.9 238.01 186.68 238.01 188.45"/><polygon class="cls-17" points="208.13 174.92 191 165.03 191 163.26 208.13 173.15 208.13 174.92"/><polygon class="cls-17" points="220.67 182.15 209.47 175.69 209.47 173.92 220.67 180.39 220.67 182.15"/></g><path class="cls-37" d="M313.76,256.65l-.27-.15a4.28,4.28,0,0,1-1.79-3.41v-2.45c0-1.32.8-1.92,1.79-1.35l.27.15a4.28,4.28,0,0,1,1.79,3.41v2.45C315.54,256.62,314.74,257.22,313.76,256.65Z" transform="translate(-64.25 -73.78)"/><polygon class="cls-17" points="232.05 207.68 231.44 207.68 231.44 93.39 214.61 83.8 214.91 83.27 232.05 93.04 232.05 207.68"/><path class="cls-37" d="M284,160.23c0,3.21-2.26,4.52-5,2.91a11.14,11.14,0,0,1-5-8.73c0-3.21,2.26-4.52,5-2.91A11.14,11.14,0,0,1,284,160.23Z" transform="translate(-64.25 -73.78)"/><path class="cls-38" d="M281.1,158.53c0,1.34-.94,1.88-2.1,1.21a4.64,4.64,0,0,1-2.1-3.63c0-1.34.94-1.88,2.1-1.21A4.64,4.64,0,0,1,281.1,158.53Z" transform="translate(-64.25 -73.78)"/><path class="cls-37" d="M301.13,284.29c0,3.21-2.26,4.52-5,2.91a11.14,11.14,0,0,1-5-8.73c0-3.21,2.26-4.52,5-2.91A11.14,11.14,0,0,1,301.13,284.29Z" transform="translate(-64.25 -73.78)"/><path class="cls-39" d="M298.19,282.59c0,1.34-.94,1.88-2.1,1.21a4.64,4.64,0,0,1-2.1-3.63c0-1.34.94-1.88,2.1-1.21A4.64,4.64,0,0,1,298.19,282.59Z" transform="translate(-64.25 -73.78)"/><path class="cls-40" d="M238.72,222.64l-12.49-7.21c-.92-.53-1.68-.23-1.91.66-.68,2.57-3,3.4-5.78,1.8a13.42,13.42,0,0,1-5.78-8.48,4.49,4.49,0,0,0-1.91-2.87l-12.49-7.21v11.8l8.16,4.71v30.79l24,13.88V229.72l8.16,4.71Z" transform="translate(-64.25 -73.78)"/><path class="cls-17" d="M236.2,225l-12.49-7.21c-.92-.53-1.68-.23-1.91.66-.68,2.57-3,3.4-5.78,1.8a13.42,13.42,0,0,1-5.78-8.48,4.49,4.49,0,0,0-1.91-2.87l-12.49-7.21v11.8l8.16,4.71V249l24,13.88V232.06l8.16,4.71Z" transform="translate(-64.25 -73.78)"/><path class="cls-41" d="M304.38,147.35V167.2a4,4,0,0,0,1.83,3.17L335.08,187l4,7,4-2.33L372,208.35c1,.58,1.83.11,1.83-1.06V187.45a4,4,0,0,0-1.83-3.17l-65.8-38C305.2,145.71,304.38,146.18,304.38,147.35Z" transform="translate(-64.25 -73.78)"/><path class="cls-17" d="M329,170.45a3.23,3.23,0,0,1,.33,1.41q0,1-.69,1.18a3.14,3.14,0,0,1-2-.61l-3.49-2v-7.78l3.29,1.9a5.87,5.87,0,0,1,1.89,1.64A3.18,3.18,0,0,1,329,168a1.42,1.42,0,0,1-.24.88.81.81,0,0,1-.66.32A4.13,4.13,0,0,1,329,170.45Zm-4.3-5.57v1.83l1.55.9a1.41,1.41,0,0,0,.88.27c.2,0,.3-.21.3-.52a1.4,1.4,0,0,0-.3-.86,2.84,2.84,0,0,0-.88-.73Zm2.75,6.42c.21,0,.31-.21.31-.54a2,2,0,0,0-1.24-1.69L324.65,168v1.92l1.82,1.05A1.59,1.59,0,0,0,327.4,171.3Z" transform="translate(-64.25 -73.78)"/><path class="cls-17" d="M336.26,172v6l-1.42-.82v-.71a1,1,0,0,1-.71.18,2.16,2.16,0,0,1-.9-.31,4.37,4.37,0,0,1-1.62-1.61,4.59,4.59,0,0,1-.6-2.36V169l1.5.87V173a2.18,2.18,0,0,0,1,2.05.8.8,0,0,0,.87.09c.22-.14.33-.48.33-1v-3Z" transform="translate(-64.25 -73.78)"/><path class="cls-17" d="M343.47,176.18l-2.34,5c-.24.55-.53.87-.88.95a1.8,1.8,0,0,1-1.27-.31,4.31,4.31,0,0,1-.8-.61,3.94,3.94,0,0,1-.65-.77l.55-.92a3,3,0,0,0,.4.51,2.09,2.09,0,0,0,.45.36.65.65,0,0,0,.5.12.66.66,0,0,0,.35-.37l0,0-2.24-7.32,1.55.9,1.46,4.9,1.46-3.21Z" transform="translate(-64.25 -73.78)"/><path class="cls-17" d="M348.24,177.82A1.6,1.6,0,0,1,348,177a.54.54,0,0,1,.26-.54.72.72,0,0,1,.67.11,1.9,1.9,0,0,1,.67.66,1.54,1.54,0,0,1,.26.82.58.58,0,0,1-.26.57.71.71,0,0,1-.67-.11A1.9,1.9,0,0,1,348.24,177.82Zm-.08,1.07,1.5.87v6l-1.5-.87Z" transform="translate(-64.25 -73.78)"/><path class="cls-17" d="M355.08,188.58a1,1,0,0,1-.54,0,3.06,3.06,0,0,1-.68-.3,3.91,3.91,0,0,1-1.43-1.37,3.59,3.59,0,0,1-.51-1.89v-2.46l-.8-.46v-1.33l.8.46v-1.46l1.5.87v1.46l1.29.75v1.33l-1.29-.74v2.44a1.38,1.38,0,0,0,.17.68,1.26,1.26,0,0,0,.48.48.77.77,0,0,0,.61.13Z" transform="translate(-64.25 -73.78)"/><path class="cls-42" d="M112.4,287.46l-20.75-12a6.71,6.71,0,0,0-6,.25L65.73,287.21a2.45,2.45,0,0,0-1.48,2,1.81,1.81,0,0,0,1,1.48l20.75,12a6.71,6.71,0,0,0,6-.25L112,290.94a2.43,2.43,0,0,0,1.48-2A1.82,1.82,0,0,0,112.4,287.46Z" transform="translate(-64.25 -73.78)"/><path class="cls-43" d="M112.4,278.81l-20.75-12a6.71,6.71,0,0,0-6,.25L65.73,278.56a2.45,2.45,0,0,0-1.48,2,1.81,1.81,0,0,0,1,1.48L86,294a6.71,6.71,0,0,0,6-.25L112,282.3a2.43,2.43,0,0,0,1.48-2A1.82,1.82,0,0,0,112.4,278.81Z" transform="translate(-64.25 -73.78)"/><path class="cls-44" d="M113.45,280.25a2.43,2.43,0,0,1-1.48,2L92.14,293.64a6.75,6.75,0,0,1-6,.31L65.3,282a1.81,1.81,0,0,1-1-1.48h0v3.23h0a1.79,1.79,0,0,0,1,1.51l20.75,12a6.71,6.71,0,0,0,6-.25L112,285.56a2.48,2.48,0,0,0,1.47-2h0v-3.33Z" transform="translate(-64.25 -73.78)"/><path class="cls-17" d="M95.83,276.64a11.27,11.27,0,0,0-10.2,0c-4.21,2.43-3.5,7.91-3.5,7.91s9.72.28,13.7-2C98.64,280.91,98.64,278.27,95.83,276.64Zm-7.12,4.11c-1.33-.77-1.33-2,0-2.78a5.32,5.32,0,0,1,4.81,0c1.33.77,1.33,2,0,2.78A5.32,5.32,0,0,1,88.7,280.76Z" transform="translate(-64.25 -73.78)"/></g></g></svg>