<?xml version="1.0" encoding="UTF-8"?> <svg xmlns="http://www.w3.org/2000/svg" xmlns:xlink="http://www.w3.org/1999/xlink" viewBox="0 0 500 500"><defs><style>.cls-1{isolation:isolate;}.cls-2{opacity:0.7;}.cls-3{fill:url(#Безымянный_градиент_2);}.cls-4{fill:url(#Безымянный_градиент_2-2);}.cls-5{fill:url(#Безымянный_градиент_2-3);}.cls-6{fill:url(#Безымянный_градиент_2-4);}.cls-7{fill:url(#Безымянный_градиент_2-5);}.cls-8{fill:#3a55ca;}.cls-9{fill:url(#Безымянный_градиент_22);}.cls-10{fill:url(#Безымянный_градиент_2-6);}.cls-11{fill:url(#Безымянный_градиент_2-7);}.cls-12{fill:url(#Безымянный_градиент_2-8);}.cls-13{fill:url(#Безымянный_градиент_22-2);}.cls-14{fill:url(#Безымянный_градиент_2-9);}.cls-15{fill:#ffffeb;}.cls-16{fill:#a9bdea;}.cls-17{fill:#abb9d1;}.cls-18{mix-blend-mode:screen;fill:url(#Degradado_sin_nombre_144);}.cls-19{fill:url(#Безымянный_градиент_22-3);}.cls-20{fill:#a3b9e8;}.cls-21{fill:url(#Безымянный_градиент_9);}.cls-22{fill:url(#Безымянный_градиент_22-4);}.cls-23{fill:#90a9d6;}.cls-24{fill:#7b97c9;}.cls-25{opacity:0.32;}.cls-25,.cls-27{mix-blend-mode:overlay;}.cls-26{fill:#fff;}.cls-27{fill:url(#Degradado_sin_nombre_142);}.cls-113,.cls-28,.cls-37,.cls-42,.cls-43,.cls-44,.cls-45,.cls-48{opacity:0.4;}.cls-29{fill:url(#Безымянный_градиент_2-10);}.cls-30{fill:url(#Безымянный_градиент_2-11);}.cls-31{fill:url(#Безымянный_градиент_2-12);}.cls-32{fill:url(#Безымянный_градиент_2-13);}.cls-33{fill:url(#Безымянный_градиент_22-5);}.cls-34{fill:url(#Безымянный_градиент_2-14);}.cls-35{fill:url(#Безымянный_градиент_2-15);}.cls-36{fill:url(#Безымянный_градиент_2-16);}.cls-37{fill:url(#Безымянный_градиент_2-17);}.cls-38{fill:url(#Безымянный_градиент_2-18);}.cls-39{fill:url(#Безымянный_градиент_22-6);}.cls-40{fill:url(#Безымянный_градиент_9-2);}.cls-41{fill:#335185;}.cls-42{fill:url(#Безымянный_градиент_2-19);}.cls-43{fill:url(#Безымянный_градиент_2-20);}.cls-44{fill:url(#Безымянный_градиент_2-21);}.cls-45{fill:url(#Безымянный_градиент_2-22);}.cls-46{fill:#9cc0e8;}.cls-47{fill:#bedaff;}.cls-48{fill:url(#Безымянный_градиент_2-23);}.cls-49{fill:url(#Degradado_sin_nombre_4);}.cls-50{fill:url(#Degradado_sin_nombre_4-2);}.cls-51{fill:url(#Degradado_sin_nombre_4-3);}.cls-52{fill:url(#Degradado_sin_nombre_10);}.cls-53{fill:#bdcefa;}.cls-54{fill:url(#Безымянный_градиент_22-7);}.cls-55{fill:url(#Безымянный_градиент_9-3);}.cls-56{fill:url(#Degradado_sin_nombre_4-4);}.cls-57{fill:url(#Безымянный_градиент_2-24);}.cls-58{fill:url(#Безымянный_градиент_2-25);}.cls-59,.cls-63,.cls-66,.cls-69,.cls-72,.cls-75{mix-blend-mode:color-dodge;}.cls-59{fill:url(#Degradado_sin_nombre_9);}.cls-60{fill:url(#Безымянный_градиент_22-8);}.cls-61{fill:url(#linear-gradient);}.cls-62{fill:url(#Degradado_sin_nombre_10-2);}.cls-63{fill:url(#Degradado_sin_nombre_9-2);}.cls-64{fill:url(#linear-gradient-2);}.cls-65{fill:url(#Degradado_sin_nombre_10-3);}.cls-66{fill:url(#Degradado_sin_nombre_9-3);}.cls-67{fill:url(#linear-gradient-3);}.cls-68{fill:url(#Degradado_sin_nombre_10-4);}.cls-69{fill:url(#Degradado_sin_nombre_9-4);}.cls-70{fill:url(#linear-gradient-4);}.cls-71{fill:url(#Degradado_sin_nombre_10-5);}.cls-72{fill:url(#Degradado_sin_nombre_9-5);}.cls-73{fill:url(#linear-gradient-5);}.cls-74{fill:url(#Degradado_sin_nombre_10-6);}.cls-75{fill:url(#Degradado_sin_nombre_9-6);}.cls-76{fill:#2d0d60;}.cls-77{fill:#f6c5b0;}.cls-78{fill:url(#Degradado_sin_nombre_7);}.cls-79{fill:#020b57;}.cls-80{fill:url(#Degradado_sin_nombre_7-2);}.cls-81{fill:url(#Degradado_sin_nombre_7-3);}.cls-82{fill-rule:evenodd;}.cls-83{fill:#fcc4b7;}.cls-84{fill:url(#Безымянный_градиент_22-9);}.cls-85{fill:url(#Degradado_sin_nombre_5);}.cls-86{fill:url(#Degradado_sin_nombre_5-2);}.cls-87{fill:url(#Degradado_sin_nombre_5-3);}.cls-88{fill:url(#Degradado_sin_nombre_5-4);}.cls-89{fill:url(#Degradado_sin_nombre_5-5);}.cls-90{fill:url(#Degradado_sin_nombre_5-6);}.cls-91{fill:url(#Degradado_sin_nombre_5-7);}.cls-92{fill:url(#Безымянный_градиент_22-10);}.cls-93{fill:url(#Безымянный_градиент_22-11);}.cls-94{fill:url(#Безымянный_градиент_22-12);}.cls-95{fill:url(#Безымянный_градиент_22-13);}.cls-96{fill:url(#Безымянный_градиент_22-14);}.cls-97{fill:url(#Безымянный_градиент_22-15);}.cls-98{fill:url(#Безымянный_градиент_2-26);}.cls-99{fill:url(#Degradado_sin_nombre_5-8);}.cls-100{fill:url(#Degradado_sin_nombre_5-9);}.cls-101{fill:url(#Degradado_sin_nombre_5-10);}.cls-102{fill:url(#Degradado_sin_nombre_5-11);}.cls-103{fill:url(#Degradado_sin_nombre_5-12);}.cls-104{fill:url(#Degradado_sin_nombre_5-13);}.cls-105{fill:url(#Безымянный_градиент_2-27);}.cls-106{fill:url(#Безымянный_градиент_2-28);}.cls-107{fill:url(#Безымянный_градиент_2-29);}.cls-108{fill:url(#Degradado_sin_nombre_8);}.cls-109{fill:url(#Degradado_sin_nombre_6);}.cls-110{fill:#00e9ff;}.cls-111{fill:#0382ff;}.cls-112{fill:url(#Безымянный_градиент_2-30);}.cls-113{fill:url(#Безымянный_градиент_2-31);}.cls-114{fill:url(#Degradado_sin_nombre_4-5);}.cls-115{fill:url(#Degradado_sin_nombre_4-6);}.cls-116{fill:#484968;}.cls-117{fill:url(#Безымянный_градиент_22-16);}.cls-118{fill:#1f1f1f;}.cls-119{fill:#54a5f8;}.cls-120{fill:url(#Degradado_sin_nombre_5-14);}.cls-121{fill:#010400;}.cls-122{fill:url(#Degradado_sin_nombre_4-7);}.cls-123{fill:url(#Degradado_sin_nombre_4-8);}.cls-124{fill:url(#Degradado_sin_nombre_4-9);}.cls-125{fill:url(#Degradado_sin_nombre_4-10);}.cls-126{fill:url(#Degradado_sin_nombre_4-11);}.cls-127{fill:url(#Безымянный_градиент_22-17);}.cls-128{fill:#f9ab83;}.cls-129{fill:url(#Безымянный_градиент_2-32);}.cls-130{fill:url(#Безымянный_градиент_22-18);}.cls-131{fill:#1c1c38;}.cls-132{fill:url(#Безымянный_градиент_22-19);}.cls-133{fill:url(#Безымянный_градиент_22-20);}.cls-134{fill:url(#Безымянный_градиент_2-33);}.cls-135{fill:url(#Безымянный_градиент_2-34);}.cls-136{fill:none;}</style><linearGradient id="Безымянный_градиент_2" x1="313.49" y1="235.14" x2="330.78" y2="235.14" gradientUnits="userSpaceOnUse"><stop offset="0" stop-color="#8eb5ff"></stop><stop offset="1" stop-color="#3069c9"></stop></linearGradient><linearGradient id="Безымянный_градиент_2-2" x1="288.07" y1="263.51" x2="359.06" y2="263.51" xlink:href="#Безымянный_градиент_2"></linearGradient><linearGradient id="Безымянный_градиент_2-3" x1="74.66" y1="403.78" x2="93.56" y2="403.78" xlink:href="#Безымянный_градиент_2"></linearGradient><linearGradient id="Безымянный_градиент_2-4" x1="43.74" y1="372.76" x2="121.35" y2="372.76" xlink:href="#Безымянный_градиент_2"></linearGradient><linearGradient id="Безымянный_градиент_2-5" x1="92.44" y1="183.42" x2="107.41" y2="183.42" xlink:href="#Безымянный_градиент_2"></linearGradient><linearGradient id="Безымянный_градиент_22" x1="75.29" y1="197.9" x2="86.96" y2="197.9" gradientTransform="translate(211.95 28.69) rotate(60)" gradientUnits="userSpaceOnUse"><stop offset="0" stop-color="#3069c9"></stop><stop offset="1" stop-color="#262cd4"></stop></linearGradient><linearGradient id="Безымянный_градиент_2-6" x1="73.23" y1="177.17" x2="84.59" y2="177.17" xlink:href="#Безымянный_градиент_2"></linearGradient><linearGradient id="Безымянный_градиент_2-7" x1="263.32" y1="112.94" x2="278.29" y2="112.94" xlink:href="#Безымянный_градиент_2"></linearGradient><linearGradient id="Безымянный_градиент_2-8" x1="257.15" y1="134.09" x2="265.34" y2="134.09" xlink:href="#Безымянный_градиент_2"></linearGradient><linearGradient id="Безымянный_градиент_22-2" x1="243.84" y1="122.66" x2="255.51" y2="122.66" gradientTransform="translate(231.06 -154.9) rotate(60)" xlink:href="#Безымянный_градиент_22"></linearGradient><linearGradient id="Безымянный_градиент_2-9" x1="247.46" y1="101.68" x2="258.82" y2="101.68" xlink:href="#Безымянный_градиент_2"></linearGradient><linearGradient id="Degradado_sin_nombre_144" x1="212.6" y1="8.95" x2="93.58" y2="334.99" gradientUnits="userSpaceOnUse"><stop offset="0" stop-color="#bedaff"></stop><stop offset="1" stop-color="#fff" stop-opacity="0"></stop></linearGradient><linearGradient id="Безымянный_градиент_22-3" x1="245.79" y1="41.58" x2="47.31" y2="567.29" gradientTransform="matrix(1, 0, 0, 1, 0, 0)" xlink:href="#Безымянный_градиент_22"></linearGradient><linearGradient id="Безымянный_градиент_9" x1="121.11" y1="178.38" x2="123.22" y2="178.38" gradientUnits="userSpaceOnUse"><stop offset="0" stop-color="#001283"></stop><stop offset="1" stop-color="#3069c9"></stop></linearGradient><linearGradient id="Безымянный_градиент_22-4" x1="120.02" y1="178.38" x2="122.13" y2="178.38" gradientTransform="matrix(1, 0, 0, 1, 0, 0)" xlink:href="#Безымянный_градиент_22"></linearGradient><linearGradient id="Degradado_sin_nombre_142" x1="182.6" y1="61.95" x2="182.6" y2="320.46" gradientUnits="userSpaceOnUse"><stop offset="0" stop-color="#a9bdea"></stop><stop offset="1" stop-color="#fff" stop-opacity="0"></stop></linearGradient><linearGradient id="Безымянный_градиент_2-10" x1="134.51" y1="196.16" x2="171.43" y2="196.16" xlink:href="#Безымянный_градиент_2"></linearGradient><linearGradient id="Безымянный_градиент_2-11" x1="134.51" y1="206.94" x2="181.97" y2="206.94" xlink:href="#Безымянный_градиент_2"></linearGradient><linearGradient id="Безымянный_градиент_2-12" x1="134.51" y1="225.83" x2="164.39" y2="225.83" xlink:href="#Безымянный_градиент_2"></linearGradient><linearGradient id="Безымянный_градиент_2-13" x1="138.32" y1="254.03" x2="242.96" y2="330.82" xlink:href="#Безымянный_градиент_2"></linearGradient><linearGradient id="Безымянный_градиент_22-5" x1="134.43" y1="121.55" x2="230.99" y2="121.55" gradientTransform="matrix(1, 0, 0, 1, 0, 0)" xlink:href="#Безымянный_градиент_22"></linearGradient><linearGradient id="Безымянный_градиент_2-14" x1="139.89" y1="143.7" x2="144.46" y2="143.7" xlink:href="#Безымянный_градиент_2"></linearGradient><linearGradient id="Безымянный_градиент_2-15" x1="147.92" y1="139.06" x2="152.5" y2="139.06" xlink:href="#Безымянный_градиент_2"></linearGradient><linearGradient id="Безымянный_градиент_2-16" x1="155.96" y1="134.43" x2="160.53" y2="134.43" xlink:href="#Безымянный_градиент_2"></linearGradient><linearGradient id="Безымянный_градиент_2-17" x1="134.45" y1="180.18" x2="157.32" y2="180.18" xlink:href="#Безымянный_градиент_2"></linearGradient><linearGradient id="Безымянный_градиент_2-18" x1="134.43" y1="165.92" x2="152.73" y2="165.92" xlink:href="#Безымянный_градиент_2"></linearGradient><linearGradient id="Безымянный_градиент_22-6" x1="157.34" y1="170.54" x2="172.25" y2="170.54" gradientTransform="matrix(1, 0, 0, 1, 0, 0)" xlink:href="#Безымянный_градиент_22"></linearGradient><linearGradient id="Безымянный_градиент_9-2" x1="149.38" y1="163.48" x2="160.69" y2="163.48" xlink:href="#Безымянный_градиент_9"></linearGradient><linearGradient id="Безымянный_градиент_2-19" x1="135.17" y1="247.9" x2="230.99" y2="247.9" xlink:href="#Безымянный_градиент_2"></linearGradient><linearGradient id="Безымянный_градиент_2-20" x1="135.17" y1="220.68" x2="230.99" y2="220.68" xlink:href="#Безымянный_градиент_2"></linearGradient><linearGradient id="Безымянный_градиент_2-21" x1="171.46" y1="234.89" x2="193.86" y2="234.89" xlink:href="#Безымянный_градиент_2"></linearGradient><linearGradient id="Безымянный_градиент_2-22" x1="203.43" y1="216.43" x2="225.83" y2="216.43" xlink:href="#Безымянный_градиент_2"></linearGradient><linearGradient id="Безымянный_градиент_2-23" x1="175.15" y1="139.56" x2="230.86" y2="139.56" xlink:href="#Безымянный_градиент_2"></linearGradient><linearGradient id="Degradado_sin_nombre_4" x1="203.73" y1="137.04" x2="159.9" y2="179.59" gradientUnits="userSpaceOnUse"><stop offset="0" stop-color="#fff"></stop><stop offset="0.12" stop-color="#f5f7fe" stop-opacity="0.84"></stop><stop offset="0.37" stop-color="#e1e9fd" stop-opacity="0.55"></stop><stop offset="0.59" stop-color="#d2ddfc" stop-opacity="0.31"></stop><stop offset="0.77" stop-color="#c6d5fb" stop-opacity="0.14"></stop><stop offset="0.91" stop-color="#c0d0fa" stop-opacity="0.04"></stop><stop offset="1" stop-color="#bdcefa" stop-opacity="0"></stop></linearGradient><linearGradient id="Degradado_sin_nombre_4-2" x1="202.14" y1="135.41" x2="158.32" y2="177.96" xlink:href="#Degradado_sin_nombre_4"></linearGradient><linearGradient id="Degradado_sin_nombre_4-3" x1="200.04" y1="133.25" x2="156.22" y2="175.8" xlink:href="#Degradado_sin_nombre_4"></linearGradient><linearGradient id="Degradado_sin_nombre_10" x1="238.08" y1="126.4" x2="225.63" y2="147.53" gradientUnits="userSpaceOnUse"><stop offset="0" stop-color="#e4f2ff"></stop><stop offset="0.06" stop-color="#e1efff"></stop><stop offset="0.65" stop-color="#c7d7fb"></stop><stop offset="1" stop-color="#bdcefa"></stop></linearGradient><linearGradient id="Безымянный_градиент_22-7" x1="208.4" y1="179.98" x2="241.03" y2="179.98" gradientTransform="matrix(1, 0, 0, 1, 0, 0)" xlink:href="#Безымянный_градиент_22"></linearGradient><linearGradient id="Безымянный_градиент_9-3" x1="198.36" y1="177.02" x2="239.56" y2="177.02" xlink:href="#Безымянный_градиент_9"></linearGradient><linearGradient id="Degradado_sin_nombre_4-4" x1="231.24" y1="171.28" x2="207.65" y2="230.88" xlink:href="#Degradado_sin_nombre_4"></linearGradient><linearGradient id="Безымянный_градиент_2-24" x1="203.14" y1="223.75" x2="266.53" y2="223.75" xlink:href="#Безымянный_градиент_2"></linearGradient><linearGradient id="Безымянный_градиент_2-25" x1="273.89" y1="254.93" x2="181.23" y2="338.1" xlink:href="#Безымянный_градиент_2"></linearGradient><linearGradient id="Degradado_sin_nombre_9" x1="215.58" y1="359.24" x2="215.58" y2="218.05" gradientUnits="userSpaceOnUse"><stop offset="0.07" stop-color="#55d1ff"></stop><stop offset="0.16" stop-color="#4fc3ee" stop-opacity="0.93"></stop><stop offset="0.35" stop-color="#41a0c2" stop-opacity="0.76"></stop><stop offset="0.6" stop-color="#29677b" stop-opacity="0.48"></stop><stop offset="0.92" stop-color="#0a191a" stop-opacity="0.1"></stop><stop offset="1" stop-color="#010400" stop-opacity="0"></stop></linearGradient><linearGradient id="Безымянный_градиент_22-8" x1="203.14" y1="282.11" x2="228.03" y2="282.11" gradientTransform="matrix(1, 0, 0, 1, 0, 0)" xlink:href="#Безымянный_градиент_22"></linearGradient><linearGradient id="linear-gradient" x1="231.99" y1="253.53" x2="286.71" y2="253.53" gradientUnits="userSpaceOnUse"><stop offset="0" stop-color="#e6e6e6"></stop><stop offset="1" stop-color="#f2f2f2"></stop></linearGradient><linearGradient id="Degradado_sin_nombre_10-2" x1="286.21" y1="247.92" x2="233.51" y2="283.85" xlink:href="#Degradado_sin_nombre_10"></linearGradient><linearGradient id="Degradado_sin_nombre_9-2" x1="240.1" y1="276.02" x2="240.1" y2="258.75" xlink:href="#Degradado_sin_nombre_9"></linearGradient><linearGradient id="linear-gradient-2" x1="246.81" y1="274.18" x2="301.53" y2="274.18" xlink:href="#linear-gradient"></linearGradient><linearGradient id="Degradado_sin_nombre_10-3" x1="300.52" y1="268.91" x2="247.82" y2="304.84" xlink:href="#Degradado_sin_nombre_10"></linearGradient><linearGradient id="Degradado_sin_nombre_9-3" x1="254.92" y1="296.67" x2="254.92" y2="279.4" xlink:href="#Degradado_sin_nombre_9"></linearGradient><linearGradient id="linear-gradient-3" x1="261.63" y1="294.83" x2="316.35" y2="294.83" xlink:href="#linear-gradient"></linearGradient><linearGradient id="Degradado_sin_nombre_10-4" x1="314.84" y1="289.91" x2="262.14" y2="325.84" xlink:href="#Degradado_sin_nombre_10"></linearGradient><linearGradient id="Degradado_sin_nombre_9-4" x1="269.74" y1="317.32" x2="269.74" y2="300.05" xlink:href="#Degradado_sin_nombre_9"></linearGradient><linearGradient id="linear-gradient-4" x1="276.45" y1="315.48" x2="331.17" y2="315.48" xlink:href="#linear-gradient"></linearGradient><linearGradient id="Degradado_sin_nombre_10-5" x1="329.15" y1="310.9" x2="276.45" y2="346.83" xlink:href="#Degradado_sin_nombre_10"></linearGradient><linearGradient id="Degradado_sin_nombre_9-5" x1="284.56" y1="337.97" x2="284.56" y2="320.7" xlink:href="#Degradado_sin_nombre_9"></linearGradient><linearGradient id="linear-gradient-5" x1="291.27" y1="336.13" x2="345.99" y2="336.13" xlink:href="#linear-gradient"></linearGradient><linearGradient id="Degradado_sin_nombre_10-6" x1="343.47" y1="331.9" x2="290.77" y2="367.83" xlink:href="#Degradado_sin_nombre_10"></linearGradient><linearGradient id="Degradado_sin_nombre_9-6" x1="299.38" y1="358.62" x2="299.38" y2="341.35" xlink:href="#Degradado_sin_nombre_9"></linearGradient><linearGradient id="Degradado_sin_nombre_7" x1="237.46" y1="180.88" x2="246.22" y2="180.88" gradientUnits="userSpaceOnUse"><stop offset="0.07" stop-color="#fff"></stop><stop offset="0.35" stop-color="#eef0f1"></stop><stop offset="0.89" stop-color="#c3c9ce"></stop><stop offset="1" stop-color="#b9c0c6"></stop></linearGradient><linearGradient id="Degradado_sin_nombre_7-2" x1="229.14" y1="195.26" x2="245.68" y2="195.26" xlink:href="#Degradado_sin_nombre_7"></linearGradient><linearGradient id="Degradado_sin_nombre_7-3" x1="225.1" y1="187.31" x2="234.42" y2="187.31" xlink:href="#Degradado_sin_nombre_7"></linearGradient><linearGradient id="Безымянный_градиент_22-9" x1="151.44" y1="359.56" x2="241.52" y2="359.56" gradientTransform="matrix(1, 0, 0, 1, 0, 0)" xlink:href="#Безымянный_градиент_22"></linearGradient><linearGradient id="Degradado_sin_nombre_5" x1="256.82" y1="356.43" x2="148.45" y2="357.95" gradientUnits="userSpaceOnUse"><stop offset="0" stop-color="#fff"></stop><stop offset="0.58" stop-color="#dae4fc"></stop><stop offset="1" stop-color="#bdcefa"></stop></linearGradient><linearGradient id="Degradado_sin_nombre_5-2" x1="256.84" y1="357.33" x2="148.46" y2="358.85" xlink:href="#Degradado_sin_nombre_5"></linearGradient><linearGradient id="Degradado_sin_nombre_5-3" x1="256.87" y1="359.74" x2="148.5" y2="361.26" xlink:href="#Degradado_sin_nombre_5"></linearGradient><linearGradient id="Degradado_sin_nombre_5-4" x1="256.9" y1="362.15" x2="148.53" y2="363.67" xlink:href="#Degradado_sin_nombre_5"></linearGradient><linearGradient id="Degradado_sin_nombre_5-5" x1="257.02" y1="370.45" x2="148.65" y2="371.97" xlink:href="#Degradado_sin_nombre_5"></linearGradient><linearGradient id="Degradado_sin_nombre_5-6" x1="256.66" y1="344.64" x2="148.29" y2="346.16" xlink:href="#Degradado_sin_nombre_5"></linearGradient><linearGradient id="Degradado_sin_nombre_5-7" x1="257" y1="368.8" x2="148.62" y2="370.32" xlink:href="#Degradado_sin_nombre_5"></linearGradient><linearGradient id="Безымянный_градиент_22-10" x1="241.93" y1="374.64" x2="152.11" y2="374.64" gradientTransform="matrix(1, 0, 0, 1, 0, 0)" xlink:href="#Безымянный_градиент_22"></linearGradient><linearGradient id="Безымянный_градиент_22-11" x1="243.38" y1="376.6" x2="151.07" y2="377.78" gradientTransform="matrix(1, 0, 0, 1, 0, 0)" xlink:href="#Безымянный_градиент_22"></linearGradient><linearGradient id="Безымянный_градиент_22-12" x1="241.42" y1="381.74" x2="151.92" y2="379.57" gradientTransform="matrix(1, 0, 0, 1, 0, 0)" xlink:href="#Безымянный_градиент_22"></linearGradient><linearGradient id="Безымянный_градиент_22-13" x1="241.84" y1="383.16" x2="151.47" y2="383.16" gradientTransform="matrix(1, 0, 0, 1, 0, 0)" xlink:href="#Безымянный_градиент_22"></linearGradient><linearGradient id="Безымянный_градиент_22-14" x1="240.7" y1="386" x2="151.18" y2="386" gradientTransform="matrix(1, 0, 0, 1, 0, 0)" xlink:href="#Безымянный_градиент_22"></linearGradient><linearGradient id="Безымянный_градиент_22-15" x1="241.07" y1="388.84" x2="152.83" y2="388.84" gradientTransform="matrix(1, 0, 0, 1, 0, 0)" xlink:href="#Безымянный_градиент_22"></linearGradient><linearGradient id="Безымянный_градиент_2-26" x1="335" y1="287.77" x2="425.08" y2="287.77" xlink:href="#Безымянный_градиент_2"></linearGradient><linearGradient id="Degradado_sin_nombre_5-8" x1="423.93" y1="285.3" x2="341.52" y2="287.54" xlink:href="#Degradado_sin_nombre_5"></linearGradient><linearGradient id="Degradado_sin_nombre_5-9" x1="423.99" y1="287.54" x2="341.59" y2="289.78" xlink:href="#Degradado_sin_nombre_5"></linearGradient><linearGradient id="Degradado_sin_nombre_5-10" x1="424.05" y1="289.77" x2="341.65" y2="292.02" xlink:href="#Degradado_sin_nombre_5"></linearGradient><linearGradient id="Degradado_sin_nombre_5-11" x1="424.28" y1="298.33" x2="341.88" y2="300.58" xlink:href="#Degradado_sin_nombre_5"></linearGradient><linearGradient id="Degradado_sin_nombre_5-12" x1="423.76" y1="278.99" x2="341.35" y2="281.24" xlink:href="#Degradado_sin_nombre_5"></linearGradient><linearGradient id="Degradado_sin_nombre_5-13" x1="424.22" y1="295.96" x2="341.81" y2="298.2" xlink:href="#Degradado_sin_nombre_5"></linearGradient><linearGradient id="Безымянный_градиент_2-27" x1="427.87" y1="298.69" x2="313.99" y2="306.8" xlink:href="#Безымянный_градиент_2"></linearGradient><linearGradient id="Безымянный_градиент_2-28" x1="428.07" y1="301.52" x2="314.19" y2="309.63" xlink:href="#Безымянный_градиент_2"></linearGradient><linearGradient id="Безымянный_градиент_2-29" x1="428.27" y1="304.34" x2="314.39" y2="312.45" xlink:href="#Безымянный_градиент_2"></linearGradient><linearGradient id="Degradado_sin_nombre_8" x1="308.39" y1="427.44" x2="256" y2="430.91" gradientUnits="userSpaceOnUse"><stop offset="0" stop-color="#e4f2ff" stop-opacity="0"></stop><stop offset="0.11" stop-color="#dfedfe" stop-opacity="0.14"></stop><stop offset="0.36" stop-color="#d3e2fd" stop-opacity="0.44"></stop><stop offset="0.58" stop-color="#c9d9fc" stop-opacity="0.68"></stop><stop offset="0.77" stop-color="#c3d3fb" stop-opacity="0.85"></stop><stop offset="0.91" stop-color="#bfcffa" stop-opacity="0.96"></stop><stop offset="1" stop-color="#bdcefa"></stop></linearGradient><linearGradient id="Degradado_sin_nombre_6" x1="249.57" y1="416.93" x2="285.3" y2="416.93" gradientUnits="userSpaceOnUse"><stop offset="0" stop-color="#00e9ff"></stop><stop offset="0.18" stop-color="#01d1ff"></stop><stop offset="0.55" stop-color="#02a6ff"></stop><stop offset="0.83" stop-color="#038cff"></stop><stop offset="1" stop-color="#0382ff"></stop></linearGradient><linearGradient id="Безымянный_градиент_2-30" x1="267.43" y1="305.47" x2="267.43" y2="479.72" xlink:href="#Безымянный_градиент_2"></linearGradient><linearGradient id="Безымянный_градиент_2-31" x1="76.83" y1="337.52" x2="101.77" y2="145.3" xlink:href="#Безымянный_градиент_2"></linearGradient><linearGradient id="Degradado_sin_nombre_4-5" x1="95.84" y1="246.51" x2="-0.9" y2="338.89" xlink:href="#Degradado_sin_nombre_4"></linearGradient><linearGradient id="Degradado_sin_nombre_4-6" x1="97" y1="247.73" x2="0.26" y2="340.11" xlink:href="#Degradado_sin_nombre_4"></linearGradient><linearGradient id="Безымянный_градиент_22-16" x1="147.45" y1="248.98" x2="167.99" y2="248.98" gradientTransform="matrix(1, 0, 0, 1, 0, 0)" xlink:href="#Безымянный_градиент_22"></linearGradient><linearGradient id="Degradado_sin_nombre_5-14" x1="176.26" y1="230.42" x2="156.65" y2="254.3" xlink:href="#Degradado_sin_nombre_5"></linearGradient><linearGradient id="Degradado_sin_nombre_4-7" x1="289.74" y1="232.27" x2="287.23" y2="242.14" xlink:href="#Degradado_sin_nombre_4"></linearGradient><linearGradient id="Degradado_sin_nombre_4-8" x1="288.86" y1="232.05" x2="286.34" y2="241.91" xlink:href="#Degradado_sin_nombre_4"></linearGradient><linearGradient id="Degradado_sin_nombre_4-9" x1="288.42" y1="231.94" x2="285.91" y2="241.8" xlink:href="#Degradado_sin_nombre_4"></linearGradient><linearGradient id="Degradado_sin_nombre_4-10" x1="287.87" y1="231.8" x2="285.35" y2="241.66" xlink:href="#Degradado_sin_nombre_4"></linearGradient><linearGradient id="Degradado_sin_nombre_4-11" x1="286.68" y1="231.49" x2="284.17" y2="241.36" xlink:href="#Degradado_sin_nombre_4"></linearGradient><linearGradient id="Безымянный_градиент_22-17" x1="269.18" y1="248.7" x2="284.19" y2="248.7" gradientTransform="matrix(1, 0, 0, 1, 0, 0)" xlink:href="#Безымянный_градиент_22"></linearGradient><linearGradient id="Безымянный_градиент_2-32" x1="315.46" y1="350.33" x2="322.95" y2="350.33" xlink:href="#Безымянный_градиент_2"></linearGradient><linearGradient id="Безымянный_градиент_22-18" x1="318.72" y1="369.77" x2="324.42" y2="369.77" gradientTransform="matrix(1, 0, 0, 1, 0, 0)" xlink:href="#Безымянный_градиент_22"></linearGradient><linearGradient id="Безымянный_градиент_22-19" x1="318.81" y1="375.81" x2="335.99" y2="375.81" gradientTransform="matrix(1, 0, 0, 1, 0, 0)" xlink:href="#Безымянный_градиент_22"></linearGradient><linearGradient id="Безымянный_градиент_22-20" x1="324.77" y1="377.46" x2="330.45" y2="377.46" gradientTransform="matrix(1, 0, 0, 1, 0, 0)" xlink:href="#Безымянный_градиент_22"></linearGradient><linearGradient id="Безымянный_градиент_2-33" x1="318.38" y1="357.92" x2="333.23" y2="357.92" xlink:href="#Безымянный_градиент_2"></linearGradient><linearGradient id="Безымянный_градиент_2-34" x1="329.53" y1="353.92" x2="337.15" y2="353.92" xlink:href="#Безымянный_градиент_2"></linearGradient></defs><title>Mobile Technology</title><g class="cls-1"><g id="OBJECTS"><g class="cls-2"><path class="cls-3" d="M318.64,231l-3.7,2.14c-1.93,1.11-1.93,2.92,0,4l3.7,2.14a7.72,7.72,0,0,0,7,0l3.7-2.14c1.93-1.11,1.93-2.92,0-4l-3.7-2.14A7.72,7.72,0,0,0,318.64,231Z"></path><path class="cls-4" d="M316.76,268.52h0c1.93,1.11,1.93,2.92,0,4l-2.61,1.51c-1.93,1.11-1.93,2.92,0,4l3.7,2.14a7.72,7.72,0,0,0,7,0l3.7-2.14c1.93-1.11,1.93-2.92,0-4l-2.83-1.64c-1.93-1.11-1.93-2.92,0-4L339,260.7a7.72,7.72,0,0,1,7,0l.9.52a7.72,7.72,0,0,0,7,0l3.7-2.14c1.93-1.11,1.93-2.92,0-4l-3.7-2.14a7.72,7.72,0,0,0-7,0l-2.35,1.36a7.72,7.72,0,0,1-7,0l-13-7.48a7.72,7.72,0,0,0-7,0l-5.07,2.93a7.72,7.72,0,0,1-7,0l-3.44-2a7.72,7.72,0,0,0-7,0l-3.7,2.14c-1.93,1.11-1.93,2.92,0,4l3.44,2c1.93,1.11,1.93,2.92,0,4L289.52,263c-1.93,1.11-1.93,2.92,0,4l7.9,4.56a7.72,7.72,0,0,0,7,0l5.36-3.09A7.72,7.72,0,0,1,316.76,268.52Z"></path><path class="cls-5" d="M87.93,408.32,92,406c2.11-1.22,2.11-3.19,0-4.41l-4-2.34a8.45,8.45,0,0,0-7.64,0l-4,2.34c-2.11,1.22-2.11,3.19,0,4.41l4,2.34A8.45,8.45,0,0,0,87.93,408.32Z"></path><path class="cls-6" d="M90,367.29h0c-2.11-1.22-2.11-3.19,0-4.41l2.85-1.65c2.11-1.22,2.11-3.19,0-4.41l-4-2.34a8.45,8.45,0,0,0-7.64,0l-4,2.34C75,358,75,360,77.1,361.23l3.1,1.79c2.11,1.22,2.11,3.19,0,4.41l-14.56,8.41a8.45,8.45,0,0,1-7.64,0l-1-.57a8.45,8.45,0,0,0-7.64,0l-4,2.34c-2.11,1.22-2.11,3.19,0,4.41l4,2.34a8.45,8.45,0,0,0,7.64,0l2.57-1.48a8.45,8.45,0,0,1,7.64,0L81.39,391A8.45,8.45,0,0,0,89,391l5.54-3.2a8.45,8.45,0,0,1,7.64,0L106,390a8.45,8.45,0,0,0,7.64,0l4-2.34c2.11-1.22,2.11-3.19,0-4.41l-3.76-2.17c-2.11-1.22-2.11-3.19,0-4.41l5.86-3.38c2.11-1.22,2.11-3.19,0-4.41l-8.64-5a8.45,8.45,0,0,0-7.64,0l-5.86,3.38A8.45,8.45,0,0,1,90,367.29Z"></path></g><path class="cls-7" d="M99.93,174.77a16.54,16.54,0,0,0-7.48,13c0,4.77,3.35,6.71,7.48,4.32a16.54,16.54,0,0,0,7.48-13C107.41,174.32,104.06,172.39,99.93,174.77Zm0,14.32c-2.71,1.57-4.91.3-4.91-2.84a10.86,10.86,0,0,1,4.91-8.51c2.71-1.57,4.91-.3,4.91,2.84A10.86,10.86,0,0,1,99.93,189.09Z"></path><path class="cls-8" d="M96.79,207a9,9,0,0,1-4.09,7.09c-2.26,1.3-4.09.25-4.09-2.36a9,9,0,0,1,4.09-7.09C95,203.31,96.79,204.36,96.79,207Z"></path><path class="cls-8" d="M101,158.7a9,9,0,0,1-4.09,7.09c-2.26,1.3-4.09.25-4.09-2.36a9,9,0,0,1,4.09-7.09C99.2,155,101,156.09,101,158.7Z"></path><rect class="cls-9" x="75.29" y="194.53" width="11.67" height="6.73" transform="translate(-130.82 169.21) rotate(-60)"></rect><path class="cls-10" d="M83.46,173.23l-3.41,2v-3.94c0-.72-.51-1-1.13-.65a2.5,2.5,0,0,0-1.13,2v3.94l-3.41,2a2.5,2.5,0,0,0-1.13,2c0,.72.51,1,1.13.65l3.41-2v3.94c0,.72.51,1,1.13.65a2.5,2.5,0,0,0,1.13-2v-3.94l3.41-2a2.5,2.5,0,0,0,1.13-2C84.59,173.16,84.09,172.87,83.46,173.23Z"></path><path class="cls-11" d="M270.81,104.3a16.54,16.54,0,0,0-7.48,13c0,4.77,3.35,6.71,7.48,4.32a16.54,16.54,0,0,0,7.48-13C278.29,103.85,274.94,101.92,270.81,104.3Zm0,14.32c-2.71,1.57-4.91.3-4.91-2.84a10.86,10.86,0,0,1,4.91-8.51c2.71-1.57,4.91-.3,4.91,2.84A10.86,10.86,0,0,1,270.81,118.62Z"></path><path class="cls-12" d="M265.34,131.73a9,9,0,0,1-4.09,7.09c-2.26,1.3-4.09.25-4.09-2.36a9,9,0,0,1,4.09-7.09C263.5,128.06,265.34,129.12,265.34,131.73Z"></path><path class="cls-8" d="M271.43,87.75a9,9,0,0,1-4.09,7.09c-2.26,1.3-4.09.25-4.09-2.36a9,9,0,0,1,4.09-7.09C269.6,84.08,271.43,85.14,271.43,87.75Z"></path><rect class="cls-13" x="243.84" y="119.29" width="11.67" height="6.73" transform="translate(18.61 277.55) rotate(-60)"></rect><path class="cls-14" d="M257.69,97.75l-3.41,2V95.78c0-.72-.51-1-1.13-.65a2.5,2.5,0,0,0-1.13,2V101l-3.41,2a2.5,2.5,0,0,0-1.13,2c0,.72.51,1,1.13.65l3.41-2v3.94c0,.72.51,1,1.13.65a2.5,2.5,0,0,0,1.13-2v-3.94l3.41-2a2.5,2.5,0,0,0,1.13-2C258.82,97.68,258.31,97.38,257.69,97.75Z"></path><path class="cls-15" d="M124.68,357.47v-227c0-6.28,3.82-13.56,8.52-16.28L230.47,58c4.71-2.72,8.52.17,8.52,6.44v227c0,6.28-3.82,13.57-8.52,16.28L133.2,363.92C128.49,366.63,124.68,363.75,124.68,357.47Z"></path><path class="cls-16" d="M236.07,57.61h0l-.18-.1Z"></path><path class="cls-17" d="M127,363.92c-1.44-1.2-2.33-3.43-2.33-6.44v-227c0-6.27,3.82-13.56,8.52-16.28L230.47,58c2.06-1.19,3.94-1.3,5.42-.54l-5.19-3c-1.55-1.22-3.7-1.29-6.09.09l-97.27,56.16c-4.71,2.72-8.52,10-8.52,16.28v227c0,3.76,1.38,6.29,3.49,7.14h0Z"></path><path class="cls-16" d="M128.38,364.7h0Z"></path><path class="cls-18" d="M128.39,364.71h0Zm101.26-307-97.27,56.16c-4.71,2.72-8.52,10-8.52,16.28v227a8.8,8.8,0,0,0,1.84,6l1.31.75c-1.44-1.2-2.33-3.43-2.33-6.44v-227c0-6.27,3.82-13.56,8.52-16.28L230.47,58a6.12,6.12,0,0,1,4.36-.91A5.63,5.63,0,0,0,229.65,57.76Zm6.25-.26.17.11h0Z"></path><path class="cls-19" d="M229.83,62.69,213,72.38l-2.52,6.32a14.79,14.79,0,0,1-5.82,7.18L159,112.29c-2.39,1.38-4.6,1.21-5.82-.45l-2.52-3.41-16.78,9.69a12,12,0,0,0-5.44,9.42V356.11c0,3.47,2.44,4.87,5.44,3.14l96-55.43a12,12,0,0,0,5.44-9.42V65.83C235.27,62.36,232.84,61,229.83,62.69Z"></path><path class="cls-20" d="M196.7,85.82,167,103c-.53.31-1,0-1-.73h0a2.33,2.33,0,0,1,1-1.85L196.7,83.24c.53-.31,1,0,1,.73h0A2.33,2.33,0,0,1,196.7,85.82Z"></path><path class="cls-21" d="M122.24,190.14l-.15-.08a2.36,2.36,0,0,1-1-1.87V167.36c0-.72.44-1.05,1-.74l.15.08a2.36,2.36,0,0,1,1,1.87V189.4C123.22,190.12,122.78,190.45,122.24,190.14Z"></path><path class="cls-22" d="M121.15,190.14l-.15-.08a2.36,2.36,0,0,1-1-1.87V167.36c0-.72.44-1.05,1-.74l.15.08a2.36,2.36,0,0,1,1,1.87V189.4C122.13,190.12,121.69,190.45,121.15,190.14Z"></path><path class="cls-23" d="M218,61.27a1,1,0,0,1,0,2,3.75,3.75,0,0,1-3.39,0,1,1,0,0,1,0-2A3.75,3.75,0,0,1,218,61.27Z"></path><path class="cls-24" d="M218,61.27a3.75,3.75,0,0,0-3.39,0,1.6,1.6,0,0,0-.54.48,1.91,1.91,0,0,1,.21-.15,3.75,3.75,0,0,1,3.39,0c.7.4.87,1,.54,1.48C218.92,62.54,218.86,61.77,218,61.27Z"></path><g class="cls-25"><polygon class="cls-26" points="235.24 173.94 235.24 97.78 128.37 204.66 128.37 280.82 235.24 173.94"></polygon><path class="cls-26" d="M128.37,182.28,235.24,75.4V65.83c0-3.47-2.44-4.87-5.44-3.14l-8.59,5L210.72,78.14l-.22.56a14.79,14.79,0,0,1-5.82,7.18l-4,2.3L128.37,160.5Z"></path><polygon class="cls-26" points="235.24 234.79 235.24 191.04 128.37 297.92 128.37 341.67 235.24 234.79"></polygon><polygon class="cls-26" points="235.24 274.18 235.24 264.17 148.84 350.57 172.52 336.9 235.24 274.18"></polygon></g><path class="cls-27" d="M204.71,85.88,159,112.29c-2.39,1.38-4.6,1.21-5.82-.45l-2.52-3.41-16.78,9.69a11.18,11.18,0,0,0-3.91,4.19,10.1,10.1,0,0,1,2.82-2.55l16.78-9.69,2.52,3.41c1.23,1.66,3.44,1.83,5.82.45l45.74-26.41a13.9,13.9,0,0,0,4.79-5.05A12.84,12.84,0,0,1,204.71,85.88Zm25.13-23.18L213,72.38l-.52,1.31,16.21-9.36c3-1.73,5.44-.33,5.44,3.14V296a11,11,0,0,1-1.52,5.23,11.84,11.84,0,0,0,2.62-6.87V65.83C235.27,62.36,232.84,61,229.83,62.69Z"></path><g class="cls-28"><path class="cls-29" d="M167.71,192.62l-29.47,17c-2.06,1.19-3.72-.07-3.72-2.82h0c0-2.74,1.67-5.93,3.72-7.12l29.47-17c2.06-1.19,3.72.07,3.72,2.82h0C171.43,188.24,169.76,191.43,167.71,192.62Z"></path><path class="cls-30" d="M178.25,200.35l-40,23.1c-2.06,1.19-3.72-.07-3.72-2.82h0c0-2.74,1.67-5.93,3.72-7.12l40-23.1c2.06-1.19,3.72.07,3.72,2.82h0C182,196,180.3,199.17,178.25,200.35Z"></path><path class="cls-31" d="M160.67,224.32l-22.43,13c-2.06,1.19-3.72-.07-3.72-2.82h0c0-2.74,1.67-5.93,3.72-7.12l22.43-13c2.06-1.19,3.72.07,3.72,2.82h0C164.39,220,162.73,223.14,160.67,224.32Z"></path></g><path class="cls-32" d="M224.9,293.22,140.41,342c-3.29,1.9-6-.14-6-4.52V291.33c0-4.38,2.69-9.52,6-11.42l84.49-48.78c3.29-1.9,6,.14,6,4.52V281.8C230.88,286.19,228.19,291.32,224.9,293.22Z"></path><path class="cls-33" d="M231,97.8V93.6c0-3.62-2.54-5.09-5.68-3.28l-85.21,49.19a12.55,12.55,0,0,0-5.68,9.83v4.21Z"></path><path class="cls-34" d="M144.46,142.38a5.05,5.05,0,0,1-2.29,4c-1.26.73-2.29.14-2.29-1.32a5.05,5.05,0,0,1,2.29-4C143.44,140.33,144.46,140.92,144.46,142.38Z"></path><path class="cls-35" d="M152.5,137.74a5.05,5.05,0,0,1-2.29,4c-1.26.73-2.29.14-2.29-1.32a5.05,5.05,0,0,1,2.29-4C151.47,135.7,152.5,136.29,152.5,137.74Z"></path><path class="cls-36" d="M160.53,133.11a5.05,5.05,0,0,1-2.29,4c-1.26.73-2.29.14-2.29-1.32a5.05,5.05,0,0,1,2.29-4C159.5,131.06,160.53,131.65,160.53,133.11Z"></path><path class="cls-37" d="M149.37,170.54l7.94,10c-6.37,8.29-14.81,11.55-19.55,7.54-2-1.69-3.16-4.51-3.32-8.06Z"></path><path class="cls-38" d="M149.37,170.54l-14.92,9.51c-.25-5.36,1.8-11.86,5.51-17.48,3.57-5.41,8.29-9.4,12.77-10.79Z"></path><path class="cls-39" d="M157.34,175.17l3.36-18.75c3.25-1,6.15-.59,8.25,1.18,5.17,4.37,4.18,15.9-2.19,25.54q-.7,1.07-1.47,2.07Z"></path><polygon class="cls-40" points="160.69 156.42 152.73 151.78 149.38 170.54 157.34 175.17 160.69 156.42"></polygon><polygon class="cls-41" points="168.08 156.97 168.08 156.97 168.08 156.97 168.08 156.97"></polygon><path class="cls-8" d="M168.08,157l-7.91-4.6a8.78,8.78,0,0,0-7.44-.59l8,4.63A8.81,8.81,0,0,1,168.08,157Z"></path><path class="cls-8" d="M157.33,180.55l7.95,4.65-7.94-10-8-4.63,7.94,10Z"></path><polygon class="cls-42" points="230.99 221.31 135.17 276.63 135.17 274.49 230.99 219.16 230.99 221.31"></polygon><polygon class="cls-43" points="230.99 194.09 135.17 249.41 135.17 247.27 230.99 191.95 230.99 194.09"></polygon><path class="cls-44" d="M191.32,236.85l-17.33,10c-1.4.81-2.54,0-2.54-1.92v-7.17a6.08,6.08,0,0,1,2.54-4.85l17.33-10c1.4-.81,2.54,0,2.54,1.92V232A6.08,6.08,0,0,1,191.32,236.85Z"></path><path class="cls-45" d="M223.3,218.39,206,228.4c-1.4.81-2.54,0-2.54-1.92v-7.17a6.08,6.08,0,0,1,2.54-4.85l17.33-10c1.4-.81,2.54,0,2.54,1.92v7.17A6.08,6.08,0,0,1,223.3,218.39Z"></path><path class="cls-46" d="M148.73,271.43a1.55,1.55,0,0,0,1.81,0l17.33-10a6.08,6.08,0,0,0,2.54-4.85v-7.17a2.34,2.34,0,0,0-.78-2l-8.47-6a1.55,1.55,0,0,0-1.81,0l-17.33,10a6.08,6.08,0,0,0-2.54,4.85v7.17a2.34,2.34,0,0,0,.78,2Z"></path><path class="cls-47" d="M167.87,261.4l-17.33,10c-1.4.81-2.54,0-2.54-1.92v-7.17a6.08,6.08,0,0,1,2.54-4.85l17.33-10c1.4-.81,2.54,0,2.54,1.92v7.17A6.08,6.08,0,0,1,167.87,261.4Z"></path><path class="cls-48" d="M227.54,136.16l-49.07,28.33c-1.83,1.06-3.32-.07-3.32-2.51V149.31a8,8,0,0,1,3.32-6.35l49.07-28.33c1.83-1.06,3.32.07,3.32,2.51v12.67A8,8,0,0,1,227.54,136.16Z"></path><path class="cls-49" d="M197,148.34l-18.57,10.72c-.44.26-.8,0-.8-.6v0a1.92,1.92,0,0,1,.8-1.53L197,146.16c.44-.26.8,0,.8.6v0A1.92,1.92,0,0,1,197,148.34Z"></path><path class="cls-50" d="M202.21,141.12l-23.8,13.74c-.44.26-.8,0-.8-.6v0a1.92,1.92,0,0,1,.8-1.53l23.8-13.74c.44-.26.8,0,.8.6v0A1.92,1.92,0,0,1,202.21,141.12Z"></path><path class="cls-51" d="M202.21,136.92l-23.8,13.74c-.44.26-.8,0-.8-.6v0a1.92,1.92,0,0,1,.8-1.53l23.8-13.74c.44-.26.8,0,.8.6v0A1.92,1.92,0,0,1,202.21,136.92Z"></path><polygon class="cls-52" points="237.98 139.05 225.83 146.06 225.83 134.71 237.98 127.69 237.98 139.05"></polygon><polygon class="cls-53" points="237.98 127.69 237.9 127.74 225.95 120.73 225.95 120.64 213.81 127.65 213.81 139.01 225.83 146.06 225.83 134.71 237.98 127.69"></polygon><path class="cls-54" d="M237,191.71,212.4,205.93c-2.21,1.28-4-.08-4-3v-27c0-2.95,1.79-6.37,4-7.65L237,154c2.21-1.28,4,.08,4,3v27C241,187,239.24,190.44,237,191.71Z"></path><path class="cls-55" d="M208.4,202.91v-27c0-2.95,1.79-6.37,4-7.65L237,154a2.6,2.6,0,0,1,2.52-.26h0l-10-5.64a2.57,2.57,0,0,0-2.59.22l-24.63,14.22c-2.21,1.28-4,4.7-4,7.65v27c0,1.67.58,2.83,1.48,3.29l10,5.64h0C209,205.67,208.4,204.54,208.4,202.91Z"></path><path class="cls-56" d="M226.94,179.14a13.19,13.19,0,0,0,3.69-8.46c0-3.77-2.65-5.3-5.92-3.42a13.08,13.08,0,0,0-5.92,10.25c0,2.86,1.53,4.43,3.69,4.2-5,4.07-8.88,11.31-9.12,17.55l22.69-13.1C235.82,180.19,232,177.39,226.94,179.14Z"></path><path class="cls-57" d="M265.49,221.78l-34.67,19.34a6.71,6.71,0,0,1-6-.25l-20.2-11.66c-1.77-1-2-2.59-.43-3.47l34.67-19.34a6.71,6.71,0,0,1,6,.25l20.2,11.66C266.83,219.33,267,220.89,265.49,221.78Z"></path><path class="cls-58" d="M266.5,315V220.55h0a1.91,1.91,0,0,1-1,1.23l-34.67,19.34a5.46,5.46,0,0,1-2.79.59v95a5.46,5.46,0,0,0,2.79-.59l34.67-19.34A1.69,1.69,0,0,0,266.5,315Z"></path><path class="cls-59" d="M224.8,240.87l-20.2-11.66a2.69,2.69,0,0,1-1.44-1.7V322c-.16.76.34,1.61,1.44,2.25l20.2,11.66a6.94,6.94,0,0,0,3.22.84v-95A6.94,6.94,0,0,1,224.8,240.87Z"></path><path class="cls-60" d="M224.8,240.87l-20.2-11.66a2.69,2.69,0,0,1-1.44-1.7V322c-.16.76.34,1.61,1.44,2.25l20.2,11.66a6.94,6.94,0,0,0,3.22.84v-95A6.94,6.94,0,0,1,224.8,240.87Z"></path><path class="cls-61" d="M285.68,248.83,251,268.73a6.71,6.71,0,0,1-6-.25l-11.53-6.88c-1.77-1-2-2.59-.43-3.47l34.54-19.81a6.71,6.71,0,0,1,6,.25l11.66,6.78C287,246.38,287.21,247.94,285.68,248.83Z"></path><path class="cls-62" d="M286.68,251v-3.4h0a1.91,1.91,0,0,1-1,1.23L251,268.73a5.46,5.46,0,0,1-2.79.59v3.94a5.46,5.46,0,0,0,2.79-.59l34.67-19.91A1.69,1.69,0,0,0,286.68,251Z"></path><path class="cls-63" d="M245,268.48l-11.53-6.88a2.69,2.69,0,0,1-1.44-1.7v3.4c-.16.76.34,1.61,1.44,2.25L245,272.42a6.94,6.94,0,0,0,3.22.84v-3.94A6.94,6.94,0,0,1,245,268.48Z"></path><path class="cls-53" d="M245,268.48l-11.53-6.88a2.69,2.69,0,0,1-1.44-1.7v3.4c-.16.76.34,1.61,1.44,2.25L245,272.42a6.94,6.94,0,0,0,3.22.84v-3.94A6.94,6.94,0,0,1,245,268.48Z"></path><path class="cls-64" d="M300.49,269.48l-34.67,19.91a6.71,6.71,0,0,1-6-.25l-11.53-6.88c-1.77-1-2-2.59-.43-3.47L282.38,259a6.71,6.71,0,0,1,6,.25L300.06,266C301.84,267,302,268.59,300.49,269.48Z"></path><path class="cls-65" d="M301.5,271.65v-3.4h0a1.91,1.91,0,0,1-1,1.23l-34.67,19.91A5.46,5.46,0,0,1,263,290v3.94a5.46,5.46,0,0,0,2.79-.59l34.67-19.91A1.69,1.69,0,0,0,301.5,271.65Z"></path><path class="cls-66" d="M259.81,289.13l-11.53-6.88a2.69,2.69,0,0,1-1.44-1.7V284c-.16.76.34,1.61,1.44,2.25l11.53,6.88a6.94,6.94,0,0,0,3.22.84V290A6.94,6.94,0,0,1,259.81,289.13Z"></path><path class="cls-53" d="M259.81,289.13l-11.53-6.88a2.69,2.69,0,0,1-1.44-1.7V284c-.16.76.34,1.61,1.44,2.25l11.53,6.88a6.94,6.94,0,0,0,3.22.84V290A6.94,6.94,0,0,1,259.81,289.13Z"></path><path class="cls-67" d="M315.31,290.13,280.64,310a6.71,6.71,0,0,1-6-.25l-11.53-6.88c-1.77-1-2-2.59-.43-3.47l34.54-19.81a6.71,6.71,0,0,1,6,.25l11.66,6.78C316.66,287.68,316.85,289.24,315.31,290.13Z"></path><path class="cls-68" d="M316.32,292.3v-3.4h0a1.91,1.91,0,0,1-1,1.23L280.64,310a5.46,5.46,0,0,1-2.79.59v3.94a5.45,5.45,0,0,0,2.79-.59l34.67-19.91A1.69,1.69,0,0,0,316.32,292.3Z"></path><path class="cls-69" d="M274.63,309.79l-11.53-6.88a2.69,2.69,0,0,1-1.44-1.7v3.4c-.16.76.34,1.61,1.44,2.25l11.53,6.88a6.94,6.94,0,0,0,3.22.84v-3.94A6.94,6.94,0,0,1,274.63,309.79Z"></path><path class="cls-53" d="M274.63,309.79l-11.53-6.88a2.69,2.69,0,0,1-1.44-1.7v3.4c-.16.76.34,1.61,1.44,2.25l11.53,6.88a6.94,6.94,0,0,0,3.22.84v-3.94A6.94,6.94,0,0,1,274.63,309.79Z"></path><path class="cls-70" d="M330.13,310.78l-34.67,19.91a6.71,6.71,0,0,1-6-.25l-11.53-6.88c-1.77-1-2-2.59-.43-3.47L312,300.27a6.71,6.71,0,0,1,6,.25l11.66,6.78C331.48,308.33,331.67,309.89,330.13,310.78Z"></path><path class="cls-71" d="M331.14,312.95v-3.4h0a1.91,1.91,0,0,1-1,1.23l-34.67,19.91a5.46,5.46,0,0,1-2.79.59v3.94a5.45,5.45,0,0,0,2.79-.59l34.67-19.91A1.69,1.69,0,0,0,331.14,312.95Z"></path><path class="cls-72" d="M289.45,330.44l-11.53-6.88a2.69,2.69,0,0,1-1.44-1.7v3.4c-.16.76.34,1.61,1.44,2.25l11.53,6.88a6.94,6.94,0,0,0,3.22.84v-3.94A6.94,6.94,0,0,1,289.45,330.44Z"></path><path class="cls-53" d="M289.45,330.44l-11.53-6.88a2.69,2.69,0,0,1-1.44-1.7v3.4c-.16.76.34,1.61,1.44,2.25l11.53,6.88a6.94,6.94,0,0,0,3.22.84v-3.94A6.94,6.94,0,0,1,289.45,330.44Z"></path><path class="cls-73" d="M345,331.43l-34.67,19.91a6.71,6.71,0,0,1-6-.25l-11.53-6.88c-1.77-1-2-2.59-.43-3.47l34.54-19.81a6.71,6.71,0,0,1,6,.25L344.52,328C346.3,329,346.49,330.54,345,331.43Z"></path><path class="cls-74" d="M346,333.6v-3.4h0a1.91,1.91,0,0,1-1,1.23l-34.67,19.91a5.45,5.45,0,0,1-2.79.59v3.94a5.46,5.46,0,0,0,2.79-.59L345,335.37A1.69,1.69,0,0,0,346,333.6Z"></path><path class="cls-75" d="M304.27,351.09l-11.53-6.88a2.69,2.69,0,0,1-1.44-1.7v3.4c-.16.76.34,1.61,1.44,2.25L304.27,355a6.94,6.94,0,0,0,3.22.84v-3.94A6.94,6.94,0,0,1,304.27,351.09Z"></path><path class="cls-53" d="M304.27,351.09l-11.53-6.88a2.69,2.69,0,0,1-1.44-1.7v3.4c-.16.76.34,1.61,1.44,2.25L304.27,355a6.94,6.94,0,0,0,3.22.84v-3.94A6.94,6.94,0,0,1,304.27,351.09Z"></path><path d="M227.5,227.85c0,.83,1.21,2,3.12,3.1,2.54,1.47,3.44,3.33,6.59,1.51.9-.52,1.28-.93,1.3-1.29v-2c.09-.91-2.09-1.48-3.92-2.53-2.54-1.47-5.28-2.27-6.59-1.51a.86.86,0,0,0-.5.72Z"></path><path class="cls-76" d="M230.62,229c-2.54-1.47-3.93-3.05-2.62-3.8s4,0,6.59,1.51,5.77,2,2.62,3.8S233.16,230.45,230.62,229Z"></path><path d="M234.57,223c0,.83,1.21,2,3.12,3.1,2.54,1.47,3.44,3.33,6.59,1.51.9-.52,1.28-.93,1.3-1.29v-2c.09-.91-2.09-1.47-3.92-2.53-2.54-1.47-5.28-2.27-6.59-1.51a.86.86,0,0,0-.5.72Z"></path><path class="cls-76" d="M237.69,224.11c-2.54-1.47-3.93-3.05-2.62-3.8s4,0,6.59,1.51,5.77,2,2.62,3.8S240.23,225.58,237.69,224.11Z"></path><path class="cls-77" d="M231.77,164.59h0a2.09,2.09,0,0,1,2.88.66l8.68,13.8a2.09,2.09,0,0,1-.66,2.88h0a2.09,2.09,0,0,1-2.88-.66l-8.68-13.8A2.09,2.09,0,0,1,231.77,164.59Z"></path><path class="cls-78" d="M237.46,179.7l2.8,4.45a3.24,3.24,0,0,0,4.45,1h0a3.24,3.24,0,0,0,1-4.45l-2.8-4.45S239.42,174.94,237.46,179.7Z"></path><path class="cls-79" d="M238.42,228.33a1.37,1.37,0,0,0,.15-.63V205.89c0-1.38-1.42-2.51-3.16-2.51h0c-1.74,0-3.16,1.13-3.16,2.51v23.72a.79.79,0,0,0,.56.76C234,230.74,236.89,231.26,238.42,228.33Z"></path><path class="cls-79" d="M245.51,223.22a1.37,1.37,0,0,0,.13-.64l-.48-21.81c0-1.38-1.48-2.48-3.22-2.44h0c-1.74,0-3.14,1.2-3.11,2.58l.52,23.71a.79.79,0,0,0,.58.75C241.16,225.72,244,226.18,245.51,223.22Z"></path><path class="cls-80" d="M233.28,209.81a.58.58,0,0,0,.27.09c1.4.11,6.42-1,11.45-6.65a2.63,2.63,0,0,0,.68-1.63V185.54a2.64,2.64,0,0,0-1.13-2.45l-3.78-2.21a2.64,2.64,0,0,0-2.69.25l-5.15,3a8.4,8.4,0,0,0-3.78,6.55v16.17a.82.82,0,0,0,.36.77Z"></path><path class="cls-77" d="M234.75,185.1a1.31,1.31,0,0,0,.78,1.11,4.17,4.17,0,0,0,3.77,0,1.31,1.31,0,0,0,.78-1.11v-3.5a1.31,1.31,0,0,0-.78-1.11,4.17,4.17,0,0,0-3.77,0,1.31,1.31,0,0,0-.78,1.11Z"></path><circle class="cls-77" cx="237.41" cy="176.01" r="7.34"></circle><path class="cls-77" d="M215.78,174.84h0a2.09,2.09,0,0,1,2.94-.22l11.79,10.68a2.09,2.09,0,0,1,.22,2.94h0a2.09,2.09,0,0,1-2.94.22L216,177.78A2.09,2.09,0,0,1,215.78,174.84Z"></path><path class="cls-81" d="M225.1,187.66l4,3.43a3.24,3.24,0,0,0,4.55-.34h0a3.24,3.24,0,0,0-.34-4.55l-4-3.43S225.57,182.53,225.1,187.66Z"></path><path class="cls-82" d="M241.55,182.7c-2.31,1.35-4.08.32-4.71-.65-1.58-2.46-1.85-.82-2.79-2-1.24-2-1-4.8-2.67-6.08-2.46-1.84-1.79-5.49,4.63-7.13,8.63-2.2,12,8.67,6.64,15A3.41,3.41,0,0,1,241.55,182.7Z"></path><path class="cls-83" d="M234.85,180.38a.84.84,0,0,1-1.53-.41,3,3,0,0,1,.71-2.65.84.84,0,0,1,1.53.41A3,3,0,0,1,234.85,180.38Z"></path><path class="cls-84" d="M240.44,362l-39.65,22.89a7,7,0,0,1-6.29-.26L153,360.7c-1.85-1.07-2.06-2.7-.45-3.63l39.65-22.89a7,7,0,0,1,6.29.26l41.53,24C241.84,359.49,242,361.12,240.44,362Z"></path><path class="cls-53" d="M240.44,362l-39.65,22.89a7,7,0,0,1-6.29-.26L153,360.7a2.55,2.55,0,0,1-1.53-2.1h0v1.57a2.53,2.53,0,0,0,1.53,2.12l41.53,24a7,7,0,0,0,6.29.26l39.65-22.89a1.88,1.88,0,0,0,1.08-1.54v-1.57h0A1.89,1.89,0,0,1,240.44,362Z"></path><path class="cls-85" d="M186.42,356.71l-16,9.23a2.38,2.38,0,0,1-2.14-.09l-10.52-6.07c-.63-.37-.7-.92-.15-1.24l16-9.23a2.38,2.38,0,0,1,2.14.09l10.52,6.07C186.9,355.84,187,356.39,186.42,356.71Z"></path><path class="cls-86" d="M213.58,348.13l-37.06,21.4a2.21,2.21,0,0,1-2-.08h0c-.59-.34-.65-.86-.14-1.15l37.06-21.4a2.21,2.21,0,0,1,2,.08h0C214,347.32,214.09,347.84,213.58,348.13Z"></path><path class="cls-87" d="M217.65,350.48l-37.06,21.4a2.22,2.22,0,0,1-2-.08h0c-.59-.34-.65-.86-.14-1.15l37.06-21.4a2.21,2.21,0,0,1,2,.08h0C218.1,349.67,218.16,350.19,217.65,350.48Z"></path><path class="cls-88" d="M221.72,352.83l-37.06,21.4a2.21,2.21,0,0,1-2-.08h0c-.59-.34-.65-.86-.14-1.15l37.06-21.4a2.21,2.21,0,0,1,2,.08h0C222.17,352,222.23,352.54,221.72,352.83Z"></path><path class="cls-89" d="M204.85,367.27l-16.13,9.31a2.21,2.21,0,0,1-2-.08h0c-.59-.34-.65-.86-.14-1.15L202.72,366a2.21,2.21,0,0,1,2,.08h0C205.3,366.46,205.36,367,204.85,367.27Z"></path><path class="cls-90" d="M207.36,344.62l-16,9.23a2.38,2.38,0,0,1-2.14-.09l-10.52-6.07c-.63-.37-.7-.92-.15-1.24l16-9.23a2.38,2.38,0,0,1,2.14.09l10.52,6.07C207.84,343.75,207.91,344.3,207.36,344.62Z"></path><path class="cls-91" d="M235.5,360.86l-36.93,21.32a2.38,2.38,0,0,1-2.14-.09l-5-2.91c-.63-.37-.7-.92-.15-1.24l36.93-21.32a2.38,2.38,0,0,1,2.14.09l5,2.91C236,360,236,360.55,235.5,360.86Z"></path><path class="cls-53" d="M240.44,364.89l-39.65,22.89a7,7,0,0,1-6.29-.26l-41.53-24a2.55,2.55,0,0,1-1.53-2.1h0V363a2.53,2.53,0,0,0,1.53,2.12l41.53,24a7,7,0,0,0,6.29.26l39.65-22.89a1.88,1.88,0,0,0,1.08-1.54v-1.57h0A1.89,1.89,0,0,1,240.44,364.89Z"></path><path class="cls-92" d="M240.44,363.64l-39.65,22.89a7,7,0,0,1-6.29-.26l-41.53-24a3.12,3.12,0,0,1-1.38-1.42c-.4.87.07,1.91,1.38,2.67l41.53,24a7,7,0,0,0,6.29.26l39.65-22.89a1.7,1.7,0,0,0,.94-2.22A2.16,2.16,0,0,1,240.44,363.64Z"></path><path class="cls-53" d="M240.44,367.73l-39.65,22.89a7,7,0,0,1-6.29-.26l-41.53-24a2.55,2.55,0,0,1-1.53-2.1h0v1.57A2.53,2.53,0,0,0,153,368l41.53,24a7,7,0,0,0,6.29.26l39.65-22.89a1.88,1.88,0,0,0,1.08-1.54v-1.57h0A1.89,1.89,0,0,1,240.44,367.73Z"></path><path class="cls-93" d="M240.44,366.48l-39.65,22.89a7,7,0,0,1-6.29-.26l-41.53-24a3.12,3.12,0,0,1-1.38-1.42c-.4.87.07,1.91,1.38,2.67l41.53,24a7,7,0,0,0,6.29.26l39.65-22.89a1.7,1.7,0,0,0,.94-2.22A2.16,2.16,0,0,1,240.44,366.48Z"></path><path class="cls-53" d="M240.44,370.57l-39.65,22.89a7,7,0,0,1-6.29-.26l-41.53-24a2.55,2.55,0,0,1-1.53-2.1h0v1.57a2.53,2.53,0,0,0,1.53,2.12l41.53,24a7,7,0,0,0,6.29.26l39.65-22.89a1.88,1.88,0,0,0,1.08-1.54v-1.57h0A1.89,1.89,0,0,1,240.44,370.57Z"></path><path class="cls-94" d="M240.44,369.32l-39.65,22.89a7,7,0,0,1-6.29-.26L153,368a3.12,3.12,0,0,1-1.38-1.42c-.4.87.07,1.91,1.38,2.67l41.53,24a7,7,0,0,0,6.29.26l39.65-22.89a1.7,1.7,0,0,0,.94-2.22A2.16,2.16,0,0,1,240.44,369.32Z"></path><path class="cls-53" d="M240.44,373.41,200.79,396.3a7,7,0,0,1-6.29-.26l-41.53-24a2.55,2.55,0,0,1-1.53-2.1h0v1.57a2.53,2.53,0,0,0,1.53,2.12l41.53,24a7,7,0,0,0,6.29.26L240.44,375a1.88,1.88,0,0,0,1.08-1.54V371.9h0A1.89,1.89,0,0,1,240.44,373.41Z"></path><path class="cls-95" d="M240.44,372.16l-39.65,22.89a7,7,0,0,1-6.29-.26l-41.53-24a3.12,3.12,0,0,1-1.38-1.42c-.4.87.07,1.91,1.38,2.67l41.53,24a7,7,0,0,0,6.29.26l39.65-22.89a1.7,1.7,0,0,0,.94-2.22A2.16,2.16,0,0,1,240.44,372.16Z"></path><path class="cls-53" d="M240.44,376.25l-39.65,22.89a7,7,0,0,1-6.29-.26L153,374.9a2.55,2.55,0,0,1-1.53-2.1h0v1.57a2.53,2.53,0,0,0,1.53,2.12l41.53,24a7,7,0,0,0,6.29.26l39.65-22.89a1.88,1.88,0,0,0,1.08-1.54v-1.57h0A1.89,1.89,0,0,1,240.44,376.25Z"></path><path class="cls-96" d="M240.44,375l-39.65,22.89a7,7,0,0,1-6.29-.26l-41.53-24a3.12,3.12,0,0,1-1.38-1.42c-.4.87.07,1.91,1.38,2.67l41.53,24a7,7,0,0,0,6.29.26l39.65-22.89a1.7,1.7,0,0,0,.94-2.22A2.16,2.16,0,0,1,240.44,375Z"></path><path class="cls-53" d="M240.44,379.09,200.79,402a7,7,0,0,1-6.29-.26l-41.53-24a2.55,2.55,0,0,1-1.53-2.1h0v1.57a2.53,2.53,0,0,0,1.53,2.12l41.53,24a7,7,0,0,0,6.29.26l39.65-22.89a1.88,1.88,0,0,0,1.08-1.54v-1.57h0A1.89,1.89,0,0,1,240.44,379.09Z"></path><path class="cls-97" d="M240.44,377.84l-39.65,22.89a7,7,0,0,1-6.29-.26l-41.53-24a3.12,3.12,0,0,1-1.38-1.42c-.4.87.07,1.91,1.38,2.67l41.53,24a7,7,0,0,0,6.29.26l39.65-22.89a1.7,1.7,0,0,0,.94-2.22A2.16,2.16,0,0,1,240.44,377.84Z"></path><path class="cls-98" d="M336.08,290.26l39.65,22.89a7,7,0,0,0,6.29-.26l41.53-24c1.85-1.07,2.06-2.7.45-3.63l-39.65-22.89a7,7,0,0,0-6.29.26l-41.53,24C334.68,287.7,334.48,289.33,336.08,290.26Z"></path><path class="cls-53" d="M336.08,290.26l39.65,22.89a7,7,0,0,0,6.29-.26l41.53-24a2.55,2.55,0,0,0,1.53-2.1h0v1.57a2.53,2.53,0,0,1-1.53,2.12l-41.53,24a7,7,0,0,1-6.29.26l-39.65-22.89a1.88,1.88,0,0,1-1.08-1.54v-1.57h0A1.89,1.89,0,0,0,336.08,290.26Z"></path><path class="cls-99" d="M362.94,276.34,400,297.74a2.22,2.22,0,0,0,2-.08h0c.59-.34.65-.86.14-1.15l-37.06-21.4a2.21,2.21,0,0,0-2,.08h0C362.49,275.53,362.43,276,362.94,276.34Z"></path><path class="cls-100" d="M358.87,278.69l37.06,21.4a2.21,2.21,0,0,0,2-.08h0c.59-.34.65-.86.14-1.15L361,277.46a2.21,2.21,0,0,0-2,.08h0C358.42,277.88,358.36,278.4,358.87,278.69Z"></path><path class="cls-101" d="M354.8,281l37.06,21.4a2.21,2.21,0,0,0,2-.08h0c.59-.34.65-.86.14-1.15l-37.06-21.4a2.21,2.21,0,0,0-2,.08h0C354.35,280.23,354.29,280.75,354.8,281Z"></path><path class="cls-102" d="M371.67,295.48l16.13,9.31a2.22,2.22,0,0,0,2-.08h0c.59-.34.65-.86.14-1.15l-16.13-9.31a2.21,2.21,0,0,0-2,.08h0C371.22,294.67,371.16,295.18,371.67,295.48Z"></path><path class="cls-103" d="M369.16,272.83l36.93,21.35a2.38,2.38,0,0,0,2.14-.09L418.75,288c.63-.37.7-.92.15-1.24L382,265.43a2.38,2.38,0,0,0-2.14.09l-10.52,6.07C368.68,272,368.61,272.51,369.16,272.83Z"></path><path class="cls-104" d="M341,289.07,378,310.39a2.38,2.38,0,0,0,2.14-.09l5-2.91c.63-.37.7-.92.15-1.24l-36.93-21.32a2.38,2.38,0,0,0-2.14.09l-5,2.91C340.54,288.2,340.48,288.76,341,289.07Z"></path><path class="cls-53" d="M336.08,293.1,375.73,316a7,7,0,0,0,6.29-.26l41.53-24a2.55,2.55,0,0,0,1.53-2.1h0v1.57a2.53,2.53,0,0,1-1.53,2.12l-41.53,24a7,7,0,0,1-6.29.26l-39.65-22.89a1.88,1.88,0,0,1-1.08-1.54v-1.57h0A1.89,1.89,0,0,0,336.08,293.1Z"></path><path class="cls-105" d="M336.08,291.85l39.65,22.89a7,7,0,0,0,6.29-.26l41.53-24a3.12,3.12,0,0,0,1.38-1.42c.4.87-.07,1.91-1.38,2.67l-41.53,24a7,7,0,0,1-6.29.26L336.08,293.1a1.7,1.7,0,0,1-.94-2.22A2.16,2.16,0,0,0,336.08,291.85Z"></path><path class="cls-53" d="M336.08,295.94l39.65,22.89a7,7,0,0,0,6.29-.26l41.53-24a2.55,2.55,0,0,0,1.53-2.1h0v1.57a2.53,2.53,0,0,1-1.53,2.12l-41.53,24a7,7,0,0,1-6.29.26l-39.65-22.89A1.88,1.88,0,0,1,335,296v-1.57h0A1.89,1.89,0,0,0,336.08,295.94Z"></path><path class="cls-106" d="M336.08,294.69l39.65,22.89a7,7,0,0,0,6.29-.26l41.53-24a3.12,3.12,0,0,0,1.38-1.42c.4.87-.07,1.91-1.38,2.67l-41.53,24a7,7,0,0,1-6.29.26l-39.65-22.89a1.7,1.7,0,0,1-.94-2.22A2.16,2.16,0,0,0,336.08,294.69Z"></path><path class="cls-53" d="M336.08,298.78l39.65,22.89a7,7,0,0,0,6.29-.26l41.53-24a2.55,2.55,0,0,0,1.53-2.1h0v1.57a2.53,2.53,0,0,1-1.53,2.12L382,323a7,7,0,0,1-6.29.26l-39.65-22.89a1.88,1.88,0,0,1-1.08-1.54v-1.57h0A1.89,1.89,0,0,0,336.08,298.78Z"></path><path class="cls-107" d="M336.08,297.53l39.65,22.89a7,7,0,0,0,6.29-.26l41.53-24a3.12,3.12,0,0,0,1.38-1.42c.4.87-.07,1.91-1.38,2.67l-41.53,24a7,7,0,0,1-6.29.26l-39.65-22.89a1.7,1.7,0,0,1-.94-2.22A2.16,2.16,0,0,0,336.08,297.53Z"></path><path class="cls-26" d="M282,412.68c8,4.64,8,12.16,0,16.8s-21.07,4.64-29.1,0-8-12.16,0-16.8S273.95,408,282,412.68Z"></path><path class="cls-108" d="M282,429.49c-8,4.64-21.07,4.64-29.1,0-4-2.3-6-5.31-6-8.33v7.33c0,3.06,2,6.13,6,8.47,8,4.64,21.07,4.64,29.1,0,4-2.34,6.06-5.41,6-8.47v-7.33C288,424.17,286,427.18,282,429.49Z"></path><path class="cls-109" d="M254.8,417.81c7-4,18.29-4,25.27,0a10.29,10.29,0,0,1,4.89,5.28c1.12-3.26-.51-6.78-4.89-9.3-7-4-18.29-4-25.27,0-4.38,2.53-6,6-4.89,9.3A10.29,10.29,0,0,1,254.8,417.81Z"></path><path class="cls-110" d="M280.07,417.81c-7-4-18.29-4-25.27,0a10.29,10.29,0,0,0-4.89,5.28,10.28,10.28,0,0,0,4.89,5.29c7,4,18.29,4,25.27,0a10.28,10.28,0,0,0,4.89-5.29A10.29,10.29,0,0,0,280.07,417.81Z"></path><path class="cls-110" d="M265.91,344h-2.34v-2.34a.78.78,0,1,0-1.56,0V344h-2.34a.78.78,0,1,0,0,1.56H262v2.34a.78.78,0,1,0,1.56,0v-2.34h2.34a.78.78,0,0,0,0-1.56Z"></path><path class="cls-110" d="M278.71,363.24h-2.34V360.9a.78.78,0,1,0-1.56,0v2.34h-2.34a.78.78,0,0,0,0,1.56h2.34v2.34a.78.78,0,0,0,1.56,0V364.8h2.34a.78.78,0,1,0,0-1.56Z"></path><path class="cls-110" d="M263.67,388h-2.34v-2.34a.78.78,0,0,0-1.56,0V388h-2.34a.78.78,0,0,0,0,1.56h2.34v2.34a.78.78,0,1,0,1.56,0v-2.34h2.34a.78.78,0,0,0,0-1.56Z"></path><path class="cls-110" d="M274.27,406.4h-2.34v-2.34a.78.78,0,0,0-1.56,0v2.34H268a.78.78,0,1,0,0,1.56h2.34v2.34a.78.78,0,1,0,1.56,0V408h2.34a.78.78,0,1,0,0-1.56Z"></path><circle class="cls-111" cx="271.15" cy="352.55" r="1.66"></circle><circle class="cls-111" cx="277.25" cy="379.4" r="1.66"></circle><circle class="cls-111" cx="264.79" cy="397.72" r="1.66"></circle><circle class="cls-111" cx="270.39" cy="384.87" r="1.66"></circle><circle class="cls-111" cx="257.66" cy="379.4" r="1.66"></circle><circle class="cls-111" cx="263.99" cy="364.4" r="1.66"></circle><circle class="cls-111" cx="275.59" cy="340.33" r="1.66"></circle><circle class="cls-111" cx="258.89" cy="335.3" r="1.66"></circle><rect class="cls-8" x="254.8" y="355.21" width="5.9" height="5.9" transform="translate(-177.76 287.16) rotate(-45)"></rect><rect class="cls-8" x="267.44" y="326.94" width="5.9" height="5.9" transform="translate(-154.07 287.82) rotate(-45)"></rect><rect class="cls-8" x="274.3" y="389.22" width="5.9" height="5.9" transform="translate(-196.1 310.91) rotate(-45)"></rect><rect class="cls-8" x="262.7" y="371.07" width="5.9" height="5.9" transform="translate(-186.66 297.39) rotate(-45)"></rect><path class="cls-112" d="M249.6,420.66c-.2,2.78,1.52,5.59,5.2,7.71,7,4,18.29,4,25.27,0,3.67-2.12,5.39-4.94,5.2-7.71V294.5c.2-2.78-1.52-5.59-5.2-7.71-7-4-18.29-4-25.27,0-3.67,2.12-5.39,4.94-5.2,7.71Z"></path><path class="cls-113" d="M123.47,222l-73,42.16c-5.72,3.3-10.39,11.4-10.39,18v8.77c0,6.6,4.68,9.3,10.39,6l54.34-31.38-3.3,17.16,18.81-26.11,3.17-1.83c5.72-3.3,10.39-11.4,10.39-18V228C133.86,221.37,129.19,218.67,123.47,222Z"></path><path class="cls-114" d="M122.47,236.28l-71,41c-.74.43-1.34,0-1.34-1h0a3.22,3.22,0,0,1,1.34-2.56l71-41c.74-.43,1.34,0,1.34,1h0A3.22,3.22,0,0,1,122.47,236.28Z"></path><path class="cls-115" d="M86.06,266.53,51.27,286.62c-.64.37-1.16,0-1.16-.88v-.47A2.8,2.8,0,0,1,51.27,283L86.06,263c.64-.37,1.16,0,1.16.88v.47A2.8,2.8,0,0,1,86.06,266.53Z"></path><path d="M165,268.19c0,.27.19.5.54.72.1.06,0-1.43.34-1.18.1.07,4.91,3.82,7.6,3.13a.57.57,0,0,0,.4-.58v-.6c0-.68-1-1.72-2.52-3.22-1.7-1.65-2.78-2.69-5.32-1.22-.72.42-1,.73-1,1Z"></path><path class="cls-116" d="M171.35,266.45c2,2,3.17,3.18,2.12,3.79s-3.16-.31-5.32-1.94c-1.89-1.43-4.65-1.6-2.12-3.07S169.66,264.8,171.35,266.45Z"></path><path class="cls-77" d="M169.31,265.32l-.13-15.75a1.85,1.85,0,0,0-1.18-1.71l-1.23-.48-5.18,3.44,2.53,1.29a24,24,0,0,0,.77,8.44s.87,1.78.7,5.91C165.58,266.46,168.34,267.32,169.31,265.32Z"></path><path d="M157.43,272c0,.27.19.5.54.72.1.06,0-1.43.34-1.18.1.07,4.91,3.82,7.6,3.13a.57.57,0,0,0,.4-.58v-.6c0-.68-1-1.72-2.52-3.22-1.7-1.65-2.78-2.69-5.32-1.22-.72.42-1,.73-1,1Z"></path><path class="cls-116" d="M163.79,270.22c2,2,3.17,3.18,2.12,3.79s-3.16-.31-5.32-1.94c-1.89-1.43-4.65-1.6-2.12-3.07S162.09,268.57,163.79,270.22Z"></path><path class="cls-77" d="M161.73,269.27l-.15-18.45-6.1,2,1,3a22.22,22.22,0,0,0,.77,8.08s.87,1.78.7,5.91C158,269.8,160.23,271.07,161.73,269.27Z"></path><path d="M156.27,232s6.79-6.18,2.65-17.16l-3.18,11.4Z"></path><path class="cls-77" d="M164.31,247.1h0a2,2,0,0,1-2.48-1.35l-5.44-18.56a2,2,0,0,1,1.35-2.48h0a2,2,0,0,1,2.48,1.35l5.44,18.56A2,2,0,0,1,164.31,247.1Z"></path><path class="cls-117" d="M158.76,242.16l9.23,5.69s-3.21-.79-11.47,8l-9.08-5.24Z"></path><path class="cls-15" d="M148.64,251.36a.55.55,0,0,0,.26.08c1.34.1,6.15-.94,11-6.37a2.52,2.52,0,0,0,.65-1.56V228.13a2.53,2.53,0,0,0-1.08-2.35l-3.62-2.11a2.53,2.53,0,0,0-2.58.24l-4.93,2.85a8,8,0,0,0-3.62,6.27v15.48a.79.79,0,0,0,.35.74Z"></path><path class="cls-77" d="M149.19,227.72a1.26,1.26,0,0,0,.75,1.06,4,4,0,0,0,3.61,0,1.26,1.26,0,0,0,.75-1.06v-3.35a1.26,1.26,0,0,0-.75-1.06,4,4,0,0,0-3.61,0,1.26,1.26,0,0,0-.75,1.06Z"></path><circle class="cls-77" cx="151.74" cy="219.01" r="7.02"></circle><path d="M153.82,232s-5.22-5.76-1.6-16.42l6.5,2.24s2.24-5.54-5.12-7.14c0,0-4.9-1.07-6.61,3,0,0-3.95.32-2.45,8.42C144.54,222.13,144.76,229.81,153.82,232Z"></path><path class="cls-118" d="M146.87,227.92"></path><path class="cls-119" d="M156.52,255.8"></path><polygon class="cls-53" points="170.91 247.01 157.68 254.63 147.53 249.09 161.07 241.34 170.91 247.01"></polygon><polygon class="cls-120" points="170.91 247.01 172.99 233.74 158.3 242.22 157.68 254.63 170.91 247.01"></polygon><path class="cls-77" d="M160.3,247.56h0a2,2,0,0,1-2.82-.22L145,232.71a2,2,0,0,1,.22-2.82h0a2,2,0,0,1,2.82.22l12.49,14.63A2,2,0,0,1,160.3,247.56Z"></path><path class="cls-121" d="M263.44,260.42c-.24.1-.33.39-.35.8,0,.12,1.2-.7,1.16-.28,0,.12-.88,6,1,7.91a.55.55,0,0,0,.68.06l.51-.29c.59-.29,1-1.65,1.52-3.66.59-2.22.94-3.63-1.5-5.07-.7-.41-1.1-.51-1.33-.38Z"></path><path class="cls-116" d="M267.94,265c-.71,2.68-1.17,4.19-2.19,3.59s-1.25-2.81-.9-5.41c.3-2.28-.86-4.69,1.58-3.25S268.53,262.74,267.94,265Z"></path><path class="cls-77" d="M283.71,247.8l-5,1.84-2,2.32a21.55,21.55,0,0,0-6.46,4.51s-1.08,1.58-4.66,3.41c0,0,0,2.5,2.23,2.9l14.31-8.24a3.61,3.61,0,0,0,1.79-2.74A16.11,16.11,0,0,0,283.71,247.8Z"></path><path class="cls-76" d="M273.15,273.1c0,.26.18.48.52.7.1.06,0-1.39.33-1.15.1.07,4.77,3.71,7.37,3a.55.55,0,0,0,.39-.56v-.59c0-.66-.95-1.67-2.44-3.12-1.65-1.6-2.69-2.6-5.15-1.18-.7.41-1,.71-1,1Z"></path><path class="cls-116" d="M279.32,271.41c2,1.94,3.07,3.08,2.05,3.67s-3.06-.3-5.15-1.88c-1.83-1.39-4.51-1.56-2.05-3S277.68,269.81,279.32,271.41Z"></path><path class="cls-77" d="M277.32,270.48l-.15-17.89-4.85,1.57,0,3.26a21.55,21.55,0,0,0,.75,7.84s.84,1.72.68,5.73C273.7,271,275.87,272.23,277.32,270.48Z"></path><path class="cls-77" d="M290.55,245.42h0a1.94,1.94,0,0,1-2.57-1l-7.68-17a1.94,1.94,0,0,1,1-2.57h0a1.94,1.94,0,0,1,2.57,1l7.68,17A1.94,1.94,0,0,1,290.55,245.42Z"></path><polygon class="cls-53" points="291.3 243.49 279.28 236.55 279.28 226.86 291.3 233.8 291.3 243.49"></polygon><polygon class="cls-122" points="288.34 240.88 288.34 233.52 288.6 233.67 288.6 241.02 288.34 240.88"></polygon><polygon class="cls-123" points="287.76 238.36 287.76 233.18 288.02 233.33 288.02 238.51 287.76 238.36"></polygon><polygon class="cls-124" points="287.18 239.64 287.18 232.85 287.44 233 287.44 239.78 287.18 239.64"></polygon><polygon class="cls-125" points="286.6 239.87 286.6 232.51 286.86 232.66 286.86 240.02 286.6 239.87"></polygon><polygon class="cls-126" points="286.02 234.87 286.02 232.18 286.27 232.33 286.27 235.02 286.02 234.87"></polygon><path class="cls-127" d="M269.18,248.42V255s7.74,2.61,15-6.61V242Z"></path><path class="cls-79" d="M272.68,250.47a.53.53,0,0,0,.25.08c1.3.1,6-.92,10.63-6.17a2.44,2.44,0,0,0,.63-1.51V227.94a2.45,2.45,0,0,0-1-2.28l-3.51-2a2.45,2.45,0,0,0-2.5.23l-4.79,2.76a7.79,7.79,0,0,0-3.51,6.08v15a.76.76,0,0,0,.34.72Z"></path><path class="cls-77" d="M274,227.53a1.22,1.22,0,0,0,.72,1,3.87,3.87,0,0,0,3.5,0,1.22,1.22,0,0,0,.72-1v-3.25a1.22,1.22,0,0,0-.72-1,3.87,3.87,0,0,0-3.5,0,1.22,1.22,0,0,0-.72,1Z"></path><path class="cls-77" d="M260.84,248.88h0a1.94,1.94,0,0,1-.85-2.6l8.44-16.72a1.94,1.94,0,0,1,2.6-.85h0a1.94,1.94,0,0,1,.85,2.6L263.44,248A1.94,1.94,0,0,1,260.84,248.88Z"></path><path d="M282.81,217.24l2.45,9.49a1.11,1.11,0,0,1-1.5,1.3l-5.63-2.34a1.11,1.11,0,0,1-.66-1.24l1.84-9.34a1.11,1.11,0,0,1,2-.36l1.34,2.19A1.11,1.11,0,0,1,282.81,217.24Z"></path><path class="cls-128" d="M274.24,222.92c0,.81-.57,1.14-1.27.74a2.82,2.82,0,0,1-1.27-2.21c0-.81.57-1.14,1.27-.74A2.82,2.82,0,0,1,274.24,222.92Z"></path><circle class="cls-77" cx="276.48" cy="219.05" r="6.81"></circle><path d="M269.86,220s5.76,3.16,8.56-5.05a4.73,4.73,0,0,0,5.24,2.7,6.68,6.68,0,0,0-5.57-6.45S268.24,210.17,269.86,220Z"></path><path d="M273,220.23l2.45,9.49A1.11,1.11,0,0,1,274,231l-5.63-2.34a1.11,1.11,0,0,1-.66-1.24l1.84-9.34a1.11,1.11,0,0,1,2-.36l1.34,2.19A1.11,1.11,0,0,1,273,220.23Z"></path><path class="cls-77" d="M312.23,366.11h0a1.88,1.88,0,0,0,2.48-.93l6-13.33a1.88,1.88,0,0,0-.93-2.48h0a1.88,1.88,0,0,0-2.48.93l-6,13.33A1.88,1.88,0,0,0,312.23,366.11Z"></path><path class="cls-129" d="M315.46,352l2-4.3a2.91,2.91,0,0,1,3.84-1.44h0a2.91,2.91,0,0,1,1.44,3.84l-2,4.3S317.78,356,315.46,352Z"></path><path class="cls-130" d="M324.28,366.17a1.23,1.23,0,0,1,.14.57v6.36a2.6,2.6,0,0,1-2.8,2.29h0a2.6,2.6,0,0,1-2.87-2.21l0-8.08a.71.71,0,0,1,.49-.69A4,4,0,0,1,324.28,366.17Z"></path><path class="cls-121" d="M337.59,378.81c.75.32.25,2.28.28,4.18,0,2.64-.52,5.14-1.68,5.83a.77.77,0,0,1-.78.08l-1.17-.65c-.68-.33-1.15-1.88-1.78-4.19-.69-2.54-1.11-4.16,1.68-5.83.8-.48,1.26-.59,1.52-.45Z"></path><path class="cls-131" d="M332.46,384.07c.84,3.07,1.38,4.8,2.54,4.1s1.4-3.24,1-6.22c-.37-2.61.95-5.39-1.85-3.72S331.76,381.52,332.46,384.07Z"></path><path class="cls-132" d="M331.93,381.69a1.23,1.23,0,0,1-.56-.16l-11.54-6.4a2.6,2.6,0,0,1-.59-3.57h0a2.6,2.6,0,0,1,3.35-1.39l13,7.23a.71.71,0,0,1,.35.77A4,4,0,0,1,331.93,381.69Z"></path><path class="cls-121" d="M330.16,391.17c.08.82-1.88,1.33-3.52,2.27-2.28,1.32-4.74,2-5.92,1.36a.77.77,0,0,1-.45-.64v-1.34c0-.76,1.09-1.92,2.8-3.59,1.89-1.84,3.09-3,5.92-1.36.81.47,1.13.81,1.13,1.11Z"></path><path class="cls-131" d="M323.08,389.23c-2.28,2.22-3.53,3.54-2.35,4.21s3.51-.34,5.92-2.16c2.1-1.59,5.18-1.79,2.36-3.42S325,387.39,323.08,389.23Z"></path><path class="cls-133" d="M324.9,387.62a1.23,1.23,0,0,1-.13-.57V367.47a2.6,2.6,0,0,1,2.84-2.25h0a2.6,2.6,0,0,1,2.84,2.25v21.3a.71.71,0,0,1-.5.68A4,4,0,0,1,324.9,387.62Z"></path><path class="cls-134" d="M329.51,371a.52.52,0,0,1-.24.08c-1.26.1-5.77-.89-10.28-6a2.36,2.36,0,0,1-.61-1.46V349.2a2.37,2.37,0,0,1,1-2.2l3.39-2a2.37,2.37,0,0,1,2.42.22l4.63,2.67a7.54,7.54,0,0,1,3.4,5.89v14.52a.74.74,0,0,1-.33.69Z"></path><path class="cls-77" d="M328.2,348.8a1.18,1.18,0,0,1-.7,1,3.74,3.74,0,0,1-3.38,0,1.18,1.18,0,0,1-.7-1v-3.15a1.18,1.18,0,0,1,.7-1,3.74,3.74,0,0,1,3.38,0,1.18,1.18,0,0,1,.7,1Z"></path><path class="cls-77" d="M341,369.46h0a1.88,1.88,0,0,0,.83-2.52l-6.61-13.07a1.88,1.88,0,0,0-2.52-.83h0a1.88,1.88,0,0,0-.83,2.52l6.61,13.07A1.88,1.88,0,0,0,341,369.46Z"></path><path class="cls-135" d="M332,358.09l-2.13-4.22a2.91,2.91,0,0,1,1.28-3.9h0a2.91,2.91,0,0,1,3.9,1.28l2.13,4.22S336.54,358.78,332,358.09Z"></path><circle class="cls-77" cx="325.75" cy="340.64" r="6.59"></circle><path class="cls-82" d="M331.24,332.85c5.63,1.93,2.83,10.16-1.26,13.12-2-1.09.43-3.05-2.3-1.69-.54-2.65.68-1.84-.06-5.17-2.86,1.49-8.44-.32-9.3-3.08,1-.44,2-3.28,4.38-4.31C325.69,330.38,329.53,331,331.24,332.85Z"></path><path class="cls-83" d="M327.95,344.34c0,.79.55,1.1,1.23.71a2.72,2.72,0,0,0,1.23-2.13c0-.79-.55-1.1-1.23-.71A2.72,2.72,0,0,0,327.95,344.34Z"></path><rect class="cls-136" width="500" height="500"></rect></g></g></svg> 