<?xml version="1.0" encoding="UTF-8"?> <!-- Generator: Adobe Illustrator 23.0.3, SVG Export Plug-In . SVG Version: 6.00 Build 0) --> <svg xmlns="http://www.w3.org/2000/svg" xmlns:xlink="http://www.w3.org/1999/xlink" id="Layer_1" x="0px" y="0px" viewBox="0 0 400 400" style="enable-background:new 0 0 400 400;" xml:space="preserve"> <style type="text/css"> .st0{opacity:0.2;fill:#FFFFFF;} .st1{fill:url(#SVGID_1_);} .st2{opacity:0.3;fill:#3A3A3A;} .st3{fill:url(#SVGID_2_);} .st4{fill:#FFFFFF;} .st5{opacity:0.5;fill:url(#SVGID_3_);enable-background:new ;} .st6{fill:url(#SVGID_4_);} .st7{fill:#FFE6A6;} .st8{fill:url(#SVGID_5_);} .st9{fill:#0C3184;} .st10{fill:url(#SVGID_6_);} .st11{fill:url(#SVGID_7_);} .st12{fill:url(#SVGID_8_);} .st13{fill:url(#SVGID_9_);} .st14{opacity:0.2;fill:#3A3A3A;} .st15{fill:#564954;} .st16{fill:url(#SVGID_10_);} .st17{fill:none;stroke:url(#SVGID_11_);stroke-linecap:round;stroke-linejoin:round;stroke-miterlimit:10;} .st18{fill:none;stroke:url(#SVGID_12_);stroke-linecap:round;stroke-linejoin:round;stroke-miterlimit:10;} .st19{fill:none;stroke:url(#SVGID_13_);stroke-linecap:round;stroke-linejoin:round;stroke-miterlimit:10;} .st20{fill:none;stroke:url(#SVGID_14_);stroke-linecap:round;stroke-linejoin:round;stroke-miterlimit:10;} .st21{fill:none;stroke:url(#SVGID_15_);stroke-linecap:round;stroke-linejoin:round;stroke-miterlimit:10;} .st22{fill:url(#SVGID_16_);} .st23{fill:url(#SVGID_17_);} .st24{fill:url(#SVGID_18_);} .st25{fill:url(#SVGID_19_);} .st26{fill:url(#SVGID_20_);} .st27{fill:url(#SVGID_21_);} .st28{fill:#EDEDED;} .st29{fill:url(#SVGID_22_);} .st30{fill:url(#SVGID_23_);} .st31{opacity:0.5;fill:url(#SVGID_24_);enable-background:new ;} .st32{fill:url(#SVGID_25_);} .st33{fill:url(#SVGID_26_);} .st34{fill:url(#SVGID_27_);} .st35{fill:url(#SVGID_28_);} .st36{fill:url(#SVGID_29_);} .st37{fill:#FDEFEA;} .st38{opacity:0.5;fill:url(#SVGID_30_);enable-background:new ;} .st39{fill:#B3E8F4;} .st40{fill:#77BDC9;} .st41{fill:url(#SVGID_31_);} .st42{fill:url(#SVGID_32_);} .st43{fill:url(#SVGID_33_);} .st44{opacity:0.5;fill:url(#SVGID_34_);enable-background:new ;} .st45{fill:url(#SVGID_35_);} .st46{fill:url(#SVGID_36_);} .st47{fill:url(#SVGID_37_);} .st48{fill:url(#SVGID_38_);} .st49{fill:url(#SVGID_39_);} .st50{fill:#71606E;} .st51{fill:url(#SVGID_40_);} .st52{opacity:0.4;fill:#7694A3;enable-background:new ;} .st53{fill:#F6F8FB;} .st54{fill:url(#SVGID_41_);} .st55{fill:#ABB9D1;} .st56{opacity:0.19;fill:url(#SVGID_42_);enable-background:new ;} .st57{opacity:0.19;fill:url(#SVGID_43_);enable-background:new ;} .st58{fill:url(#SVGID_44_);} .st59{enable-background:new ;} .st60{clip-path:url(#SVGID_46_);} .st61{clip-path:url(#SVGID_50_);} .st62{clip-path:url(#SVGID_54_);} .st63{clip-path:url(#SVGID_58_);} .st64{clip-path:url(#SVGID_62_);} .st65{clip-path:url(#SVGID_66_);} .st66{clip-path:url(#SVGID_70_);} .st67{clip-path:url(#SVGID_74_);} </style> <path class="st0" d="M298.36,218.62v17.45c0,0.47,0.23,0.91,0.62,1.18c0.02,0.01,0.03,0.03,0.05,0.03l5.7,3.52l11.78,7.26 c0.21,0.13,0.44,0.11,0.62-0.01c0.15-0.1,0.26-0.27,0.26-0.48v-17.01c0-0.62-0.32-1.19-0.84-1.52l-17.53-10.8 c-0.13-0.08-0.27-0.09-0.39-0.03c-0.03,0.01-0.05,0.03-0.08,0.04C298.44,218.34,298.36,218.47,298.36,218.62z"></path> <path class="st0" d="M337.59,179.73v23.41c0,0.63,0.3,1.22,0.83,1.58c0.02,0.01,0.05,0.03,0.07,0.05l7.65,4.72l15.81,9.74 c0.28,0.17,0.59,0.15,0.83-0.01c0.2-0.13,0.35-0.36,0.35-0.64v-22.82c0-0.83-0.43-1.6-1.13-2.04l-23.52-14.49 c-0.17-0.1-0.36-0.12-0.52-0.05c-0.03,0.01-0.07,0.04-0.1,0.06C337.69,179.34,337.59,179.52,337.59,179.73z"></path> <linearGradient id="SVGID_1_" gradientUnits="userSpaceOnUse" x1="327.0626" y1="200.2509" x2="350.357" y2="200.2509"> <stop offset="0" style="stop-color:#3069C9"></stop> <stop offset="1" style="stop-color:#262CD4"></stop> </linearGradient> <path class="st1" d="M327.06,185.19v18.99c0,0.51,0.25,0.99,0.67,1.28c0.02,0.01,0.04,0.03,0.06,0.04l6.21,3.83l12.82,7.9 c0.23,0.14,0.48,0.12,0.67-0.01l2.51-1.55c0.23-0.13,0.36-0.38,0.36-0.63v-18.35c0-0.72-0.37-1.39-0.98-1.76l-18.84-11.62 c-0.25-0.15-0.55-0.15-0.79-0.01l-2.39,1.45c-0.03,0.01-0.06,0.03-0.08,0.05C327.15,184.88,327.06,185.02,327.06,185.19z"></path> <path class="st2" d="M327.06,185.19v18.99c0,0.51,0.25,0.99,0.67,1.28c0.02,0.01,0.04,0.03,0.06,0.04l6.21,3.83l12.82,7.9 c0.23,0.14,0.48,0.12,0.67-0.01l2.51-1.55c0.23-0.13,0.36-0.38,0.36-0.63v-18.35c0-0.72-0.37-1.39-0.98-1.76l-18.84-11.62 c-0.25-0.15-0.55-0.15-0.79-0.01l-2.39,1.45c-0.03,0.01-0.06,0.03-0.08,0.05C327.15,184.88,327.06,185.02,327.06,185.19z"></path> <linearGradient id="SVGID_2_" gradientUnits="userSpaceOnUse" x1="327.0626" y1="201.013" x2="347.7687" y2="201.013"> <stop offset="0" style="stop-color:#3069C9"></stop> <stop offset="1" style="stop-color:#262CD4"></stop> </linearGradient> <path class="st3" d="M327.06,185.19v18.99c0,0.51,0.25,0.99,0.67,1.28c0.02,0.01,0.04,0.03,0.06,0.04l6.21,3.83l12.82,7.9 c0.23,0.14,0.48,0.12,0.67-0.01c0.16-0.1,0.28-0.29,0.28-0.52v-18.51c0-0.67-0.35-1.29-0.92-1.65l-19.07-11.75 c-0.14-0.08-0.29-0.09-0.43-0.04c-0.03,0.01-0.06,0.03-0.08,0.05C327.15,184.88,327.06,185.02,327.06,185.19z"></path> <path class="st4" d="M300.74,144.2c0.18,1,1.02,1.81,1.89,1.81c0.87,0,1.42-0.81,1.25-1.81c-0.18-1-1.02-1.81-1.88-1.81 C301.12,142.4,300.56,143.2,300.74,144.2z"></path> <path class="st4" d="M295.18,141.08c0.18,1,1.02,1.81,1.88,1.81s1.42-0.81,1.25-1.81c-0.18-1-1.02-1.81-1.88-1.81 C295.57,139.28,295.01,140.09,295.18,141.08z"></path> <linearGradient id="SVGID_3_" gradientUnits="userSpaceOnUse" x1="295.6097" y1="332.2959" x2="341.2835" y2="332.2959"> <stop offset="0" style="stop-color:#9AB5FF"></stop> <stop offset="1" style="stop-color:#4869C6"></stop> </linearGradient> <path class="st5" d="M335.14,319.65l5-1.78c0.75-0.26,1.42,0.54,1.03,1.23l-1.49,2.62c-0.3,0.54-0.74,0.99-1.26,1.31l-37.11,23.01 c-1.54,0.96-3.49,0.96-5.03,0l0,0c-0.89-0.55-0.89-1.85,0-2.4l38.15-23.66C334.65,319.85,334.89,319.74,335.14,319.65z"></path> <g> <linearGradient id="SVGID_4_" gradientUnits="userSpaceOnUse" x1="335.7295" y1="317.4937" x2="342.3018" y2="317.4937"> <stop offset="0" style="stop-color:#8EB5FF"></stop> <stop offset="1" style="stop-color:#3069C9"></stop> </linearGradient> <path class="st6" d="M335.73,316.07l0.46,0.85l1.74,3.24l4.33-5.05c0.07-0.08,0.04-0.21-0.05-0.24c-0.04-0.04-0.07-0.05-0.12-0.04 L335.73,316.07z"></path> <g> <path class="st7" d="M335.73,316.07l0.46,0.85l1.42-0.07l4.61-1.98c-0.04-0.04-0.07-0.05-0.12-0.04L335.73,316.07z"></path> </g> </g> <linearGradient id="SVGID_5_" gradientUnits="userSpaceOnUse" x1="296.6455" y1="330.2133" x2="338.3705" y2="330.2133"> <stop offset="0" style="stop-color:#3069C9"></stop> <stop offset="1" style="stop-color:#262CD4"></stop> </linearGradient> <path class="st8" d="M296.65,340.15l0.67,1.19l1.73,3.05l38.32-23.76c0,0,0,0,0,0h0c0.11-0.05,0.2-0.11,0.29-0.18 c0.25-0.19,0.44-0.46,0.56-0.77c0.23-0.61,0.2-1.38-0.14-2.1c-0.13-0.27-0.29-0.51-0.48-0.71c0,0,0,0,0,0 c-0.51-0.56-1.19-0.86-1.82-0.79c-0.18,0.02-0.36,0.06-0.52,0.15c-0.03,0.01-0.06,0.03-0.09,0.04l-0.11,0.07 c-0.02,0.01-0.03,0.02-0.04,0.03c-0.01,0.01-0.02,0.02-0.03,0.02L296.65,340.15z"></path> <path class="st9" d="M296.65,340.15l0.67,1.19l1.7-0.51l38.59-23.97c0,0,0,0,0-0.01c0,0,0,0,0,0c-0.51-0.56-1.19-0.86-1.82-0.79 c-0.18,0.02-0.36,0.06-0.52,0.15c-0.03,0.01-0.06,0.03-0.09,0.04l-0.11,0.07c-0.02,0.01-0.03,0.02-0.04,0.03 c-0.01,0.01-0.02,0.02-0.03,0.02L296.65,340.15z"></path> <linearGradient id="SVGID_6_" gradientUnits="userSpaceOnUse" x1="295.6425" y1="342.3564" x2="299.7574" y2="342.3564"> <stop offset="0" style="stop-color:#E6E6E6"></stop> <stop offset="0.16" style="stop-color:#E2E2E2"></stop> <stop offset="0.3" style="stop-color:#D8D8D8"></stop> <stop offset="0.44" style="stop-color:#C6C6C6"></stop> <stop offset="0.51" style="stop-color:#B8B8B8"></stop> <stop offset="0.55" style="stop-color:#CACACA"></stop> <stop offset="0.6" style="stop-color:#DBDBDB"></stop> <stop offset="0.66" style="stop-color:#E6E6E6"></stop> <stop offset="0.75" style="stop-color:#EDEDED"></stop> <stop offset="1" style="stop-color:#EFEFEF"></stop> </linearGradient> <path class="st10" d="M295.93,343.2c0.58,1.22,1.84,1.83,2.82,1.36l0,0c0.11-0.05,0.2-0.11,0.29-0.18c0.25-0.19,0.44-0.46,0.56-0.77 c0.23-0.61,0.2-1.38-0.14-2.1c-0.48-1.01-1.43-1.6-2.3-1.51c-0.18,0.02-0.36,0.06-0.52,0.15c-0.03,0.01-0.06,0.03-0.09,0.04 l-0.11,0.07c-0.01,0.01-0.03,0.02-0.04,0.03C295.62,340.85,295.4,342.09,295.93,343.2z"></path> <linearGradient id="SVGID_7_" gradientUnits="userSpaceOnUse" x1="299.9097" y1="339.1281" x2="306.3596" y2="339.1281"> <stop offset="0" style="stop-color:#E6E6E6"></stop> <stop offset="0.99" style="stop-color:#FFFFFF"></stop> <stop offset="1" style="stop-color:#FFFFFF"></stop> </linearGradient> <path class="st11" d="M303.16,336.11l-3.25,2.02c0.01-0.01,0.03-0.02,0.04-0.02c0.16-0.07,0.32-0.11,0.49-0.13 c0.65-0.07,1.33,0.24,1.84,0.82c0.19,0.2,0.35,0.43,0.47,0.69c0.34,0.72,0.37,1.49,0.13,2.1c-0.08,0.23-0.22,0.44-0.37,0.61 c-0.05,0.06-0.09,0.1-0.15,0.14l3.11-1.91c0,0,0.13-0.08,0.2-0.13c0.24-0.2,0.44-0.46,0.55-0.77c0.23-0.61,0.21-1.38-0.14-2.1 c-0.12-0.26-0.28-0.51-0.47-0.7c-0.51-0.57-1.19-0.87-1.83-0.81c-0.18,0.02-0.36,0.07-0.52,0.15 C303.22,336.08,303.19,336.1,303.16,336.11z"></path> <path class="st4" d="M299.83,338.18c0.03-0.02,0.05-0.04,0.08-0.05c-0.02,0.01-0.03,0.02-0.04,0.02L299.83,338.18z"></path> <linearGradient id="SVGID_8_" gradientUnits="userSpaceOnUse" x1="296.6108" y1="341.1852" x2="303.0578" y2="341.1852"> <stop offset="0" style="stop-color:#8EB5FF"></stop> <stop offset="1" style="stop-color:#3069C9"></stop> </linearGradient> <path class="st12" d="M296.61,340.18c0.17-0.08,0.34-0.13,0.52-0.14c0.64-0.07,1.31,0.22,1.82,0.8c0.19,0.21,0.35,0.44,0.48,0.71 c0.35,0.71,0.37,1.48,0.14,2.09c-0.12,0.31-0.31,0.58-0.56,0.78l3.14-1.94c0,0,0.14-0.08,0.2-0.13c0.06-0.04,0.1-0.08,0.15-0.14 c0.18-0.16,0.32-0.38,0.41-0.63c0.23-0.61,0.2-1.38-0.14-2.1c-0.13-0.26-0.28-0.51-0.46-0.7c-0.52-0.57-1.2-0.87-1.84-0.81 c-0.19,0.02-0.37,0.07-0.52,0.15c-0.01,0-0.03,0.01-0.04,0.02h-0.01c-0.02,0.01-0.03,0.02-0.04,0.02l-0.04,0.03L296.61,340.18z"></path> <path class="st4" d="M343.73,204.63c-0.63-0.37-1.71-0.44-2.09,0c0.16-0.35,0.26-0.76,0.26-1.26c0.01-2.25-1.8-5.14-4.05-6.45 c-2.21-1.29-4.01-0.57-4.08,1.6c-0.28-0.71-0.65-1.54-1.71-2.09c-1.33-0.69-2.55,0.08-2.56,1.4c-0.01,1.53,0.64,3.2,2.17,4.09 l11.48,6.7c1.06,0.62,1.93,0.22,2.15-0.82C345.53,206.76,344.79,205.26,343.73,204.63z"></path> <linearGradient id="SVGID_9_" gradientUnits="userSpaceOnUse" x1="299.8866" y1="287.01" x2="303.5241" y2="287.01"> <stop offset="0" style="stop-color:#8EB5FF"></stop> <stop offset="1" style="stop-color:#3069C9"></stop> </linearGradient> <path class="st13" d="M303.52,281.92v2.66c-0.05,0.43-0.3,0.83-0.72,1.09l-1.66,1.01l2.38,1.46l-0.01,3.97c0,0-3.63-6.88-3.63-7.15 s0-2.48,0-2.48l1.42-0.21L303.52,281.92z"></path> <path class="st14" d="M303.52,281.92v2.66c-0.05,0.43-0.3,0.83-0.72,1.09l-1.66,1.01l2.38,1.46l-0.01,3.97c0,0-3.63-6.88-3.63-7.15 s0-2.48,0-2.48l1.42-0.21L303.52,281.92z"></path> <g> <g> <polygon class="st15" points="307.87,296.83 308.62,296.37 315.04,300.3 314.29,300.75 "></polygon> </g> <g> <linearGradient id="SVGID_10_" gradientUnits="userSpaceOnUse" x1="307.8755" y1="297.4063" x2="311.2772" y2="297.4063"> <stop offset="0" style="stop-color:#E6E6E6"></stop> <stop offset="0.99" style="stop-color:#FFFFFF"></stop> <stop offset="1" style="stop-color:#FFFFFF"></stop> </linearGradient> <polygon class="st16" points="307.88,296.83 308.63,296.36 311.28,297.98 310.52,298.45 "></polygon> </g> </g> <g> <linearGradient id="SVGID_11_" gradientUnits="userSpaceOnUse" x1="122.5199" y1="145.7209" x2="117.8775" y2="190.6386"> <stop offset="0" style="stop-color:#9AB5FF"></stop> <stop offset="1" style="stop-color:#4869C6"></stop> </linearGradient> <path class="st17" d="M103.8,144.29v22.08c0,2.56,1.24,4.94,3.26,6.27l29.53,19.43"></path> <linearGradient id="SVGID_12_" gradientUnits="userSpaceOnUse" x1="241.0219" y1="201.7192" x2="277.1634" y2="201.7192"> <stop offset="0" style="stop-color:#9AB5FF"></stop> <stop offset="1" style="stop-color:#4869C6"></stop> </linearGradient> <path class="st18" d="M276.66,188.49v23.88c0,2.02-2.21,3.25-3.93,2.19l-31.21-19.25"></path> <linearGradient id="SVGID_13_" gradientUnits="userSpaceOnUse" x1="239.4857" y1="144.7132" x2="297.2507" y2="144.7132"> <stop offset="0" style="stop-color:#9AB5FF"></stop> <stop offset="1" style="stop-color:#4869C6"></stop> </linearGradient> <path class="st19" d="M296.75,133.43v23.88c0,2.02-2.21,3.25-3.93,2.19L245,130.04c-2.19-1.35-5.01,0.23-5.01,2.8v23.94"></path> <linearGradient id="SVGID_14_" gradientUnits="userSpaceOnUse" x1="245.2815" y1="242.1365" x2="335.9938" y2="242.1365"> <stop offset="0" style="stop-color:#9AB5FF"></stop> <stop offset="1" style="stop-color:#4869C6"></stop> </linearGradient> <path class="st20" d="M335.49,206.57v68.55c0,2.02-2.21,3.25-3.93,2.19l-85.78-52.64"></path> <linearGradient id="SVGID_15_" gradientUnits="userSpaceOnUse" x1="122.1209" y1="103.294" x2="160.7532" y2="103.294"> <stop offset="0" style="stop-color:#9AB5FF"></stop> <stop offset="1" style="stop-color:#4869C6"></stop> </linearGradient> <path class="st21" d="M122.62,77.93v23.44c0,2.72,1.42,5.25,3.74,6.66l33.89,20.63"></path> <path class="st0" d="M271.96,123.92v18.42c0,0.49,0.24,0.96,0.65,1.25c0.02,0.01,0.04,0.03,0.05,0.04l6.02,3.71l12.44,7.66 c0.22,0.14,0.47,0.12,0.65-0.01c0.16-0.1,0.27-0.28,0.27-0.5v-17.96c0-0.65-0.34-1.26-0.89-1.6l-18.5-11.4 c-0.14-0.08-0.28-0.09-0.41-0.04c-0.03,0.01-0.06,0.03-0.08,0.05C272.04,123.62,271.96,123.76,271.96,123.92z"></path> <path class="st0" d="M276.92,166.35v25.36c0,0.68,0.33,1.32,0.9,1.72c0.03,0.01,0.05,0.04,0.08,0.05l8.29,5.11l17.12,10.55 c0.3,0.19,0.64,0.16,0.9-0.01c0.21-0.14,0.38-0.39,0.38-0.69V183.7c0-0.9-0.47-1.73-1.22-2.21l-25.47-15.69 c-0.19-0.11-0.39-0.13-0.57-0.05c-0.04,0.01-0.08,0.04-0.11,0.06C277.03,165.93,276.92,166.12,276.92,166.35z"></path> <linearGradient id="SVGID_16_" gradientUnits="userSpaceOnUse" x1="286.9608" y1="139.7106" x2="310.2554" y2="139.7106"> <stop offset="0" style="stop-color:#8EB5FF"></stop> <stop offset="1" style="stop-color:#3069C9"></stop> </linearGradient> <path class="st22" d="M286.96,124.65v18.99c0,0.51,0.25,0.99,0.67,1.28c0.02,0.01,0.04,0.03,0.06,0.04l6.21,3.83l12.82,7.9 c0.23,0.14,0.48,0.12,0.67-0.01l2.51-1.55c0.23-0.13,0.36-0.38,0.36-0.63v-18.35c0-0.72-0.37-1.39-0.98-1.76l-18.84-11.62 c-0.25-0.15-0.55-0.15-0.79-0.01l-2.39,1.45c-0.03,0.01-0.06,0.03-0.09,0.05C287.05,124.34,286.96,124.48,286.96,124.65z"></path> <path class="st14" d="M286.96,124.65v18.99c0,0.51,0.25,0.99,0.67,1.28c0.02,0.01,0.04,0.03,0.06,0.04l6.21,3.83l12.82,7.9 c0.23,0.14,0.48,0.12,0.67-0.01l2.51-1.55c0.23-0.13,0.36-0.38,0.36-0.63v-18.35c0-0.72-0.37-1.39-0.98-1.76l-18.84-11.62 c-0.25-0.15-0.55-0.15-0.79-0.01l-2.39,1.45c-0.03,0.01-0.06,0.03-0.09,0.05C287.05,124.34,286.96,124.48,286.96,124.65z"></path> <linearGradient id="SVGID_17_" gradientUnits="userSpaceOnUse" x1="286.9608" y1="140.4727" x2="307.6671" y2="140.4727"> <stop offset="0" style="stop-color:#8EB5FF"></stop> <stop offset="1" style="stop-color:#3069C9"></stop> </linearGradient> <path class="st23" d="M286.96,124.65v18.99c0,0.51,0.25,0.99,0.67,1.28c0.02,0.01,0.04,0.03,0.06,0.04l6.21,3.83l12.82,7.9 c0.23,0.14,0.48,0.12,0.67-0.01c0.16-0.1,0.28-0.29,0.28-0.52v-18.51c0-0.67-0.35-1.29-0.92-1.65l-19.07-11.75 c-0.14-0.08-0.29-0.09-0.43-0.04c-0.03,0.01-0.06,0.03-0.09,0.05C287.05,124.34,286.96,124.48,286.96,124.65z"></path> <path class="st4" d="M289.63,137.97c0.18,1,1.02,1.81,1.88,1.81s1.42-0.81,1.25-1.81c-0.18-1-1.02-1.81-1.88-1.81 S289.45,136.97,289.63,137.97z"></path> <g> <g> <g> <linearGradient id="SVGID_18_" gradientUnits="userSpaceOnUse" x1="266.7557" y1="187.7977" x2="290.05" y2="187.7977"> <stop offset="0" style="stop-color:#3069C9"></stop> <stop offset="1" style="stop-color:#262CD4"></stop> </linearGradient> <path class="st24" d="M266.76,172.73v18.99c0,0.51,0.25,0.99,0.67,1.28c0.02,0.01,0.04,0.03,0.06,0.04l6.21,3.83l12.82,7.9 c0.23,0.14,0.48,0.12,0.67-0.01l2.51-1.55c0.23-0.13,0.36-0.38,0.36-0.63v-18.35c0-0.72-0.37-1.39-0.98-1.76l-18.84-11.62 c-0.25-0.15-0.55-0.15-0.79-0.01l-2.39,1.45c-0.03,0.01-0.06,0.03-0.09,0.05C266.84,172.42,266.76,172.56,266.76,172.73z"></path> <linearGradient id="SVGID_19_" gradientUnits="userSpaceOnUse" x1="266.7557" y1="188.5598" x2="287.4617" y2="188.5598"> <stop offset="0" style="stop-color:#8EB5FF"></stop> <stop offset="1" style="stop-color:#3069C9"></stop> </linearGradient> <path class="st25" d="M266.76,172.73v18.99c0,0.51,0.25,0.99,0.67,1.28c0.02,0.01,0.04,0.03,0.06,0.04l6.21,3.83l12.82,7.9 c0.23,0.14,0.48,0.12,0.67-0.01c0.16-0.1,0.28-0.29,0.28-0.52v-18.51c0-0.67-0.35-1.29-0.92-1.65l-19.07-11.75 c-0.14-0.09-0.29-0.09-0.43-0.04c-0.03,0.01-0.06,0.03-0.09,0.05C266.84,172.42,266.76,172.56,266.76,172.73z"></path> </g> </g> <g> <polygon class="st4" points="270.46,180.3 270.46,181.62 276.61,188.84 282.78,189.31 282.78,188 "></polygon> <polygon class="st4" points="276.61,189.6 270.46,182.38 270.46,189.12 282.78,196.82 282.78,190.07 "></polygon> </g> </g> <linearGradient id="SVGID_20_" gradientUnits="userSpaceOnUse" x1="110.1071" y1="81.882" x2="139.8257" y2="81.882"> <stop offset="0" style="stop-color:#3069C9"></stop> <stop offset="1" style="stop-color:#262CD4"></stop> </linearGradient> <path class="st26" d="M110.11,64.41v20.13c0,0.54,0.26,1.05,0.71,1.36c0.02,0.01,0.04,0.03,0.06,0.04l11.6,7.05l13.59,8.37 c0.24,0.15,0.51,0.13,0.71-0.01l2.66-1.64c0.24-0.14,0.38-0.4,0.38-0.67V79.59c0-0.76-0.39-1.47-1.04-1.86l-24.99-15.31 c-0.26-0.16-0.58-0.16-0.84-0.01l-2.53,1.54c-0.03,0.01-0.06,0.03-0.09,0.05C110.2,64.08,110.11,64.23,110.11,64.41z"></path> <linearGradient id="SVGID_21_" gradientUnits="userSpaceOnUse" x1="110.1039" y1="82.6901" x2="137.0778" y2="82.6901"> <stop offset="0" style="stop-color:#8EB5FF"></stop> <stop offset="1" style="stop-color:#3069C9"></stop> </linearGradient> <path class="st27" d="M110.1,64.41v20.13c0,0.54,0.26,1.05,0.71,1.36c0.02,0.01,0.04,0.03,0.06,0.04l25.19,15.42 c0.24,0.15,0.51,0.13,0.71-0.01c0.17-0.11,0.3-0.31,0.3-0.55V81.19c0-0.71-0.37-1.37-0.97-1.75l-25.24-15.45 c-0.15-0.09-0.31-0.1-0.45-0.04c-0.03,0.01-0.06,0.03-0.09,0.05C110.19,64.08,110.1,64.23,110.1,64.41z"></path> <g> <path class="st28" d="M118.17,63.49v3.82c0,0.1,0.05,0.2,0.13,0.26c0,0,0.01,0.01,0.01,0.01l8.16,5.05l2.58,1.59 c0.05,0.03,0.1,0.02,0.13,0l0.51-0.31c0.05-0.03,0.07-0.08,0.07-0.13v-3.69c0-0.14-0.07-0.28-0.2-0.35l-10.69-6.61 c-0.05-0.03-0.11-0.03-0.16,0l-0.48,0.29c-0.01,0-0.01,0.01-0.02,0.01C118.18,63.43,118.17,63.46,118.17,63.49z"></path> <path class="st4" d="M118.17,63.49v3.82c0,0.1,0.05,0.2,0.13,0.26c0,0,0.01,0.01,0.01,0.01l10.73,6.63c0.05,0.03,0.1,0.02,0.13,0 c0.03-0.02,0.06-0.06,0.06-0.1v-3.72c0-0.13-0.07-0.26-0.18-0.33l-10.74-6.64c-0.03-0.02-0.06-0.02-0.09-0.01 c-0.01,0-0.01,0.01-0.02,0.01C118.18,63.43,118.17,63.46,118.17,63.49z"></path> </g> <path class="st28" d="M111.71,60.19c0.01,0,0.01-0.01,0.02-0.01l0.48-0.29c0.05-0.03,0.11-0.03,0.16,0l10.69,6.61 c0.12,0.07,0.2,0.21,0.2,0.35v3.93l-0.52,0.33v-0.16l-0.06,0.04c-0.04,0.03-0.09,0.03-0.13,0l-2.58-1.59l-8.16-5.05 c0,0-0.01-0.01-0.01-0.01c-0.09-0.06-0.13-0.16-0.13-0.26v-3.82C111.67,60.23,111.69,60.2,111.71,60.19z"></path> <linearGradient id="SVGID_22_" gradientUnits="userSpaceOnUse" x1="129.084" y1="73.8892" x2="139.8226" y2="73.8892"> <stop offset="0" style="stop-color:#3069C9"></stop> <stop offset="1" style="stop-color:#262CD4"></stop> </linearGradient> <path class="st29" d="M129.53,68.7l2.62-1.51l0,0c0.2-0.12,0.47-0.14,0.7,0l5.84,3.7c0.71,0.45,1.14,1.23,1.14,2.08v7.72 l-7.99-5.06v-3.98l-0.2,0.38c0,0-0.96,0.28-1.04,0.28c-0.08,0-1.51,0.9-1.51,0.9v-3.49L129.53,68.7z"></path> <linearGradient id="SVGID_23_" gradientUnits="userSpaceOnUse" x1="129.084" y1="75.4607" x2="137.0778" y2="75.4607"> <stop offset="0" style="stop-color:#8EB5FF"></stop> <stop offset="1" style="stop-color:#3069C9"></stop> </linearGradient> <path class="st30" d="M130.1,68.76l5.84,3.7c0.71,0.45,1.14,1.23,1.14,2.08v7.72l-7.99-5.06v-7.88 C129.08,68.8,129.66,68.49,130.1,68.76z"></path> <path class="st4" d="M111.71,60.19c0.01,0,0.01-0.01,0.02-0.01c0.03-0.01,0.06-0.01,0.09,0.01l10.74,6.64 c0.11,0.07,0.18,0.2,0.18,0.33v3.95l-11.07-6.84v-0.65v-3.35C111.67,60.23,111.69,60.2,111.71,60.19z"></path> <g> <linearGradient id="SVGID_24_" gradientUnits="userSpaceOnUse" x1="284.8847" y1="326.2897" x2="330.5586" y2="326.2897"> <stop offset="0" style="stop-color:#9AB5FF"></stop> <stop offset="1" style="stop-color:#4869C6"></stop> </linearGradient> <path class="st31" d="M324.41,313.65l5-1.78c0.75-0.26,1.42,0.54,1.03,1.23l-1.49,2.62c-0.3,0.54-0.74,0.99-1.26,1.31 l-37.11,23.01c-1.54,0.96-3.49,0.96-5.03,0l0,0c-0.89-0.55-0.89-1.85,0-2.4l38.15-23.66 C323.93,313.85,324.17,313.73,324.41,313.65z"></path> <g> <g> <linearGradient id="SVGID_25_" gradientUnits="userSpaceOnUse" x1="325.0046" y1="311.4875" x2="331.5769" y2="311.4875"> <stop offset="0" style="stop-color:#8EB5FF"></stop> <stop offset="1" style="stop-color:#3069C9"></stop> </linearGradient> <path class="st32" d="M325,310.06l0.46,0.85l1.74,3.24l4.33-5.05c0.07-0.08,0.04-0.21-0.05-0.24c-0.04-0.04-0.07-0.05-0.12-0.04 L325,310.06z"></path> <g> <path class="st7" d="M325,310.06l0.46,0.85l1.42-0.07l4.61-1.98c-0.04-0.04-0.07-0.05-0.12-0.04L325,310.06z"></path> </g> </g> <g> <linearGradient id="SVGID_26_" gradientUnits="userSpaceOnUse" x1="285.9206" y1="324.2072" x2="327.6455" y2="324.2072"> <stop offset="0" style="stop-color:#3069C9"></stop> <stop offset="1" style="stop-color:#262CD4"></stop> </linearGradient> <path class="st33" d="M285.92,334.14l0.67,1.19l1.73,3.05l38.32-23.76c0,0,0,0,0,0l0,0c0.11-0.05,0.2-0.11,0.29-0.18 c0.25-0.19,0.44-0.46,0.56-0.77c0.23-0.61,0.2-1.38-0.14-2.1c-0.13-0.27-0.29-0.51-0.48-0.71c0,0,0,0,0,0 c-0.51-0.56-1.19-0.86-1.82-0.79c-0.18,0.02-0.36,0.06-0.52,0.15c-0.03,0.01-0.06,0.03-0.09,0.04l-0.11,0.07 c-0.02,0.01-0.03,0.02-0.04,0.03c-0.01,0.01-0.02,0.02-0.03,0.02L285.92,334.14z"></path> <path class="st9" d="M285.92,334.14l0.67,1.19l1.7-0.51l38.59-23.97c0,0,0,0,0-0.01c0,0,0,0,0,0c-0.51-0.56-1.19-0.86-1.82-0.79 c-0.18,0.02-0.36,0.06-0.52,0.15c-0.03,0.01-0.06,0.03-0.09,0.04l-0.11,0.07c-0.02,0.01-0.03,0.02-0.04,0.03 c-0.01,0.01-0.02,0.02-0.03,0.02L285.92,334.14z"></path> <linearGradient id="SVGID_27_" gradientUnits="userSpaceOnUse" x1="284.9176" y1="336.3503" x2="289.0325" y2="336.3503"> <stop offset="0" style="stop-color:#E6E6E6"></stop> <stop offset="0.16" style="stop-color:#E2E2E2"></stop> <stop offset="0.3" style="stop-color:#D8D8D8"></stop> <stop offset="0.44" style="stop-color:#C6C6C6"></stop> <stop offset="0.51" style="stop-color:#B8B8B8"></stop> <stop offset="0.55" style="stop-color:#CACACA"></stop> <stop offset="0.6" style="stop-color:#DBDBDB"></stop> <stop offset="0.66" style="stop-color:#E6E6E6"></stop> <stop offset="0.75" style="stop-color:#EDEDED"></stop> <stop offset="1" style="stop-color:#EFEFEF"></stop> </linearGradient> <path class="st34" d="M285.21,337.19c0.58,1.22,1.84,1.83,2.82,1.36l0,0c0.11-0.05,0.2-0.11,0.29-0.18 c0.25-0.19,0.44-0.46,0.56-0.77c0.23-0.61,0.2-1.38-0.14-2.1c-0.48-1.01-1.43-1.6-2.3-1.51c-0.18,0.02-0.36,0.06-0.52,0.15 c-0.03,0.01-0.06,0.03-0.09,0.04l-0.11,0.07c-0.01,0.01-0.03,0.02-0.04,0.03C284.9,334.84,284.68,336.08,285.21,337.19z"></path> <linearGradient id="SVGID_28_" gradientUnits="userSpaceOnUse" x1="289.1848" y1="333.122" x2="295.6346" y2="333.122"> <stop offset="0" style="stop-color:#E6E6E6"></stop> <stop offset="0.99" style="stop-color:#FFFFFF"></stop> <stop offset="1" style="stop-color:#FFFFFF"></stop> </linearGradient> <path class="st35" d="M292.44,330.1l-3.25,2.02c0.01-0.01,0.03-0.02,0.04-0.02c0.16-0.07,0.32-0.11,0.49-0.13 c0.65-0.07,1.33,0.24,1.84,0.82c0.19,0.2,0.35,0.43,0.47,0.69c0.34,0.72,0.37,1.49,0.13,2.1c-0.08,0.23-0.22,0.44-0.37,0.61 c-0.05,0.06-0.09,0.1-0.15,0.14l3.11-1.91c0,0,0.13-0.08,0.2-0.13c0.24-0.2,0.44-0.46,0.55-0.77c0.23-0.61,0.21-1.38-0.14-2.1 c-0.12-0.26-0.28-0.51-0.47-0.7c-0.51-0.57-1.19-0.87-1.83-0.81c-0.18,0.02-0.36,0.07-0.52,0.15 C292.49,330.08,292.46,330.09,292.44,330.1z"></path> <path class="st4" d="M289.1,332.18c0.03-0.02,0.05-0.04,0.07-0.05c-0.02,0.01-0.03,0.02-0.04,0.02L289.1,332.18z"></path> <linearGradient id="SVGID_29_" gradientUnits="userSpaceOnUse" x1="285.8859" y1="335.179" x2="292.3329" y2="335.179"> <stop offset="0" style="stop-color:#8EB5FF"></stop> <stop offset="1" style="stop-color:#3069C9"></stop> </linearGradient> <path class="st36" d="M285.89,334.17c0.17-0.08,0.34-0.13,0.52-0.14c0.64-0.07,1.31,0.22,1.82,0.8 c0.19,0.21,0.35,0.44,0.48,0.71c0.35,0.71,0.37,1.48,0.14,2.09c-0.12,0.31-0.31,0.58-0.56,0.78l3.14-1.94 c0,0,0.14-0.07,0.2-0.13c0.06-0.04,0.1-0.08,0.15-0.14c0.18-0.16,0.32-0.38,0.41-0.63c0.23-0.61,0.2-1.38-0.14-2.1 c-0.13-0.26-0.28-0.51-0.46-0.7c-0.52-0.57-1.2-0.87-1.84-0.81c-0.19,0.02-0.37,0.07-0.52,0.15c-0.01,0-0.03,0.01-0.04,0.02 h-0.01c-0.02,0.01-0.03,0.02-0.04,0.02l-0.04,0.03L285.89,334.17z"></path> </g> </g> </g> <path class="st37" d="M295.34,309.64c-0.3,0.67-0.79,1.26-1.49,1.68l-4.95,3.04h-0.02l-0.47,0.27l2.47-2.28h0.02L295.34,309.64z"></path> <g> <linearGradient id="SVGID_30_" gradientUnits="userSpaceOnUse" x1="43.9292" y1="196.3593" x2="120.2938" y2="196.3593"> <stop offset="0" style="stop-color:#9AB5FF"></stop> <stop offset="1" style="stop-color:#4869C6"></stop> </linearGradient> <path class="st38" d="M120.29,193.62c0,0.55-0.27,1.09-0.8,1.41l-40.93,24.98c-0.53,0.34-1.2,0.34-1.72,0l-6.89-4.2l-2.06-1.26 L47,201.81l-1.01-0.63l-1.28-0.78c-0.5-0.29-0.76-0.8-0.78-1.32c-0.04-0.57,0.23-1.16,0.78-1.49l40.81-24.9 c0.53-0.32,1.18-0.32,1.72,0l2.73,1.66l1.01,0.61l20.97,12.69l2.02,1.22l5.53,3.34C120.02,192.53,120.29,193.07,120.29,193.62z"></path> <path class="st39" d="M47.32,193.27L85.46,170c0.49-0.3,1.11-0.3,1.61,0l30.16,18.25c0.99,0.6,0.99,2.04,0.01,2.64l-38.27,23.35 c-0.49,0.3-1.12,0.3-1.61,0l-30.03-18.32C46.33,195.31,46.33,193.88,47.32,193.27z"></path> <path class="st40" d="M115.39,189.27c-0.18,0.09-0.26,0.32-0.31,0.55l-28.03-16.95c-0.49-0.3-1.11-0.3-1.61,0l-36.67,22.38 c-0.96-0.26-2.21-0.58-2.21-0.58v2.95l0.04,0.01c0.05,0.45,0.26,0.89,0.7,1.15l30.03,18.32c0.49,0.3,1.12,0.3,1.61,0l38.27-23.35 c0.39-0.24,0.58-0.61,0.66-1.01h0.08v-3.19C117.97,189.55,115.81,189.06,115.39,189.27z"></path> <path class="st28" d="M117.97,189.56v3.18h-0.08c-0.08,0.39-0.27,0.77-0.67,1L78.96,217.1c-0.49,0.29-1.12,0.29-1.61,0l-6.42-3.93 l-1.96-1.2l-21.65-13.2c-0.43-0.26-0.65-0.71-0.69-1.16h-0.04v-2.95c0,0,1.26,0.31,2.2,0.57l36.67-22.37 c0.49-0.29,1.1-0.29,1.61,0l20.74,12.55l1.89,1.14l5.38,3.26c0.06-0.24,0.14-0.47,0.31-0.55 C115.81,189.05,117.97,189.56,117.97,189.56z"></path> <linearGradient id="SVGID_31_" gradientUnits="userSpaceOnUse" x1="46.5812" y1="192.1235" x2="117.9697" y2="192.1235"> <stop offset="0" style="stop-color:#9AB5FF"></stop> <stop offset="1" style="stop-color:#4869C6"></stop> </linearGradient> <path class="st41" d="M117.97,189.56c0,0.51-0.26,1.02-0.75,1.32l-38.27,23.36c-0.49,0.31-1.12,0.31-1.61,0l-6.44-3.93l-1.93-1.18 l-19.53-11.9l-0.94-0.59l-1.2-0.73c-0.47-0.28-0.71-0.75-0.73-1.24c-0.04-0.53,0.22-1.08,0.73-1.39L85.46,170 c0.49-0.29,1.1-0.29,1.61,0l2.55,1.55l0.94,0.57l19.6,11.86l1.89,1.14l5.17,3.12C117.71,188.54,117.97,189.05,117.97,189.56z"></path> <g> <linearGradient id="SVGID_32_" gradientUnits="userSpaceOnUse" x1="68.9395" y1="198.5788" x2="112.057" y2="198.5788"> <stop offset="0" style="stop-color:#4869C6"></stop> <stop offset="1" style="stop-color:#2C30D0"></stop> </linearGradient> <polygon class="st42" points="70.9,210.25 70.9,210.31 70.92,213.17 68.96,211.98 68.94,209.15 68.98,209.13 107.81,185.42 110.17,183.98 112.06,185.12 109.7,186.56 "></polygon> </g> <linearGradient id="SVGID_33_" gradientUnits="userSpaceOnUse" x1="81.1974" y1="182.4232" x2="99.799" y2="182.4232"> <stop offset="0" style="stop-color:#E6E6E6"></stop> <stop offset="0.99" style="stop-color:#FFFFFF"></stop> <stop offset="1" style="stop-color:#FFFFFF"></stop> </linearGradient> <polygon class="st43" points="87.36,176.76 81.2,180.52 93.62,188.08 99.8,184.31 "></polygon> </g> <linearGradient id="SVGID_34_" gradientUnits="userSpaceOnUse" x1="210.6706" y1="300.4853" x2="317.5541" y2="300.4853"> <stop offset="0" style="stop-color:#9AB5FF"></stop> <stop offset="1" style="stop-color:#4869C6"></stop> </linearGradient> <path class="st44" d="M315.7,306.96l-4.95,3.05h-0.02l-37.5,22.88c-0.54,0.32-1.1,0.57-1.69,0.75c-2.13,0.69-4.49,0.44-6.43-0.75 l-52.59-32.1c-1.6-0.98-2.17-2.82-1.69-4.41c0.24-0.86,0.8-1.65,1.69-2.19l36.28-22.16l6.78-4.13c2.13-1.28,4.81-1.28,6.96,0 l53.22,32.5C318.18,301.91,318.15,305.45,315.7,306.96z"></path> <linearGradient id="SVGID_35_" gradientUnits="userSpaceOnUse" x1="211.0523" y1="295.8849" x2="317.9025" y2="295.8849"> <stop offset="0" style="stop-color:#3069C9"></stop> <stop offset="1" style="stop-color:#262CD4"></stop> </linearGradient> <path class="st45" d="M317.53,300.71v0.02c-0.13,0.24-0.28,0.5-0.45,0.72c-0.04,0.08-0.1,0.15-0.18,0.22 c-0.22,0.25-0.52,0.5-0.84,0.69l-4.93,3.02l-0.04,0.02l-37.5,22.89c-0.52,0.32-1.09,0.57-1.65,0.75v0.02h-0.02 c-0.53,0.14-1.05,0.26-1.57,0.32h-0.12c-0.52,0.04-1.01,0.04-1.53,0h-0.08c-0.5-0.08-1.01-0.18-1.49-0.34 c-0.1-0.03-0.18-0.06-0.28-0.08c-0.46-0.18-0.94-0.4-1.38-0.67l-52.59-32.1c-0.37-0.22-0.67-0.5-0.93-0.79 c-0.07-0.1-0.14-0.2-0.19-0.28c-0.18-0.24-0.3-0.46-0.43-0.74c-0.04-0.1-0.1-0.22-0.12-0.32c-0.1-0.3-0.14-0.6-0.18-0.89v-1.39 h0.01v-2.16l1.7,0.06c0.04-0.02,0.08-0.07,0.13-0.09l36.28-22.16l4.06-2.47l0.2-0.1l2.52-1.57c2.13-1.29,4.81-1.29,6.96,0l14.9,9.1 l2.37-1.46c0.83-0.5,1.81-0.5,2.62,0l18.51,11.3l1.52,0.93c0.42,0.24,0.64,0.63,0.69,1.04v0.35c-0.05,0.43-0.3,0.83-0.72,1.09 l-1.66,1.01l2.38,1.46l9.13,5.57l3.47,2.11C317.85,296.9,318.32,299.03,317.53,300.71z"></path> <path class="st9" d="M271.94,326.35v2.72h-0.02c-0.53,0.14-1.05,0.26-1.57,0.32h-0.12c-0.52,0.04-1.01,0.04-1.53,0h-0.08 c-0.5-0.08-1.01-0.18-1.49-0.34c-0.1-0.03-0.18-0.06-0.28-0.08c-0.46-0.18-0.94-0.4-1.38-0.67l-52.59-32.1 c-0.37-0.22-0.67-0.5-0.93-0.79c-0.07-0.1-0.14-0.2-0.19-0.28c-0.18-0.24-0.3-0.46-0.43-0.74c-0.04-0.1-0.1-0.22-0.12-0.32 c-0.1-0.3-0.14-0.6-0.18-0.89v-1.39h0.01v-1.57l0.78,0.25L271.94,326.35z"></path> <path class="st9" d="M317.91,296.04l-2.27-0.52l-2.98-1.81l-0.19,1.08l-10.11-2.32L281,291.81c-0.01,1.66-0.02,3.31-0.03,4.97 l30.84,1.79l-0.72,4.14v2.7l0.05-0.02l4.93-3.02c0.32-0.2,0.62-0.45,0.84-0.69c0.07-0.07,0.12-0.15,0.17-0.22 c0.17-0.22,0.32-0.47,0.45-0.72v-0.02c0.27-0.56,0.38-1.18,0.36-1.78l0.02,0V296.04z"></path> <linearGradient id="SVGID_36_" gradientUnits="userSpaceOnUse" x1="277.643" y1="275.9872" x2="303.5092" y2="275.9872"> <stop offset="0" style="stop-color:#8EB5FF"></stop> <stop offset="1" style="stop-color:#3069C9"></stop> </linearGradient> <path class="st46" d="M302.81,282.94l-1.86,1.15h-0.01l-23.3-14.28l2.55-1.56c0.8-0.48,1.81-0.48,2.62,0l20.02,12.23 C303.74,281.04,303.73,282.37,302.81,282.94z"></path> <linearGradient id="SVGID_37_" gradientUnits="userSpaceOnUse" x1="211.0395" y1="293.192" x2="317.923" y2="293.192"> <stop offset="0" style="stop-color:#E6E6E6"></stop> <stop offset="0.99" style="stop-color:#FFFFFF"></stop> <stop offset="1" style="stop-color:#FFFFFF"></stop> </linearGradient> <path class="st47" d="M316.07,299.66l-4.95,3.05h-0.02l-37.5,22.88c-0.54,0.32-1.1,0.57-1.69,0.75c-2.13,0.69-4.49,0.44-6.43-0.75 l-52.59-32.1c-1.6-0.98-2.17-2.82-1.69-4.41c0.24-0.86,0.8-1.65,1.69-2.19l36.28-22.16l6.78-4.13c2.13-1.28,4.81-1.28,6.96,0 l53.22,32.5C318.55,294.62,318.52,298.15,316.07,299.66z"></path> <linearGradient id="SVGID_38_" gradientUnits="userSpaceOnUse" x1="211.0269" y1="307.9338" x2="271.9102" y2="307.9338"> <stop offset="0" style="stop-color:#4869C6"></stop> <stop offset="1" style="stop-color:#1E3558"></stop> </linearGradient> <path class="st48" d="M271.91,326.35c-2.13,0.69-4.56,0.57-6.5-0.62l-52.6-32.19c-1.6-0.98-2.08-2.86-1.6-4.45 c1.61,1.09,3.03,2.02,3.68,2.43l52.6,32.11C268.35,324.15,269.99,325.23,271.91,326.35z"></path> <linearGradient id="SVGID_39_" gradientUnits="userSpaceOnUse" x1="249.1711" y1="281.1805" x2="317.9223" y2="281.1805"> <stop offset="0" style="stop-color:#4869C6"></stop> <stop offset="1" style="stop-color:#1E3558"></stop> </linearGradient> <path class="st49" d="M316.07,299.67l-4.95,3.04h-0.02l-61.92-37.97l4.06-2.47l1.19-0.72l1.53-0.94c2.13-1.29,4.8-1.29,6.95,0 l53.21,32.5C318.54,294.62,318.52,298.16,316.07,299.67z"></path> <g> <circle class="st50" cx="252.03" cy="271.46" r="0.29"></circle> <path class="st50" d="M297.16,298.84c0,0.16-0.13,0.29-0.29,0.29c-0.16,0-0.29-0.13-0.29-0.29c0-0.16,0.13-0.29,0.29-0.29 C297.03,298.56,297.16,298.68,297.16,298.84z"></path> </g> <g> <path class="st50" d="M224.33,288.58c0,0.16-0.13,0.29-0.29,0.29c-0.16,0-0.29-0.13-0.29-0.29c0-0.16,0.13-0.29,0.29-0.29 C224.2,288.29,224.33,288.42,224.33,288.58z"></path> <circle class="st50" cx="268.88" cy="315.96" r="0.29"></circle> </g> <g> <g> <polygon class="st15" points="260.8,265.53 260.05,265.99 253.63,262.06 254.38,261.6 "></polygon> </g> <g> <linearGradient id="SVGID_40_" gradientUnits="userSpaceOnUse" x1="257.3918" y1="264.9493" x2="260.7935" y2="264.9493"> <stop offset="0" style="stop-color:#E6E6E6"></stop> <stop offset="0.99" style="stop-color:#FFFFFF"></stop> <stop offset="1" style="stop-color:#FFFFFF"></stop> </linearGradient> <polygon class="st51" points="260.79,265.52 260.04,266 257.39,264.37 258.15,263.9 "></polygon> </g> </g> <path class="st52" d="M149.22,186.57L84.5,224.16c-1.94,1.13-1.94,2.96,0,4.09l102.78,59.34c2.22,1.13,4.84,1.13,7.05,0l64.7-37.59 L149.22,186.57z"></path> <g> <path class="st53" d="M255.76,169.05c2.09,1.35,3.4,3.63,3.53,6.12L259.07,250l-109.85-63.43l0.21-74.83 c0-2.25,1.6-3.15,3.55-2.02L255.76,169.05z M204.36,141.35c-0.55-0.32-1-0.06-1,0.57c0.04,0.7,0.41,1.35,1,1.73 c0.55,0.32,1,0.06,1-0.57C205.32,142.38,204.95,141.74,204.36,141.35z"></path> <linearGradient id="SVGID_41_" gradientUnits="userSpaceOnUse" x1="185.7832" y1="187.4642" x2="238.2215" y2="288.1008" gradientTransform="matrix(1 0 0 -1 0 402)"> <stop offset="0" style="stop-color:#4869C6"></stop> <stop offset="1" style="stop-color:#2C30D0"></stop> </linearGradient> <polygon class="st54" points="153.44,115.9 153.44,182.91 255.32,241.8 255.32,174.67 "></polygon> <path class="st52" d="M257.89,167.81l-102.78-59.34c-0.73-0.53-1.7-0.63-2.52-0.25l-2.13,1.22c0.82-0.38,1.79-0.29,2.52,0.25 l102.78,59.36c2.09,1.35,3.4,3.63,3.53,6.12L259.08,250l2.13-1.24l0.21-74.83C261.3,171.44,259.98,169.16,257.89,167.81z"></path> </g> <path class="st55" d="M194.38,287.59c-2.22,1.13-4.84,1.13-7.05,0l0,0L84.54,228.26c-0.83-0.37-1.39-1.16-1.47-2.06v2.46 c0.08,0.9,0.64,1.69,1.47,2.06l102.77,59.33l0,0c2.22,1.13,4.84,1.13,7.05,0l64.7-37.59v-2.46L194.38,287.59z"></path> <path class="st53" d="M157.03,196.26l-5.09,2.95l-6.43-3.71l5.12-2.97L157.03,196.26z M158.05,196.85l-5.12,2.97l6.44,3.72 l5.12-2.97L158.05,196.85z M141.71,197.71l-5.12,2.97l6.43,3.71l5.12-2.97L141.71,197.71z M165.51,201.16l-5.12,2.97l6.43,3.71 l5.12-2.97L165.51,201.16z M129.45,204.78l-5.12,2.98l6.43,3.71l5.12-2.98L129.45,204.78z M143.06,205.51l-5.12,2.98l6.44,3.72 l5.12-2.98L143.06,205.51z M156.66,206.25l-5.12,2.97l6.43,3.71l5.12-2.97L156.66,206.25z M164.12,210.55l-5.12,2.97l6.44,3.72 l5.12-2.97L164.12,210.55z M187.91,214l-5.12,2.97l6.44,3.72l5.12-2.97L187.91,214z M157.98,214.12l-5.12,2.98l6.44,3.72l5.12-2.98 L157.98,214.12z M151.83,217.7l-5.12,2.98l6.44,3.72l5.12-2.98L151.83,217.7z M195.37,218.31l-5.12,2.97l6.44,3.72l5.12-2.97 L195.37,218.31z M179.03,219.16l-5.12,2.97l6.44,3.72l5.12-2.97L179.03,219.16z M159.29,222l-5.12,2.98l6.44,3.72l5.12-2.98 L159.29,222z M202.83,222.61l-5.12,2.97l6.43,3.71l5.12-2.97L202.83,222.61z M172.86,222.77l-5.12,2.98l6.44,3.72l5.12-2.98 L172.86,222.77z M186.47,223.5l-5.12,2.97l6.44,3.72l5.12-2.97L186.47,223.5z M153.13,225.61l-5.12,2.97l6.44,3.72l5.12-2.97 L153.13,225.61z M166.74,226.34l-5.12,2.98l6.44,3.72l5.12-2.98L166.74,226.34z M210.28,226.95l-5.12,2.97l6.44,3.72l5.12-2.97 L210.28,226.95z M180.34,227.08l-5.12,2.98l6.44,3.72l5.12-2.98L180.34,227.08z M193.95,227.81l-5.12,2.97l6.43,3.71l5.12-2.97 L193.95,227.81z M174.19,230.65l-5.12,2.98l6.44,3.72l5.12-2.98L174.19,230.65z M217.73,231.26l-5.12,2.97l6.43,3.71l5.12-2.97 L217.73,231.26z M187.8,231.39l-5.12,2.98l6.43,3.71l5.12-2.98L187.8,231.39z M201.39,232.12l-5.12,2.97l6.44,3.72l5.12-2.97 L201.39,232.12z M154.4,233.46l-5.12,2.97l6.44,3.72l5.12-2.97L154.4,233.46z M181.61,234.93l-5.12,2.98l6.43,3.71l5.12-2.98 L181.61,234.93z M225.14,235.54l-5.12,2.97l6.44,3.72l5.12-2.97L225.14,235.54z M195.21,235.67l-5.12,2.98l6.44,3.72l5.12-2.98 L195.21,235.67z M189.06,239.24l-5.12,2.98l6.44,3.72l5.12-2.98L189.06,239.24z M232.6,239.85l-5.12,2.97l6.43,3.71l5.12-2.97 L232.6,239.85z M216.27,240.73l-5.12,2.97l6.44,3.72l5.12-2.97L216.27,240.73z M175.47,238.53l-5.12,2.97l13.89,8.02l5.12-2.97 L175.47,238.53z M240.07,244.17l-5.12,2.97l6.44,3.72l5.12-2.97L240.07,244.17z M210.13,244.29l-5.12,2.98l6.44,3.72l5.12-2.98 L210.13,244.29z M223.73,245.03l-5.12,2.97l6.43,3.71l5.12-2.97L223.73,245.03z M161.87,237.79l-5.12,2.97l21.35,12.32l5.12-2.97 L161.87,237.79z M203.99,247.87l-5.12,2.98l6.44,3.72l5.12-2.98L203.99,247.87z M217.59,248.6l-5.12,2.98l6.43,3.71l5.12-2.98 L217.59,248.6z M231.19,249.34l-5.12,2.97l6.44,3.72l5.12-2.97L231.19,249.34z M170.64,249.98l-5.12,2.97l6.44,3.72l5.12-2.97 L170.64,249.98z M197.84,251.45l-5.12,2.97l6.44,3.72l5.12-2.97L197.84,251.45z M211.45,252.18l-5.12,2.98l6.43,3.71l5.12-2.98 L211.45,252.18z M225.05,252.91l-5.12,2.98l6.44,3.72l5.12-2.98L225.05,252.91z M191.72,255.02l-5.12,2.97l6.44,3.72l5.12-2.97 L191.72,255.02z M205.32,255.76l-5.12,2.97l6.43,3.71l5.12-2.97L205.32,255.76z M218.93,256.49l-5.12,2.98l6.44,3.72l5.12-2.98 L218.93,256.49z M185.6,258.59l-5.12,2.97l6.44,3.72l5.12-2.97L185.6,258.59z M199.2,259.33l-5.12,2.97l6.43,3.71l5.12-2.97 L199.2,259.33z M212.8,260.06l-5.12,2.97l6.44,3.72l5.12-2.97L212.8,260.06z M193.02,262.92l-5.12,2.97l6.43,3.71l5.12-2.97 L193.02,262.92z M206.62,263.65l-5.12,2.97l6.44,3.72l5.12-2.97L206.62,263.65z M200.47,267.22l-5.12,2.97l6.44,3.72l5.12-2.97 L200.47,267.22z M135.58,201.27l-5.12,2.98l6.43,3.71l5.12-2.98L135.58,201.27z M149.18,202.01l-5.12,2.97l6.44,3.72l5.12-2.97 L149.18,202.01z M172.98,205.46l-5.12,2.97l6.44,3.72l5.12-2.97L172.98,205.46z M136.89,209.16l-5.12,2.98l6.44,3.72l5.12-2.98 L136.89,209.16z M180.43,209.77l-5.12,2.97l6.44,3.72l5.12-2.97L180.43,209.77z M150.5,209.89l-5.12,2.98l6.43,3.71l5.12-2.98 L150.5,209.89z M117.17,212l-5.12,2.97l6.43,3.71l5.12-2.97L117.17,212z M123.31,208.43l-5.12,2.97l13.89,8.02l5.12-2.97 L123.31,208.43z M144.38,213.47l-5.12,2.98l6.43,3.71l5.12-2.98L144.38,213.47z M171.53,214.86l-5.12,2.97l6.44,3.72l5.12-2.97 L171.53,214.86z M110.97,215.5l-5.12,2.97l6.43,3.71l5.12-2.97L110.97,215.5z M124.58,216.23l-5.12,2.97l6.44,3.72l5.12-2.97 L124.58,216.23z M138.18,216.97l-5.12,2.97l6.43,3.71l5.12-2.97L138.18,216.97z M165.39,218.43l-5.12,2.98l6.44,3.72l5.12-2.98 L165.39,218.43z M118.43,219.81l-5.12,2.97l6.44,3.72l5.12-2.97L118.43,219.81z M132.03,220.54l-5.12,2.97l6.41,3.75l5.12-2.97 L132.03,220.54z M145.64,221.27l-5.12,2.97l6.44,3.72l5.12-2.97L145.64,221.27z M139.49,224.85l-5.12,2.97l6.44,3.72l5.12-2.97 L139.49,224.85z M146.95,229.15l-5.12,2.97l6.44,3.72l5.12-2.97L146.95,229.15z M160.55,229.88l-5.12,2.97l6.44,3.72l5.12-2.97 L160.55,229.88z M168.01,234.18l-5.12,2.97l6.44,3.72l5.12-2.97L168.01,234.18z M125.89,224.16l-5.12,2.97l36.26,20.93l5.12-2.97 L125.89,224.16z M163.17,245.69l-5.12,2.97l6.43,3.71l5.12-2.97L163.17,245.69z M142.93,242.27l-13.84,8.04l17.4,10.08l13.84-8.04 L142.93,242.27z"></path> <linearGradient id="SVGID_42_" gradientUnits="userSpaceOnUse" x1="92.6774" y1="132.8526" x2="127.2356" y2="132.8526"> <stop offset="0" style="stop-color:#2484C6"></stop> <stop offset="1" style="stop-color:#2484C6"></stop> </linearGradient> <path class="st56" d="M92.68,110.51v28.17c0,0.76,0.36,1.47,0.99,1.91c0.03,0.01,0.06,0.04,0.08,0.06l9.21,5.68l19.02,11.72 c0.34,0.21,0.71,0.18,0.99-0.01l3.73-2.3c0.34-0.2,0.53-0.56,0.53-0.94v-27.23c0-1.07-0.55-2.06-1.46-2.61L97.83,107.7 c-0.36-0.22-0.81-0.22-1.18-0.01l-3.55,2.16c-0.04,0.01-0.08,0.04-0.13,0.07C92.8,110.04,92.68,110.25,92.68,110.51z"></path> <path class="st14" d="M92.68,110.51v28.17c0,0.76,0.36,1.47,0.99,1.91c0.03,0.01,0.06,0.04,0.08,0.06l9.21,5.68l19.02,11.72 c0.34,0.21,0.71,0.18,0.99-0.01l3.73-2.3c0.34-0.2,0.53-0.56,0.53-0.94v-27.23c0-1.07-0.55-2.06-1.46-2.61L97.83,107.7 c-0.36-0.22-0.81-0.22-1.18-0.01l-3.55,2.16c-0.04,0.01-0.08,0.04-0.13,0.07C92.8,110.04,92.68,110.25,92.68,110.51z"></path> <linearGradient id="SVGID_43_" gradientUnits="userSpaceOnUse" x1="92.6774" y1="133.9831" x2="123.3957" y2="133.9831"> <stop offset="0" style="stop-color:#2484C6"></stop> <stop offset="1" style="stop-color:#2484C6"></stop> </linearGradient> <path class="st57" d="M92.68,110.51v28.17c0,0.76,0.36,1.47,0.99,1.91c0.03,0.01,0.06,0.04,0.08,0.06l9.21,5.68l19.02,11.72 c0.34,0.21,0.71,0.18,0.99-0.01c0.24-0.15,0.42-0.43,0.42-0.77v-27.45c0-1-0.52-1.92-1.36-2.45L93.74,109.9 c-0.21-0.13-0.43-0.14-0.63-0.06c-0.04,0.01-0.08,0.04-0.13,0.07C92.8,110.04,92.68,110.25,92.68,110.51z"></path> <linearGradient id="SVGID_44_" gradientUnits="userSpaceOnUse" x1="94.8885" y1="134.0745" x2="121.1916" y2="134.0745"> <stop offset="0" style="stop-color:#4869C6"></stop> <stop offset="1" style="stop-color:#2C30D0"></stop> </linearGradient> <path class="st58" d="M94.97,138.79l-0.05-0.04l-0.04-23.89c0-0.73,0.8-1.18,1.42-0.79l24.57,15.14c0.18,0.12,0.31,0.34,0.31,0.58 v23.49c0,0.73-0.8,1.18-1.42,0.79L94.97,138.79z"></path> <g> <path class="st4" d="M164.74,141.54c2.13,0.94,4.92,2.34,8.45,4.51c4.35,2.66,7.5,5.63,9.48,8.71c1.83,2.78,2.88,5.96,2.81,9.02 c-0.07,3.11-1.04,5-2.8,5.73c-2.38,1.07-6.2,0.02-10.49-2.61c-1.32-0.81-2.53-1.6-3.53-2.47l-0.33,13.76l-4.4-2.69L164.74,141.54z M168.75,160.8c0.95,0.84,2.16,1.69,3.63,2.59c5.3,3.25,8.6,2.63,8.71-2.11c0.11-4.54-3.03-8.68-7.88-11.65 c-1.92-1.18-3.39-1.92-4.15-2.18L168.75,160.8z"></path> <path class="st4" d="M191.26,155.52l4.45,2.73l-0.36,15.4l0.1,0.06c0.74-0.84,1.88-1.28,3.26-1.21c1.33,0.04,2.91,0.49,4.58,1.51 c3.28,2.02,8.49,7.28,8.29,15.79l-0.35,14.68l-4.45-2.72l0.33-14.17c0.1-3.98-1.29-8.24-5.49-10.81c-2.88-1.77-5.2-1.12-6.07,0.83 c-0.26,0.46-0.33,1.09-0.35,1.96l-0.35,14.89l-4.45-2.73L191.26,155.52z"></path> <path class="st4" d="M219.39,175.04c2.13,0.94,4.92,2.34,8.46,4.51c4.35,2.67,7.5,5.63,9.48,8.71c1.83,2.78,2.88,5.96,2.81,9.02 c-0.07,3.11-1.04,5-2.8,5.73c-2.39,1.07-6.2,0.02-10.5-2.61c-1.32-0.81-2.53-1.6-3.53-2.47l-0.33,13.77l-4.4-2.7L219.39,175.04z M223.4,194.3c0.95,0.84,2.16,1.69,3.63,2.58c5.3,3.25,8.6,2.63,8.71-2.11c0.11-4.54-3.03-8.68-7.87-11.65 c-1.92-1.18-3.39-1.92-4.15-2.18L223.4,194.3z"></path> </g> <g> <g> <path class="st4" d="M112.05,138.94c0.09,0.05,0.16,0.18,0.16,0.28c0,0.1-0.07,0.15-0.16,0.09l-1.5-0.87 c-0.09-0.05-0.16-0.18-0.16-0.28c0-0.1,0.07-0.15,0.16-0.09L112.05,138.94z"></path> </g> <g> <g> <path class="st4" d="M106.26,137.2c0.09,0.05,0.16,0.18,0.16,0.28c0,0.1-0.07,0.15-0.16,0.09l-1.6-0.92 c-0.09-0.05-0.16-0.18-0.16-0.28c0-0.1,0.07-0.15,0.16-0.09L106.26,137.2z"></path> </g> <g> <g> <path class="st4" d="M103.97,130.63c0.09,0.05,0.16,0.18,0.16,0.28c0,0.1-0.07,0.15-0.16,0.09l-4-2.31 c-0.09-0.05-0.16-0.18-0.16-0.28c0-0.1,0.07-0.15,0.16-0.09L103.97,130.63z"></path> <g class="st59"> <defs> <path id="SVGID_45_" class="st59" d="M103.97,130.63c0.09,0.05,0.16,0.18,0.16,0.28c0,0.1-0.07,0.15-0.16,0.09l-4-2.31 c-0.09-0.05-0.16-0.18-0.16-0.28c0-0.1,0.07-0.15,0.16-0.09L103.97,130.63z"></path> </defs> <use xlink:href="#SVGID_45_" style="overflow:visible;fill:#FFFFFF;"></use> <clipPath id="SVGID_46_"> <use xlink:href="#SVGID_45_" style="overflow:visible;"></use> </clipPath> <g class="st60"> <g> <defs> <polyline id="SVGID_47_" points="104.13,130.95 104.12,130.98 104.1,131 104.08,131.02 104.06,131.03 104.03,131.03 104,131.02 103.97,131.01 99.97,128.69 99.93,128.67 99.9,128.64 99.87,128.61 99.85,128.57 99.83,128.53 99.81,128.49 99.81,128.45 99.8,128.41 99.81,128.38 99.82,128.35 99.83,128.32 99.85,128.31 99.87,128.3 99.9,128.3 99.93,128.3 99.97,128.32 103.97,130.63 104,130.65 104.03,130.68 104.06,130.72 104.09,130.75 104.11,130.79 104.12,130.83 104.13,130.87 104.13,130.91 104.13,130.95 "></polyline> </defs> <use xlink:href="#SVGID_47_" style="overflow:visible;fill:#FFFFFF;"></use> <clipPath id="SVGID_48_"> <use xlink:href="#SVGID_47_" style="overflow:visible;"></use> </clipPath> </g> </g> </g> </g> <g> <path class="st4" d="M103.96,135.07c0.09,0.05,0.16,0.18,0.16,0.28c0,0.1-0.07,0.15-0.16,0.09l-2.94-1.7 c-0.09-0.05-0.16-0.18-0.16-0.28c0-0.1,0.07-0.15,0.16-0.09L103.96,135.07z"></path> <g class="st59"> <defs> <path id="SVGID_49_" class="st59" d="M103.96,135.07c0.09,0.05,0.16,0.18,0.16,0.28c0,0.1-0.07,0.15-0.16,0.09l-2.94-1.7 c-0.09-0.05-0.16-0.18-0.16-0.28c0-0.1,0.07-0.15,0.16-0.09L103.96,135.07z"></path> </defs> <use xlink:href="#SVGID_49_" style="overflow:visible;fill:#FFFFFF;"></use> <clipPath id="SVGID_50_"> <use xlink:href="#SVGID_49_" style="overflow:visible;"></use> </clipPath> <g class="st61"> <g> <defs> <polyline id="SVGID_51_" points="104.12,135.39 104.11,135.42 104.09,135.44 104.07,135.46 104.05,135.47 104.02,135.47 103.99,135.46 103.96,135.44 101.02,133.75 100.98,133.72 100.95,133.69 100.92,133.66 100.9,133.62 100.88,133.59 100.86,133.55 100.86,133.5 100.85,133.46 100.86,133.43 100.87,133.4 100.88,133.38 100.9,133.36 100.92,133.35 100.95,133.35 100.98,133.36 101.02,133.37 103.96,135.07 103.99,135.09 104.02,135.12 104.05,135.15 104.07,135.19 104.09,135.23 104.11,135.27 104.12,135.31 104.12,135.35 104.12,135.39 "></polyline> </defs> <use xlink:href="#SVGID_51_" style="overflow:visible;fill:#FFFFFF;"></use> <clipPath id="SVGID_52_"> <use xlink:href="#SVGID_51_" style="overflow:visible;"></use> </clipPath> </g> </g> </g> </g> <g> <path class="st4" d="M103.95,136.68c0.09,0.05,0.16,0.18,0.16,0.28c0,0.1-0.07,0.15-0.16,0.09l-2.94-1.7 c-0.09-0.05-0.16-0.18-0.16-0.28c0-0.1,0.07-0.15,0.16-0.09L103.95,136.68z"></path> <g class="st59"> <defs> <path id="SVGID_53_" class="st59" d="M103.95,136.68c0.09,0.05,0.16,0.18,0.16,0.28c0,0.1-0.07,0.15-0.16,0.09l-2.94-1.7 c-0.09-0.05-0.16-0.18-0.16-0.28c0-0.1,0.07-0.15,0.16-0.09L103.95,136.68z"></path> </defs> <use xlink:href="#SVGID_53_" style="overflow:visible;fill:#FFFFFF;"></use> <clipPath id="SVGID_54_"> <use xlink:href="#SVGID_53_" style="overflow:visible;"></use> </clipPath> <g class="st62"> <g> <defs> <polyline id="SVGID_55_" points="104.11,136.99 104.1,137.02 104.09,137.05 104.07,137.06 104.04,137.07 104.02,137.07 103.99,137.07 103.95,137.05 101.01,135.35 100.98,135.33 100.95,135.3 100.92,135.27 100.9,135.23 100.88,135.19 100.86,135.15 100.85,135.11 100.85,135.07 100.85,135.03 100.86,135 100.88,134.98 100.9,134.96 100.92,134.96 100.95,134.95 100.98,134.96 101.01,134.98 103.95,136.68 103.99,136.7 104.02,136.73 104.04,136.76 104.07,136.8 104.09,136.84 104.1,136.88 104.11,136.92 104.12,136.96 104.11,136.99 "></polyline> </defs> <use xlink:href="#SVGID_55_" style="overflow:visible;fill:#FFFFFF;"></use> <clipPath id="SVGID_56_"> <use xlink:href="#SVGID_55_" style="overflow:visible;"></use> </clipPath> </g> </g> </g> </g> <g> <path class="st4" d="M103.96,135.87c0.09,0.05,0.16,0.18,0.16,0.28c0,0.1-0.07,0.15-0.16,0.09l-2.94-1.7 c-0.09-0.05-0.16-0.18-0.16-0.28c0-0.1,0.07-0.15,0.16-0.09L103.96,135.87z"></path> <g class="st59"> <defs> <path id="SVGID_57_" class="st59" d="M103.96,135.87c0.09,0.05,0.16,0.18,0.16,0.28c0,0.1-0.07,0.15-0.16,0.09l-2.94-1.7 c-0.09-0.05-0.16-0.18-0.16-0.28c0-0.1,0.07-0.15,0.16-0.09L103.96,135.87z"></path> </defs> <use xlink:href="#SVGID_57_" style="overflow:visible;fill:#FFFFFF;"></use> <clipPath id="SVGID_58_"> <use xlink:href="#SVGID_57_" style="overflow:visible;"></use> </clipPath> <g class="st63"> <g> <defs> <polyline id="SVGID_59_" points="104.11,136.19 104.11,136.22 104.09,136.24 104.07,136.26 104.05,136.27 104.02,136.27 103.99,136.26 103.95,136.25 101.01,134.55 100.98,134.53 100.95,134.5 100.92,134.46 100.9,134.43 100.88,134.39 100.86,134.35 100.85,134.31 100.85,134.27 100.85,134.23 100.86,134.2 100.88,134.18 100.9,134.16 100.92,134.15 100.95,134.15 100.98,134.16 101.01,134.17 103.96,135.87 103.99,135.89 104.02,135.92 104.05,135.96 104.07,135.99 104.09,136.03 104.11,136.07 104.12,136.11 104.12,136.15 104.11,136.19 "></polyline> </defs> <use xlink:href="#SVGID_59_" style="overflow:visible;fill:#FFFFFF;"></use> <clipPath id="SVGID_60_"> <use xlink:href="#SVGID_59_" style="overflow:visible;"></use> </clipPath> </g> </g> </g> </g> <g> <path class="st4" d="M103.96,134.27c0.09,0.05,0.16,0.18,0.16,0.28c0,0.1-0.07,0.15-0.16,0.09l-2.94-1.7 c-0.09-0.05-0.16-0.18-0.16-0.28c0-0.1,0.07-0.15,0.16-0.09L103.96,134.27z"></path> <g class="st59"> <defs> <path id="SVGID_61_" class="st59" d="M103.96,134.27c0.09,0.05,0.16,0.18,0.16,0.28c0,0.1-0.07,0.15-0.16,0.09l-2.94-1.7 c-0.09-0.05-0.16-0.18-0.16-0.28c0-0.1,0.07-0.15,0.16-0.09L103.96,134.27z"></path> </defs> <use xlink:href="#SVGID_61_" style="overflow:visible;fill:#FFFFFF;"></use> <clipPath id="SVGID_62_"> <use xlink:href="#SVGID_61_" style="overflow:visible;"></use> </clipPath> <g class="st64"> <g> <defs> <polyline id="SVGID_63_" points="104.12,134.58 104.11,134.61 104.09,134.64 104.07,134.65 104.05,134.66 104.02,134.66 103.99,134.66 103.96,134.64 101.02,132.94 100.98,132.92 100.95,132.89 100.93,132.86 100.9,132.82 100.88,132.78 100.87,132.74 100.86,132.7 100.85,132.66 100.86,132.63 100.87,132.6 100.88,132.57 100.9,132.56 100.93,132.55 100.95,132.55 100.99,132.55 101.02,132.57 103.96,134.27 103.99,134.29 104.02,134.32 104.05,134.35 104.08,134.39 104.1,134.43 104.11,134.47 104.12,134.51 104.12,134.55 104.12,134.58 "></polyline> </defs> <use xlink:href="#SVGID_63_" style="overflow:visible;fill:#FFFFFF;"></use> <clipPath id="SVGID_64_"> <use xlink:href="#SVGID_63_" style="overflow:visible;"></use> </clipPath> </g> </g> </g> </g> <g class="st59"> <g> <path class="st4" d="M112.42,140.76c0.09,0.05,0.16,0.18,0.16,0.28c0,0.1-0.07,0.15-0.16,0.09l-1.6-0.92 c-0.09-0.05-0.16-0.18-0.16-0.28c0-0.1,0.07-0.15,0.16-0.09L112.42,140.76z"></path> </g> <g> <path class="st4" d="M113.75,140.72c0.09,0.05,0.16,0.18,0.16,0.28c0,0.1-0.07,0.15-0.16,0.09l-3.08-1.78 c-0.09-0.05-0.16-0.18-0.16-0.28c0-0.1,0.07-0.15,0.16-0.09L113.75,140.72z"></path> </g> <g> <path class="st4" d="M114.24,140.2c0.09,0.05,0.16,0.18,0.16,0.28c0,0.1-0.07,0.15-0.16,0.09l-1.5-0.87 c-0.09-0.05-0.16-0.18-0.16-0.28c0-0.1,0.07-0.15,0.16-0.09L114.24,140.2z"></path> </g> </g> <g> <path class="st4" d="M114.63,142.75c0.09,0.05,0.16,0.18,0.16,0.28l0,0.08c0,0.1-0.07,0.15-0.16,0.09l-3.86-2.23 c-0.09-0.05-0.16-0.18-0.16-0.28l0-0.08c0-0.1,0.07-0.15,0.16-0.09L114.63,142.75z"></path> </g> <g class="st59"> <g> <path class="st4" d="M107.75,137.26c0.09,0.05,0.16,0.18,0.16,0.28c0,0.1-0.07,0.15-0.16,0.09l-3.08-1.78 c-0.09-0.05-0.16-0.18-0.16-0.28c0-0.1,0.07-0.15,0.16-0.09L107.75,137.26z"></path> </g> <g> <path class="st4" d="M110.09,140.22c0.09,0.05,0.16,0.18,0.16,0.28c0,0.1-0.07,0.15-0.16,0.09l-5.42-3.13 c-0.09-0.05-0.16-0.18-0.16-0.28c0-0.1,0.07-0.15,0.16-0.09L110.09,140.22z"></path> </g> <g> <path class="st4" d="M110.09,139.41c0.09,0.05,0.16,0.18,0.16,0.28c0,0.1-0.07,0.15-0.16,0.09l-3.08-1.78 c-0.09-0.05-0.16-0.18-0.16-0.28c0-0.1,0.07-0.15,0.16-0.09L110.09,139.41z"></path> </g> <g> <path class="st4" d="M110.09,138.61c0.09,0.05,0.16,0.18,0.16,0.28c0,0.1-0.07,0.15-0.16,0.09l-1.6-0.92 c-0.09-0.05-0.16-0.18-0.16-0.28c0-0.1,0.07-0.15,0.16-0.09L110.09,138.61z"></path> </g> <g> <path class="st4" d="M109.87,137.68c0.09,0.05,0.16,0.18,0.16,0.28c0,0.1-0.07,0.15-0.16,0.09l-2.55-1.47 c-0.09-0.05-0.16-0.18-0.16-0.28c0-0.1,0.07-0.15,0.16-0.09L109.87,137.68z"></path> </g> <g> <path class="st4" d="M109.6,136.75c0.09,0.05,0.16,0.18,0.16,0.28c0,0.1-0.07,0.15-0.16,0.09l-2.1-1.21 c-0.09-0.05-0.16-0.18-0.16-0.28c0-0.1,0.07-0.15,0.16-0.09L109.6,136.75z"></path> </g> <g> <path class="st4" d="M113.82,138.09c0.09,0.05,0.16,0.18,0.16,0.28c0,0.1-0.07,0.15-0.16,0.09l-6.31-3.64 c-0.09-0.05-0.16-0.18-0.16-0.28c0-0.1,0.07-0.15,0.16-0.09L113.82,138.09z"></path> </g> </g> <g> <path class="st4" d="M106.56,135.77c0.09,0.05,0.16,0.18,0.16,0.28c0,0.1-0.07,0.15-0.16,0.09l-1.89-1.09 c-0.09-0.05-0.16-0.18-0.16-0.28c0-0.1,0.07-0.15,0.16-0.09L106.56,135.77z"></path> </g> <g> <path class="st4" d="M106.56,134.99c0.09,0.05,0.16,0.18,0.16,0.28c0,0.1-0.07,0.15-0.16,0.09l-2.94-1.7 c-0.09-0.05-0.16-0.18-0.16-0.28c0-0.1,0.07-0.15,0.16-0.09L106.56,134.99z"></path> </g> <g> <path class="st4" d="M106.56,133.9c0.09,0.05,0.16,0.18,0.16,0.28c0,0.1-0.07,0.15-0.16,0.09l-1.75-1.01 c-0.09-0.05-0.16-0.18-0.16-0.28c0-0.1,0.07-0.15,0.16-0.09L106.56,133.9z"></path> </g> <g> <path class="st4" d="M107.76,133.79c0.09,0.05,0.16,0.18,0.16,0.28c0,0.1-0.07,0.15-0.16,0.09l-2.94-1.7 c-0.09-0.05-0.16-0.18-0.16-0.28c0-0.1,0.07-0.15,0.16-0.09L107.76,133.79z"></path> </g> <g> <path class="st4" d="M109.88,134.04c0.09,0.05,0.16,0.18,0.16,0.28c0,0.1-0.07,0.14-0.16,0.09l-5.06-2.92 c-0.09-0.05-0.16-0.18-0.16-0.28c0-0.1,0.07-0.15,0.16-0.09L109.88,134.04z"></path> </g> <g> <path class="st4" d="M103.97,132.4c0.09,0.05,0.16,0.18,0.16,0.28c0,0.1-0.07,0.15-0.16,0.09l-2.94-1.7 c-0.09-0.05-0.16-0.18-0.16-0.28c0-0.1,0.07-0.15,0.16-0.09L103.97,132.4z"></path> <g class="st59"> <defs> <path id="SVGID_65_" class="st59" d="M103.97,132.4c0.09,0.05,0.16,0.18,0.16,0.28c0,0.1-0.07,0.15-0.16,0.09l-2.94-1.7 c-0.09-0.05-0.16-0.18-0.16-0.28c0-0.1,0.07-0.15,0.16-0.09L103.97,132.4z"></path> </defs> <use xlink:href="#SVGID_65_" style="overflow:visible;fill:#FFFFFF;"></use> <clipPath id="SVGID_66_"> <use xlink:href="#SVGID_65_" style="overflow:visible;"></use> </clipPath> <g class="st65"> <g> <defs> <polyline id="SVGID_67_" points="104.12,132.72 104.12,132.75 104.1,132.77 104.08,132.79 104.06,132.8 104.03,132.8 104,132.79 103.96,132.78 101.02,131.08 100.99,131.06 100.96,131.03 100.93,131 100.91,130.96 100.89,130.92 100.87,130.88 100.86,130.84 100.86,130.8 100.86,130.76 100.87,130.73 100.89,130.71 100.91,130.69 100.93,130.68 100.96,130.68 100.99,130.69 101.02,130.7 103.97,132.4 104,132.43 104.03,132.45 104.06,132.49 104.08,132.52 104.1,132.56 104.12,132.6 104.12,132.64 104.13,132.68 104.12,132.72 "></polyline> </defs> <use xlink:href="#SVGID_67_" style="overflow:visible;fill:#FFFFFF;"></use> <clipPath id="SVGID_68_"> <use xlink:href="#SVGID_67_" style="overflow:visible;"></use> </clipPath> </g> </g> </g> </g> <g> <path class="st4" d="M103.97,131.6c0.09,0.05,0.16,0.18,0.16,0.28c0,0.1-0.07,0.15-0.16,0.09l-2.94-1.7 c-0.09-0.05-0.16-0.18-0.16-0.28c0-0.1,0.07-0.15,0.16-0.09L103.97,131.6z"></path> <g class="st59"> <defs> <path id="SVGID_69_" class="st59" d="M103.97,131.6c0.09,0.05,0.16,0.18,0.16,0.28c0,0.1-0.07,0.15-0.16,0.09l-2.94-1.7 c-0.09-0.05-0.16-0.18-0.16-0.28c0-0.1,0.07-0.15,0.16-0.09L103.97,131.6z"></path> </defs> <use xlink:href="#SVGID_69_" style="overflow:visible;fill:#FFFFFF;"></use> <clipPath id="SVGID_70_"> <use xlink:href="#SVGID_69_" style="overflow:visible;"></use> </clipPath> <g class="st66"> <g> <defs> <polyline id="SVGID_71_" points="104.13,131.92 104.12,131.95 104.1,131.97 104.08,131.99 104.06,132 104.03,132 104,131.99 103.97,131.98 101.03,130.28 100.99,130.25 100.96,130.23 100.93,130.19 100.91,130.16 100.89,130.12 100.87,130.08 100.87,130.03 100.86,130 100.87,129.96 100.88,129.93 100.89,129.91 100.91,129.89 100.93,129.88 100.96,129.88 100.99,129.89 101.03,129.9 103.97,131.6 104,131.62 104.03,131.65 104.06,131.68 104.08,131.72 104.1,131.76 104.12,131.8 104.13,131.84 104.13,131.88 104.13,131.92 "></polyline> </defs> <use xlink:href="#SVGID_71_" style="overflow:visible;fill:#FFFFFF;"></use> <clipPath id="SVGID_72_"> <use xlink:href="#SVGID_71_" style="overflow:visible;"></use> </clipPath> </g> </g> </g> </g> <g> <path class="st4" d="M109.61,132.92c0.09,0.05,0.16,0.18,0.16,0.28c0,0.1-0.07,0.14-0.16,0.09l-9.64-5.57 c-0.09-0.05-0.16-0.18-0.16-0.28c0-0.1,0.07-0.15,0.16-0.09L109.61,132.92z"></path> <g class="st59"> <defs> <path id="SVGID_73_" class="st59" d="M109.61,132.92c0.09,0.05,0.16,0.18,0.16,0.28c0,0.1-0.07,0.14-0.16,0.09l-9.64-5.57 c-0.09-0.05-0.16-0.18-0.16-0.28c0-0.1,0.07-0.15,0.16-0.09L109.61,132.92z"></path> </defs> <use xlink:href="#SVGID_73_" style="overflow:visible;fill:#FFFFFF;"></use> <clipPath id="SVGID_74_"> <use xlink:href="#SVGID_73_" style="overflow:visible;"></use> </clipPath> <g class="st67"> <g> <defs> <polyline id="SVGID_75_" points="109.77,133.23 109.76,133.26 109.75,133.29 109.73,133.3 109.7,133.31 109.67,133.31 109.64,133.31 109.61,133.29 99.97,127.72 99.97,127.72 99.94,127.7 99.9,127.67 99.88,127.64 99.85,127.6 99.83,127.56 99.82,127.52 99.81,127.48 99.81,127.44 99.81,127.41 99.82,127.38 99.83,127.35 99.85,127.34 99.88,127.33 99.91,127.33 99.94,127.33 99.97,127.35 109.61,132.92 109.64,132.94 109.68,132.97 109.7,133 109.73,133.04 109.75,133.08 109.76,133.12 109.77,133.16 109.77,133.2 109.77,133.23 "></polyline> </defs> <use xlink:href="#SVGID_75_" style="overflow:visible;fill:#FFFFFF;"></use> <clipPath id="SVGID_76_"> <use xlink:href="#SVGID_75_" style="overflow:visible;"></use> </clipPath> </g> </g> </g> </g> <g> <path class="st4" d="M114.94,136.96c0.09,0.05,0.16,0.18,0.16,0.28c0,0.1-0.07,0.15-0.16,0.09l-3.85-2.22 c-0.09-0.05-0.16-0.18-0.16-0.28c0-0.1,0.07-0.15,0.16-0.09L114.94,136.96z"></path> </g> </g> </g> <g> <path class="st4" d="M116.11,139.41c0.09,0.05,0.16,0.18,0.16,0.28c0,0.1-0.07,0.15-0.16,0.09l-1.54-0.89 c-0.09-0.05-0.16-0.18-0.16-0.28c0-0.1,0.07-0.15,0.16-0.09L116.11,139.41z"></path> </g> </g> </g> </svg> 