<svg xmlns="http://www.w3.org/2000/svg" xmlns:xlink="http://www.w3.org/1999/xlink" viewBox="0 0 362.66 347.49"><defs><style>.cls-1{mask:url(#mask);}.cls-2,.cls-46{mix-blend-mode:multiply;}.cls-2{fill:url(#Угасающее_небо_2);}.cls-3{isolation:isolate;}.cls-36,.cls-4,.cls-43,.cls-7{mix-blend-mode:screen;}.cls-5{fill:#abb9d1;}.cls-6{mask:url(#mask-2);}.cls-7{opacity:0.19;fill:url(#Угасающее_небо);}.cls-8{fill:url(#Безымянный_градиент_20);}.cls-9{fill:url(#Безымянный_градиент_20-2);}.cls-10{fill:url(#Безымянный_градиент_20-3);}.cls-11{fill:url(#Безымянный_градиент_20-4);}.cls-12{fill:url(#Безымянный_градиент_20-5);}.cls-13{fill:url(#Безымянный_градиент_20-6);}.cls-14{fill:url(#Безымянный_градиент_20-7);}.cls-15{fill:url(#Безымянный_градиент_20-8);}.cls-16{fill:url(#Безымянный_градиент_20-9);}.cls-17{fill:url(#Безымянный_градиент_20-10);}.cls-18{fill:url(#Безымянный_градиент_20-11);}.cls-19{fill:url(#Безымянный_градиент_20-12);}.cls-20{fill:url(#Безымянный_градиент_20-13);}.cls-21{fill:#fafafa;}.cls-22,.cls-23,.cls-24,.cls-25,.cls-26,.cls-27{opacity:0.5;}.cls-22{fill:url(#Безымянный_градиент_20-14);}.cls-23{fill:url(#Безымянный_градиент_20-15);}.cls-24{fill:url(#Безымянный_градиент_20-16);}.cls-25{fill:url(#Безымянный_градиент_20-17);}.cls-26{fill:url(#Безымянный_градиент_20-18);}.cls-27{fill:url(#Безымянный_градиент_20-19);}.cls-28{fill:url(#Безымянный_градиент_20-20);}.cls-29{fill:url(#Безымянный_градиент_22);}.cls-30{fill:url(#Безымянный_градиент_22-2);}.cls-31{fill:#f5f6f7;}.cls-32{fill:url(#Безымянный_градиент_20-21);}.cls-33{fill:#dde2e8;}.cls-34{fill:#fff;}.cls-35{fill:url(#Безымянный_градиент_20-22);}.cls-36{opacity:0.81;}.cls-37{fill:#e77465;}.cls-38{fill:url(#Безымянный_градиент_20-23);}.cls-39{fill:#231f20;}.cls-40{fill:#faa04a;}.cls-41{fill:#f9d75f;}.cls-42{fill:#f3f3f3;}.cls-43,.cls-46{opacity:0.64;}.cls-44{fill:url(#Безымянный_градиент_20-24);}.cls-45{fill:url(#Безымянный_градиент_20-25);}.cls-47{fill:url(#Безымянный_градиент_20-26);}.cls-48{fill:url(#Безымянный_градиент_20-27);}.cls-49{filter:url(#luminosity-noclip-2);}.cls-50{filter:url(#luminosity-noclip);}</style><filter id="luminosity-noclip" x="397.95" y="-8417" width="73.06" height="32766" filterUnits="userSpaceOnUse" color-interpolation-filters="sRGB"><feFlood flood-color="#fff" result="bg"/><feBlend in="SourceGraphic" in2="bg"/></filter><mask id="mask" x="397.95" y="-8417" width="73.06" height="32766" maskUnits="userSpaceOnUse"><g class="cls-50"/></mask><linearGradient id="Угасающее_небо_2" x1="397.95" y1="131.8" x2="471.01" y2="131.8" gradientUnits="userSpaceOnUse"><stop offset="0" stop-color="#fff"/><stop offset="1"/></linearGradient><filter id="luminosity-noclip-2" x="397.95" y="84.79" width="73.06" height="94" filterUnits="userSpaceOnUse" color-interpolation-filters="sRGB"><feFlood flood-color="#fff" result="bg"/><feBlend in="SourceGraphic" in2="bg"/></filter><mask id="mask-2" x="255.96" y="49.64" width="73.06" height="94" maskUnits="userSpaceOnUse"><g class="cls-49"><g transform="translate(-141.99 -35.15)"><g class="cls-1"><path class="cls-2" d="M434.6,89.82c9.76,5.63,18.92,15.3,25.8,27.21S471,141.67,471,152.89s-3.86,19.56-10.78,23.51-16.11,3-25.87-2.62-18.92-15.3-25.8-27.21S397.92,121.92,398,110.7s3.86-19.56,10.78-23.5S424.84,84.18,434.6,89.82Z"/></g></g></g></mask><linearGradient id="Угасающее_небо" x1="397.95" y1="131.8" x2="471.01" y2="131.8" gradientUnits="userSpaceOnUse"><stop offset="0" stop-color="#2484c6"/><stop offset="1" stop-color="#2484c6"/></linearGradient><linearGradient id="Безымянный_градиент_20" x1="291.78" y1="64.93" x2="293.06" y2="64.93" gradientUnits="userSpaceOnUse"><stop offset="0" stop-color="#9ab5ff"/><stop offset="1" stop-color="#4869c6"/></linearGradient><linearGradient id="Безымянный_градиент_20-2" x1="291.6" y1="127.95" x2="292.88" y2="127.95" xlink:href="#Безымянный_градиент_20"/><linearGradient id="Безымянный_градиент_20-3" x1="315.92" y1="112.26" x2="323.55" y2="112.26" xlink:href="#Безымянный_градиент_20"/><linearGradient id="Безымянный_градиент_20-4" x1="261.09" y1="80.6" x2="268.71" y2="80.6" xlink:href="#Безымянный_градиент_20"/><linearGradient id="Безымянный_градиент_20-5" x1="303.89" y1="77.4" x2="308.86" y2="77.4" xlink:href="#Безымянный_градиент_20"/><linearGradient id="Безымянный_градиент_20-6" x1="275.82" y1="115.51" x2="280.79" y2="115.51" xlink:href="#Безымянный_градиент_20"/><linearGradient id="Безымянный_градиент_20-7" x1="312.29" y1="126.1" x2="319.48" y2="126.1" xlink:href="#Безымянный_градиент_20"/><linearGradient id="Безымянный_градиент_20-8" x1="265.18" y1="66.77" x2="272.37" y2="66.77" xlink:href="#Безымянный_градиент_20"/><linearGradient id="Безымянный_градиент_20-9" x1="312.51" y1="94.43" x2="319.74" y2="94.43" xlink:href="#Безымянный_градиент_20"/><linearGradient id="Безымянный_градиент_20-10" x1="264.91" y1="98.46" x2="272.14" y2="98.46" xlink:href="#Безымянный_градиент_20"/><linearGradient id="Безымянный_градиент_20-11" x1="303.5" y1="131.63" x2="308.37" y2="131.63" xlink:href="#Безымянный_градиент_20"/><linearGradient id="Безымянный_градиент_20-12" x1="276.27" y1="61.23" x2="281.14" y2="61.23" xlink:href="#Безымянный_градиент_20"/><linearGradient id="Безымянный_градиент_20-13" x1="420.04" y1="126.68" x2="453.03" y2="126.68" xlink:href="#Безымянный_градиент_20"/><linearGradient id="Безымянный_градиент_20-14" x1="201.88" y1="285.25" x2="449.7" y2="285.25" xlink:href="#Безымянный_градиент_20"/><linearGradient id="Безымянный_градиент_20-15" x1="201.56" y1="295.63" x2="449.39" y2="295.63" xlink:href="#Безымянный_градиент_20"/><linearGradient id="Безымянный_градиент_20-16" x1="142.16" y1="223.44" x2="273.68" y2="223.44" xlink:href="#Безымянный_градиент_20"/><linearGradient id="Безымянный_градиент_20-17" x1="141.99" y1="232.27" x2="273.51" y2="232.27" xlink:href="#Безымянный_градиент_20"/><linearGradient id="Безымянный_градиент_20-18" x1="383.59" y1="345.65" x2="486.3" y2="345.65" xlink:href="#Безымянный_градиент_20"/><linearGradient id="Безымянный_градиент_20-19" x1="383.46" y1="352.99" x2="486.17" y2="352.99" xlink:href="#Безымянный_градиент_20"/><linearGradient id="Безымянный_градиент_20-20" x1="273.35" y1="188.16" x2="458.76" y2="188.16" xlink:href="#Безымянный_градиент_20"/><linearGradient id="Безымянный_градиент_22" x1="287.05" y1="70.98" x2="389.5" y2="70.98" gradientUnits="userSpaceOnUse"><stop offset="0" stop-color="#4869c6"/><stop offset="1" stop-color="#2c30d0"/></linearGradient><linearGradient id="Безымянный_градиент_22-2" x1="182.16" y1="199.43" x2="243.03" y2="199.43" xlink:href="#Безымянный_градиент_22"/><linearGradient id="Безымянный_градиент_20-21" x1="194.22" y1="202.93" x2="243.19" y2="202.93" xlink:href="#Безымянный_градиент_20"/><linearGradient id="Безымянный_градиент_20-22" x1="381.77" y1="139.15" x2="343.77" y2="236.31" xlink:href="#Безымянный_градиент_20"/><linearGradient id="Безымянный_градиент_20-23" x1="301.56" y1="193.82" x2="362.66" y2="193.82" xlink:href="#Безымянный_градиент_20"/><linearGradient id="Безымянный_градиент_20-24" x1="107.26" y1="83.78" x2="172.09" y2="83.78" xlink:href="#Безымянный_градиент_20"/><linearGradient id="Безымянный_градиент_20-25" x1="117.68" y1="125.97" x2="182.51" y2="125.97" xlink:href="#Безымянный_градиент_20"/><linearGradient id="Безымянный_градиент_20-26" x1="274.4" y1="222.03" x2="339.22" y2="222.03" xlink:href="#Безымянный_градиент_20"/><linearGradient id="Безымянный_градиент_20-27" x1="339.52" y1="207.18" x2="420.5" y2="207.18" xlink:href="#Безымянный_градиент_20"/></defs><title>Startup Solutions</title><g class="cls-3"><g id="Слой_1" data-name="Слой 1"><g class="cls-4"><g class="cls-3"><path class="cls-5" d="M474.92,149.4c0-.13,0-.25,0-.38q0-.43,0-.86,0-.21,0-.43,0-.44-.05-.87c0-.13,0-.25,0-.38,0-.41-.07-.83-.11-1.24h0v-.07q-.06-.61-.14-1.22l-.05-.4q-.06-.47-.13-.94l-.06-.41q-.08-.56-.18-1.13l0-.18q-.11-.66-.24-1.31l-.07-.37q-.1-.49-.2-1l-.09-.43q-.11-.52-.24-1l-.07-.31q-.16-.66-.34-1.33l-.09-.32q-.14-.52-.28-1l-.06-.21-.07-.23-.29-1-.12-.39q-.21-.66-.43-1.33l0-.13q-.2-.6-.41-1.2l-.15-.42-.35-.95-.16-.43-.42-1.08-.1-.27q-.26-.67-.54-1.33l-.15-.35-.43-1-.2-.44-.44-1-.12-.27-.08-.16-.15-.32-.35-.73-.17-.34-.4-.81-.11-.23-.53-1-.13-.25-.41-.78-.18-.34-.4-.73-.17-.31-.58-1-.73-1.23-.24-.39-.51-.83-.28-.44-.49-.78-.28-.44-.54-.81-.25-.37-.79-1.16,0-.05-.77-1.09-.27-.36-.56-.76-.31-.41-.54-.71-.18-.24-.18-.22-.24-.3-.49-.62-.22-.27-.71-.86,0,0-.69-.81-.23-.26-.51-.58-.25-.28-.53-.59-.21-.23-.74-.8-.12-.12-.63-.66-.25-.25-.53-.53-.26-.26-.58-.56-.19-.18-.77-.73-.17-.16-.61-.55-.26-.23-.55-.48-.26-.23-.14-.12-.23-.19-.65-.55-.36-.3-.66-.53-.34-.27-.79-.61-.2-.15-1-.73-.27-.19-.73-.51-.36-.24-.67-.44-.37-.24-.7-.44-.32-.2-1-.61-.83-.47-.25-.14-.59-.32-.26-.14-.67-.34-.15-.08-.81-.39-.22-.1-.61-.27-.26-.12-.6-.26-.21-.09-.08,0-.69-.27-.17-.06-.7-.26-.1,0-.77-.26-.18-.06-.76-.23h0l-.77-.21-.18,0-.75-.18-.08,0-.69-.15L427,83l-.73-.13-.13,0-.65-.1-.14,0-.72-.08-.15,0-.27,0-.37,0h-.11l-.71,0h-1.75l-.68,0h0l-.68.06-.16,0-.67.09h0l-.63.11-.16,0-.65.14-.08,0-.58.15-.15,0-.58.17-.05,0-.1,0-.55.19-.12,0-.6.24-.13.05-.54.24-.08,0-.59.29-.13.07-.58.32-3.92,2.28.58-.32.13-.07.59-.29.08,0,.54-.24.13-.05.6-.24.12,0,.56-.19.1,0,.63-.19.15,0,.58-.15.08,0,.65-.14.16,0L415,85h0l.67-.09.16,0,.68-.06h0l.68,0H419l.71,0h.11l.64.05.15,0,.72.08.14,0,.65.1.13,0,.73.13.16,0,.69.15.08,0,.75.18.18,0,.77.21h0l.76.23.18.06.77.26.1,0,.7.25.17.06.77.3.21.09.6.26.26.12.61.27.22.1.81.39.15.08.67.34.26.14.59.32.25.14.83.47,1,.61.32.2.7.44.37.24.67.44L438,92l.73.51.27.19,1,.73.2.15.79.61.34.27L442,95l.36.3.65.55.37.31.26.23.55.48.26.23.61.55.17.16.77.73.19.18.58.57.26.26.53.53.25.25.63.66.12.13.74.79.21.23.53.59.25.28.51.58.23.26.69.81,0,0,.71.86.22.27.49.62.24.3.36.46.54.71.31.41.56.76.27.36.77,1.09,0,.05.79,1.16.25.37.54.81.28.44.49.78.28.44.51.83.24.39.73,1.23.58,1,.17.31.4.73.18.34.41.78.14.26.53,1,.11.23.4.81.17.34.35.73.15.32.2.43.44,1,.2.44.43,1,.15.35q.28.67.54,1.33l.1.26.42,1.08.16.43.35.95.15.42q.21.6.41,1.2l0,.13q.22.67.43,1.33l.12.39.29,1,.13.44q.15.52.28,1l.09.32q.18.67.34,1.33l.07.31q.12.52.24,1l.09.43q.11.49.2,1l.07.37q.13.66.24,1.32l0,.18q.1.57.18,1.13l.06.41q.07.47.13.94l.05.4q.07.61.13,1.22v.08c0,.42.08.83.11,1.24,0,.13,0,.25,0,.38q0,.44.05.87,0,.21,0,.43,0,.43,0,.86c0,.13,0,.25,0,.38,0,.41,0,.81,0,1.21,0,11.21-3.86,19.56-10.78,23.51l3.92-2.28c6.92-3.95,10.75-12.29,10.78-23.51C474.93,150.21,474.93,149.81,474.92,149.4Z" transform="translate(-141.99 -35.15)"/><g class="cls-6"><path class="cls-7" d="M434.6,89.82c9.76,5.63,18.92,15.3,25.8,27.21S471,141.67,471,152.89s-3.86,19.56-10.78,23.51-16.11,3-25.87-2.62-18.92-15.3-25.8-27.21S397.92,121.92,398,110.7s3.86-19.56,10.78-23.5S424.84,84.18,434.6,89.82Z" transform="translate(-141.99 -35.15)"/></g></g><polygon class="cls-8" points="293.06 60.91 293.03 69.67 291.78 68.95 291.81 60.19 293.06 60.91"/><polygon class="cls-9" points="292.88 123.93 292.85 132.69 291.6 131.96 291.63 123.21 292.88 123.93"/><polygon class="cls-10" points="323.55 113.75 323.54 115.18 315.92 110.78 315.93 109.34 323.55 113.75"/><polygon class="cls-11" points="268.71 82.08 268.71 83.52 261.09 79.12 261.09 77.69 268.71 82.08"/><polygon class="cls-12" points="307.79 74.07 308.86 75.42 304.96 80.72 303.89 79.37 307.79 74.07"/><polygon class="cls-13" points="279.72 112.19 280.79 113.54 276.89 118.84 275.82 117.48 279.72 112.19"/><polygon class="cls-14" points="312.93 121.55 319.48 129.79 318.84 130.66 312.29 122.42 312.93 121.55"/><polygon class="cls-15" points="265.82 62.22 272.37 70.46 271.73 71.33 265.18 63.09 265.82 62.22"/><polygon class="cls-16" points="319.13 93.34 319.74 94.95 313.13 95.51 312.51 93.91 319.13 93.34"/><polygon class="cls-17" points="271.52 97.38 272.14 98.98 265.53 99.54 264.91 97.94 271.52 97.38"/><polygon class="cls-18" points="304.58 126.69 308.37 136.47 307.29 136.57 303.5 126.78 304.58 126.69"/><polygon class="cls-19" points="277.36 56.29 281.14 66.07 280.06 66.16 276.27 56.38 277.36 56.29"/><path class="cls-20" d="M452.33,130.16l.7,1.59-17.33,3.46a2.91,2.91,0,0,1,0,.32c0,1.28-.91,1.79-2,1.15a4.43,4.43,0,0,1-2-3.48,2.18,2.18,0,0,1,.06-.51L420,117.22l.68-.81,11.69,15.45a1.51,1.51,0,0,1,1.3.2,4.13,4.13,0,0,1,1.44,1.54Z" transform="translate(-141.99 -35.15)"/><path class="cls-21" d="M446.06,121.49l.58.83-12.27,11.9a2.06,2.06,0,0,1,.22.87c0,.68-.48,1-1.07.61a1.83,1.83,0,0,1-.37-.29l-3.13,3-.58-.83,3.15-3.06a2,2,0,0,1-.14-.69c0-.68.48-1,1.07-.61a1.68,1.68,0,0,1,.24.17Z" transform="translate(-141.99 -35.15)"/></g><path class="cls-22" d="M318.27,355.17,204.69,289.59c-4.15-2.4-3.63-6.59,1.16-9.36L317.1,216c4.8-2.77,12.06-3.07,16.21-.67L446.9,280.91c4.15,2.4,3.63,6.59-1.16,9.36L334.48,354.5C329.68,357.27,322.42,357.57,318.27,355.17Z" transform="translate(-141.99 -35.15)"/><path class="cls-23" d="M318,365.55,204.37,300c-4.16-2.4-3.63-6.59,1.16-9.36l111.25-64.23c4.8-2.77,12.06-3.07,16.21-.67l113.58,65.58c4.15,2.4,3.63,6.59-1.16,9.36L334.16,364.87C329.37,367.64,322.11,367.95,318,365.55Z" transform="translate(-141.99 -35.15)"/><path class="cls-24" d="M203.93,260.55l-60.28-34.8c-2.21-1.27-1.93-3.5.62-5l59-34.09c2.55-1.47,6.4-1.63,8.6-.36l60.28,34.8c2.21,1.27,1.93,3.5-.62,5l-59,34.09C210,261.66,206.13,261.82,203.93,260.55Z" transform="translate(-141.99 -35.15)"/><path class="cls-25" d="M203.76,269.38l-60.28-34.8c-2.21-1.27-1.93-3.5.62-5l59-34.09c2.55-1.47,6.4-1.63,8.6-.36L272,230c2.21,1.27,1.93,3.5-.62,5l-59,34.09C209.82,270.49,206,270.65,203.76,269.38Z" transform="translate(-141.99 -35.15)"/><path class="cls-26" d="M431.82,374.63l-47.07-27.18c-1.72-1-1.51-2.73.48-3.88L431.34,317a7.47,7.47,0,0,1,6.72-.28l47.07,27.18c1.72,1,1.51,2.73-.48,3.88l-46.11,26.62A7.47,7.47,0,0,1,431.82,374.63Z" transform="translate(-141.99 -35.15)"/><path class="cls-27" d="M431.69,382l-47.07-27.18c-1.72-1-1.51-2.73.48-3.88l46.11-26.62a7.47,7.47,0,0,1,6.72-.28L485,351.19c1.72,1,1.51,2.73-.48,3.88l-46.11,26.62A7.47,7.47,0,0,1,431.69,382Z" transform="translate(-141.99 -35.15)"/><path class="cls-28" d="M453.89,174.74l-171.47-99a3.07,3.07,0,0,0-3.25-.21h0l-4.33,2.61.28.76-1.14.72-.62,101.3,1.48,15.27L437.5,292.66l14.89,8.5,4.49-2.7h0c1.14-.53,1.88-2,1.88-4V184C458.76,180.46,456.58,176.29,453.89,174.74Z" transform="translate(-141.99 -35.15)"/><path class="cls-29" d="M287.37,35.15l.26.15v3.86l2.06,1.19v.27l-2.32-1.34ZM290.6,41a3,3,0,0,1-.48-.83,2.56,2.56,0,0,1-.17-.91,1.25,1.25,0,0,1,.17-.7.61.61,0,0,1,.48-.28,1.2,1.2,0,0,1,.68.19,2.49,2.49,0,0,1,.68.6,3,3,0,0,1,.48.83,2.54,2.54,0,0,1,.17.91,1.24,1.24,0,0,1-.17.7.61.61,0,0,1-.48.28,1.19,1.19,0,0,1-.68-.19A2.47,2.47,0,0,1,290.6,41Zm1.23.48a.5.5,0,0,0,.38-.24,1.08,1.08,0,0,0,.14-.59,2.15,2.15,0,0,0-.14-.75,2.49,2.49,0,0,0-.38-.68,1.93,1.93,0,0,0-.55-.48.93.93,0,0,0-.55-.15.5.5,0,0,0-.38.24,1.06,1.06,0,0,0-.14.59,2.12,2.12,0,0,0,.14.75,2.47,2.47,0,0,0,.38.68,2,2,0,0,0,.55.48A.93.93,0,0,0,291.83,41.45ZM294,40.2a1.08,1.08,0,0,1,.63.18v.29l-.06,0q-.44-.26-.69-.08a.88.88,0,0,0-.25.75v1.61l-.25-.15V39.68l.24.14v.67A.46.46,0,0,1,294,40.2Zm3.57,3.51-2.3-1.33a2.09,2.09,0,0,0,.16.73,2.45,2.45,0,0,0,.4.67,2.11,2.11,0,0,0,.57.48,1.2,1.2,0,0,0,.48.17.49.49,0,0,0,.37-.11l.15.28a.58.58,0,0,1-.44.12,1.4,1.4,0,0,1-.57-.2,2.56,2.56,0,0,1-.71-.61,3.06,3.06,0,0,1-.49-.84,2.53,2.53,0,0,1-.18-.91,1.31,1.31,0,0,1,.17-.71.6.6,0,0,1,.46-.29,1.08,1.08,0,0,1,.65.18,2.29,2.29,0,0,1,.65.57,2.93,2.93,0,0,1,.46.81,2.59,2.59,0,0,1,.17.9Zm-1.77-2.26a.47.47,0,0,0-.36.2.94.94,0,0,0-.16.5l2,1.18a2,2,0,0,0-.15-.68,2.39,2.39,0,0,0-.36-.62,1.83,1.83,0,0,0-.51-.44A.91.91,0,0,0,295.83,41.46Zm6.67,3.78a2.25,2.25,0,0,1,.28,1.13v1.8l-.25-.15V46.26a1.87,1.87,0,0,0-.22-.92,1.61,1.61,0,0,0-.61-.63q-.45-.26-.71-.09a.81.81,0,0,0-.26.72V47l-.26-.15V45.06a1.86,1.86,0,0,0-.22-.92,1.61,1.61,0,0,0-.61-.63q-.45-.26-.71-.09a.81.81,0,0,0-.26.72V45.8l-.25-.15V42.57l.25.14v.66a.49.49,0,0,1,.4-.28,1.07,1.07,0,0,1,.63.18,2.05,2.05,0,0,1,.62.54,2.09,2.09,0,0,1,.36.76.52.52,0,0,1,.42-.3,1.08,1.08,0,0,1,.66.18A2.07,2.07,0,0,1,302.5,45.25Zm2.63.39a.39.39,0,0,1-.06-.2.13.13,0,0,1,.21-.12.43.43,0,0,1,.15.15.39.39,0,0,1,.06.2.14.14,0,0,1-.06.14.15.15,0,0,1-.15,0A.41.41,0,0,1,305.13,45.64Zm0,.83.25.15v3.08l-.25-.15Zm3.35,2.11a3,3,0,0,1,.47.83,2.56,2.56,0,0,1,.17.91A1.29,1.29,0,0,1,309,51a.6.6,0,0,1-.47.28,1.18,1.18,0,0,1-.67-.19,2.28,2.28,0,0,1-.64-.56,2.78,2.78,0,0,1-.44-.79v1.85l-.25-.15V47.24l.24.14v.73a.57.57,0,0,1,.45-.29,1.09,1.09,0,0,1,.65.17A2.44,2.44,0,0,1,308.5,48.58ZM308.36,51a.5.5,0,0,0,.39-.24,1.07,1.07,0,0,0,.14-.59,2.13,2.13,0,0,0-.14-.75,2.48,2.48,0,0,0-.39-.68,2,2,0,0,0-.55-.48.93.93,0,0,0-.55-.15.5.5,0,0,0-.38.24,1.08,1.08,0,0,0-.14.59,2.15,2.15,0,0,0,.14.75,2.5,2.5,0,0,0,.38.68,1.92,1.92,0,0,0,.55.48A.94.94,0,0,0,308.36,51ZM310,52.26a2.81,2.81,0,0,1-.46-.55l.12-.17a3.06,3.06,0,0,0,.42.51,2.65,2.65,0,0,0,.54.42,1,1,0,0,0,.6.19c.13,0,.19-.13.19-.31a.7.7,0,0,0-.1-.37,1.43,1.43,0,0,0-.26-.31l-.42-.36a6.39,6.39,0,0,1-.51-.44,1.82,1.82,0,0,1-.33-.44,1.12,1.12,0,0,1-.14-.55c0-.24.09-.4.26-.45a1,1,0,0,1,.75.19,3.05,3.05,0,0,1,.51.37,2.81,2.81,0,0,1,.41.46l-.12.17a2.63,2.63,0,0,0-.37-.42,2.48,2.48,0,0,0-.43-.32.84.84,0,0,0-.56-.17c-.13,0-.19.14-.19.31a.73.73,0,0,0,.11.38,1.57,1.57,0,0,0,.26.32l.44.37c.21.16.38.31.5.43a1.82,1.82,0,0,1,.32.43,1.08,1.08,0,0,1,.13.53q0,.38-.28.45a1.13,1.13,0,0,1-.78-.22A3.18,3.18,0,0,1,310,52.26Zm4.72-.27v3.08l-.24-.14v-.66a.49.49,0,0,1-.39.28,1,1,0,0,1-.61-.17,2.2,2.2,0,0,1-1.11-1.95v-1.8l.26.15v1.78a1.83,1.83,0,0,0,.23.92,1.72,1.72,0,0,0,.65.65q.45.26.71.09a.81.81,0,0,0,.26-.72V51.84Zm5.19,3.31a2.24,2.24,0,0,1,.28,1.13v1.8l-.25-.15V56.3a1.87,1.87,0,0,0-.22-.92,1.62,1.62,0,0,0-.61-.63q-.45-.26-.71-.09a.81.81,0,0,0-.26.72V57l-.26-.15V55.11a1.87,1.87,0,0,0-.22-.92,1.62,1.62,0,0,0-.61-.63q-.45-.26-.71-.09a.81.81,0,0,0-.26.72v1.64l-.25-.15V52.61l.25.14v.66a.49.49,0,0,1,.4-.28,1.07,1.07,0,0,1,.63.18,2,2,0,0,1,.62.54,2.09,2.09,0,0,1,.36.76.52.52,0,0,1,.42-.3,1.08,1.08,0,0,1,.66.18A2.07,2.07,0,0,1,319.9,55.3Zm5,1.29V61l-.25-.15v-.73a.57.57,0,0,1-.44.3,1.1,1.1,0,0,1-.65-.18,2.43,2.43,0,0,1-.67-.59,3,3,0,0,1-.47-.83,2.57,2.57,0,0,1-.17-.91,1.29,1.29,0,0,1,.17-.71.6.6,0,0,1,.47-.28,1.18,1.18,0,0,1,.67.19,2.27,2.27,0,0,1,.64.57,2.93,2.93,0,0,1,.45.8v-2Zm-.78,3.52a.51.51,0,0,0,.38-.24,1.07,1.07,0,0,0,.14-.59,2.15,2.15,0,0,0-.14-.75,2.48,2.48,0,0,0-.38-.68,2,2,0,0,0-.55-.48.92.92,0,0,0-.55-.15.5.5,0,0,0-.38.24,1.08,1.08,0,0,0-.14.59,2.15,2.15,0,0,0,.14.75,2.46,2.46,0,0,0,.38.68,1.93,1.93,0,0,0,.55.48A.93.93,0,0,0,324.15,60.11Zm2.22,1.51a3.05,3.05,0,0,1-.48-.83,2.56,2.56,0,0,1-.17-.91,1.25,1.25,0,0,1,.17-.7.62.62,0,0,1,.48-.28,1.21,1.21,0,0,1,.68.19,2.5,2.5,0,0,1,.68.6,3,3,0,0,1,.48.83,2.54,2.54,0,0,1,.17.91,1.24,1.24,0,0,1-.17.7.61.61,0,0,1-.48.28,1.17,1.17,0,0,1-.68-.19A2.46,2.46,0,0,1,326.37,61.62Zm1.23.48a.5.5,0,0,0,.38-.24,1.08,1.08,0,0,0,.14-.59,2.16,2.16,0,0,0-.14-.75,2.48,2.48,0,0,0-.38-.68,1.93,1.93,0,0,0-.55-.48.92.92,0,0,0-.55-.15.5.5,0,0,0-.38.24A1.06,1.06,0,0,0,326,60a2.13,2.13,0,0,0,.14.75,2.46,2.46,0,0,0,.38.68,2,2,0,0,0,.55.48A.92.92,0,0,0,327.6,62.1ZM329.17,59l.25.15v4.38l-.25-.15Zm1.7,5.18a3,3,0,0,1-.48-.83,2.56,2.56,0,0,1-.17-.91,1.25,1.25,0,0,1,.17-.7.61.61,0,0,1,.48-.28,1.19,1.19,0,0,1,.68.19,2.47,2.47,0,0,1,.68.6,3,3,0,0,1,.48.83,2.54,2.54,0,0,1,.17.91,1.24,1.24,0,0,1-.17.7.61.61,0,0,1-.48.28,1.19,1.19,0,0,1-.68-.19A2.45,2.45,0,0,1,330.87,64.22Zm1.23.48a.51.51,0,0,0,.38-.24,1.08,1.08,0,0,0,.14-.59,2.17,2.17,0,0,0-.14-.75,2.52,2.52,0,0,0-.38-.68,1.92,1.92,0,0,0-.55-.48.93.93,0,0,0-.55-.15.5.5,0,0,0-.38.24,1.06,1.06,0,0,0-.14.59,2.12,2.12,0,0,0,.14.75,2.5,2.5,0,0,0,.38.68,2,2,0,0,0,.55.48A.93.93,0,0,0,332.1,64.7Zm2.21-1.24a1.07,1.07,0,0,1,.63.18v.29l-.06,0q-.44-.26-.69-.08a.88.88,0,0,0-.25.75v1.61l-.25-.15V62.93l.25.14v.67A.46.46,0,0,1,334.31,63.45Zm2.76,4.43a2.81,2.81,0,0,1-.46-.55l.12-.17a3,3,0,0,0,.42.51,2.65,2.65,0,0,0,.54.42,1,1,0,0,0,.6.19c.13,0,.19-.13.19-.31a.69.69,0,0,0-.1-.37,1.4,1.4,0,0,0-.26-.31l-.42-.36a6.21,6.21,0,0,1-.51-.44,1.84,1.84,0,0,1-.33-.44,1.12,1.12,0,0,1-.14-.55.42.42,0,0,1,.26-.45,1,1,0,0,1,.75.19,3.07,3.07,0,0,1,.51.38,2.77,2.77,0,0,1,.41.46l-.12.17a2.68,2.68,0,0,0-.37-.42,2.43,2.43,0,0,0-.43-.32.84.84,0,0,0-.56-.17c-.13,0-.19.14-.19.31a.73.73,0,0,0,.11.38,1.57,1.57,0,0,0,.26.32l.44.37q.31.24.5.43a1.78,1.78,0,0,1,.32.43,1.08,1.08,0,0,1,.13.53c0,.25-.09.41-.28.45a1.14,1.14,0,0,1-.78-.22A3.14,3.14,0,0,1,337.07,67.88Zm2.36-2.45a.39.39,0,0,1-.06-.2.14.14,0,0,1,.06-.14.14.14,0,0,1,.15,0,.42.42,0,0,1,.15.15.4.4,0,0,1,.06.2.15.15,0,0,1-.06.14.14.14,0,0,1-.15,0A.4.4,0,0,1,339.43,65.44Zm0,.83.25.15V69.5l-.25-.15Zm2.66,4.42a.37.37,0,0,1-.24,0,1,1,0,0,1-.3-.12,1.42,1.42,0,0,1-.73-1.26v-2l-.49-.28v-.25l.49.28v-.67l.26.15v.67l.85.49V68l-.85-.49v2a1.09,1.09,0,0,0,.13.53,1,1,0,0,0,.37.37.45.45,0,0,0,.41.07Zm3.69-.49a1.93,1.93,0,0,1,.27,1v2l-.24-.14v-.55a.44.44,0,0,1-.37.21,1.13,1.13,0,0,1-.59-.19,2.07,2.07,0,0,1-.7-.65,1.42,1.42,0,0,1-.26-.79c0-.26.08-.42.24-.49s.41,0,.76.2l.91.53v-.25a1.48,1.48,0,0,0-.2-.77,1.57,1.57,0,0,0-.59-.56,1.41,1.41,0,0,0-.51-.19.72.72,0,0,0-.41,0l-.13-.29a.82.82,0,0,1,.48,0,1.79,1.79,0,0,1,.59.23A2.06,2.06,0,0,1,345.79,70.2Zm-.34,2.22a.48.48,0,0,0,.35-.31v-.58l-.91-.52q-.39-.23-.57-.16c-.12,0-.18.16-.18.35a1,1,0,0,0,.19.59,1.63,1.63,0,0,0,.55.49A.86.86,0,0,0,345.45,72.42Zm5.76,1a2.24,2.24,0,0,1,.28,1.13v1.8l-.25-.15V74.38a1.87,1.87,0,0,0-.22-.92,1.61,1.61,0,0,0-.61-.63q-.45-.26-.71-.09a.81.81,0,0,0-.26.72v1.64l-.26-.15V73.19a1.86,1.86,0,0,0-.22-.92,1.6,1.6,0,0,0-.61-.63q-.45-.26-.71-.09a.81.81,0,0,0-.26.72v1.64l-.25-.15V70.69l.25.14v.66a.49.49,0,0,1,.4-.28,1.07,1.07,0,0,1,.63.18,2.05,2.05,0,0,1,.62.54,2.09,2.09,0,0,1,.36.76.52.52,0,0,1,.42-.3,1.08,1.08,0,0,1,.66.18A2.07,2.07,0,0,1,351.21,73.37Zm3.6,3.37-2.3-1.32a2.1,2.1,0,0,0,.16.73,2.44,2.44,0,0,0,.4.67,2.16,2.16,0,0,0,.57.48,1.18,1.18,0,0,0,.48.17.48.48,0,0,0,.37-.11l.15.28a.59.59,0,0,1-.44.12,1.4,1.4,0,0,1-.57-.2,2.61,2.61,0,0,1-.71-.61,3.06,3.06,0,0,1-.49-.84,2.49,2.49,0,0,1-.18-.91,1.31,1.31,0,0,1,.17-.71.6.6,0,0,1,.46-.29,1.09,1.09,0,0,1,.65.18,2.31,2.31,0,0,1,.65.58,2.94,2.94,0,0,1,.45.81,2.58,2.58,0,0,1,.17.9ZM353,74.49a.47.47,0,0,0-.36.2.94.94,0,0,0-.16.5l2,1.18a2,2,0,0,0-.15-.68,2.42,2.42,0,0,0-.36-.62,1.86,1.86,0,0,0-.51-.44A.92.92,0,0,0,353,74.49Zm3.89,4.76a.37.37,0,0,1-.24,0,1,1,0,0,1-.3-.12,1.42,1.42,0,0,1-.54-.53,1.43,1.43,0,0,1-.19-.73v-2l-.49-.28v-.25l.49.28V75l.26.15v.67l.85.49v.25l-.85-.49v2a1.08,1.08,0,0,0,.12.53,1,1,0,0,0,.37.37.45.45,0,0,0,.41.07Zm.88.3a.42.42,0,0,1,.06.21.65.65,0,0,1,0,.12l0,.13-.2.69-.18-.11.17-.74a.54.54,0,0,1-.12-.16.39.39,0,0,1,0-.18.13.13,0,0,1,.21-.12A.41.41,0,0,1,357.82,79.55Zm2.58,1.71a3,3,0,0,1-.48-.83,2.55,2.55,0,0,1-.17-.91,1.27,1.27,0,0,1,.17-.71.6.6,0,0,1,.48-.28,1.25,1.25,0,0,1,.7.2,2.34,2.34,0,0,1,.59.48,2.55,2.55,0,0,1,.43.67l-.19,0a2.2,2.2,0,0,0-.36-.55,1.91,1.91,0,0,0-.47-.39,1,1,0,0,0-.56-.16.48.48,0,0,0-.39.23,1.08,1.08,0,0,0-.14.6,2.16,2.16,0,0,0,.14.76,2.43,2.43,0,0,0,.39.68,2,2,0,0,0,.56.49,1,1,0,0,0,.47.15.45.45,0,0,0,.36-.14l.19.27a.52.52,0,0,1-.43.17,1.25,1.25,0,0,1-.59-.19A2.51,2.51,0,0,1,360.39,81.26Zm2.79,1.61a3,3,0,0,1-.48-.83,2.54,2.54,0,0,1-.17-.91,1.24,1.24,0,0,1,.17-.7.61.61,0,0,1,.48-.28,1.19,1.19,0,0,1,.68.19,2.46,2.46,0,0,1,.68.6,3,3,0,0,1,.48.83,2.52,2.52,0,0,1,.17.91,1.23,1.23,0,0,1-.17.7.61.61,0,0,1-.48.28,1.19,1.19,0,0,1-.68-.19A2.45,2.45,0,0,1,363.18,82.87Zm1.23.48a.5.5,0,0,0,.38-.24,1.07,1.07,0,0,0,.14-.59,2.15,2.15,0,0,0-.14-.75,2.49,2.49,0,0,0-.38-.68,1.92,1.92,0,0,0-.55-.48.93.93,0,0,0-.55-.15.5.5,0,0,0-.38.24,1.06,1.06,0,0,0-.14.59,2.12,2.12,0,0,0,.14.75,2.48,2.48,0,0,0,.38.68,1.94,1.94,0,0,0,.55.48A.93.93,0,0,0,364.41,83.35Zm3.67-.24a2.23,2.23,0,0,1,.29,1.14V86l-.26-.15V84.13a1.83,1.83,0,0,0-.23-.92,1.68,1.68,0,0,0-.64-.64q-.47-.27-.74-.1a.79.79,0,0,0-.27.72v1.64l-.25-.15V81.59l.25.14v.67a.5.5,0,0,1,.41-.27,1.12,1.12,0,0,1,.65.19A2.13,2.13,0,0,1,368.09,83.11Zm1.41,3.49a2.85,2.85,0,0,1-.46-.55l.12-.17a3,3,0,0,0,.42.51,2.68,2.68,0,0,0,.54.42,1,1,0,0,0,.6.19c.13,0,.19-.13.19-.31a.69.69,0,0,0-.1-.37,1.41,1.41,0,0,0-.26-.31l-.42-.36a6.21,6.21,0,0,1-.51-.44,1.89,1.89,0,0,1-.33-.44,1.13,1.13,0,0,1-.14-.55c0-.24.09-.39.26-.45a1,1,0,0,1,.75.19,3,3,0,0,1,.51.38,2.77,2.77,0,0,1,.41.46l-.12.17a2.67,2.67,0,0,0-.37-.42,2.47,2.47,0,0,0-.43-.32.84.84,0,0,0-.56-.17q-.19.05-.19.31a.73.73,0,0,0,.11.38,1.56,1.56,0,0,0,.26.32l.44.37q.31.24.5.43a1.78,1.78,0,0,1,.32.43,1.08,1.08,0,0,1,.13.53c0,.25-.09.41-.28.45a1.13,1.13,0,0,1-.78-.22A3.15,3.15,0,0,1,369.49,86.6Zm4.64,1.3-2.3-1.33a2.08,2.08,0,0,0,.16.73,2.45,2.45,0,0,0,.4.67,2.15,2.15,0,0,0,.57.48,1.2,1.2,0,0,0,.48.17.48.48,0,0,0,.37-.11l.15.28a.58.58,0,0,1-.44.12,1.4,1.4,0,0,1-.57-.2,2.59,2.59,0,0,1-.71-.61,3.06,3.06,0,0,1-.49-.84,2.53,2.53,0,0,1-.18-.91,1.31,1.31,0,0,1,.17-.71.6.6,0,0,1,.46-.29,1.08,1.08,0,0,1,.65.18,2.31,2.31,0,0,1,.65.57,3,3,0,0,1,.45.81,2.57,2.57,0,0,1,.17.9Zm-1.77-2.26a.47.47,0,0,0-.36.2,1,1,0,0,0-.16.5l2,1.18a2,2,0,0,0-.15-.68,2.42,2.42,0,0,0-.36-.62,1.84,1.84,0,0,0-.51-.44A.91.91,0,0,0,372.35,85.64Zm2.93,4.22a3,3,0,0,1-.48-.84,2.56,2.56,0,0,1-.17-.91,1.26,1.26,0,0,1,.17-.71.6.6,0,0,1,.48-.28,1.26,1.26,0,0,1,.7.2,2.34,2.34,0,0,1,.59.48,2.53,2.53,0,0,1,.43.67l-.19.05a2.15,2.15,0,0,0-.36-.55,1.89,1.89,0,0,0-.47-.39,1,1,0,0,0-.56-.16.49.49,0,0,0-.39.23,1.07,1.07,0,0,0-.14.6A2.14,2.14,0,0,0,375,89a2.39,2.39,0,0,0,.39.68,2,2,0,0,0,.56.49,1,1,0,0,0,.47.15.46.46,0,0,0,.36-.14l.19.27a.52.52,0,0,1-.43.18,1.27,1.27,0,0,1-.59-.19A2.52,2.52,0,0,1,375.29,89.86Zm3.83,2.19a.37.37,0,0,1-.24,0,1,1,0,0,1-.3-.12,1.42,1.42,0,0,1-.73-1.26v-2l-.49-.28v-.25l.49.28v-.67l.26.15v.67l.85.49v.25l-.85-.49v2a1.09,1.09,0,0,0,.12.53,1,1,0,0,0,.37.37.45.45,0,0,0,.41.07Zm2.87.38-2.29-1.33a2.1,2.1,0,0,0,.16.73,2.41,2.41,0,0,0,.4.66,2.12,2.12,0,0,0,.57.48,1.2,1.2,0,0,0,.48.17.48.48,0,0,0,.37-.11l.15.28a.58.58,0,0,1-.44.12,1.38,1.38,0,0,1-.57-.2,2.58,2.58,0,0,1-.71-.61,3,3,0,0,1-.49-.84,2.52,2.52,0,0,1-.18-.91,1.31,1.31,0,0,1,.17-.71.6.6,0,0,1,.46-.29,1.09,1.09,0,0,1,.65.18,2.28,2.28,0,0,1,.65.57,2.94,2.94,0,0,1,.46.81,2.58,2.58,0,0,1,.17.9Zm-1.77-2.25a.47.47,0,0,0-.36.2,1,1,0,0,0-.16.5l2,1.18a2.05,2.05,0,0,0-.15-.68,2.39,2.39,0,0,0-.36-.62,1.84,1.84,0,0,0-.51-.44A.9.9,0,0,0,380.21,90.18Zm3.89,4.75a.38.38,0,0,1-.24,0,1,1,0,0,1-.3-.12,1.43,1.43,0,0,1-.54-.53,1.45,1.45,0,0,1-.19-.73v-2l-.49-.28V91l.49.28v-.67l.26.15v.67l.85.49v.25l-.85-.49v2a1.09,1.09,0,0,0,.12.53,1,1,0,0,0,.37.37.45.45,0,0,0,.41.07Zm3-1.13v3.08l-.24-.14v-.66a.49.49,0,0,1-.39.28,1,1,0,0,1-.61-.17,2.2,2.2,0,0,1-1.11-1.95v-1.8l.26.15v1.78a1.83,1.83,0,0,0,.23.92,1.72,1.72,0,0,0,.65.65q.45.26.71.09a.81.81,0,0,0,.26-.72V93.66ZM388.87,95a1.07,1.07,0,0,1,.63.18v.29l-.06,0q-.44-.26-.7-.08a.88.88,0,0,0-.25.75v1.61l-.26-.15V94.43l.25.14v.67A.46.46,0,0,1,388.87,95ZM289,46.43a1.93,1.93,0,0,1,.27,1v2l-.24-.14v-.55a.43.43,0,0,1-.37.21,1.13,1.13,0,0,1-.59-.19,2,2,0,0,1-.7-.65,1.42,1.42,0,0,1-.26-.79q0-.38.24-.49c.16-.07.41,0,.76.2l.91.53v-.25a1.48,1.48,0,0,0-.2-.77,1.59,1.59,0,0,0-.59-.56,1.4,1.4,0,0,0-.51-.19.72.72,0,0,0-.41,0l-.13-.29a.81.81,0,0,1,.48,0,1.76,1.76,0,0,1,.59.22A2.06,2.06,0,0,1,289,46.43Zm-.34,2.22a.48.48,0,0,0,.35-.31v-.58l-.91-.53q-.39-.23-.57-.16c-.12,0-.18.16-.18.35a1,1,0,0,0,.2.59,1.62,1.62,0,0,0,.55.49A.86.86,0,0,0,288.61,48.65Zm4-1.65v4.38l-.25-.14v-.73a.56.56,0,0,1-.44.3,1.1,1.1,0,0,1-.65-.18,2.44,2.44,0,0,1-.68-.59,3,3,0,0,1-.47-.83,2.56,2.56,0,0,1-.17-.91,1.29,1.29,0,0,1,.17-.71.59.59,0,0,1,.47-.28,1.18,1.18,0,0,1,.68.19,2.28,2.28,0,0,1,.64.56,2.94,2.94,0,0,1,.45.8v-2Zm-.78,3.52a.5.5,0,0,0,.38-.24,1.08,1.08,0,0,0,.14-.59,2.16,2.16,0,0,0-.14-.75,2.49,2.49,0,0,0-.38-.68,1.94,1.94,0,0,0-.55-.48.92.92,0,0,0-.55-.15.51.51,0,0,0-.38.24,1.07,1.07,0,0,0-.14.59,2.15,2.15,0,0,0,.14.75,2.48,2.48,0,0,0,.38.68,2,2,0,0,0,.55.48A.92.92,0,0,0,291.87,50.52Zm1.84-2.43a.39.39,0,0,1-.06-.2.13.13,0,0,1,.21-.12.44.44,0,0,1,.15.15.39.39,0,0,1,.06.2.14.14,0,0,1-.06.14.15.15,0,0,1-.15,0A.41.41,0,0,1,293.71,48.09Zm0,.83.25.15v3.08l-.25-.15ZM297.08,51a3,3,0,0,1,.47.83,2.56,2.56,0,0,1,.17.91,1.29,1.29,0,0,1-.17.71.6.6,0,0,1-.47.28,1.18,1.18,0,0,1-.67-.19,2.28,2.28,0,0,1-.64-.56,2.78,2.78,0,0,1-.44-.79v1.85l-.25-.15V49.69l.24.14v.73a.57.57,0,0,1,.45-.29,1.09,1.09,0,0,1,.65.17A2.43,2.43,0,0,1,297.08,51Zm-.14,2.42a.5.5,0,0,0,.39-.24,1.07,1.07,0,0,0,.14-.59,2.13,2.13,0,0,0-.14-.75,2.49,2.49,0,0,0-.39-.68,2,2,0,0,0-.55-.48.93.93,0,0,0-.55-.15.5.5,0,0,0-.38.24,1.07,1.07,0,0,0-.14.59,2.14,2.14,0,0,0,.14.75,2.5,2.5,0,0,0,.38.68,1.92,1.92,0,0,0,.55.48A.94.94,0,0,0,296.94,53.45Zm1.55-2.59a.39.39,0,0,1-.06-.2.14.14,0,0,1,.06-.14.14.14,0,0,1,.15,0,.42.42,0,0,1,.15.15.4.4,0,0,1,.06.2.15.15,0,0,1-.06.14.14.14,0,0,1-.15,0A.4.4,0,0,1,298.49,50.85Zm0,.83.25.15v3.08l-.25-.15Zm1.4,3.8a2.81,2.81,0,0,1-.45-.55l.12-.17a3.05,3.05,0,0,0,.42.51,2.64,2.64,0,0,0,.54.42,1,1,0,0,0,.6.19c.13,0,.19-.13.19-.31a.7.7,0,0,0-.1-.37,1.48,1.48,0,0,0-.26-.31l-.42-.36c-.21-.17-.38-.31-.51-.44a1.84,1.84,0,0,1-.33-.44,1.12,1.12,0,0,1-.14-.55c0-.24.09-.4.26-.45a1,1,0,0,1,.75.19,2.94,2.94,0,0,1,.51.37,2.8,2.8,0,0,1,.41.45l-.12.17a2.63,2.63,0,0,0-.37-.42,2.5,2.5,0,0,0-.43-.32.84.84,0,0,0-.56-.17c-.13,0-.19.14-.19.31a.73.73,0,0,0,.11.38,1.51,1.51,0,0,0,.26.32l.44.37c.21.16.38.31.5.43a1.78,1.78,0,0,1,.33.43,1.09,1.09,0,0,1,.13.53c0,.26-.09.41-.28.45a1.13,1.13,0,0,1-.78-.22A3.21,3.21,0,0,1,299.91,55.48Zm2.74,1.5a3,3,0,0,1-.48-.84,2.54,2.54,0,0,1-.17-.91,1.26,1.26,0,0,1,.17-.71.6.6,0,0,1,.48-.28,1.26,1.26,0,0,1,.7.2,2.38,2.38,0,0,1,.59.48,2.56,2.56,0,0,1,.43.67l-.19.05a2.13,2.13,0,0,0-.36-.55,1.89,1.89,0,0,0-.47-.39,1,1,0,0,0-.56-.16.49.49,0,0,0-.39.23,1.07,1.07,0,0,0-.14.6,2.14,2.14,0,0,0,.14.76,2.42,2.42,0,0,0,.39.68,2,2,0,0,0,.56.49,1,1,0,0,0,.47.15.46.46,0,0,0,.36-.14l.19.27a.52.52,0,0,1-.43.18,1.26,1.26,0,0,1-.59-.19A2.49,2.49,0,0,1,302.65,57Zm2.45-2.3a.39.39,0,0,1-.06-.2.13.13,0,0,1,.21-.12.41.41,0,0,1,.15.15.41.41,0,0,1,.06.2.13.13,0,0,1-.21.12A.42.42,0,0,1,305.11,54.67Zm0,.83.25.15v3.08l-.25-.15Zm3.43,2.29a2.23,2.23,0,0,1,.29,1.14v1.8l-.26-.15V58.81a1.85,1.85,0,0,0-.23-.92,1.68,1.68,0,0,0-.64-.64c-.31-.18-.56-.22-.74-.1a.79.79,0,0,0-.27.72V59.5l-.25-.15V56.27l.24.14v.67a.5.5,0,0,1,.41-.27,1.14,1.14,0,0,1,.65.19A2.13,2.13,0,0,1,308.56,57.79Zm3.75,1.85V62.4c0,.51-.11.83-.32.95s-.54.05-1-.2a3.51,3.51,0,0,1-.69-.53,3.08,3.08,0,0,1-.53-.66l.14-.14a3.21,3.21,0,0,0,.48.61,2.92,2.92,0,0,0,.6.46q.53.31.79.16c.17-.1.25-.35.25-.76v-.52a.56.56,0,0,1-.46.26,1.21,1.21,0,0,1-.65-.2,2.51,2.51,0,0,1-.68-.58,2.94,2.94,0,0,1-.48-.81,2.38,2.38,0,0,1-.17-.87,1.14,1.14,0,0,1,.17-.67.59.59,0,0,1,.48-.25,1.26,1.26,0,0,1,.68.2,2.48,2.48,0,0,1,.67.57,2.7,2.7,0,0,1,.45.79v-.7Zm-.78,2.09a.48.48,0,0,0,.39-.21,1,1,0,0,0,.14-.56,2,2,0,0,0-.14-.72,2.38,2.38,0,0,0-.39-.66,2.12,2.12,0,0,0-.56-.48,1,1,0,0,0-.56-.17.48.48,0,0,0-.39.21.94.94,0,0,0-.14.56,2,2,0,0,0,.14.72,2.4,2.4,0,0,0,.39.66,2,2,0,0,0,.56.48A1,1,0,0,0,311.53,61.74Zm5.43,2.2-2.3-1.33a2.09,2.09,0,0,0,.16.73,2.43,2.43,0,0,0,.4.66,2.12,2.12,0,0,0,.57.48,1.2,1.2,0,0,0,.48.17.48.48,0,0,0,.37-.11l.15.28a.58.58,0,0,1-.44.12,1.38,1.38,0,0,1-.57-.2,2.58,2.58,0,0,1-.71-.61,3.06,3.06,0,0,1-.49-.84,2.52,2.52,0,0,1-.18-.91,1.31,1.31,0,0,1,.17-.71.6.6,0,0,1,.46-.29,1.09,1.09,0,0,1,.65.18,2.29,2.29,0,0,1,.65.57,2.93,2.93,0,0,1,.46.81,2.58,2.58,0,0,1,.17.9Zm-1.77-2.25a.47.47,0,0,0-.36.2.94.94,0,0,0-.16.5l2,1.18a2.05,2.05,0,0,0-.15-.68,2.38,2.38,0,0,0-.36-.62,1.85,1.85,0,0,0-.51-.44A.91.91,0,0,0,315.19,61.69Zm2.57-.2.25.15V66l-.25-.15Zm1.31,1.24a.39.39,0,0,1-.06-.2.13.13,0,0,1,.21-.12.44.44,0,0,1,.15.15.4.4,0,0,1,.06.2.13.13,0,0,1-.21.12A.41.41,0,0,1,319.07,62.74Zm0,.83.25.15v3.08l-.25-.15ZM321.75,68a.37.37,0,0,1-.24,0,1,1,0,0,1-.3-.12,1.42,1.42,0,0,1-.73-1.26v-2l-.49-.28v-.25l.49.28v-.67l.26.15v.67l.85.49v.25l-.85-.49v2a1.09,1.09,0,0,0,.12.53,1,1,0,0,0,.37.37.45.45,0,0,0,.41.07Zm.58.48a.42.42,0,0,1-.06-.22.14.14,0,0,1,.06-.14.15.15,0,0,1,.15,0,.43.43,0,0,1,.15.16.42.42,0,0,1,.06.21.15.15,0,0,1-.06.14.14.14,0,0,1-.15,0A.41.41,0,0,1,322.33,68.46Zm5.46-.93-1.59,3.21-.26-.15-1.59-5.05.29.17,1.45,4.58,1.45-2.91Zm.44.49a.39.39,0,0,1-.06-.2.13.13,0,0,1,.21-.12.42.42,0,0,1,.15.15.4.4,0,0,1,.06.2.14.14,0,0,1-.06.14.15.15,0,0,1-.15,0A.42.42,0,0,1,328.23,68Zm0,.83.25.15v3.08l-.25-.15Zm3.48,2-1.21,2.39-.26-.15-1.2-3.77.27.16,1.06,3.37,1.07-2.14Zm2.14,1.5a1.94,1.94,0,0,1,.27,1v2l-.25-.14v-.55a.44.44,0,0,1-.37.21,1.14,1.14,0,0,1-.59-.19,2,2,0,0,1-.7-.65,1.42,1.42,0,0,1-.26-.79c0-.26.08-.42.24-.49s.41,0,.76.2l.92.53v-.25a1.49,1.49,0,0,0-.2-.77,1.59,1.59,0,0,0-.59-.56,1.42,1.42,0,0,0-.51-.19.71.71,0,0,0-.41,0l-.13-.29a.81.81,0,0,1,.48,0,1.76,1.76,0,0,1,.59.22A2.06,2.06,0,0,1,333.87,72.36Zm-.34,2.22a.48.48,0,0,0,.35-.31v-.58l-.91-.53q-.39-.23-.57-.16c-.12,0-.18.16-.18.35a1,1,0,0,0,.19.59,1.63,1.63,0,0,0,.55.49A.85.85,0,0,0,333.53,74.58Zm5.76,1a2.25,2.25,0,0,1,.28,1.13v1.8l-.25-.15V76.54a1.87,1.87,0,0,0-.22-.92,1.62,1.62,0,0,0-.61-.63c-.3-.17-.54-.2-.71-.09a.81.81,0,0,0-.26.72v1.64l-.26-.15V75.35a1.87,1.87,0,0,0-.22-.92,1.61,1.61,0,0,0-.61-.63c-.3-.17-.54-.2-.71-.09a.81.81,0,0,0-.26.72v1.64l-.25-.15V72.86l.25.14v.66a.49.49,0,0,1,.4-.28,1.07,1.07,0,0,1,.63.18,2,2,0,0,1,.62.54,2.09,2.09,0,0,1,.36.76.52.52,0,0,1,.42-.3,1.08,1.08,0,0,1,.66.18A2.08,2.08,0,0,1,339.29,75.54ZM343,77.34v3.08l-.24-.14v-.66a.49.49,0,0,1-.39.28,1,1,0,0,1-.61-.17,2.2,2.2,0,0,1-1.11-1.95V76l.26.15V77.9a1.84,1.84,0,0,0,.23.92,1.73,1.73,0,0,0,.65.65q.45.26.71.09a.81.81,0,0,0,.26-.72V77.2ZM344.11,81a2.81,2.81,0,0,1-.46-.55l.12-.17a3,3,0,0,0,.42.51,2.68,2.68,0,0,0,.54.42,1,1,0,0,0,.6.19c.13,0,.19-.13.19-.31a.69.69,0,0,0-.1-.37,1.41,1.41,0,0,0-.26-.31l-.42-.36a6.23,6.23,0,0,1-.51-.44,1.84,1.84,0,0,1-.33-.44,1.12,1.12,0,0,1-.14-.55.42.42,0,0,1,.26-.45,1,1,0,0,1,.75.19,3,3,0,0,1,.51.38,2.77,2.77,0,0,1,.41.46l-.12.17a2.72,2.72,0,0,0-.37-.42,2.47,2.47,0,0,0-.43-.32.84.84,0,0,0-.56-.17c-.13,0-.19.14-.19.31a.73.73,0,0,0,.11.38,1.57,1.57,0,0,0,.26.32l.44.37a6.6,6.6,0,0,1,.5.43,1.78,1.78,0,0,1,.32.43,1.08,1.08,0,0,1,.13.53c0,.25-.09.41-.28.45a1.14,1.14,0,0,1-.78-.22A3.15,3.15,0,0,1,344.11,81Zm5.95,2.05-2.3-1.33a2.09,2.09,0,0,0,.16.73,2.46,2.46,0,0,0,.4.67,2.13,2.13,0,0,0,.57.48,1.2,1.2,0,0,0,.48.17.49.49,0,0,0,.37-.11l.15.28a.58.58,0,0,1-.44.12,1.4,1.4,0,0,1-.57-.2,2.59,2.59,0,0,1-.71-.61,3.06,3.06,0,0,1-.49-.84,2.51,2.51,0,0,1-.18-.91,1.31,1.31,0,0,1,.17-.71.6.6,0,0,1,.46-.29,1.08,1.08,0,0,1,.65.18,2.31,2.31,0,0,1,.65.57,3,3,0,0,1,.45.81,2.57,2.57,0,0,1,.17.9Zm-1.77-2.26a.47.47,0,0,0-.36.2,1,1,0,0,0-.16.5l2,1.18a2,2,0,0,0-.15-.68,2.42,2.42,0,0,0-.36-.62,1.83,1.83,0,0,0-.51-.44A.91.91,0,0,0,348.28,80.8Zm5,2.49V86q0,.77-.32.95c-.22.12-.54.06-1-.19a3.5,3.5,0,0,1-.69-.53,3,3,0,0,1-.53-.66l.14-.14a3.25,3.25,0,0,0,.48.61,2.91,2.91,0,0,0,.6.46q.53.31.79.16c.17-.1.25-.35.25-.76v-.52a.55.55,0,0,1-.45.26,1.22,1.22,0,0,1-.66-.2,2.54,2.54,0,0,1-.68-.58,3,3,0,0,1-.48-.81,2.4,2.4,0,0,1-.17-.87,1.15,1.15,0,0,1,.17-.67.59.59,0,0,1,.48-.26,1.27,1.27,0,0,1,.68.2,2.43,2.43,0,0,1,.67.57,2.7,2.7,0,0,1,.46.79v-.7Zm-.78,2.1a.48.48,0,0,0,.39-.21,1,1,0,0,0,.14-.56,1.94,1.94,0,0,0-.14-.72,2.4,2.4,0,0,0-.39-.66,2.09,2.09,0,0,0-.56-.48,1,1,0,0,0-.56-.17.49.49,0,0,0-.39.21.94.94,0,0,0-.14.56,2,2,0,0,0,.14.72,2.35,2.35,0,0,0,.39.66,2.07,2.07,0,0,0,.56.48A1,1,0,0,0,352.47,85.38Zm4.12,1.44L354.3,85.5a2.11,2.11,0,0,0,.16.73,2.46,2.46,0,0,0,.4.67,2.13,2.13,0,0,0,.57.48,1.2,1.2,0,0,0,.48.17.49.49,0,0,0,.37-.11l.15.28a.58.58,0,0,1-.44.12,1.4,1.4,0,0,1-.57-.2,2.57,2.57,0,0,1-.71-.61,3,3,0,0,1-.49-.84,2.53,2.53,0,0,1-.18-.91,1.31,1.31,0,0,1,.17-.71.6.6,0,0,1,.46-.29,1.08,1.08,0,0,1,.65.18A2.31,2.31,0,0,1,356,85a2.93,2.93,0,0,1,.46.81,2.59,2.59,0,0,1,.17.9Zm-1.77-2.26a.47.47,0,0,0-.36.2,1,1,0,0,0-.16.5l2,1.18a2,2,0,0,0-.15-.68,2.42,2.42,0,0,0-.36-.62,1.82,1.82,0,0,0-.51-.44A.91.91,0,0,0,354.82,84.57Zm2.63,4.13a2.81,2.81,0,0,1-.45-.55l.12-.17a3,3,0,0,0,.42.51,2.68,2.68,0,0,0,.54.42,1,1,0,0,0,.6.19c.13,0,.19-.13.19-.31a.69.69,0,0,0-.11-.37,1.42,1.42,0,0,0-.26-.31l-.42-.36a6.42,6.42,0,0,1-.51-.44,1.86,1.86,0,0,1-.33-.44,1.13,1.13,0,0,1-.14-.55c0-.24.09-.39.26-.45a1,1,0,0,1,.75.19,3,3,0,0,1,.51.38,2.8,2.8,0,0,1,.41.45l-.12.17a2.66,2.66,0,0,0-.37-.42,2.41,2.41,0,0,0-.43-.32.84.84,0,0,0-.56-.17c-.13,0-.19.14-.19.31a.72.72,0,0,0,.11.38,1.54,1.54,0,0,0,.26.32l.44.37a6.55,6.55,0,0,1,.5.43,1.74,1.74,0,0,1,.33.43,1.08,1.08,0,0,1,.13.53q0,.38-.28.46a1.14,1.14,0,0,1-.78-.22A3.18,3.18,0,0,1,357.45,88.7Zm3.71,2a.37.37,0,0,1-.24,0,1,1,0,0,1-.3-.12,1.42,1.42,0,0,1-.73-1.26v-2l-.49-.28v-.25l.49.28v-.67l.26.15v.67l.85.49V88l-.85-.49v2a1.09,1.09,0,0,0,.13.53,1,1,0,0,0,.37.37.45.45,0,0,0,.41.07Zm2.37-1.25a1.94,1.94,0,0,1,.27,1v2l-.24-.14v-.55a.44.44,0,0,1-.37.21,1.14,1.14,0,0,1-.59-.19,2.06,2.06,0,0,1-.7-.65,1.42,1.42,0,0,1-.26-.79q0-.38.24-.49t.76.2l.91.53v-.25a1.48,1.48,0,0,0-.2-.77,1.6,1.6,0,0,0-.59-.56,1.42,1.42,0,0,0-.51-.19.72.72,0,0,0-.41,0l-.13-.29a.82.82,0,0,1,.48,0,1.79,1.79,0,0,1,.59.22A2.08,2.08,0,0,1,363.53,89.49Zm-.34,2.22a.48.48,0,0,0,.35-.31v-.58l-.91-.53q-.39-.23-.57-.16c-.12,0-.18.16-.18.35a1,1,0,0,0,.2.59,1.62,1.62,0,0,0,.55.49A.85.85,0,0,0,363.19,91.71Zm1.72,1.3a2.81,2.81,0,0,1-.45-.55l.12-.17a3,3,0,0,0,.42.51,2.65,2.65,0,0,0,.54.42,1,1,0,0,0,.6.19c.13,0,.19-.13.19-.31a.7.7,0,0,0-.1-.37,1.49,1.49,0,0,0-.26-.31l-.42-.36c-.21-.17-.38-.31-.51-.44a1.84,1.84,0,0,1-.33-.44,1.12,1.12,0,0,1-.14-.55c0-.24.09-.4.26-.45a1,1,0,0,1,.75.19,3.05,3.05,0,0,1,.51.37,2.79,2.79,0,0,1,.41.46l-.12.17a2.58,2.58,0,0,0-.37-.42,2.52,2.52,0,0,0-.43-.32.84.84,0,0,0-.56-.17c-.13,0-.19.14-.19.31a.73.73,0,0,0,.11.38,1.53,1.53,0,0,0,.26.32l.44.37c.21.16.38.31.5.43a1.82,1.82,0,0,1,.33.43,1.09,1.09,0,0,1,.13.53q0,.38-.28.45a1.13,1.13,0,0,1-.78-.22A3.22,3.22,0,0,1,364.91,93ZM369,95.27a3,3,0,0,1-.48-.84,2.54,2.54,0,0,1-.17-.91,1.26,1.26,0,0,1,.17-.71.6.6,0,0,1,.48-.28,1.26,1.26,0,0,1,.7.2,2.36,2.36,0,0,1,.58.48,2.54,2.54,0,0,1,.43.67l-.19.05a2.13,2.13,0,0,0-.36-.55,1.89,1.89,0,0,0-.47-.39,1,1,0,0,0-.56-.16.49.49,0,0,0-.39.23,1.07,1.07,0,0,0-.14.6,2.14,2.14,0,0,0,.14.76,2.42,2.42,0,0,0,.39.68,2,2,0,0,0,.56.49,1,1,0,0,0,.47.15.46.46,0,0,0,.36-.14l.19.27a.53.53,0,0,1-.43.18,1.26,1.26,0,0,1-.58-.19A2.49,2.49,0,0,1,369,95.27Zm2.79,1.61a3,3,0,0,1-.48-.83,2.54,2.54,0,0,1-.17-.91,1.24,1.24,0,0,1,.17-.7.62.62,0,0,1,.48-.28,1.2,1.2,0,0,1,.68.19,2.49,2.49,0,0,1,.68.6,3,3,0,0,1,.48.83,2.52,2.52,0,0,1,.17.91,1.23,1.23,0,0,1-.17.7.61.61,0,0,1-.48.28,1.18,1.18,0,0,1-.68-.19A2.44,2.44,0,0,1,371.76,96.88Zm1.23.48a.5.5,0,0,0,.38-.24,1.08,1.08,0,0,0,.14-.59,2.15,2.15,0,0,0-.14-.75,2.49,2.49,0,0,0-.38-.68,1.92,1.92,0,0,0-.55-.48.92.92,0,0,0-.55-.15.5.5,0,0,0-.38.24,1.06,1.06,0,0,0-.14.59,2.13,2.13,0,0,0,.14.75,2.48,2.48,0,0,0,.38.68,2,2,0,0,0,.55.48A.92.92,0,0,0,373,97.36Zm3.67-.24a2.23,2.23,0,0,1,.29,1.14v1.8l-.26-.15V98.13a1.84,1.84,0,0,0-.23-.92,1.67,1.67,0,0,0-.64-.64c-.31-.18-.56-.22-.74-.1s-.27.35-.27.72v1.64l-.25-.15V95.59l.25.14v.67a.5.5,0,0,1,.41-.27,1.13,1.13,0,0,1,.65.19A2.13,2.13,0,0,1,376.66,97.12Zm3.44,1.67-1.21,2.39-.26-.15-1.2-3.77.27.16,1.06,3.37,1.07-2.14Zm2.14,1.5a1.94,1.94,0,0,1,.27,1v2l-.25-.14v-.55a.44.44,0,0,1-.37.21,1.14,1.14,0,0,1-.59-.19,2,2,0,0,1-.7-.65,1.42,1.42,0,0,1-.26-.79c0-.26.08-.42.24-.49s.41,0,.76.2l.92.53v-.25a1.49,1.49,0,0,0-.2-.77,1.6,1.6,0,0,0-.59-.56,1.42,1.42,0,0,0-.51-.19.71.71,0,0,0-.41,0l-.13-.29a.81.81,0,0,1,.48,0,1.77,1.77,0,0,1,.59.22A2.06,2.06,0,0,1,382.23,100.29Zm-.34,2.22a.48.48,0,0,0,.35-.31v-.58l-.91-.53q-.39-.23-.57-.16c-.12,0-.18.16-.18.35a1,1,0,0,0,.19.59,1.63,1.63,0,0,0,.55.49A.85.85,0,0,0,381.89,102.51Zm1.66-3,.26.15V104l-.26-.15Zm1.33.77.25.15v4.38l-.25-.15Zm1.31,1.24a.39.39,0,0,1-.06-.2.13.13,0,0,1,.21-.12.42.42,0,0,1,.15.15.4.4,0,0,1,.06.2.14.14,0,0,1-.06.14.15.15,0,0,1-.15,0A.42.42,0,0,1,386.2,101.49Zm0,.83.25.15v3.08l-.25-.15Zm1.4,3.8a2.78,2.78,0,0,1-.46-.55l.12-.17a3,3,0,0,0,.42.51,2.65,2.65,0,0,0,.54.42,1,1,0,0,0,.6.19c.13,0,.19-.13.19-.31a.69.69,0,0,0-.1-.37,1.46,1.46,0,0,0-.26-.31l-.42-.36a6.22,6.22,0,0,1-.51-.44,1.83,1.83,0,0,1-.33-.44,1.13,1.13,0,0,1-.14-.55.42.42,0,0,1,.26-.45,1,1,0,0,1,.75.19,3,3,0,0,1,.51.38,2.75,2.75,0,0,1,.41.45l-.12.17a2.73,2.73,0,0,0-.37-.42,2.41,2.41,0,0,0-.43-.32.84.84,0,0,0-.56-.17c-.12,0-.19.14-.19.31a.73.73,0,0,0,.11.38,1.54,1.54,0,0,0,.26.32l.44.37a6.39,6.39,0,0,1,.5.43,1.72,1.72,0,0,1,.33.43,1.07,1.07,0,0,1,.13.53q0,.38-.28.46a1.14,1.14,0,0,1-.78-.22A3.15,3.15,0,0,1,387.62,106.12ZM287.29,53l.25.15v4.38l-.25-.15Zm1.31,1.24a.39.39,0,0,1-.06-.2.13.13,0,0,1,.21-.12.42.42,0,0,1,.15.15.4.4,0,0,1,.06.2.14.14,0,0,1-.06.14.15.15,0,0,1-.15,0A.42.42,0,0,1,288.61,54.2Zm0,.83.25.15v3.08l-.25-.15ZM292,57.13a3,3,0,0,1,.47.83,2.58,2.58,0,0,1,.17.91,1.27,1.27,0,0,1-.17.71.61.61,0,0,1-.47.28,1.16,1.16,0,0,1-.67-.19,2.29,2.29,0,0,1-.65-.57,2.8,2.8,0,0,1-.45-.81V59l-.25-.14V54.5l.26.15v2a.56.56,0,0,1,.44-.28,1.1,1.1,0,0,1,.64.18A2.46,2.46,0,0,1,292,57.13Zm-.14,2.42a.5.5,0,0,0,.39-.24,1.07,1.07,0,0,0,.14-.59,2.13,2.13,0,0,0-.14-.75,2.49,2.49,0,0,0-.39-.68,2,2,0,0,0-.55-.48.93.93,0,0,0-.55-.15.5.5,0,0,0-.38.24,1.08,1.08,0,0,0-.14.59,2.15,2.15,0,0,0,.14.75,2.5,2.5,0,0,0,.38.68,1.92,1.92,0,0,0,.55.48A.94.94,0,0,0,291.84,59.55Zm3.83,1.15-2.3-1.33a2.09,2.09,0,0,0,.16.73,2.43,2.43,0,0,0,.4.66,2.12,2.12,0,0,0,.57.48,1.2,1.2,0,0,0,.48.17.48.48,0,0,0,.37-.11l.15.28a.58.58,0,0,1-.44.12,1.38,1.38,0,0,1-.57-.2,2.59,2.59,0,0,1-.71-.61,3.05,3.05,0,0,1-.49-.84,2.5,2.5,0,0,1-.18-.91,1.31,1.31,0,0,1,.17-.71.6.6,0,0,1,.46-.29,1.09,1.09,0,0,1,.65.18,2.31,2.31,0,0,1,.65.57,3,3,0,0,1,.45.81,2.58,2.58,0,0,1,.17.9Zm-1.77-2.25a.47.47,0,0,0-.36.2.94.94,0,0,0-.16.5l2,1.18a2,2,0,0,0-.15-.68,2.41,2.41,0,0,0-.36-.62,1.85,1.85,0,0,0-.51-.44A.9.9,0,0,0,293.89,58.45Zm3.2,1.62a1.08,1.08,0,0,1,.63.18v.29l-.06,0c-.3-.17-.53-.2-.69-.08a.88.88,0,0,0-.25.75v1.61l-.25-.15V59.55l.25.14v.67A.46.46,0,0,1,297.09,60.07Zm1.67,3.71a3,3,0,0,1-.48-.83,2.55,2.55,0,0,1-.17-.91,1.26,1.26,0,0,1,.17-.71.61.61,0,0,1,.48-.28,1.18,1.18,0,0,1,.68.19,2.46,2.46,0,0,1,.68.59,3,3,0,0,1,.48.83,2.54,2.54,0,0,1,.17.91,1.24,1.24,0,0,1-.17.7.61.61,0,0,1-.48.28,1.2,1.2,0,0,1-.68-.19A2.46,2.46,0,0,1,298.77,63.78Zm1.23.48a.51.51,0,0,0,.38-.24,1.07,1.07,0,0,0,.14-.59,2.14,2.14,0,0,0-.14-.75A2.49,2.49,0,0,0,300,62a2,2,0,0,0-.55-.48.93.93,0,0,0-.55-.15.5.5,0,0,0-.38.24,1.07,1.07,0,0,0-.14.59,2.13,2.13,0,0,0,.14.75,2.48,2.48,0,0,0,.38.68,1.94,1.94,0,0,0,.55.48A.93.93,0,0,0,300,64.27Zm5.14,1.91-2.29-1.33a2.09,2.09,0,0,0,.16.73,2.43,2.43,0,0,0,.4.67,2.11,2.11,0,0,0,.57.48,1.2,1.2,0,0,0,.48.17.49.49,0,0,0,.37-.11l.15.28a.58.58,0,0,1-.44.12A1.4,1.4,0,0,1,304,67a2.56,2.56,0,0,1-.71-.61,3,3,0,0,1-.49-.84,2.53,2.53,0,0,1-.18-.91,1.31,1.31,0,0,1,.17-.71.6.6,0,0,1,.46-.29,1.07,1.07,0,0,1,.65.18,2.28,2.28,0,0,1,.65.57,2.92,2.92,0,0,1,.46.81,2.59,2.59,0,0,1,.17.9Zm-1.77-2.26a.47.47,0,0,0-.36.2,1,1,0,0,0-.16.5l2,1.18a2,2,0,0,0-.15-.68,2.39,2.39,0,0,0-.36-.62,1.82,1.82,0,0,0-.51-.44A.91.91,0,0,0,303.37,63.92Zm4.91,2.45v3.08l-.24-.14v-.66a.49.49,0,0,1-.39.28,1,1,0,0,1-.61-.17,2.19,2.19,0,0,1-1.11-1.95V65l.26.15v1.78a1.83,1.83,0,0,0,.23.92,1.72,1.72,0,0,0,.65.65q.45.26.71.09a.81.81,0,0,0,.26-.72V66.22Zm6.5,4.07a2.24,2.24,0,0,1,.28,1.13v1.8l-.25-.15V71.44a1.87,1.87,0,0,0-.22-.92,1.61,1.61,0,0,0-.61-.63q-.45-.26-.71-.09a.81.81,0,0,0-.26.72v1.64l-.26-.15V70.25a1.86,1.86,0,0,0-.22-.92,1.61,1.61,0,0,0-.61-.63q-.45-.26-.71-.09a.81.81,0,0,0-.26.72V71l-.25-.15V67.75l.25.14v.66a.49.49,0,0,1,.4-.28,1.07,1.07,0,0,1,.63.18,2.05,2.05,0,0,1,.62.54,2.09,2.09,0,0,1,.36.76.52.52,0,0,1,.42-.3,1.08,1.08,0,0,1,.66.18A2.07,2.07,0,0,1,314.78,70.44Zm3,1.69a1.94,1.94,0,0,1,.27,1v2l-.24-.14V74.4a.44.44,0,0,1-.37.21,1.14,1.14,0,0,1-.59-.19,2,2,0,0,1-.7-.65,1.42,1.42,0,0,1-.26-.79c0-.26.08-.42.24-.49s.41,0,.76.2l.91.53V73a1.48,1.48,0,0,0-.2-.77,1.6,1.6,0,0,0-.59-.56,1.42,1.42,0,0,0-.51-.19.72.72,0,0,0-.41,0l-.13-.29a.81.81,0,0,1,.48,0,1.76,1.76,0,0,1,.59.22A2.07,2.07,0,0,1,317.77,72.12Zm-.34,2.22a.48.48,0,0,0,.35-.31v-.58l-.91-.53q-.39-.23-.57-.16c-.12,0-.18.16-.18.35a1,1,0,0,0,.2.59,1.61,1.61,0,0,0,.55.49A.85.85,0,0,0,317.44,74.34Zm1.66-3,.25.15v4.38l-.25-.15Zm3.59,5L320.39,75a2.09,2.09,0,0,0,.16.73,2.43,2.43,0,0,0,.4.67,2.11,2.11,0,0,0,.57.48A1.2,1.2,0,0,0,322,77a.49.49,0,0,0,.37-.11l.15.28a.58.58,0,0,1-.44.12,1.4,1.4,0,0,1-.57-.2,2.56,2.56,0,0,1-.71-.61,3.06,3.06,0,0,1-.49-.84,2.53,2.53,0,0,1-.18-.91,1.31,1.31,0,0,1,.17-.71.6.6,0,0,1,.46-.29,1.08,1.08,0,0,1,.65.18,2.29,2.29,0,0,1,.65.57,2.92,2.92,0,0,1,.46.81,2.59,2.59,0,0,1,.17.9ZM320.91,74a.47.47,0,0,0-.36.2,1,1,0,0,0-.16.5l2,1.18a2,2,0,0,0-.15-.68,2.39,2.39,0,0,0-.36-.62,1.83,1.83,0,0,0-.51-.44A.91.91,0,0,0,320.91,74Zm2.63,4.13a2.78,2.78,0,0,1-.46-.55l.12-.17a3,3,0,0,0,.42.51,2.65,2.65,0,0,0,.54.42,1,1,0,0,0,.6.19c.13,0,.19-.13.19-.31a.69.69,0,0,0-.1-.37,1.43,1.43,0,0,0-.26-.31l-.42-.36a6.2,6.2,0,0,1-.51-.44,1.84,1.84,0,0,1-.33-.44,1.13,1.13,0,0,1-.14-.55.42.42,0,0,1,.26-.45,1,1,0,0,1,.75.19,3,3,0,0,1,.51.38,2.76,2.76,0,0,1,.41.45l-.12.17a2.72,2.72,0,0,0-.37-.42,2.41,2.41,0,0,0-.43-.32.84.84,0,0,0-.56-.17c-.12,0-.19.14-.19.31a.73.73,0,0,0,.11.38,1.55,1.55,0,0,0,.26.32l.44.37c.21.16.38.31.5.43a1.74,1.74,0,0,1,.32.43,1.07,1.07,0,0,1,.13.53q0,.38-.28.46a1.14,1.14,0,0,1-.78-.22A3.14,3.14,0,0,1,323.54,78.18Zm4.72-.27V81l-.24-.14v-.66a.49.49,0,0,1-.39.28,1,1,0,0,1-.61-.17,2.19,2.19,0,0,1-1.11-1.95v-1.8l.26.15v1.78a1.84,1.84,0,0,0,.23.92A1.72,1.72,0,0,0,327,80q.45.26.71.09a.81.81,0,0,0,.26-.72V77.76ZM331,79.76a1.93,1.93,0,0,1,.27,1v2l-.25-.14V82a.44.44,0,0,1-.37.21,1.14,1.14,0,0,1-.59-.19,2.07,2.07,0,0,1-.7-.65,1.42,1.42,0,0,1-.26-.79c0-.26.08-.42.24-.49s.41,0,.76.2l.91.53v-.25a1.48,1.48,0,0,0-.2-.77,1.57,1.57,0,0,0-.59-.56,1.41,1.41,0,0,0-.51-.19.72.72,0,0,0-.41,0l-.13-.29a.82.82,0,0,1,.48,0,1.79,1.79,0,0,1,.59.23A2.06,2.06,0,0,1,331,79.76ZM330.66,82a.48.48,0,0,0,.35-.31v-.58l-.91-.52q-.39-.23-.57-.16c-.12,0-.18.16-.18.35a1,1,0,0,0,.19.59,1.64,1.64,0,0,0,.55.49A.86.86,0,0,0,330.66,82Zm4-1.65v4.38l-.25-.15v-.73a.56.56,0,0,1-.44.3,1.1,1.1,0,0,1-.65-.18,2.42,2.42,0,0,1-.67-.59,3,3,0,0,1-.47-.83,2.55,2.55,0,0,1-.17-.91,1.28,1.28,0,0,1,.17-.71.6.6,0,0,1,.47-.28,1.19,1.19,0,0,1,.67.19,2.27,2.27,0,0,1,.64.57,2.88,2.88,0,0,1,.45.8v-2Zm-.78,3.52a.51.51,0,0,0,.38-.24,1.08,1.08,0,0,0,.14-.59,2.17,2.17,0,0,0-.14-.75,2.51,2.51,0,0,0-.38-.68,2,2,0,0,0-.55-.48.92.92,0,0,0-.55-.15.5.5,0,0,0-.38.24,1.07,1.07,0,0,0-.14.59,2.13,2.13,0,0,0,.14.75,2.49,2.49,0,0,0,.38.68,2,2,0,0,0,.55.48A.92.92,0,0,0,333.92,83.85Zm3.52-.37a1.93,1.93,0,0,1,.27,1v2l-.24-.14v-.55a.43.43,0,0,1-.37.21,1.14,1.14,0,0,1-.59-.19,2,2,0,0,1-.7-.65,1.42,1.42,0,0,1-.26-.79q0-.38.24-.49c.16-.07.41,0,.76.2l.91.53v-.25a1.48,1.48,0,0,0-.2-.77,1.58,1.58,0,0,0-.59-.56,1.4,1.4,0,0,0-.51-.19.72.72,0,0,0-.41,0l-.13-.29a.81.81,0,0,1,.48,0,1.77,1.77,0,0,1,.59.22A2.05,2.05,0,0,1,337.44,83.48Zm-.34,2.22a.48.48,0,0,0,.35-.31v-.58l-.91-.53q-.39-.23-.57-.16t-.18.35a1,1,0,0,0,.19.59,1.62,1.62,0,0,0,.55.49A.86.86,0,0,0,337.1,85.7Zm1.48,1.2a.43.43,0,0,1-.06-.22.14.14,0,0,1,.06-.14.15.15,0,0,1,.15,0,.42.42,0,0,1,.15.16.42.42,0,0,1,.06.21.15.15,0,0,1-.06.14.14.14,0,0,1-.15,0A.43.43,0,0,1,338.58,86.9Z" transform="translate(-141.99 -35.15)"/><path class="cls-30" d="M240.43,162.25c-.61.39-1.22.79-1.83,1.21l-.33.22q-.93.64-1.85,1.31l-.34.25q-.95.7-1.88,1.44l-.24.2q-1,.8-2,1.64l-.05,0q-1,.86-2,1.77l-.15.14q-1,.89-2,1.82l-.24.23q-.91.88-1.81,1.79l-.3.3q-.88.9-1.74,1.82l-.3.32q-.85.92-1.68,1.86l-.19.22q-.87,1-1.72,2l-.06.07q-.88,1.06-1.74,2.16l-.19.23q-1.08,1.37-2.12,2.78h0q-.72,1-1.41,2l-.28.39q-.67,1-1.32,1.93l-.2.3q-.85,1.27-1.66,2.56l-.2.31q-.8,1.28-1.57,2.59l-.25.42q-.49.83-1,1.68l-.15.26q-.53.95-1,1.9l-.21.39q-.68,1.29-1.34,2.59l-.19.39q-.57,1.14-1.11,2.29l-.12.27q-.44.95-.86,1.9l-.19.42q-.45,1-.87,2l-.17.41q-.39.94-.76,1.88l-.13.33q-.41,1-.79,2.09l-.17.46c-.27.74-.53,1.48-.77,2.22l0,.1q-.37,1.1-.71,2.2l-.13.41q-.34,1.12-.66,2.24l-.12.43c-.21.77-.42,1.54-.61,2.31l0,.18q-.27,1.1-.51,2.19l-.08.37q-.24,1.11-.45,2.22l-.08.45c-.14.73-.26,1.46-.38,2.19l0,.15q-.16,1-.3,2.08l-.05.42q-.13,1-.23,2.08c0,.14,0,.27,0,.41q-.09,1-.15,1.94c0,.08,0,.16,0,.24,0,.7-.07,1.39-.1,2.08q0,.24,0,.47c0,.66,0,1.31,0,2l-12.06-7c0-.65,0-1.31,0-2,0-.08,0-.16,0-.24s0-.15,0-.23c0-.69.05-1.38.1-2.08v-.06c0-.06,0-.12,0-.18q.06-1,.15-1.94c0-.09,0-.17,0-.26l0-.16q.1-1,.23-2.08l0-.16,0-.26q.13-1,.3-2.08l0-.12v0c.12-.73.24-1.46.38-2.19l0-.25,0-.21q.21-1.11.45-2.22l0-.13.06-.24q.24-1.09.51-2.19l0-.13v0c.19-.77.4-1.54.61-2.31l.06-.24.05-.19q.31-1.12.65-2.24l0-.16.08-.26q.34-1.1.7-2.19l0-.08v0c.25-.74.51-1.48.77-2.22l.09-.25.08-.21q.38-1,.79-2.09l0-.1.1-.24q.37-.94.75-1.87l.11-.27.06-.14q.43-1,.87-2l.07-.16.12-.27q.42-.95.86-1.89l.09-.2,0-.07q.54-1.15,1.11-2.29l.11-.23.08-.16q.65-1.3,1.34-2.59l.1-.2.11-.2q.51-1,1-1.9l.15-.26q.47-.84,1-1.68l.15-.27.09-.15q.77-1.3,1.57-2.59l.2-.31q.81-1.29,1.66-2.56l.11-.17.09-.13q.65-1,1.32-1.93l.28-.39q.7-1,1.41-2h0q1-1.41,2.12-2.78l.06-.07.13-.16q.86-1.09,1.74-2.15v0l0-.05q.85-1,1.72-2l.13-.15.06-.07q.83-.94,1.67-1.86l.17-.19.13-.14q.86-.92,1.74-1.82l.14-.14.17-.16q.9-.91,1.81-1.79l.09-.09.16-.14q1-.92,2-1.81l0,0,.11-.09q1-.9,2-1.77l0,0h0q1-.84,2-1.64l.16-.13.08-.06q.93-.74,1.88-1.44l.18-.14.16-.11q.92-.67,1.85-1.31l.12-.09.2-.14c.61-.41,1.21-.82,1.83-1.21l0,0h0c.61-.39,1.23-.76,1.84-1.13l.21-.13.48-.28,12.06,7-.69.41c-.62.37-1.23.74-1.85,1.13Z" transform="translate(-141.99 -35.15)"/><polygon class="cls-31" points="56.4 126.67 95.54 104.12 95.54 178.22 56.4 200.77 56.4 126.67"/><polygon class="cls-5" points="59.04 128.59 98.18 106.04 98.18 180.14 59.04 202.69 59.04 128.59"/><polygon class="cls-31" points="61.68 130.21 100.82 107.66 100.82 181.76 61.68 204.31 61.68 130.21"/><path class="cls-32" d="M243,160.67c-27,15.61-48.89,53.46-48.8,84.53l49-28.27Z" transform="translate(-141.99 -35.15)"/><path class="cls-5" d="M314.18,271.28v-2l35.11,20.32,21.07-12.37a7,7,0,0,0,3.45-6V244.93l1.84,1.07v26.4a7,7,0,0,1-3.49,6l-22.87,13.2Z" transform="translate(-141.99 -35.15)"/><path class="cls-33" d="M314.18,269.24l21.88-12.61a8.9,8.9,0,0,0,4.46-7.71V225.71l33.31,19.22v26.25a7,7,0,0,1-3.45,6l-21.07,12.37Z" transform="translate(-141.99 -35.15)"/><polygon class="cls-5" points="198.52 200.65 198.52 208.13 231.83 227.09 231.83 219.85 198.52 200.65"/><polygon class="cls-33" points="137.15 228.77 217.82 275.35 188.49 292.29 107.58 245.57 137.15 228.77"/><polygon class="cls-34" points="144.76 256.25 168.85 270.12 164.68 272.52 140.56 258.64 144.76 256.25"/><polygon class="cls-5" points="164.68 272.92 164.68 272.52 168.85 270.12 168.85 270.51 164.68 272.92"/><polygon class="cls-5" points="140.56 258.64 140.56 259.07 164.68 272.92 164.68 272.52 140.56 258.64"/><polygon class="cls-5" points="188.49 293.45 188.49 292.29 217.82 275.35 217.82 276.51 188.49 293.45"/><polygon class="cls-5" points="107.58 245.57 107.58 247.01 188.49 293.45 188.49 292.29 107.58 245.57"/><polygon class="cls-34" points="119.52 241.76 130.99 248.38 126.82 250.79 115.32 244.15 119.52 241.76"/><polygon class="cls-5" points="126.82 251.19 126.82 250.79 130.99 248.38 130.99 248.78 126.82 251.19"/><polygon class="cls-5" points="115.32 244.15 115.32 244.59 126.82 251.19 126.82 250.79 115.32 244.15"/><polygon class="cls-34" points="132.14 249.01 143.61 255.63 139.44 258.04 127.94 251.4 132.14 249.01"/><polygon class="cls-5" points="139.44 258.43 139.44 258.04 143.61 255.63 143.61 256.02 139.44 258.43"/><polygon class="cls-5" points="127.94 251.4 127.94 251.83 139.44 258.43 139.44 258.04 127.94 251.4"/><polygon class="cls-34" points="170.01 270.74 181.47 277.36 177.3 279.77 165.8 273.13 170.01 270.74"/><polygon class="cls-5" points="177.3 280.16 177.3 279.77 181.47 277.36 181.47 277.76 177.3 280.16"/><polygon class="cls-5" points="165.8 273.13 165.8 273.56 177.3 280.16 177.3 279.77 165.8 273.13"/><polygon class="cls-34" points="182.63 277.99 194.09 284.61 189.92 287.01 178.43 280.37 182.63 277.99"/><polygon class="cls-5" points="189.92 287.41 189.92 287.01 194.09 284.61 194.09 285 189.92 287.41"/><polygon class="cls-5" points="178.43 280.37 178.43 280.81 189.92 287.41 189.92 287.01 178.43 280.37"/><polygon class="cls-34" points="125.27 238.74 136.74 245.36 132.57 247.77 121.07 241.13 125.27 238.74"/><polygon class="cls-5" points="132.57 248.17 132.57 247.77 136.74 245.36 136.74 245.76 132.57 248.17"/><polygon class="cls-5" points="121.07 241.13 121.07 241.57 132.57 248.17 132.57 247.77 121.07 241.13"/><polygon class="cls-34" points="137.89 245.99 149.36 252.61 145.19 255.01 133.69 248.38 137.89 245.99"/><polygon class="cls-5" points="145.19 255.41 145.19 255.01 149.36 252.61 149.36 253 145.19 255.41"/><polygon class="cls-5" points="133.69 248.38 133.69 248.81 145.19 255.41 145.19 255.01 133.69 248.38"/><polygon class="cls-34" points="150.51 253.23 161.98 259.85 157.81 262.26 146.31 255.62 150.51 253.23"/><polygon class="cls-5" points="157.81 262.65 157.81 262.26 161.98 259.85 161.98 260.25 157.81 262.65"/><polygon class="cls-5" points="146.31 255.62 146.31 256.05 157.81 262.65 157.81 262.26 146.31 255.62"/><polygon class="cls-34" points="163.13 260.48 174.6 267.1 170.43 269.5 158.93 262.86 163.13 260.48"/><polygon class="cls-5" points="170.43 269.9 170.43 269.5 174.6 267.1 174.6 267.49 170.43 269.9"/><polygon class="cls-5" points="158.93 262.86 158.93 263.3 170.43 269.9 170.43 269.5 158.93 262.86"/><polygon class="cls-34" points="175.76 267.72 187.22 274.34 183.05 276.75 171.55 270.11 175.76 267.72"/><polygon class="cls-5" points="183.05 277.14 183.05 276.75 187.22 274.34 187.22 274.74 183.05 277.14"/><polygon class="cls-5" points="171.55 270.11 171.55 270.54 183.05 277.14 183.05 276.75 171.55 270.11"/><polygon class="cls-34" points="188.38 274.96 199.84 281.58 195.67 283.99 184.17 277.35 188.38 274.96"/><polygon class="cls-5" points="195.67 284.39 195.67 283.99 199.84 281.58 199.84 281.98 195.67 284.39"/><polygon class="cls-5" points="184.17 277.35 184.17 277.79 195.67 284.39 195.67 283.99 184.17 277.35"/><polygon class="cls-34" points="131.02 235.72 142.49 242.34 138.32 244.75 126.82 238.11 131.02 235.72"/><polygon class="cls-5" points="138.32 245.15 138.32 244.75 142.49 242.34 142.49 242.74 138.32 245.15"/><polygon class="cls-5" points="126.82 238.11 126.82 238.54 138.32 245.15 138.32 244.75 126.82 238.11"/><polygon class="cls-34" points="143.64 242.97 155.11 249.59 150.94 251.99 139.44 245.35 143.64 242.97"/><polygon class="cls-5" points="150.94 252.39 150.94 251.99 155.11 249.59 155.11 249.98 150.94 252.39"/><polygon class="cls-5" points="139.44 245.35 139.44 245.79 150.94 252.39 150.94 251.99 139.44 245.35"/><polygon class="cls-34" points="156.26 250.21 167.73 256.83 163.56 259.24 152.06 252.6 156.26 250.21"/><polygon class="cls-5" points="163.56 259.63 163.56 259.24 167.73 256.83 167.73 257.23 163.56 259.63"/><polygon class="cls-5" points="152.06 252.6 152.06 253.03 163.56 259.63 163.56 259.24 152.06 252.6"/><polygon class="cls-34" points="168.88 257.45 180.35 264.07 176.18 266.48 164.68 259.84 168.88 257.45"/><polygon class="cls-5" points="176.18 266.88 176.18 266.48 180.35 264.07 180.35 264.47 176.18 266.88"/><polygon class="cls-5" points="164.68 259.84 164.68 260.28 176.18 266.88 176.18 266.48 164.68 259.84"/><polygon class="cls-34" points="181.5 264.7 192.97 271.32 188.8 273.73 177.3 267.09 181.5 264.7"/><polygon class="cls-5" points="188.8 274.12 188.8 273.73 192.97 271.32 192.97 271.71 188.8 274.12"/><polygon class="cls-5" points="177.3 267.09 177.3 267.52 188.8 274.12 188.8 273.73 177.3 267.09"/><polygon class="cls-34" points="194.13 271.94 205.59 278.56 201.42 280.97 189.92 274.33 194.13 271.94"/><polygon class="cls-5" points="201.42 281.37 201.42 280.97 205.59 278.56 205.59 278.96 201.42 281.37"/><polygon class="cls-5" points="189.92 274.33 189.92 274.76 201.42 281.37 201.42 280.97 189.92 274.33"/><polygon class="cls-34" points="136.77 232.7 148.24 239.32 144.07 241.73 132.57 235.09 136.77 232.7"/><polygon class="cls-5" points="144.07 242.12 144.07 241.73 148.24 239.32 148.24 239.72 144.07 242.12"/><polygon class="cls-5" points="132.57 235.09 132.57 235.52 144.07 242.12 144.07 241.73 132.57 235.09"/><polygon class="cls-34" points="149.39 239.94 160.86 246.56 156.69 248.97 145.19 242.33 149.39 239.94"/><polygon class="cls-5" points="156.69 249.37 156.69 248.97 160.86 246.56 160.86 246.96 156.69 249.37"/><polygon class="cls-5" points="145.19 242.33 145.19 242.77 156.69 249.37 156.69 248.97 145.19 242.33"/><polygon class="cls-34" points="162.01 247.19 173.48 253.81 169.31 256.22 157.81 249.58 162.01 247.19"/><polygon class="cls-5" points="169.31 256.61 169.31 256.22 173.48 253.81 173.48 254.2 169.31 256.61"/><polygon class="cls-5" points="157.81 249.58 157.81 250.01 169.31 256.61 169.31 256.22 157.81 249.58"/><polygon class="cls-34" points="174.63 254.43 186.1 261.05 181.93 263.46 170.43 256.82 174.63 254.43"/><polygon class="cls-5" points="181.93 263.86 181.93 263.46 186.1 261.05 186.1 261.45 181.93 263.86"/><polygon class="cls-5" points="170.43 256.82 170.43 257.25 181.93 263.86 181.93 263.46 170.43 256.82"/><polygon class="cls-34" points="187.25 261.68 198.72 268.3 194.55 270.7 183.05 264.07 187.25 261.68"/><polygon class="cls-5" points="194.55 271.1 194.55 270.7 198.72 268.3 198.72 268.69 194.55 271.1"/><polygon class="cls-5" points="183.05 264.07 183.05 264.5 194.55 271.1 194.55 270.7 183.05 264.07"/><polygon class="cls-34" points="199.88 268.92 211.34 275.54 207.17 277.95 195.67 271.31 199.88 268.92"/><polygon class="cls-5" points="207.17 278.34 207.17 277.95 211.34 275.54 211.34 275.94 207.17 278.34"/><polygon class="cls-5" points="195.67 271.31 195.67 271.74 207.17 278.34 207.17 277.95 195.67 271.31"/><path class="cls-33" d="M449.37,300.81l-171.47-99c-2.69-1.55-4.87-5.72-4.87-9.3V82.13c0-3.58,2.18-5.23,4.87-3.68l171.47,99c2.69,1.55,4.87,5.72,4.87,9.3V297.13C454.24,300.72,452.06,302.36,449.37,300.81Z" transform="translate(-141.99 -35.15)"/><path class="cls-35" d="M454.24,290.25,273,185.63V82.13c0-3.58,2.18-5.23,4.87-3.68l171.47,99c2.69,1.55,4.87,5.72,4.87,9.3Z" transform="translate(-141.99 -35.15)"/><path class="cls-33" d="M433,255.16l-102-58.8a.21.21,0,0,1-.1-.18V125.81a2,2,0,0,1,2.93-1.69l97.24,56.08a4.4,4.4,0,0,1,2.2,3.81v71A.21.21,0,0,1,433,255.16Z" transform="translate(-141.99 -35.15)"/><path class="cls-5" d="M342.67,133.69a1.86,1.86,0,0,0-.84-1.46h0c-.47-.27-.85-.05-.85.48a1.86,1.86,0,0,0,.84,1.46c.47.27.85.05.85-.48Z" transform="translate(-141.99 -35.15)"/><path class="cls-5" d="M340.11,132.23a1.86,1.86,0,0,0-.84-1.46h0c-.47-.27-.85-.05-.85.48a1.86,1.86,0,0,0,.84,1.46c.47.27.85.05.85-.48Z" transform="translate(-141.99 -35.15)"/><path class="cls-5" d="M337.41,130.63a1.86,1.86,0,0,0-.84-1.46h0c-.47-.27-.85-.05-.85.48a1.86,1.86,0,0,0,.84,1.46c.47.27.85.05.85-.48Z" transform="translate(-141.99 -35.15)"/><polygon class="cls-34" points="291.27 230 188.9 170.96 188.9 94.57 291.27 153.61 291.27 230"/><g class="cls-36"><path class="cls-33" d="M504.65,223.8l-61.1-35.24v-2.81a1,1,0,0,1,1.56-.9l58.29,33.62a2.5,2.5,0,0,1,1.25,2.17Z" transform="translate(-141.99 -35.15)"/><path class="cls-37" d="M450.57,190.67a1.11,1.11,0,0,0-.5-.87h0c-.28-.16-.5,0-.51.29a1.11,1.11,0,0,0,.5.87c.28.16.5,0,.51-.29Z" transform="translate(-141.99 -35.15)"/><path class="cls-37" d="M449.05,189.8a1.11,1.11,0,0,0-.5-.87h0c-.28-.16-.51,0-.51.29a1.11,1.11,0,0,0,.5.87c.28.16.5,0,.51-.29Z" transform="translate(-141.99 -35.15)"/><path class="cls-37" d="M447.44,188.85a1.11,1.11,0,0,0-.5-.87h0c-.28-.16-.5,0-.51.29a1.11,1.11,0,0,0,.5.87c.28.16.5,0,.51-.29Z" transform="translate(-141.99 -35.15)"/><polygon class="cls-38" points="362.66 234.24 301.56 199 301.56 153.4 362.66 188.65 362.66 234.24"/></g><path class="cls-5" d="M437.16,351.28a16.8,16.8,0,0,1-16.8,0L418.18,350a3.86,3.86,0,0,1-1.78-2.23,3.91,3.91,0,0,0,1.78,4.56l2.18,1.26a16.81,16.81,0,0,0,16.8,0l8.06-4.65-2-1.17Z" transform="translate(-141.99 -35.15)"/><path class="cls-34" d="M418.18,350l2.18,1.26a16.8,16.8,0,0,0,16.8,0l6-3.49-9.54-5.51h0l-4.51-2.6a28.18,28.18,0,0,0-9.19,4.05,9.25,9.25,0,0,0-3.57,4.06A3.86,3.86,0,0,0,418.18,350Z" transform="translate(-141.99 -35.15)"/><path class="cls-33" d="M429.16,339.68l4.51,2.6c2.92-1.93,6.76-2.72,9.1-3.23A27.92,27.92,0,0,0,429.16,339.68Z" transform="translate(-141.99 -35.15)"/><polygon class="cls-39" points="301.21 312.64 301.21 312.64 303.23 313.8 303.23 313.8 301.21 312.64"/><path class="cls-5" d="M450.09,343a3.11,3.11,0,0,1-1.35,1.56l-5.53,3.19v2.33l5.53-3.19A3.15,3.15,0,0,0,450.09,343Z" transform="translate(-141.99 -35.15)"/><path class="cls-33" d="M450.09,343a3.11,3.11,0,0,0-1.35-1.56h0a16.84,16.84,0,0,0-6-2.42c-2.34.51-6.18,1.3-9.1,3.23l9.54,5.51,5.53-3.19A3.11,3.11,0,0,0,450.09,343Z" transform="translate(-141.99 -35.15)"/><g class="cls-3"><path class="cls-40" d="M398.48,299v4.61c0,2-1.29,3.91-3.86,5.4-5.17,3-13.59,3-18.8,0-2.62-1.51-3.93-3.5-3.92-5.48v-4.61c0,2,1.3,4,3.92,5.48,5.21,3,13.62,3,18.8,0C397.19,302.93,398.48,301,398.48,299Z" transform="translate(-141.99 -35.15)"/><path class="cls-41" d="M394.56,293.54c5.21,3,5.23,7.88.06,10.89s-13.59,3-18.8,0-5.23-7.88-.06-10.89S389.35,290.54,394.56,293.54Z" transform="translate(-141.99 -35.15)"/></g><polygon class="cls-40" points="250.27 259.5 250.27 260.06 249.19 260.69 249.19 260.13 250.27 259.5"/><polygon class="cls-40" points="251.85 263.06 251.85 263.62 248.83 264.26 248.83 263.7 251.85 263.06"/><path class="cls-40" d="M385.75,297v-.56a.68.68,0,0,1,.41-.56,1.65,1.65,0,0,1,1.07-.18,3.44,3.44,0,0,1,1.26.46,6.05,6.05,0,0,1,2.32,2.65v.56a6.05,6.05,0,0,0-2.32-2.65,3.44,3.44,0,0,0-1.26-.46,1.65,1.65,0,0,0-1.07.18A.67.67,0,0,0,385.75,297Z" transform="translate(-141.99 -35.15)"/><path class="cls-40" d="M384.74,300.19v.53a1.26,1.26,0,0,0-.29-.69,11.75,11.75,0,0,0-.85-.95,10.8,10.8,0,0,1-1.23-1.44,1.69,1.69,0,0,1-.31-1v-.56a1.69,1.69,0,0,0,.31,1,10.81,10.81,0,0,0,1.23,1.44,11.75,11.75,0,0,1,.85.95,1.26,1.26,0,0,1,.29.69Z" transform="translate(-141.99 -35.15)"/><path class="cls-40" d="M378.52,301v.56a7,7,0,0,1-1.27-1.21,4.12,4.12,0,0,1-1-2v-.56a4.12,4.12,0,0,0,1,2A7,7,0,0,0,378.52,301Z" transform="translate(-141.99 -35.15)"/><polygon class="cls-40" points="236.8 267.33 236.8 267.89 235.43 267.09 235.43 266.54 236.8 267.33"/><polygon class="cls-40" points="237.86 266.71 237.86 267.27 236.8 267.89 236.8 267.33 237.86 266.71"/><path class="cls-40" d="M388.39,300.53v.56a1.74,1.74,0,0,1,0,.34,2.25,2.25,0,0,1-1.22,1.32,5.67,5.67,0,0,1-2.38.73,8.19,8.19,0,0,1-2.7-.22,9.92,9.92,0,0,1-2.2-.83v-.56a9.92,9.92,0,0,0,2.2.83,8.2,8.2,0,0,0,2.7.22,5.67,5.67,0,0,0,2.38-.73,2.25,2.25,0,0,0,1.22-1.32A1.74,1.74,0,0,0,388.39,300.53Z" transform="translate(-141.99 -35.15)"/><path class="cls-42" d="M392.26,294.65l-1.08.63a7.92,7.92,0,0,1,1.58,1.28,5.07,5.07,0,0,1,1.08,1.64l-3,.64a6.05,6.05,0,0,0-2.32-2.65,3.44,3.44,0,0,0-1.26-.46,1.65,1.65,0,0,0-1.07.18q-.58.34-.34.83a6.13,6.13,0,0,0,1,1.34,11,11,0,0,1,1.22,1.47,1.69,1.69,0,0,1,.27,1.3,2.25,2.25,0,0,1-1.22,1.32,5.67,5.67,0,0,1-2.38.73,8.2,8.2,0,0,1-2.7-.22,9.92,9.92,0,0,1-2.2-.83l-1.06.61-1.38-.79,1.11-.64a7,7,0,0,1-1.27-1.21,4.12,4.12,0,0,1-1-2l3-.6A3.71,3.71,0,0,0,380,299a4.82,4.82,0,0,0,1.54,1.42,4,4,0,0,0,1.49.53,2,2,0,0,0,1.25-.22q.43-.25.41-.58a1.26,1.26,0,0,0-.29-.69,11.75,11.75,0,0,0-.85-.95,10.81,10.81,0,0,1-1.23-1.44,1.67,1.67,0,0,1-.28-1.28c.08-.45.48-.88,1.19-1.3a5.51,5.51,0,0,1,2.28-.7,8.06,8.06,0,0,1,2.65.2,9.55,9.55,0,0,1,1.55.51l1.14-.66Z" transform="translate(-141.99 -35.15)"/><g class="cls-3"><path class="cls-40" d="M398.56,292.86v4.61c0,2-1.29,3.91-3.86,5.4-5.17,3-13.59,3-18.8,0-2.62-1.51-3.93-3.5-3.92-5.48v-4.61c0,2,1.3,4,3.92,5.48,5.21,3,13.62,3,18.8,0C397.26,296.77,398.55,294.82,398.56,292.86Z" transform="translate(-141.99 -35.15)"/><path class="cls-41" d="M394.63,287.38c5.21,3,5.23,7.88.06,10.89s-13.59,3-18.8,0-5.23-7.88-.06-10.89S389.43,284.37,394.63,287.38Z" transform="translate(-141.99 -35.15)"/></g><polygon class="cls-40" points="250.35 253.34 250.35 253.9 249.27 254.52 249.27 253.97 250.35 253.34"/><polygon class="cls-40" points="251.93 256.89 251.93 257.45 248.9 258.09 248.9 257.53 251.93 256.89"/><path class="cls-40" d="M385.82,290.87v-.56a.68.68,0,0,1,.41-.56,1.65,1.65,0,0,1,1.07-.18,3.44,3.44,0,0,1,1.26.46,6,6,0,0,1,2.32,2.65v.56a6.05,6.05,0,0,0-2.32-2.65,3.45,3.45,0,0,0-1.26-.46,1.65,1.65,0,0,0-1.07.18A.67.67,0,0,0,385.82,290.87Z" transform="translate(-141.99 -35.15)"/><path class="cls-40" d="M384.81,294v.56s0,0,0,0a1.26,1.26,0,0,0-.29-.69,11.75,11.75,0,0,0-.85-.95,10.8,10.8,0,0,1-1.23-1.44,1.69,1.69,0,0,1-.31-1v-.56a1.69,1.69,0,0,0,.31,1,10.8,10.8,0,0,0,1.23,1.44,11.74,11.74,0,0,1,.85.95,1.26,1.26,0,0,1,.29.69Z" transform="translate(-141.99 -35.15)"/><path class="cls-40" d="M378.6,294.88v.56a7,7,0,0,1-1.27-1.21,4.12,4.12,0,0,1-1-2v-.56a4.12,4.12,0,0,0,1,2A7,7,0,0,0,378.6,294.88Z" transform="translate(-141.99 -35.15)"/><polygon class="cls-40" points="236.88 261.17 236.88 261.72 235.5 260.93 235.5 260.37 236.88 261.17"/><polygon class="cls-40" points="237.94 260.55 237.94 261.11 236.88 261.72 236.88 261.17 237.94 260.55"/><path class="cls-40" d="M388.46,294.37v.56a1.73,1.73,0,0,1,0,.34,2.25,2.25,0,0,1-1.22,1.32,5.67,5.67,0,0,1-2.38.73,8.19,8.19,0,0,1-2.7-.22,9.92,9.92,0,0,1-2.2-.83v-.56a9.91,9.91,0,0,0,2.2.83,8.2,8.2,0,0,0,2.7.22,5.67,5.67,0,0,0,2.38-.73,2.25,2.25,0,0,0,1.22-1.32A1.74,1.74,0,0,0,388.46,294.37Z" transform="translate(-141.99 -35.15)"/><path class="cls-42" d="M392.34,288.49l-1.08.63a7.92,7.92,0,0,1,1.58,1.28,5.06,5.06,0,0,1,1.08,1.64l-3,.64a6,6,0,0,0-2.32-2.65,3.44,3.44,0,0,0-1.26-.46,1.65,1.65,0,0,0-1.07.18q-.58.34-.34.83a6.13,6.13,0,0,0,1,1.34,11,11,0,0,1,1.21,1.47,1.68,1.68,0,0,1,.27,1.3A2.25,2.25,0,0,1,387.2,296a5.67,5.67,0,0,1-2.38.73,8.2,8.2,0,0,1-2.7-.22,9.91,9.91,0,0,1-2.2-.83l-1.06.61-1.38-.79,1.11-.64a7,7,0,0,1-1.27-1.21,4.12,4.12,0,0,1-1-2l3-.6a3.71,3.71,0,0,0,.72,1.82,4.82,4.82,0,0,0,1.54,1.42,4,4,0,0,0,1.49.53,2,2,0,0,0,1.25-.22q.43-.25.41-.58a1.26,1.26,0,0,0-.29-.69,11.74,11.74,0,0,0-.85-.95,10.8,10.8,0,0,1-1.23-1.44,1.67,1.67,0,0,1-.28-1.28c.08-.45.48-.88,1.19-1.3a5.51,5.51,0,0,1,2.28-.7,8.06,8.06,0,0,1,2.65.2,9.55,9.55,0,0,1,1.55.51l1.14-.66Z" transform="translate(-141.99 -35.15)"/><g class="cls-3"><path class="cls-40" d="M398.63,287v4.61c0,2-1.29,3.91-3.86,5.41-5.17,3-13.59,3-18.8,0-2.62-1.51-3.93-3.5-3.92-5.48v-4.61c0,2,1.3,4,3.92,5.48,5.21,3,13.62,3,18.8,0C397.34,290.92,398.63,289,398.63,287Z" transform="translate(-141.99 -35.15)"/><path class="cls-41" d="M394.71,281.52c5.21,3,5.23,7.88.06,10.89s-13.59,3-18.8,0-5.23-7.88-.06-10.89S389.5,278.52,394.71,281.52Z" transform="translate(-141.99 -35.15)"/></g><polygon class="cls-40" points="250.42 247.49 250.42 248.04 249.34 248.67 249.34 248.11 250.42 247.49"/><polygon class="cls-40" points="252 251.04 252 251.6 248.98 252.24 248.98 251.68 252 251.04"/><path class="cls-40" d="M385.9,285v-.56a.67.67,0,0,1,.41-.56,1.65,1.65,0,0,1,1.07-.18,3.44,3.44,0,0,1,1.26.46,6.05,6.05,0,0,1,2.32,2.65v.56a6.05,6.05,0,0,0-2.32-2.65,3.44,3.44,0,0,0-1.26-.46,1.65,1.65,0,0,0-1.07.18A.67.67,0,0,0,385.9,285Z" transform="translate(-141.99 -35.15)"/><path class="cls-40" d="M384.89,288.17v.53a1.26,1.26,0,0,0-.29-.69,11.77,11.77,0,0,0-.85-.95,10.79,10.79,0,0,1-1.23-1.44,1.69,1.69,0,0,1-.31-1v-.56a1.69,1.69,0,0,0,.31,1,10.8,10.8,0,0,0,1.23,1.44,11.75,11.75,0,0,1,.85.95,1.26,1.26,0,0,1,.29.69S384.89,288.16,384.89,288.17Z" transform="translate(-141.99 -35.15)"/><path class="cls-40" d="M378.67,289v.56a7,7,0,0,1-1.27-1.21,4.12,4.12,0,0,1-1-2v-.56a4.12,4.12,0,0,0,1,2A7,7,0,0,0,378.67,289Z" transform="translate(-141.99 -35.15)"/><polygon class="cls-40" points="236.95 255.31 236.95 255.87 235.58 255.07 235.58 254.52 236.95 255.31"/><polygon class="cls-40" points="238.01 254.7 238.01 255.25 236.95 255.87 236.95 255.31 238.01 254.7"/><path class="cls-40" d="M388.54,288.51v.56a1.74,1.74,0,0,1,0,.34,2.25,2.25,0,0,1-1.22,1.32,5.67,5.67,0,0,1-2.38.73,8.2,8.2,0,0,1-2.7-.22,9.92,9.92,0,0,1-2.2-.83v-.56a9.92,9.92,0,0,0,2.2.83,8.19,8.19,0,0,0,2.7.22,5.67,5.67,0,0,0,2.38-.73,2.25,2.25,0,0,0,1.22-1.32A1.73,1.73,0,0,0,388.54,288.51Z" transform="translate(-141.99 -35.15)"/><path class="cls-34" d="M392.41,282.64l-1.08.63a7.91,7.91,0,0,1,1.58,1.28,5.06,5.06,0,0,1,1.08,1.64l-3,.64a6.05,6.05,0,0,0-2.32-2.65,3.44,3.44,0,0,0-1.26-.46,1.65,1.65,0,0,0-1.07.18q-.58.34-.34.83a6.13,6.13,0,0,0,1,1.34,11,11,0,0,1,1.21,1.47,1.68,1.68,0,0,1,.27,1.3,2.25,2.25,0,0,1-1.22,1.32,5.67,5.67,0,0,1-2.38.73,8.19,8.19,0,0,1-2.7-.22,9.92,9.92,0,0,1-2.2-.83l-1.06.61-1.38-.79,1.11-.64a7,7,0,0,1-1.27-1.21,4.12,4.12,0,0,1-1-2l3-.6a3.71,3.71,0,0,0,.72,1.82,4.82,4.82,0,0,0,1.54,1.42,4,4,0,0,0,1.49.53,2,2,0,0,0,1.25-.22q.43-.25.41-.58a1.26,1.26,0,0,0-.29-.69,11.75,11.75,0,0,0-.85-.95,10.8,10.8,0,0,1-1.23-1.44,1.67,1.67,0,0,1-.28-1.28c.08-.45.48-.88,1.19-1.3a5.51,5.51,0,0,1,2.28-.7,8.05,8.05,0,0,1,2.65.2,9.55,9.55,0,0,1,1.55.51l1.14-.66Z" transform="translate(-141.99 -35.15)"/><g class="cls-43"><path class="cls-33" d="M314.08,113.44,249.25,76.05v-3a1.11,1.11,0,0,1,1.66-1l61.84,35.67a2.66,2.66,0,0,1,1.33,2.3Z" transform="translate(-141.99 -35.15)"/><path class="cls-34" d="M256.7,78.29a1.18,1.18,0,0,0-.53-.92h0c-.3-.17-.54,0-.54.31a1.18,1.18,0,0,0,.53.92c.3.17.54,0,.54-.31Z" transform="translate(-141.99 -35.15)"/><path class="cls-34" d="M255.09,77.37a1.18,1.18,0,0,0-.53-.92h0c-.3-.17-.54,0-.54.31a1.18,1.18,0,0,0,.53.92c.3.17.54,0,.54-.31Z" transform="translate(-141.99 -35.15)"/><path class="cls-34" d="M253.38,76.36a1.18,1.18,0,0,0-.53-.92h0c-.3-.17-.54,0-.54.31a1.18,1.18,0,0,0,.53.92c.3.17.54,0,.54-.31Z" transform="translate(-141.99 -35.15)"/><polygon class="cls-44" points="172.09 126.66 107.26 89.27 107.26 40.9 172.09 78.29 172.09 126.66"/><polygon class="cls-34" points="145.29 73.68 113.1 55.1 113.1 53.65 145.29 72.24 145.29 73.68"/><polygon class="cls-34" points="153.58 85.47 121.39 66.89 121.39 65.44 153.58 84.02 153.58 85.47"/><polygon class="cls-34" points="122.36 75.01 113.1 69.66 113.1 68.21 122.36 73.56 122.36 75.01"/><polygon class="cls-34" points="145.29 88.25 123.55 75.69 123.55 74.25 145.29 86.8 145.29 88.25"/><polygon class="cls-34" points="127.31 67.09 113.1 58.88 113.1 57.43 127.31 65.64 127.31 67.09"/><polygon class="cls-34" points="143.06 76.18 128.84 67.97 128.84 66.52 143.06 74.73 143.06 76.18"/><polygon class="cls-34" points="119.79 65.96 113.1 62.1 113.1 60.65 119.79 64.51 119.79 65.96"/><polygon class="cls-34" points="140.83 81.81 134.14 77.95 134.14 76.5 140.83 80.36 140.83 81.81"/><polygon class="cls-34" points="153.58 89.17 142.36 82.7 142.36 81.25 153.58 87.72 153.58 89.17"/><polygon class="cls-34" points="153.58 78.47 146.48 74.37 146.48 72.92 153.58 77.02 153.58 78.47"/><polygon class="cls-34" points="132.82 77.18 113.1 65.8 113.1 64.35 132.82 75.74 132.82 77.18"/></g><g class="cls-43"><path class="cls-33" d="M324.5,155.63l-64.83-37.39v-3a1.11,1.11,0,0,1,1.66-1L323.17,150a2.66,2.66,0,0,1,1.33,2.3Z" transform="translate(-141.99 -35.15)"/><path class="cls-34" d="M267.13,120.49a1.18,1.18,0,0,0-.53-.92h0c-.3-.17-.54,0-.54.31a1.18,1.18,0,0,0,.53.92c.3.17.54,0,.54-.31Z" transform="translate(-141.99 -35.15)"/><path class="cls-34" d="M265.51,119.56a1.18,1.18,0,0,0-.53-.92h0c-.3-.17-.54,0-.54.31a1.18,1.18,0,0,0,.53.92c.3.17.54,0,.54-.31Z" transform="translate(-141.99 -35.15)"/><path class="cls-34" d="M263.8,118.55a1.18,1.18,0,0,0-.53-.92h0c-.3-.17-.54,0-.54.31a1.18,1.18,0,0,0,.53.92c.3.17.54,0,.54-.31Z" transform="translate(-141.99 -35.15)"/><polygon class="cls-45" points="182.51 168.85 117.68 131.46 117.68 83.09 182.51 120.48 182.51 168.85"/><polygon class="cls-34" points="155.72 115.88 123.52 97.29 123.52 95.84 155.72 114.43 155.72 115.88"/><polygon class="cls-34" points="164.01 127.67 131.81 109.08 131.81 107.63 164.01 126.22 164.01 127.67"/><polygon class="cls-34" points="132.79 117.2 123.52 111.85 123.52 110.41 132.79 115.76 132.79 117.2"/><polygon class="cls-34" points="155.72 130.44 133.97 117.89 133.97 116.44 155.72 128.99 155.72 130.44"/><polygon class="cls-34" points="137.74 109.28 123.52 101.07 123.52 99.62 137.74 107.83 137.74 109.28"/><polygon class="cls-34" points="153.49 118.37 139.27 110.16 139.27 108.72 153.49 116.92 153.49 118.37"/><polygon class="cls-34" points="130.21 108.15 123.52 104.29 123.52 102.84 130.21 106.7 130.21 108.15"/><polygon class="cls-34" points="151.25 124 144.56 120.14 144.56 118.69 151.25 122.56 151.25 124"/><polygon class="cls-34" points="164.01 131.37 152.79 124.89 152.79 123.44 164.01 129.92 164.01 131.37"/><polygon class="cls-34" points="164.01 120.66 156.9 116.56 156.9 115.11 164.01 119.22 164.01 120.66"/><polygon class="cls-34" points="143.24 119.38 123.52 107.99 123.52 106.54 143.24 117.93 143.24 119.38"/></g><g class="cls-46"><path class="cls-33" d="M481.21,251.69,416.39,214.3v-3a1.11,1.11,0,0,1,1.66-1L479.88,246a2.66,2.66,0,0,1,1.33,2.3Z" transform="translate(-141.99 -35.15)"/><path class="cls-34" d="M423.84,216.54a1.18,1.18,0,0,0-.53-.92h0c-.3-.17-.54,0-.54.31a1.18,1.18,0,0,0,.53.92c.3.17.54,0,.54-.31Z" transform="translate(-141.99 -35.15)"/><path class="cls-34" d="M422.22,215.62a1.18,1.18,0,0,0-.53-.92h0c-.3-.17-.54,0-.54.31a1.18,1.18,0,0,0,.53.92c.3.17.54,0,.54-.31Z" transform="translate(-141.99 -35.15)"/><path class="cls-34" d="M420.51,214.61a1.18,1.18,0,0,0-.53-.92h0c-.3-.17-.54,0-.54.31a1.18,1.18,0,0,0,.53.92c.3.17.54,0,.54-.31Z" transform="translate(-141.99 -35.15)"/><polygon class="cls-47" points="339.23 264.91 274.4 227.52 274.4 179.15 339.23 216.53 339.23 264.91"/><polygon class="cls-34" points="312.43 211.93 280.24 193.34 280.24 191.9 312.43 210.48 312.43 211.93"/><polygon class="cls-34" points="320.72 223.72 288.53 205.13 288.53 203.68 320.72 222.27 320.72 223.72"/><polygon class="cls-34" points="289.5 213.26 280.24 207.91 280.24 206.46 289.5 211.81 289.5 213.26"/><polygon class="cls-34" points="312.43 226.5 290.69 213.94 290.69 212.5 312.43 225.05 312.43 226.5"/><polygon class="cls-34" points="294.45 205.33 280.24 197.13 280.24 195.68 294.45 203.88 294.45 205.33"/><polygon class="cls-34" points="310.2 214.43 295.98 206.22 295.98 204.77 310.2 212.98 310.2 214.43"/><polygon class="cls-34" points="286.93 204.21 280.24 200.34 280.24 198.9 286.93 202.76 286.93 204.21"/><polygon class="cls-34" points="307.97 220.06 301.28 216.2 301.28 214.75 307.97 218.61 307.97 220.06"/><polygon class="cls-34" points="320.72 227.42 309.5 220.94 309.5 219.5 320.72 225.97 320.72 227.42"/><polygon class="cls-34" points="320.72 216.72 313.61 212.62 313.61 211.17 320.72 215.27 320.72 216.72"/><polygon class="cls-34" points="299.96 215.43 280.24 204.05 280.24 202.6 299.96 213.98 299.96 215.43"/></g><path class="cls-48" d="M339.52,196.52v.08c0-7.43,1.28-14.06,3.87-19.36,2.1-4.31,5-7.65,8.73-5.47,8.14,4.82,6.32,15.89,15,20.89,8.31,4.8,5.67-14.14,15.53-8.45,9.39,5.42,6.66,27.71,15.91,33.05,8,4.63,6.56-9.76,13.1-6,3.27,1.87,5.48,8,6.88,13.68a65.43,65.43,0,0,1,2,15.56v2.79Z" transform="translate(-141.99 -35.15)"/><polygon class="cls-41" points="269.42 204.89 269.68 205.05 269.68 162.16 269.42 162 269.42 204.89"/><polygon class="cls-41" points="253.74 195.84 254.01 196 254.01 153.1 253.74 152.95 253.74 195.84"/><polygon class="cls-41" points="237.95 186.72 238.21 186.88 238.21 143.99 237.95 143.83 237.95 186.72"/><polygon class="cls-41" points="222.16 177.61 222.42 177.76 222.42 134.87 222.16 134.72 222.16 177.61"/><polygon class="cls-41" points="206.36 168.49 206.63 168.64 206.63 125.75 206.36 125.6 206.36 168.49"/><path class="cls-41" d="M388,197.18a16.86,16.86,0,0,0,11.76,2.47,16.82,16.82,0,0,1,10.89,1.95c5.22,2.72,9.67,10.06,9.71,10.14l.19-.13c0-.08-4.58-7.56-9.92-10.35a17,17,0,0,0-11-2c-3.55.34-6.9.65-13-3.26S377,184.1,373.81,177c-2.87-6.33-5.57-12.31-9.47-14.23-3.09-1.52-5.16.35-7.35,2.33s-4.69,4.24-8.44,2.46a19.75,19.75,0,0,1-8.9-9.18l-.24,0a20.65,20.65,0,0,0,8,8.86q.57.33,1.19.62c3.87,1.84,6.29-.35,8.64-2.47,2.15-1.94,4.19-3.78,7.15-2.32,3.74,1.84,6.28,7.45,9.22,14,3.25,7.19,6.94,15.34,13.09,19.3Q387.38,196.8,388,197.18Z" transform="translate(-141.99 -35.15)"/><path class="cls-41" d="M366,163.83a3.55,3.55,0,0,0-1.6-2.78c-.89-.51-1.6-.1-1.6.93a3.55,3.55,0,0,0,1.6,2.78C365.23,165.27,366,164.85,366,163.83Z" transform="translate(-141.99 -35.15)"/></g></g></svg>